<svg viewBox="0 0 168 168" xmlns="http://www.w3.org/2000/svg">
<g clip-path="url(#clip0_1218_2100)">
<path d="M44.0241 93.2798C44.6765 92.6921 45.3289 92.1045 45.9859 91.5215C48.1606 89.5967 49.5858 87.2415 50.5297 84.4838C52.7044 78.1077 53.8149 71.5882 53.6159 64.8467C53.5604 62.9727 53.366 61.1034 53.3244 59.2387C53.2041 53.9685 53.1486 48.6844 53.9398 43.4466C54.1989 41.73 54.8791 40.1291 55.55 38.468C55.3742 38.468 55.2585 38.4448 55.1567 38.468C53.0607 38.9677 51.3996 38.1394 50.0624 36.6403C47.9941 34.3221 46.8512 31.6755 47.8136 28.5152C48.318 26.8541 49.4979 25.5817 50.5528 24.2445C52.7784 21.422 55.5037 19.3537 59.048 18.4884C60.2141 18.2016 61.3939 18.0813 62.5923 18.1646C64.5126 18.2941 65.9469 19.2612 67.0944 20.7418C68.7602 22.8887 69.7087 25.3041 69.8707 28.0201C69.8984 28.4736 69.8892 28.8252 70.5231 28.5615C73.5492 27.2937 76.714 26.7662 79.9807 26.7338C82.7014 26.7061 85.4453 26.4747 88.1012 27.2659C90.3545 27.9368 92.5848 28.6957 94.815 29.4453C95.5322 29.6859 96.2216 29.7877 96.9804 29.6396C98.1511 29.4129 99.3448 29.2972 100.534 29.4962C100.997 29.5702 101.196 29.4406 101.274 28.9594C101.543 27.2937 102.389 25.9426 103.662 24.8552C104.166 24.4249 104.597 23.9576 104.865 23.3422C106.396 19.8766 112.361 18.9188 115.026 21.8245C115.859 22.7314 116.835 23.4394 117.83 24.1473C120.675 26.1693 122.188 30.0421 121.407 33.2024C120.805 35.6362 119.218 37.1539 116.817 37.7138C115.905 37.9266 115.706 38.3847 115.836 39.1435C116.081 40.5686 116.363 41.9845 116.636 43.405C117.756 49.2536 118.815 55.116 120.018 60.9507C120.685 64.1711 121.638 67.3267 122.161 70.5796C122.424 72.236 122.591 73.8971 122.73 75.5675C122.841 77.9134 123.988 79.9447 124.724 82.0962C125.566 84.5532 126.418 87.0148 127.426 89.4023C128.902 92.9004 129.883 96.5465 130.975 100.16C131.66 102.418 132.044 104.759 132.465 107.087C132.937 109.692 133.164 112.329 133.733 114.92C134.094 116.563 134.205 118.261 134.325 119.95C134.506 122.541 134.631 125.137 134.954 127.719C135.121 129.033 135.135 130.37 135.209 131.693C135.325 133.692 135.922 135.617 136.338 137.57C136.505 138.125 136.537 138.708 136.694 139.263C137.43 142.872 137.809 146.537 138.388 150.169C138.86 153.482 139.563 156.753 140.229 160.034C141.122 164.406 141.826 168.821 141.613 173.29C141.469 176.261 141.34 179.218 141.451 182.188C141.506 183.701 141.409 183.673 142.807 183.104C146.106 181.758 149.386 181.628 152.519 183.539C154.467 184.728 155.559 186.556 155.966 188.782C156.225 190.202 156.521 191.623 156.614 193.066C156.526 193.455 156.16 193.543 155.892 193.737C155.198 194.237 155.077 194.538 155.415 195.306C155.656 195.847 155.508 196.106 154.952 196.208C154.564 196.277 154.166 196.319 153.786 196.439C152.852 196.736 152.681 197.499 153.398 198.184C153.625 198.401 153.907 198.545 154.134 198.758C154.254 198.869 154.439 198.98 154.374 199.165C154.291 199.405 154.055 199.373 153.865 199.336C152.787 199.105 151.681 199.003 150.64 198.623C150.187 198.457 149.71 198.383 149.257 198.212C148.762 198.026 148.368 198.193 148.063 198.596C147.757 198.994 147.831 199.405 148.077 199.785C148.479 200.409 149.076 200.863 149.585 201.395C149.77 201.589 150.108 201.784 149.946 202.084C149.789 202.381 149.414 202.256 149.164 202.177C147.785 201.733 146.365 201.848 144.953 201.839C144.727 201.839 144.5 201.83 144.278 201.895C143.986 201.978 143.76 202.14 143.69 202.45C143.626 202.741 143.815 202.922 144.014 203.093C144.685 203.667 145.49 204.042 146.198 204.555C146.485 204.763 146.869 204.879 147.017 205.259C145.8 205.522 144.625 205.962 143.366 206.027C139.924 206.198 137.138 204.842 134.806 202.404C134.034 201.599 134.029 201.599 133.242 202.385C130.813 204.814 128.366 207.197 125.238 208.775C121.809 210.506 118.112 211.195 114.397 211.824C110.496 212.481 106.558 212.662 102.612 212.671C99.9649 212.676 97.3737 213.286 94.7363 213.407C90.6275 213.592 86.5326 214.031 82.4145 214.045C78.1531 214.064 73.9425 214.73 69.7041 215.063C64.4756 215.475 59.2285 215.332 54.0185 214.383C51.3302 213.893 48.7483 213.05 46.1109 212.407C43.4688 211.764 41.6041 210.112 40.5445 207.581C39.0593 204.032 38.4948 200.294 38.2681 196.486C39.5729 196.486 40.0865 196.092 40.6371 194.704C41.0489 193.668 41.1692 192.562 41.3913 191.484C41.9882 188.541 42.5295 185.594 44.0565 182.933C45.0559 181.193 46.3561 179.791 48.045 178.713C48.901 178.167 49.8125 178.102 50.7472 178.301C51.9548 178.561 53.1023 179.07 54.0323 179.852C55.1289 180.777 56.096 181.855 57.0399 182.965C58.8491 185.099 60.6675 187.292 63.6381 187.916C65.3454 188.277 66.9973 188.092 68.663 187.606C70.449 187.084 71.9575 186.107 73.4057 184.997C75.6915 183.248 77.6487 181.179 79.5227 178.995C80.6609 177.663 81.8639 176.372 83.0114 175.044C84.6031 173.193 86.3244 171.467 87.9161 169.617C92.0897 164.758 97.0313 161.033 103.389 159.479C105.013 159.081 106.669 158.951 108.326 158.771C109.862 158.604 111.417 158.442 112.902 157.961C113.666 157.711 113.73 157.285 113.138 156.73C112.814 156.429 112.435 156.249 111.995 156.217C111.514 156.18 111.042 156.032 110.57 155.99C108.599 155.809 106.642 155.277 104.657 155.55C102.385 155.865 100.159 156.392 98.04 157.332C96.3789 158.063 94.6438 158.613 93.0475 159.497C92.8716 159.594 92.6773 159.641 92.4737 159.604C92.1406 159.257 91.7796 158.937 91.3632 158.683C91.5853 157.993 92.2655 158.026 92.7606 157.91C95.8885 157.174 98.6092 155.601 101.191 153.783C104.421 151.506 107.428 148.948 110.015 145.954C112.712 142.835 115.849 140.147 118.561 137.056C119.944 135.478 121.481 134.044 122.739 132.35C123.313 131.578 123.697 130.745 124.025 129.875C124.257 129.26 124.044 128.991 123.345 128.954C122.286 128.899 121.328 129.278 120.458 129.819C116.761 132.119 113.328 134.743 110.292 137.889C108.224 140.031 106.221 142.243 104.069 144.297C100.826 147.393 97.4108 150.336 93.1215 151.946C91.2475 152.649 89.3042 153.181 87.3099 153.51C86.1717 153.7 85.0427 153.996 83.9183 154.273C82.1323 154.713 80.3231 154.99 78.4955 155.222C77.3572 155.365 76.1819 155.407 75.0668 155.749C74.7059 155.86 74.3404 155.856 73.9702 155.86C71.6197 155.893 69.2645 155.735 66.9232 156.17C65.785 156.383 64.6884 155.888 63.5686 155.745C62.8144 155.648 62.0649 155.49 61.3014 155.518C59.6634 155.578 58.3216 154.699 56.8872 154.116C56.4384 153.936 56.5124 153.612 56.8086 153.311C57.0307 153.084 57.3314 152.973 57.572 152.774C58.0347 152.385 58.3031 151.904 58.1967 151.28C58.0902 150.66 57.7016 150.262 57.1047 150.1C55.6102 149.688 54.1064 149.521 52.5748 149.947C52.0936 150.081 51.3903 150.294 51.2006 149.748C51.0016 149.16 51.7558 149.105 52.1676 148.929C53.0653 148.55 53.4123 148.105 53.3244 147.37C53.2411 146.671 52.5332 146.056 51.7188 145.977C50.6454 145.875 50.4742 145.625 50.8027 144.631C50.8952 144.358 50.9415 144.085 50.9878 143.802C51.0942 143.164 51.4597 142.752 52.052 142.474C53.3522 141.873 53.4678 141.567 52.9172 140.263C52.7507 139.869 52.8016 139.545 53.0329 139.226C54.5968 137.038 56.2256 134.928 58.3309 133.179C60.686 131.221 63.3651 129.801 65.9516 128.228C67.5942 127.228 69.4357 126.571 71.0552 125.512C73.4011 123.975 75.8118 122.541 77.7783 120.487C79.2497 118.951 80.772 117.461 82.2341 115.915C83.4741 114.601 84.1959 112.94 85.1075 111.408C86.1671 109.632 87.2452 107.869 88.0549 105.949C88.7813 104.223 89.2672 102.409 90.0399 100.702C90.1093 100.544 90.1139 100.373 89.9797 100.169C89.3782 100.415 88.9896 100.9 88.6472 101.4C86.9444 103.876 85.2602 106.37 83.6638 108.905C81.0958 112.982 77.8754 116.48 74.3126 119.645C72.1564 121.56 69.6624 123.129 66.9232 124.119C64.929 124.841 63.0921 125.822 61.2875 126.886C60.0938 127.594 58.8259 128.181 57.7016 129.01C57.2805 129.32 56.8548 129.542 56.3135 129.412C55.6102 127.982 55.277 126.419 54.7171 124.943C53.7917 122.504 52.8802 120.056 52.1584 117.549C51.6263 115.702 51.0525 113.861 50.5945 111.991C50.2891 110.751 49.7894 109.576 49.4932 108.332C49.1647 106.953 48.9195 105.56 48.6048 104.181C48.2162 102.474 47.9247 100.739 47.3926 99.0682C47.1658 98.3602 47.1936 97.6199 46.9761 96.9027C46.5643 95.5655 45.7777 94.617 44.5469 93.9877C44.2739 93.8489 43.8482 93.7749 44.0148 93.2798H44.0241Z" fill="#0E4AF3"/>
<path d="M91.3365 158.605C91.8733 158.716 92.2804 159.012 92.5627 159.479C92.5534 159.748 92.3591 159.868 92.1648 159.988C90.6101 160.932 89.1896 162.057 87.7506 163.158C87.436 163.398 87.1352 163.676 86.6817 163.56C85.8813 162.991 85.0669 162.94 84.2109 163.44C83.9657 163.584 83.6881 163.699 83.4058 163.695C81.5596 163.648 79.7412 164.028 77.9089 164.051C72.176 164.125 66.4477 164.06 60.7149 164.097C59.7062 164.102 58.7761 163.639 57.7721 163.741C55.2179 163.995 52.6407 163.94 50.1004 164.375C49.7904 164.426 49.4804 164.416 49.1658 164.416C47.4353 164.416 45.6909 164.278 43.9789 164.453C42.1003 164.648 40.2125 164.777 38.3385 164.972C36.5756 165.157 34.8035 165.356 33.0267 165.49C30.6392 165.675 28.2238 165.587 25.8641 166.078C25.1469 166.101 24.4112 165.994 23.7495 166.346C24.5037 166.762 25.3458 166.624 26.1833 166.605C28.6079 166.984 31.0648 166.873 33.4987 167.179C35.331 167.405 37.2188 167.489 39.0604 167.045C39.1159 167.031 39.1714 167.008 39.2269 167.008C42.1327 166.92 45.0431 166.832 47.9489 167.049C48.2866 167.207 48.2404 167.512 48.1987 167.785C48.0183 169.02 47.9072 170.26 47.7499 171.5C47.6527 172.282 47.2317 172.648 46.5006 172.768C45.6446 172.907 44.9228 172.653 44.5758 172.023C44.1408 171.227 43.8725 170.344 43.3218 169.613C43.0303 169.224 42.8314 168.497 42.2623 168.678C41.633 168.877 41.9384 169.603 41.9106 170.112C41.869 170.765 42.452 171.403 41.9615 172.074C41.5404 172.296 41.0639 172.315 40.6474 172.176C39.9395 171.94 39.213 171.926 38.4959 171.824C37.9637 171.602 37.4039 171.524 36.8301 171.551C35.6502 171.658 34.5397 171.246 33.4061 171.033C32.9897 170.954 32.5686 170.89 32.1522 170.806C31.1944 170.547 30.1903 170.783 29.2233 170.543C28.4598 170.353 27.6871 170.2 26.9746 169.858C26.0121 169.395 25.1006 168.891 24.3001 168.132C23.3979 167.276 22.0884 167.22 20.9687 166.772C20.5291 166.596 20.0571 166.489 19.6638 166.202C17.9704 165.601 16.1797 165.254 14.5556 164.477C12.8529 163.662 11.0113 163.237 9.30855 162.441C7.777 161.723 6.31023 159.604 7.18474 157.841C7.41609 157.374 7.17549 157.147 6.69427 156.999C5.58842 156.671 5.04243 155.921 5.18124 154.797C5.2599 154.158 5.03317 153.853 4.55196 153.501C3.29804 152.594 2.66413 151.294 2.46054 149.781C2.12277 147.241 1.04467 144.951 0.0359793 142.637C-0.597924 142.221 -0.676581 141.489 -0.894052 140.869C-1.24108 139.865 -1.94439 138.968 -1.84259 137.825C-1.54184 137.399 -1.08376 137.519 -0.676584 137.51C0.225687 137.492 1.14184 137.566 2.01635 137.284C2.57622 137.103 3.25639 136.927 3.31192 136.233C3.36744 135.521 2.70578 135.266 2.15979 135.039C1.26677 134.669 0.29972 134.591 -0.639567 134.401C-1.56497 134.216 -2.55979 134.276 -3.38802 133.711C-3.58236 133.249 -3.7443 132.777 -3.98491 132.333C-4.13297 132.055 -4.23477 131.768 -4.08208 131.458C-3.31862 130.838 -2.34694 130.81 -1.45855 130.565C-0.255522 130.232 0.952132 129.931 2.12277 129.492C2.71503 129.269 3.26565 128.983 3.64506 128.451C4.08001 127.835 3.95045 127.238 3.29804 126.877C2.72429 126.563 2.11352 126.544 1.47961 126.655C-0.435977 126.988 -2.23589 127.655 -3.98491 128.492C-4.43373 128.705 -4.93345 129.131 -5.44705 128.566C-5.57661 128.316 -5.58586 128.053 -5.53959 127.78C-5.29899 127.049 -4.61418 126.729 -4.0867 126.285C-3.09189 125.448 -2.05544 124.656 -1.01436 123.874C-0.810766 123.722 -0.607177 123.564 -0.422096 123.393C0.341364 122.681 0.577343 121.959 0.258078 121.297C-0.0473061 120.659 -0.963458 120.238 -1.85647 120.339C-2.80964 120.45 -3.64714 120.844 -4.38746 121.45C-5.0445 121.987 -5.65064 122.583 -6.21976 123.217C-6.44649 123.472 -6.65471 123.87 -7.12204 123.611C-7.51533 122.954 -7.7837 122.255 -7.85773 121.487C-7.64489 120.95 -8.01505 120.492 -8.16312 120.057C-8.94046 117.762 -9.7178 115.472 -10.3239 113.126C-10.7681 111.405 -11.1429 109.665 -11.4437 107.916C-11.7259 106.269 -12.2025 104.677 -12.6004 103.062C-12.9937 101.447 -13.4611 99.8555 -13.8682 98.2453C-14.0903 97.3707 -14.4327 96.5379 -14.5716 95.6356C-14.7289 94.613 -14.6548 93.5997 -14.5623 92.5864C-14.4327 91.115 -13.3546 90.1711 -11.9619 90.5968C-11.0596 90.8744 -10.3101 90.6569 -9.52809 90.4857C-7.02024 89.9351 -4.57254 90.4487 -2.10633 90.7448C0.137775 91.0132 2.30323 91.6795 4.54271 91.9895C9.8129 92.7206 15.1062 93.3036 20.4134 93.572C24.7443 93.7894 29.0937 93.6645 33.4339 93.572C35.331 93.5303 37.2234 93.4887 39.1205 93.5442C40.7492 93.5905 42.3733 93.1509 44.0205 93.2805C44.0575 93.5164 44.2426 93.5534 44.4323 93.6367C46.1767 94.3678 47.1669 95.7559 47.389 97.5605C47.5463 98.856 48.0275 100.05 48.2358 101.322C48.4578 102.696 48.8789 104.034 49.1241 105.403C49.4804 107.411 50.0634 109.359 50.614 111.317C51.0166 112.756 51.4377 114.19 51.8818 115.615C52.5065 117.623 53.0294 119.659 53.8021 121.626C54.6257 123.712 55.2688 125.869 56.0045 127.992C56.1526 128.418 56.3469 128.83 56.5228 129.246C56.6523 129.695 56.3516 129.954 56.0647 130.172C53.4088 132.203 51.4654 134.854 49.5591 137.547C48.8743 138.514 48.5458 138.611 47.389 138.232C46.6857 138.001 45.987 137.769 45.2744 137.58C44.747 137.441 44.1501 137.33 43.7984 137.88C43.4236 138.468 43.5625 139.097 43.9974 139.616C44.622 140.36 45.4271 140.902 46.2137 141.462C46.4914 141.661 46.7875 141.837 46.9032 142.188C47.1715 142.998 46.5885 143.747 45.7233 143.655C43.9187 143.456 42.1234 143.169 40.3559 142.757C39.8793 142.646 39.412 142.577 38.9262 142.591C38.1812 142.609 37.5797 142.91 37.2789 143.595C36.9597 144.312 37.1355 145.001 37.6722 145.557C38.5606 146.473 39.648 147.093 40.8464 147.486C42.1975 147.93 43.5763 148.282 45.0153 148.231C45.7834 148.203 46.2646 148.509 46.4127 149.286C46.4451 149.453 46.5099 149.61 46.5561 149.776C46.9217 151.081 46.7412 151.303 45.3994 151.461C44.1038 151.609 42.8082 151.78 41.5404 152.113C40.615 152.358 40.2125 152.798 40.2032 153.534C40.194 154.297 40.5456 154.746 41.4572 155.024C44.0205 155.806 46.6579 155.856 49.3 155.648C50.0125 155.593 50.6372 155.667 51.2665 156C53.4921 157.184 55.7038 158.406 58.0219 159.415C58.8964 159.794 59.8172 159.928 60.7287 160.123C65.7213 161.191 70.7879 160.937 75.8175 160.78C79.4821 160.664 83.1698 160.298 86.7511 159.304C87.9773 158.961 89.2451 158.776 90.499 158.522C90.7767 158.466 91.0635 158.448 91.3273 158.61L91.3365 158.605Z" fill="#79E828"/>
<path d="M36.4271 194.822C35.5479 194.785 34.8076 194.392 34.1367 193.883C31.9296 192.199 30.4767 189.964 29.4032 187.433C28.2557 184.726 27.5247 181.894 27.0944 179.007C26.6872 176.24 26.4605 173.441 26.9093 170.646C26.9602 170.317 26.9741 169.984 27.0064 169.651C28.464 170.174 29.9492 170.549 31.5178 170.442C31.7075 170.429 31.9157 170.415 32.0777 170.563C31.925 170.831 31.652 170.84 31.4068 170.836C30.7821 170.826 30.6479 171.183 30.6618 171.71C30.6988 173.047 30.9302 174.362 31.143 175.671C31.6982 179.104 32.892 182.352 34.1876 185.564C34.914 187.363 35.696 189.145 36.6538 190.852C36.6954 188.594 36.4733 186.346 37.0008 184.134C37.334 182.746 37.8013 181.399 38.5046 180.173C39.0876 179.155 39.0182 178.438 38.2501 177.531C36.9684 176.023 36.3808 174.186 36.3253 172.201C36.316 171.798 36.3484 171.377 36.9129 171.349C37.4543 171.257 37.9818 171.224 38.4306 171.632C39.3884 172.418 39.9159 173.552 40.7071 174.473C40.8875 174.685 41.0078 174.954 41.2114 175.153C41.3965 175.342 41.5353 175.68 41.8962 175.44C42.1924 175.241 42.4515 175.005 42.2942 174.598C42.0813 174.038 42.16 173.418 41.8823 172.867C41.7389 172.585 41.7574 172.256 41.9703 171.979C41.961 171.072 41.5862 170.206 41.6325 169.29C41.6556 168.841 41.7019 168.416 42.1924 168.258C42.6412 168.12 42.8216 168.494 43.0576 168.777C43.8118 169.679 44.3162 170.72 44.7141 171.812C45.0519 172.737 45.8338 172.534 46.5001 172.525C47.1572 172.515 47.5088 172.219 47.5505 171.423C47.6245 170.017 47.8975 168.619 48.0826 167.217C48.6424 166.796 49.2532 166.935 49.864 167.046C50.285 167.245 50.3174 167.652 50.4146 168.036C50.6737 169.031 50.7477 170.049 50.8588 171.062C50.9236 171.613 51.1688 171.937 51.7425 172.029C52.2885 172.117 52.668 171.965 52.9502 171.479C53.5795 170.396 54.3429 169.411 55.1758 168.476C55.5182 168.092 55.8837 167.74 56.3002 167.439C56.7814 167.092 57.2996 166.875 57.8826 167.185C58.4703 167.49 58.7294 168.009 58.7386 168.652C58.7479 169.864 58.424 171.007 57.9428 172.108C57.8178 172.395 57.6744 172.673 57.531 172.946C57.4245 173.145 57.3042 173.334 57.1932 173.529C56.8878 174.061 57.295 174.889 57.9058 175C58.1093 175.037 58.2389 174.945 58.3222 174.792C58.66 174.158 59.2615 173.746 59.6779 173.177C60.5061 172.446 61.3992 171.803 62.3384 171.215C62.9215 170.85 63.5554 170.489 64.2263 170.951C64.9064 171.419 64.7167 172.15 64.6566 172.821C64.6427 172.987 64.5687 173.149 64.5085 173.307C63.8654 174.995 63.0001 176.545 61.6213 177.758C61.2557 178.082 61.2418 178.359 61.5102 178.78C62.1256 179.757 62.9215 180.562 63.7682 181.311C64.3327 181.811 64.9944 181.922 65.8134 181.788C67.4745 181.515 68.696 180.515 69.9777 179.59C72.083 178.072 73.8227 176.161 75.5856 174.278C77.9408 172.071 80.1525 169.721 82.4336 167.439C82.9149 166.958 83.3729 166.454 83.8912 166.014C84.2289 165.778 84.5945 165.894 84.9554 165.926C86.2463 166.033 86.8524 165.459 86.8154 164.164C86.8062 163.909 86.7507 163.655 86.9866 163.46C88.8004 162.068 90.5865 160.638 92.5622 159.472C94.848 158.218 97.2772 157.269 99.7202 156.423C102.543 155.446 105.472 154.923 108.521 155.52C109.617 155.738 110.76 155.798 111.88 155.946C112.19 155.988 112.491 156.029 112.778 156.173C113.361 156.464 113.93 156.853 113.823 157.542C113.722 158.204 113 158.213 112.472 158.329C109.83 158.912 107.119 159.014 104.454 159.43C103.001 159.657 101.59 160.231 100.206 160.767C98.2766 161.512 96.4258 162.424 94.723 163.65C92.3725 165.339 90.2579 167.282 88.3794 169.452C86.8663 171.201 85.233 172.839 83.7431 174.611C81.61 177.147 79.3613 179.595 77.1033 182.024C75.2201 184.046 73.0963 185.818 70.6255 187.086C68.6127 188.118 66.4287 188.636 64.1708 188.27C62.5096 188.002 60.9781 187.317 59.6964 186.119C57.7577 184.31 56.2169 182.135 54.255 180.349C53.1816 179.377 51.9184 178.776 50.5395 178.47C49.1884 178.17 48.1196 178.859 47.0785 179.65C45.5284 180.825 44.5753 182.426 43.7378 184.115C43.0391 185.522 42.6504 187.026 42.2756 188.553C41.8037 190.487 41.5723 192.467 41.0078 194.378C40.7996 195.072 40.4248 195.65 39.9899 196.21C39.4994 196.844 38.9581 197.048 38.2871 196.479C38.1021 196.136 37.8383 195.817 37.7458 195.452C37.5514 194.651 37.0841 194.568 36.4225 194.813L36.4271 194.822Z" fill="#0B1F5C"/>
<path d="M136.354 137.584C135.715 135.882 135.354 134.1 135.192 132.305C134.859 128.668 134.48 125.031 134.295 121.381C134.142 118.405 133.642 115.476 133.156 112.538C132.564 108.966 132.189 105.348 131.245 101.841C130.135 97.7133 128.95 93.6092 127.359 89.6253C125.804 85.7339 124.453 81.764 123.009 77.8264C122.741 77.0953 122.672 76.3364 122.75 75.5684C123.939 80.2648 125.869 84.7114 127.585 89.2181C128.96 92.8179 130.089 96.4872 131.167 100.175C132.12 103.432 132.671 106.782 133.138 110.146C133.448 112.358 133.883 114.551 134.174 116.763C134.406 118.526 134.558 120.307 134.646 122.084C134.771 124.518 135.123 126.928 135.271 129.353C135.396 131.477 135.475 133.591 136.025 135.664C136.192 136.284 136.488 136.895 136.354 137.571V137.584Z" fill="#92ADF2"/>
<path d="M138.409 150.183C137.956 149.1 137.979 147.929 137.798 146.8C137.442 144.514 137.169 142.219 136.73 139.948C136.688 139.73 136.716 139.499 136.716 139.277C137.229 140.457 137.271 141.734 137.465 142.974C137.794 145.065 138.099 147.161 138.4 149.252C138.442 149.558 138.409 149.873 138.409 150.178V150.183Z" fill="#92ADF2"/>
<path d="M136.706 139.271C136.405 138.743 136.312 138.174 136.349 137.577C136.673 138.095 136.756 138.669 136.706 139.271Z" fill="#92ADF2"/>
<path d="M91.3406 158.602C88.9299 159.107 86.5146 159.579 84.1086 160.115C81.0732 160.791 77.9777 160.902 74.9008 161.068C71.7313 161.244 68.5293 161.3 65.3737 161.031C61.2834 160.684 57.2579 159.865 53.6951 157.58C52.7234 156.955 51.6546 156.483 50.6366 155.932C50.3451 155.775 50.049 155.775 49.7297 155.826C46.9072 156.261 44.131 155.979 41.3918 155.257C40.6885 155.072 40.0685 154.716 39.925 153.892C39.7492 152.888 40.3045 152.124 41.3964 151.87C42.8354 151.537 44.293 151.319 45.7597 151.185C46.426 151.125 46.625 150.926 46.4445 150.227C46.0096 148.562 46.042 148.603 44.293 148.446C41.9193 148.228 39.6567 147.636 37.792 146.026C36.427 144.846 36.5843 143.046 38.1112 142.445C38.7637 142.19 39.4623 142.255 40.124 142.431C42.0488 142.94 44.0246 143.139 45.9772 143.472C46.3381 143.532 46.5278 143.435 46.5972 143.097C46.6805 142.69 47.0599 142.273 46.4769 141.899C45.8569 141.501 45.2693 141.061 44.6863 140.617C44.3716 140.376 44.0801 140.108 43.8117 139.817C43.2611 139.215 43.0899 138.484 43.4879 137.776C43.9182 137.013 44.6863 137.128 45.3896 137.327C46.2086 137.559 47.0183 137.813 47.8141 138.118C48.411 138.345 48.7997 138.243 49.1652 137.697C50.1415 136.24 51.2243 134.861 52.3209 133.491C53.3527 132.2 54.5465 131.085 55.8513 130.077C56.1382 129.855 56.4806 129.669 56.5315 129.248C56.8322 129.41 57.0127 129.174 57.2301 129.04C59.8907 127.384 62.4911 125.57 65.4246 124.478C68.5201 123.326 71.3102 121.697 73.8828 119.721C75.5486 118.444 76.8996 116.76 78.4266 115.298C79.8378 113.947 80.9807 112.406 82.031 110.763C83.2942 108.778 84.7656 106.937 86.0288 104.947C86.9542 103.49 87.8426 101.995 88.9716 100.672C89.1381 100.478 89.3047 100.288 89.4944 100.117C89.698 99.9362 89.9016 99.6261 90.2116 99.8297C90.5309 100.038 90.4245 100.413 90.3134 100.686C89.0317 103.79 88.1433 107.066 86.2833 109.917C85.1682 111.629 84.3075 113.489 83.1323 115.168C82.5122 116.057 81.7349 116.792 80.9946 117.556C79.3797 119.217 77.8945 121.045 76.0344 122.414C73.2952 124.432 70.5097 126.431 67.3263 127.745C66.0724 128.263 64.9943 129.082 63.8283 129.757C61.1724 131.294 58.5997 132.941 56.4852 135.199C55.3331 136.43 54.3336 137.79 53.3434 139.155C53.0982 139.497 52.8854 139.854 53.237 140.349C54.056 141.492 53.2324 142.361 52.27 142.653C51.4926 142.889 51.2751 143.384 51.1919 144.064C51.1919 144.092 51.1826 144.12 51.1872 144.147C51.2335 144.633 50.6459 145.054 50.9327 145.512C51.2289 145.994 51.8443 145.582 52.2561 145.785C52.9224 146.114 53.5331 146.526 53.5794 147.372C53.6303 148.265 53.2231 148.876 52.3394 149.145C51.9553 149.26 51.5944 149.381 51.2011 149.658C51.6592 149.94 52.0941 149.88 52.4689 149.765C54.1069 149.26 55.731 149.478 57.3227 149.899C57.9288 150.061 58.3545 150.542 58.4748 151.236C58.5951 151.935 58.2851 152.425 57.827 152.883C57.4985 153.216 56.9386 153.258 56.7073 153.809C58.4609 154.558 60.1405 155.41 62.1487 155.345C63.2268 155.312 64.3187 155.618 65.3922 155.84C65.9891 155.965 66.5906 155.997 67.1644 155.9C68.7422 155.627 70.3246 155.613 71.9117 155.646C73.9569 155.687 75.9557 155.391 77.9592 155.021C78.9263 154.84 79.9211 154.771 80.902 154.646C82.3873 154.456 83.8032 154.026 85.2468 153.693C86.5285 153.397 87.8287 153.179 89.115 152.893C92.5992 152.115 95.8149 150.759 98.6744 148.562C100.488 147.169 102.293 145.762 103.912 144.161C105.916 142.176 107.804 140.08 109.77 138.054C112.963 134.768 116.544 131.974 120.421 129.563C121.342 128.989 122.388 128.61 123.526 128.679C124.253 128.726 124.493 129.11 124.313 129.808C123.901 131.381 122.925 132.612 121.884 133.792C118.515 137.591 114.855 141.112 111.376 144.809C109.696 146.595 108.077 148.446 106.23 150.065C103.255 152.68 100.141 155.104 96.5275 156.816C95.1163 157.483 93.6402 157.922 92.1503 158.329C91.8773 158.403 91.6182 158.514 91.3499 158.607L91.3406 158.602Z" fill="#0B1F5C"/>
<path d="M97.4926 58.2149C97.6221 59.0477 98.1913 59.751 98.219 60.6163C97.9969 60.8291 97.6915 60.7875 97.4232 60.8615C96.5255 61.1114 95.7945 61.9304 95.7852 62.7031C95.776 63.4434 96.3451 64.1421 97.2335 64.466C97.4694 64.5539 97.7286 64.6002 97.8535 64.8593C97.0715 66.5713 96.1646 68.1954 94.832 69.565C93.5735 70.8605 92.0049 71.6703 90.2883 71.7304C87.8036 71.8137 85.3374 72.244 82.848 72.133C81.1175 72.0543 79.4148 71.7721 77.8971 70.8374C76.0787 69.7177 74.8572 68.1491 74.3389 66.0623C74.1076 65.7569 74.2603 65.3312 74.0197 65.0259C73.7235 64.5539 73.8947 64.031 73.8577 63.5313C73.7837 62.5504 74.0011 61.551 73.705 60.5793C73.705 60.3572 73.705 60.1397 73.7004 59.9176C73.8716 59.6631 74.0474 59.4086 74.3898 59.3624C74.6489 59.33 74.7877 59.1819 74.797 58.9182C74.8757 58.3676 74.7461 57.9326 74.1909 57.6874C74.0382 57.618 73.9086 57.5069 73.9086 57.3126C74.2418 55.0315 74.5286 52.6902 75.7687 50.7145C77.0735 48.6462 77.9665 46.3095 79.5767 44.4633C81.3489 42.4367 83.4866 40.9237 86.4294 41.5437C87.7758 41.8259 88.84 42.6542 89.6868 43.6999C90.8158 45.0926 91.9031 46.5224 92.9257 47.9984C93.518 48.8544 94.0501 49.7705 94.4295 50.7515C94.8135 50.9736 94.4758 51.4825 94.8135 51.7231C95.1189 51.9961 94.8274 52.4727 95.1559 52.7411C95.4012 53.6572 95.651 54.5688 95.8963 55.4849C96.1137 55.9384 95.7852 56.2299 95.5724 56.5538C95.2947 56.9748 95.0819 57.4144 95.3965 57.891C95.7343 58.4092 96.2572 58.3398 96.7754 58.2519C97.0114 58.2102 97.2427 57.9928 97.488 58.2195L97.4926 58.2149Z" fill="#79E828"/>
<path d="M112.943 58.5336C112.782 61.3052 111.93 63.5123 109.529 64.794C107.534 65.8582 105.536 65.4881 103.625 64.4979C100.839 63.0543 99.6778 59.7274 100.515 56.6319C100.844 55.4243 101.279 54.3138 102.163 53.4485C103.222 52.4075 104.481 52.0095 106.012 52.3149C107.1 52.5278 108.224 52.5602 109.265 53.009C111.768 54.0917 112.8 56.1091 112.948 58.5336H112.943Z" fill="#E500A0"/>
<path d="M63.9685 65.369C62.3906 65.1839 60.6046 64.86 59.5635 63.0462C59.3599 62.69 59.0546 62.2874 59.0823 61.9311C59.1749 60.7697 58.5595 59.8675 58.1569 58.8819C57.7636 57.9241 58.2865 57.1236 58.7445 56.3926C59.434 55.296 60.1974 54.2317 61.22 53.4081C62.4554 52.4087 63.7973 51.9876 65.4491 52.3254C67.3416 52.7141 68.7991 53.6996 70.053 55.0739C71.1265 56.2445 71.1589 57.5725 70.7378 59.0485C70.3862 60.2793 70.0437 61.4777 69.308 62.5511C68.0819 64.3372 66.4532 65.3551 63.9638 65.3736L63.9685 65.369Z" fill="#E500A0"/>
<path d="M58.3543 25.1769C60.5012 25.0705 61.7598 26.2874 62.7037 27.9763C63.407 29.2395 63.8327 30.6276 64.0686 32.0342C64.3231 33.5287 63.6013 34.9215 61.843 35.7127C59.6683 36.689 57.6371 36.2309 55.5827 35.2176C54.264 34.5652 53.1396 33.774 52.6167 32.3905C51.5572 29.568 52.9962 27.0925 55.4161 25.8941C56.3276 25.4453 57.3178 25.0937 58.3496 25.1769H58.3543Z" fill="#E500A0"/>
<path d="M107.725 33.2976C107.804 32.1778 107.411 31.183 107.166 30.1605C106.735 28.3698 107.823 26.1581 109.9 25.8296C110.474 25.737 111.015 25.5242 111.621 25.5195C114.023 25.4825 115.471 27.0881 116.239 29.0176C116.98 30.8684 116.794 32.6498 115.23 33.9593C113.958 35.0235 112.829 36.3699 110.909 36.4717C109.03 36.5735 107.48 35.0512 107.721 33.3022L107.725 33.2976Z" fill="#E500A0"/>
<path d="M65.5014 39.4701C66.4361 39.4377 67.3106 38.9472 68.273 39.1323C68.6802 39.8773 68.435 40.687 68.4766 41.4643C68.509 42.0335 68.509 42.598 68.8282 43.1023C68.9624 43.3151 69.1059 43.5881 69.4066 43.5048C69.7305 43.4123 69.6611 43.0977 69.638 42.8571C69.5501 41.9548 69.3233 41.071 69.3511 40.1595C69.365 39.7986 69.2956 39.4145 69.6102 39.1277C70.7161 39.1323 71.8173 39.1416 72.9232 39.1462C73.3581 39.5904 72.9556 39.9929 72.8029 40.3492C72.4327 41.2098 72.007 42.0427 71.7572 42.9496C71.623 43.4354 71.3037 44.0693 71.896 44.3192C72.5808 44.6061 72.7659 43.8565 72.9694 43.3984C73.4044 42.4175 73.8393 41.4227 73.8162 40.3076C73.8116 40.0623 73.8023 39.7847 74.0846 39.6413C75.9307 40.4834 76.3842 41.8299 75.9724 43.3522C76.1343 44.037 75.6577 44.4025 75.2228 44.7541C74.6352 45.2354 73.9134 45.4251 73.1684 45.476C72.6641 45.5083 72.4003 45.7397 72.2708 46.2117C72.1366 46.7021 71.9839 47.1972 71.7155 47.6368C71.4055 48.1504 71.0724 48.6547 70.3829 48.6964C69.9063 48.9555 69.3974 49.1406 68.8653 49.0156C67.8705 48.7843 66.8571 49.2748 65.8762 48.8953C64.9786 48.7103 64.9508 47.9422 64.7935 47.2666C64.6593 46.7021 65.0387 45.9664 64.5205 45.587C64.0855 45.2677 63.4239 45.5546 62.8594 45.4991C61.9247 45.4066 61.0641 45.2076 60.7448 44.1526C60.2682 43.4539 60.3885 42.6766 60.4579 41.9085C60.8975 41.6031 61.0317 42.0612 61.2353 42.2556C61.7905 42.783 62.1098 43.5141 62.7021 44.0184C62.8964 44.185 63.063 44.384 63.2897 44.5089C63.5118 44.6292 63.7709 44.8004 63.993 44.5968C64.1966 44.4071 64.0161 44.1573 63.9143 43.9722C63.4007 43.056 62.8964 42.1399 62.1746 41.3579C61.971 41.1404 61.5638 40.9785 61.7859 40.5389C62.2903 40.5389 62.6512 40.0808 63.1648 40.104C63.7802 40.0392 63.72 40.5898 63.8311 40.9091C64.2845 42.237 64.8675 43.4817 65.8901 44.4765C65.9502 44.5367 66.0104 44.5968 66.0752 44.6523C66.362 44.9207 66.6813 45.1336 67.0515 44.8421C67.3846 44.5829 67.2782 44.2359 67.1255 43.912C66.5795 42.7877 66.1538 41.617 65.6032 40.4973C65.4459 40.1734 65.2053 39.8495 65.5107 39.4747L65.5014 39.4701Z" fill="#0C1F5C"/>
<path d="M105.506 49.0172C104.774 50.6227 103.895 51.0345 102.206 50.5811C101.684 50.7199 101.429 50.359 101.17 50.0212C100.712 49.4197 100.573 48.6886 100.383 47.9761C100.115 46.9489 100.11 46.9396 99.0739 47.0136C98.0514 47.0877 97.0843 46.9951 96.344 46.1762C96.0617 45.8615 95.761 45.5422 95.9183 45.0518C95.6685 44.02 95.8397 43.1316 96.7974 42.5162C97.1861 42.6318 97.3573 42.9789 97.584 43.2611C98.0005 43.7794 98.5094 44.1773 99.1341 44.4133C99.3886 44.5104 99.694 44.677 99.9022 44.3624C100.11 44.0477 99.9485 43.7655 99.7264 43.5202C99.4996 43.2658 99.2128 43.0622 99.0231 42.7845C98.7732 42.419 98.3336 42.0951 98.5789 41.5445L100.208 41.4705C100.624 42.1599 100.573 42.9742 100.814 43.7099C100.985 44.2421 101.105 45.0749 101.711 44.9315C102.396 44.7695 101.994 43.9922 101.896 43.4786C101.772 42.8262 101.531 42.1877 101.795 41.5167L103.979 41.5029C104.275 41.9378 103.923 42.2478 103.747 42.5763C103.46 43.1038 103.155 43.6174 103.206 44.2467C103.224 44.4919 103.155 44.8065 103.451 44.913C103.794 45.0333 103.951 44.7464 104.099 44.4965C104.552 43.7377 104.807 42.891 105.098 42.0673C105.172 41.8638 105.158 41.6046 105.413 41.5029C106.394 41.5214 107.375 41.5445 108.356 41.563C108.689 41.9193 108.291 42.0766 108.138 42.2709C107.787 42.7151 107.44 43.164 107.319 43.7285C107.259 44.0061 107.273 44.3068 107.523 44.5058C107.773 44.7094 107.999 44.5243 108.226 44.4225C108.791 44.1726 109.175 43.7285 109.499 43.2241C109.679 42.9419 109.809 42.6133 110.179 42.5162C110.794 43.1269 110.692 43.8441 110.484 44.5752C110.526 45.3803 109.887 45.607 109.337 45.8708C108.712 46.1715 108.013 46.1484 107.338 46.2132C106.389 46.3011 106.246 46.4584 106.107 47.3977C106.019 47.9807 106.024 48.6007 105.496 49.0218L105.506 49.0172Z" fill="#0C1F5C"/>
<path d="M95.9236 45.0498C96.4372 46.4564 97.5939 47.132 99.2458 46.7572C100.143 46.5536 100.398 46.8682 100.537 47.6178C100.629 48.1175 100.768 48.608 100.916 49.0938C101.129 49.7694 101.536 50.2922 102.202 50.5837C102.17 50.63 102.147 50.6902 102.101 50.7179C99.7733 52.1616 95.9282 50.6763 95.2388 48.0574C95.0259 47.2476 95.0537 46.424 95.3822 45.6374C95.4886 45.3783 95.5719 45.0914 95.9236 45.0544V45.0498Z" fill="#FCFDFD"/>
<path d="M70.371 48.6874C71.153 48.2478 71.7082 47.5769 71.8378 46.7255C72.009 45.5688 72.5873 45.1986 73.7071 45.1385C74.7852 45.0783 75.581 44.412 75.9605 43.3524C77.8251 44.6989 77.4365 47.9702 75.2433 48.9881C73.5914 49.7562 71.9627 49.3352 70.371 48.692V48.6874Z" fill="#FCFCFC"/>
<path d="M60.7397 44.1436C61.5587 45.2726 62.7062 45.5039 63.9694 45.2309C64.8207 45.0458 65.029 45.3003 64.9873 46.1285C64.9364 47.1326 64.9087 48.183 65.8664 48.8909C64.6449 49.386 63.4141 49.6035 62.1556 49.0297C60.2122 48.1413 59.4765 45.5918 60.7397 44.1482V44.1436Z" fill="#FCFCFD"/>
<path d="M65.4931 39.4724C65.8124 40.7818 66.5758 41.9062 67.02 43.1648C67.1218 43.447 67.3161 43.7015 67.4179 43.9838C67.5567 44.3539 67.6632 44.738 67.256 45.0526C66.8534 45.3626 66.4972 45.2932 66.1224 45.0063C64.9425 44.1087 64.3317 42.8362 63.7765 41.5175C63.5775 41.0456 63.5914 40.4718 63.1472 40.1109C63.1888 39.7361 63.1009 39.3706 63.3924 39.0097C64.0309 38.2231 64.7111 38.2462 65.1599 39.1578C65.2432 39.3197 65.3034 39.4493 65.4885 39.4817L65.4931 39.4724Z" fill="#E101A0"/>
<path d="M97.8507 64.8552C97.2399 64.7442 96.6199 64.6424 96.1849 64.1426C95.6806 63.5596 95.3937 62.9119 95.6713 62.1253C95.9721 61.2785 96.5828 60.7927 97.4527 60.6354C97.698 60.5891 97.9571 60.6215 98.2116 60.6169C99.2712 61.149 99.7709 61.9726 99.5997 63.1802C99.4516 64.2121 98.7344 64.6146 97.846 64.8598L97.8507 64.8552Z" fill="#0C235C"/>
<path d="M105.508 49.0158C105.785 48.2662 105.873 47.475 105.975 46.6884C106.031 46.2442 106.202 46.0545 106.66 46.0314C107.335 45.999 108.011 45.9111 108.682 45.8185C109.482 45.7028 110.116 45.3234 110.491 44.5739C111.213 45.7769 110.644 47.3963 109.191 48.1829C108.048 48.803 106.794 48.9834 105.508 49.0158Z" fill="#FBFBFC"/>
<path d="M61.7741 40.5337C62.5005 41.51 63.3519 42.3937 63.8979 43.5042C63.9812 43.6754 64.1246 43.8281 64.1477 44.0224C64.1755 44.3001 64.6428 44.5916 64.2542 44.8322C63.921 45.0358 63.5185 44.9617 63.1483 44.6934C62.3108 44.0919 61.7972 43.2035 61.1032 42.477C60.8996 42.2642 60.77 41.9727 60.4461 41.8986C60.1407 41.2971 59.5809 40.9223 59.1413 40.4458C58.8359 40.1126 58.4565 39.673 58.8174 39.289C59.1413 38.9466 59.6642 39.0253 60.0991 39.3769C60.6266 39.798 61.2142 40.1543 61.7741 40.5337Z" fill="#D404A0"/>
<path d="M98.5784 41.5405C98.7912 42.253 99.2817 42.7666 99.7861 43.2849C100.013 43.5162 100.281 43.7383 100.253 44.1362C100.216 44.6684 100.036 44.9182 99.4529 44.7609C98.2036 44.4277 97.4078 43.581 96.7924 42.5122C96.5703 41.9939 96.4176 41.4202 96.1029 40.9714C95.7883 40.5225 95.8068 40.157 96.2047 39.9118C96.6443 39.648 97.1255 39.6619 97.5605 40.0876C97.9954 40.5133 98.0278 41.2027 98.5784 41.5359V41.5405Z" fill="#D903A2"/>
<path d="M74.0783 39.6382C74.1338 41.1466 73.6387 42.5115 73.0233 43.8534C72.7827 44.3762 72.445 44.8898 71.8481 44.6862C71.1864 44.4595 71.2697 43.784 71.3993 43.2195C71.6954 41.9285 72.4403 40.8088 72.8383 39.5549C72.8799 39.4253 72.8938 39.2819 72.9169 39.1477C73.0789 38.9071 72.866 38.3657 73.412 38.4444C73.8099 38.5045 73.9858 38.8284 74.0182 39.2264C74.0274 39.3652 74.0552 39.504 74.0737 39.6428L74.0783 39.6382Z" fill="#D5039D"/>
<path d="M110.181 42.5103C109.728 43.3108 109.283 44.1205 108.432 44.5647C108.062 44.7591 107.65 45.1339 107.234 44.6434C106.854 44.1946 106.961 43.681 107.215 43.2414C107.553 42.6538 107.974 42.117 108.363 41.5572C108.816 41.1685 109.283 40.7891 109.723 40.3865C109.936 40.1876 110.213 40.0765 110.371 40.2847C110.528 40.4976 110.847 40.7012 110.699 41.0806C110.514 41.5525 110.357 42.0384 110.186 42.515L110.181 42.5103Z" fill="#DB029F"/>
<path d="M101.792 41.5118C101.954 42.5066 102.139 43.4968 102.273 44.4916C102.315 44.797 102.421 45.1903 101.954 45.3383C101.482 45.4864 101.177 45.2041 100.982 44.871C100.52 44.0566 100.423 43.1312 100.275 42.2243C100.233 41.9745 100.228 41.72 100.205 41.4701C100.205 41.0213 100.205 40.5725 100.219 40.1283C100.228 39.8275 100.205 39.4851 100.663 39.4759C101.033 39.4666 101.195 39.6147 101.279 39.9895C101.394 40.5123 101.612 41.0074 101.788 41.5164L101.792 41.5118Z" fill="#D3049E"/>
<path d="M105.418 41.4969C105.297 42.6814 104.761 43.7225 104.266 44.7682C104.094 45.1291 103.775 45.379 103.308 45.2587C102.831 45.1338 102.979 44.7358 102.947 44.4258C102.864 43.6577 103.22 43.0377 103.599 42.4085C103.761 42.1401 104.025 41.8717 103.983 41.4969C104.164 41.1684 104.326 40.826 104.534 40.516C104.664 40.3263 104.798 40.0718 105.112 40.1412C105.473 40.2199 105.371 40.5206 105.395 40.7473C105.418 40.9972 105.408 41.2471 105.418 41.4969Z" fill="#CE059C"/>
<path d="M69.599 39.1221C69.5943 40.3344 69.6822 41.542 69.8488 42.745C69.8997 43.1245 70.1773 43.7213 69.5342 43.8972C68.9373 44.0591 68.7568 43.564 68.5116 43.1291C68.0443 42.3009 68.2803 41.4263 68.2386 40.5703C68.2155 40.0938 68.2479 39.6125 68.2571 39.1313C68.7013 38.8722 69.1409 38.3401 69.5943 39.1221H69.599Z" fill="#CF049A"/>
<path d="M97.491 58.2161C97.2874 58.3086 97.0885 58.4289 96.8756 58.4891C96.2417 58.6741 95.6125 58.688 95.2053 58.0634C94.8397 57.5035 94.9369 56.939 95.3765 56.4254C95.6125 56.1524 95.867 55.8748 95.8947 55.4815C96.4731 55.2548 97.3383 55.5278 97.4725 56.0321C97.6622 56.7493 98.0463 57.485 97.491 58.2161Z" fill="#0D2760"/>
<path d="M73.908 57.3072C74.8011 57.5709 75.2823 58.0891 75.0139 59.0793C74.6761 59.6438 74.1625 59.5189 73.6582 59.4171C73.2047 58.9544 73.1955 58.376 73.4546 57.8763C73.6582 57.483 73.6906 57.1036 73.7924 56.6918C73.8294 56.8954 73.8664 57.0989 73.9034 57.3025L73.908 57.3072Z" fill="#193D5D"/>
<path d="M73.6985 60.5755C73.9622 60.8254 74.0177 61.1539 74.0177 61.4963C74.0177 62.6716 74.0177 63.8469 74.0131 65.0175C73.6106 64.9388 73.6892 64.6057 73.6892 64.3466C73.68 63.088 73.6892 61.8295 73.6985 60.5709V60.5755Z" fill="#489D7B"/>
<path d="M73.6569 59.4225C74.1243 59.3762 74.624 59.4502 75.0126 59.0801C74.9016 59.8759 73.9854 59.3993 73.6939 59.9129C73.6801 59.751 73.6708 59.5844 73.6569 59.4225Z" fill="#489D7B"/>
<path d="M95.1529 52.7395C94.5976 52.5498 94.8567 52.0825 94.8104 51.7216C95.3749 51.9113 95.102 52.3786 95.1529 52.7395Z" fill="#419494"/>
<path d="M94.8084 51.7218C94.267 51.5598 94.4983 51.0925 94.4243 50.7501C95.0721 50.8704 94.7158 51.384 94.8084 51.7218Z" fill="#419494"/>
<path d="M74.0072 65.0217C74.3542 65.2901 74.4005 65.6556 74.3264 66.0582C73.7897 65.8453 74.0442 65.3919 74.0072 65.0217Z" fill="#489D7B"/>
<path d="M15.4062 122.079C13.5693 121.389 11.9591 120.631 10.6774 119.344C9.95096 118.618 8.92839 118.22 8.47957 117.174C7.75312 115.49 8.76644 113.658 10.5802 113.375C12.4311 113.089 13.8932 113.931 15.3831 114.842C16.29 115.397 17.1784 115.98 18.0529 116.582C18.1593 116.656 18.1963 116.85 18.3768 116.781C18.5943 116.698 18.511 116.499 18.5156 116.346C18.5526 115.291 18.3028 114.305 17.7429 113.408C17.146 112.441 16.9841 111.377 17.1599 110.28C17.2385 109.776 17.692 109.401 18.1408 109.415C18.5387 109.424 19.057 109.563 19.205 110.164C19.7279 112.274 20.5654 114.296 20.9124 116.457C21.0142 117.091 21.3011 117.725 21.6296 118.285C21.9026 118.747 22.5411 118.72 22.9899 118.752C24.4382 118.863 25.6829 119.478 26.7841 120.288C28.1861 121.32 29.7361 122.227 30.7541 123.712C31.4667 124.744 31.8738 125.892 32.1885 127.113C32.4846 128.261 32.5586 129.403 32.4244 130.542C32.0312 133.845 30.5412 136.548 27.5337 138.125C26.3306 138.759 25.0999 139.435 23.8089 139.842C22.5689 140.235 21.1854 140.189 19.9315 139.842C17.5948 139.199 15.7995 137.672 14.2587 135.849C13.4768 134.919 13.0187 133.887 12.9955 132.605C12.9493 130.31 13.2362 128.038 13.4583 125.771C13.5924 124.397 14.1338 123.051 15.4062 122.079Z" fill="#E500A0"/>
<path d="M-12.8544 93.2935C-12.2205 92.4468 -11.3599 91.9471 -10.3234 91.9378C-9.38415 91.9285 -8.468 91.4473 -7.56573 91.6741C-5.99716 92.0674 -4.41472 91.9054 -2.84616 91.9285C-1.23133 91.9517 0.383509 92.0766 1.94744 92.3404C4.28872 92.7383 6.63463 93.0344 8.98516 93.3629C10.7295 93.6082 12.4832 93.8071 14.223 94.057C16.2866 94.3577 18.341 94.205 20.4 94.2837C22.7274 94.3762 25.0039 94.7881 27.2758 95.2415C28.1226 95.4127 28.9924 95.4775 29.8531 95.5978C32.509 95.9772 35.188 96.2178 37.8763 96.042C39.1858 95.9587 40.4582 96.2363 41.7445 96.3659C42.5543 96.4492 43.1928 96.9581 43.6879 97.6198C44.5115 98.7118 44.9326 99.9796 45.3721 101.247C45.8348 102.571 46.1356 103.945 46.6492 105.254C46.8667 105.805 46.9592 106.439 47.061 107.036C47.3201 108.544 47.6718 110.025 48.0234 111.51C48.1761 112.158 48.2964 112.829 48.3797 113.481C48.5601 114.855 49.0738 116.114 49.555 117.368C49.9112 118.298 50.1426 119.256 50.4572 120.19C51.0634 121.986 51.6973 123.744 52.7846 125.336C53.6036 126.534 54.3208 127.825 54.293 129.375C54.2838 129.805 54.182 130.189 53.798 130.361C53.3445 130.564 52.9188 130.384 52.5949 130.023C52.0027 129.37 51.8824 128.496 51.54 127.728C50.6192 125.678 50.2213 123.466 49.5873 121.329C48.8979 119.001 47.9864 116.766 47.1906 114.485C46.7001 113.079 46.5011 111.57 46.0384 110.15C45.46 108.368 45.1593 106.513 44.4884 104.75C43.9424 103.316 43.5907 101.798 43.0216 100.368C42.4432 98.9061 41.9713 98.3139 40.4073 98.3416C39.158 98.3648 37.9087 98.3416 36.6594 98.3694C35.2112 98.4064 33.8184 98.1149 32.4257 97.7817C32.3146 97.754 32.199 97.7447 32.0879 97.7494C30.3574 97.8141 28.6593 97.4717 26.9612 97.2774C22.7136 96.7869 18.4613 96.6204 14.1952 96.7407C11.5023 96.8193 8.89725 96.1715 6.24596 95.9032C4.18693 95.6949 2.16954 95.1166 0.129022 94.7186C-0.199497 94.6539 -0.55115 94.6446 -0.888924 94.6678C-2.81839 94.7973 -4.72936 94.4642 -6.61719 94.2097C-8.25516 93.9922 -9.86536 93.9876 -11.4941 93.9644C-12.4658 94.2698 -12.8174 94.094 -12.8637 93.2796L-12.8544 93.2935Z" fill="#E402A0"/>
<path d="M23.9426 162.391C20.0559 162.391 15.887 162.382 11.718 162.405C11.2275 162.405 10.8065 162.243 10.4687 162.007C10.0152 161.697 9.80241 161.22 10.2327 160.647C10.6445 160.091 11.1998 159.855 11.8244 159.721C13.5781 159.337 15.3641 159.305 17.1362 159.42C22.1381 159.744 27.1445 159.666 32.151 159.721C33.9648 159.74 35.7323 159.245 37.5461 159.416C43.2234 159.953 48.9193 159.587 54.6059 159.781C55.411 159.809 56.2069 160.036 57.0212 160.087C57.4701 160.115 57.8217 160.485 57.8958 160.873C57.9698 161.244 57.5117 161.456 57.2202 161.632C56.9981 161.766 56.6742 161.729 56.392 161.757C51.9593 162.22 47.5127 162.012 43.0754 162.09C36.7919 162.206 30.5222 162.775 23.9472 162.391H23.9426Z" fill="#E501A1"/>
<path d="M83.0049 66.6898C81.7556 67.9206 80.349 68.8275 78.5167 68.7535C76.6427 68.6748 75.2639 65.9356 76.2772 64.3532C76.9065 63.3676 77.9614 63.0483 79.0025 63.5851C79.4004 63.7887 79.7567 64.0802 80.1176 64.3485C80.9829 64.9963 81.2744 65.0009 81.9962 64.219C82.5329 63.6406 83.0697 63.0437 83.4213 62.3265C83.8794 61.4011 83.7452 61.1004 82.7874 60.8181C80.349 60.0963 79.2339 57.5422 80.4554 55.4415C81.0708 54.3819 82.0471 53.822 83.2362 53.7526C84.7863 53.6647 86.3595 53.5583 87.8216 54.2986C88.1455 54.4606 88.4833 54.3634 88.8211 54.331C90.6996 54.1413 92.3422 55.6034 92.0553 57.246C91.8703 58.3103 91.1531 59.0413 90.2925 59.6382C89.603 60.1194 88.7933 60.4063 88.2196 61.0865C87.6551 61.7528 87.6319 61.961 88.4231 62.4006C89.8621 63.1964 91.3706 63.8211 92.953 64.293C94.5817 64.7788 95.3128 65.8338 95.137 67.2682C94.9843 68.5267 93.6285 69.6696 92.2034 69.7899C90.7644 69.9102 89.5568 69.3272 88.3954 68.5869C87.9651 68.3139 87.5579 68.0085 87.1368 67.7216C86.6973 67.5366 86.799 67.1248 86.7389 66.7777C86.6093 66.0281 86.3502 65.3341 85.6192 64.9917C84.8835 64.6493 84.0089 65.1027 83.5416 65.9911C83.4028 66.2549 83.3982 66.6204 83.0141 66.6944L83.0049 66.6898Z" fill="#0B1F5C"/>
<path d="M83.0105 66.6914C83.3159 66.4276 83.1678 66.0019 83.3899 65.6827C83.9729 64.8452 84.5929 64.5398 85.5183 64.6601C86.1199 64.7388 86.763 65.6688 86.9805 66.6358C87.0638 66.9921 86.9574 67.3762 87.1378 67.7186C86.8741 68.3941 86.5733 68.9771 85.7589 69.2038C84.778 69.4815 83.3529 68.6578 83.2141 67.6353C83.1724 67.316 83.3251 66.9505 83.0105 66.6914Z" fill="#E401A0"/>
<path d="M75.7171 56.5691C75.731 55.6668 76.4436 54.9589 77.3274 54.9774C78.3037 55.0005 79.0023 55.7409 78.9838 56.7403C78.9653 57.6565 78.3268 58.332 77.4708 58.3459C76.4945 58.3598 75.7079 57.5593 75.7218 56.5691H75.7171Z" fill="#0F2957"/>
<path d="M93.8417 59.1002C94.5265 59.0817 95.0956 59.6184 95.1188 60.2986C95.1373 60.9973 94.5126 61.7052 93.8371 61.7469C93.1893 61.7885 92.4999 61.1407 92.486 60.4837C92.4721 59.8174 93.1569 59.1233 93.8463 59.1002H93.8417Z" fill="#193B53"/>
<path d="M76.0512 62.6527C75.371 62.6665 74.7278 62.1159 74.7093 61.5052C74.6862 60.8851 75.3941 60.2882 76.1807 60.2651C76.847 60.2466 77.2496 60.6677 77.2681 61.3941C77.282 62.102 76.7684 62.6341 76.0558 62.648L76.0512 62.6527Z" fill="#112C56"/>
<path d="M81.4633 58.5169C81.4725 57.5961 81.9537 57.1519 82.9069 57.1751C83.6704 57.1936 84.2765 57.8136 84.2626 58.5539C84.2488 59.285 83.5454 59.8911 82.7265 59.8772C81.9908 59.8634 81.454 59.2896 81.4633 58.5123V58.5169Z" fill="#DA029E"/>
<path d="M86.6095 58.5577C86.6234 57.7619 87.2619 57.1604 88.067 57.1835C88.7796 57.202 89.3533 57.8174 89.3395 58.5439C89.3256 59.3397 88.687 59.9366 87.8773 59.9227C87.1277 59.9088 86.6002 59.3397 86.6095 58.5624V58.5577Z" fill="#DD029F"/>
</g>
<path d="M165.045 154.888C162.988 137.729 162.23 120.5 162.703 103.237C162.947 94.2694 162.964 85.2986 163.202 76.331C163.532 64.0293 163.862 51.7275 164.65 39.4492C165.289 29.4734 167.064 19.5849 167.132 9.55527C167.145 7.53186 167.091 5.52863 166.666 3.55227C166.285 1.79776 165.279 1.31376 163.624 2.07001C163.216 2.25824 162.91 2.35907 162.502 2.15404C160.514 1.15914 158.335 1.10873 156.197 1.06839C147.302 0.907058 138.403 0.775973 129.505 0.742362C112.639 0.675139 95.7735 0.772612 78.9112 0.631444C67.7422 0.537332 56.5935 0.705389 45.4653 1.72381C37.1922 2.48007 28.9531 3.71025 20.6052 3.47161C15.5883 3.46489 10.6122 3.76067 5.75849 5.16898C3.89925 5.71013 2.50907 6.14035 1.69332 8.52004C0.500281 12.0089 -0.0435546 15.4238 0.194373 18.99C0.619245 25.4165 0.989733 31.843 1.31943 38.2729C2.04002 52.2821 2.73341 66.2947 3.30443 80.3106C3.58655 87.2043 3.79389 94.1048 4.18477 100.992C4.71501 110.349 5.3948 119.7 5.35062 129.081C5.31323 137.305 4.92914 145.517 4.37851 153.721C4.25615 155.55 3.98423 157.405 4.76939 159.17C5.12288 159.96 4.46688 160.003 4.03181 160.218C3.20586 160.622 2.13859 160.914 2.30174 162.08C2.46149 163.23 3.63074 163.196 4.47368 163.492C4.79998 163.606 5.15347 163.637 5.49677 163.707C10.4763 164.756 15.5305 164.897 20.595 164.917C38.6843 164.991 56.7737 165.048 74.863 165.102C86.0286 165.136 97.1977 165.139 108.36 165.579C123.873 166.191 139.382 166.884 154.895 167.559C157.907 167.69 160.687 167.441 163.24 165.428C165.34 163.771 166.34 162.228 165.864 159.637C165.571 158.054 165.235 156.474 165.045 154.881V154.888ZM161.01 11.6022C159.219 21.4537 158.372 31.4262 157.108 41.3449C156.041 49.731 155.16 58.1338 154.464 66.5568C153.073 83.3794 153.372 100.232 153.413 117.085C153.43 124.563 153.519 132.039 153.808 139.51C154.035 145.426 154.297 151.352 155.786 157.133C156.122 158.434 155.874 158.965 154.372 158.995C152.506 159.035 150.653 159.008 148.797 158.847C136.867 157.825 124.93 156.908 112.999 155.913C100.019 154.834 86.9871 154.531 73.9521 155.251C68.4967 155.553 63.0176 155.435 57.5588 155.694C43.5619 156.356 29.5683 157.089 15.6189 158.464C14.0724 158.615 13.9466 158.36 14.0928 156.82C14.725 150.122 14.9153 143.389 14.9833 136.66C15.1125 124.167 14.1709 111.724 13.3144 99.2708C12.757 91.1839 12.5258 83.0735 12.1656 74.9731C11.5945 62.1101 11.1595 49.2571 9.56534 36.4377C8.48787 27.7525 6.93794 19.1749 5.33362 10.5939C5.0753 9.21243 5.41859 9.08135 6.66262 9.16874C8.56944 9.29982 10.4933 9.20235 12.4069 9.20235C15.2552 8.96371 18.1002 8.96707 20.9349 9.36705C27.7838 10.3317 34.6464 9.51494 41.4987 9.42755C53.6534 9.2763 65.8115 9.14521 77.9663 9.4746C91.1713 9.83088 104.369 9.65947 117.564 9.0074C126.004 8.59062 134.423 8.91665 142.839 9.56199C145.562 9.77038 148.315 9.90483 151.031 9.74013C154.226 9.54519 157.247 10.5199 160.374 10.6745C161.041 10.7081 161.105 11.0476 161.007 11.5921L161.01 11.6022Z" fill="#F5F4F4"/>
<path d="M164.949 154.97C162.893 137.812 162.135 120.582 162.607 103.32C162.852 94.3521 162.869 85.3812 163.107 76.4137C163.436 64.1119 163.766 51.8101 164.555 39.5319C165.194 29.556 166.968 19.6676 167.036 9.63791C167.049 7.61451 166.995 5.61127 166.57 3.63492C166.19 1.8804 165.183 1.3964 163.528 2.15265C163.12 2.34088 162.814 2.44171 162.406 2.23668C160.418 1.24178 158.239 1.19137 156.101 1.15103C147.206 0.989699 138.308 0.858615 129.409 0.825003C112.544 0.75778 95.6778 0.855254 78.8155 0.714086C67.6465 0.619974 56.4979 0.788031 45.3697 1.80646C37.0965 2.56271 28.8574 3.79289 20.5096 3.55425C15.4927 3.54753 10.5166 3.84331 5.66285 5.25163C3.80361 5.79277 2.41343 6.22299 1.59768 8.60268C0.404639 12.0915 -0.139197 15.5065 0.0987314 19.0726C0.523603 25.4991 0.894091 31.9256 1.22379 38.3555C1.94437 52.3647 2.63776 66.3773 3.20879 80.3933C3.49091 87.287 3.69824 94.1874 4.08913 101.074C4.61937 110.432 5.29916 119.782 5.25497 129.163C5.21758 137.388 4.8335 145.599 4.28287 153.804C4.1605 155.632 3.88859 157.488 4.67375 159.252C5.02724 160.042 4.37124 160.086 3.93617 160.301C3.11022 160.704 2.04294 160.997 2.20609 162.163C2.36585 163.313 3.53509 163.279 4.37804 163.575C4.70434 163.689 5.05783 163.719 5.40113 163.79C10.3806 164.839 15.4349 164.98 20.4994 165C38.5887 165.074 56.678 165.131 74.7674 165.185C85.933 165.218 97.102 165.222 108.264 165.662C123.777 166.274 139.287 166.966 154.8 167.642C157.811 167.773 160.591 167.524 163.144 165.511C165.245 163.854 166.244 162.311 165.768 159.72C165.476 158.136 165.139 156.557 164.949 154.964V154.97ZM160.914 11.6848C159.123 21.5363 158.277 31.5089 157.012 41.4276C155.945 49.8136 155.065 58.2165 154.368 66.6395C152.978 83.462 153.277 100.315 153.318 117.168C153.335 124.646 153.423 132.121 153.712 139.593C153.94 145.509 154.201 151.434 155.69 157.215C156.027 158.516 155.778 159.047 154.276 159.078C152.41 159.118 150.558 159.091 148.702 158.93C136.771 157.908 124.834 156.99 112.904 155.995C99.9232 154.916 86.8915 154.614 73.8564 155.333C68.4011 155.636 62.9219 155.518 57.4632 155.777C43.4662 156.439 29.4727 157.172 15.5233 158.546C13.9767 158.698 13.851 158.442 13.9971 156.903C14.6293 150.204 14.8197 143.472 14.8877 136.743C15.0168 124.249 14.0753 111.806 13.2188 99.3535C12.6613 91.2666 12.4302 83.1561 12.0699 75.0558C11.4989 62.1927 11.0638 49.3397 9.4697 36.5203C8.39222 27.8351 6.84229 19.2575 5.23798 10.6765C4.97966 9.29508 5.32295 9.16399 6.56698 9.25138C8.4738 9.38247 10.3976 9.28499 12.3112 9.28499C15.1596 9.04635 18.0045 9.04971 20.8393 9.44969C27.6882 10.4143 34.5507 9.59758 41.403 9.51019C53.5578 9.35894 65.7159 9.22785 77.8706 9.55725C91.0756 9.91353 104.274 9.74211 117.469 9.09005C125.908 8.67326 134.328 8.9993 142.743 9.64463C145.466 9.85303 148.219 9.98747 150.935 9.82277C154.13 9.62783 157.152 10.6026 160.279 10.7572C160.945 10.7908 161.01 11.1303 160.911 11.6748L160.914 11.6848Z" fill=""/>
<defs>
<clipPath id="clip0_1218_2100">
<rect width="156.301" height="155.633" fill="white" transform="translate(5.48572 6.54163)"/>
</clipPath>
</defs>
</svg>
