<svg width="206" height="199" viewBox="0 0 206 199" fill="none" xmlns="http://www.w3.org/2000/svg">
<path d="M24.1914 158.17C24.2114 158.23 24.2414 158.27 24.2614 158.32C24.3314 158.46 24.4214 158.58 24.5514 158.68C25.6014 157.46 25.3814 156 25.3414 154.58C25.1514 154.54 25.0314 154.56 24.9414 154.61C24.6414 154.78 24.7914 155.34 24.5114 155.53" fill="#CFF1B0"/>
<path d="M30.7281 132.61C30.5481 132.82 30.3681 133.03 30.1881 133.24C30.0881 133.36 29.9881 133.47 29.8981 133.59C29.9281 133.73 29.8981 133.86 29.8281 133.99C29.8281 134.1 29.8381 134.21 29.8481 134.33C29.8581 134.52 29.8681 134.71 29.8781 134.9C30.8881 134.41 30.8381 133.53 30.7281 132.62V132.61Z" fill="#B0ED82"/>
<path d="M204.5 177.82C204.81 177.62 205.12 177.43 205.44 177.23C205.59 177.14 205.73 177.05 205.88 176.95C205.88 176.87 205.88 176.79 205.88 176.71C205.88 176.49 205.88 176.27 205.88 176.05C205.2 176.47 204.67 177 204.5 177.81V177.82Z" fill="#B2CB9F"/>
<path d="M191.761 19.8196C189.781 14.9896 187.841 10.0196 183.181 7.02955C179.261 4.50955 174.891 2.72955 170.291 2.16955C156.591 0.489552 142.881 -0.600448 129.061 1.17955C120.641 2.25955 112.171 3.00955 103.681 3.60955C96.4712 4.11955 89.3011 5.00955 82.0411 4.85955C77.1911 4.75955 72.3412 4.78955 67.4912 4.79955C64.9612 4.79955 62.4312 4.93955 59.8912 5.09955C51.9412 5.57955 43.9712 6.59955 36.0612 4.72955C33.9412 4.22955 31.8411 3.83955 29.6611 3.93955C26.1511 4.60955 22.6212 5.18955 19.5512 7.24955C16.9512 8.98955 14.2512 10.5896 11.6812 12.3596C8.93116 14.2496 6.52114 16.5196 5.54114 19.8196C4.41114 23.6096 3.80114 27.4796 3.66114 31.4796C3.28114 41.7696 4.52119 52.0596 3.59119 62.3296C3.07119 67.9895 3.60118 73.6896 3.08118 79.3296C1.73118 93.8096 0.631161 108.31 0.621161 122.86C0.611161 131.88 1.72117 140.88 1.44117 149.91C1.35117 153.05 1.44116 156.17 1.93116 159.28C3.64116 170.07 5.81118 180.64 14.8912 188.12C20.9112 191.87 27.3612 193.82 34.5712 193.62C38.3312 193.52 42.1412 194.29 45.9012 194.87C51.5412 195.73 57.2312 196.17 62.8612 195.54C71.5812 194.56 80.3012 195.39 89.0212 195.08C96.8612 194.8 104.651 196.07 112.491 196.18C117.201 196.24 121.881 196.51 126.541 197.23C134.771 198.5 142.931 198.53 151.251 197.31C156.641 196.52 161.861 194.9 167.291 194.47C177.611 193.66 183.661 187.86 186.511 178.21C188.421 171.74 188.911 165.02 190.081 158.42C191.421 150.84 191.291 143.11 192.361 135.49C193.591 126.81 193.411 118.09 192.941 109.36C192.551 102.2 192.681 95.0396 193.021 87.8795C193.441 79.0995 194.591 70.3696 193.751 61.5295C193.171 55.4495 193.281 49.3396 193.971 43.2095C194.861 35.3095 194.871 27.3796 191.781 19.8296L191.761 19.8196ZM22.2311 17.7496C22.4611 16.9396 22.8812 16.6996 23.5312 16.5296C23.4612 17.3496 23.0611 17.6296 22.2311 17.7496ZM112.391 35.2495C113.351 35.1195 114.301 34.8996 115.261 34.9095C116.171 34.9296 117.071 35.3296 117.471 36.2196C121.631 45.3596 128.271 52.9595 133.251 61.6096C135.261 65.0995 138.171 68.0895 139.851 71.8495C141.171 74.7896 142.361 77.7395 142.481 81.3195C142.021 84.3296 141.871 87.7196 138.831 90.0096C136.921 91.4496 135.001 91.3895 133.001 90.3696C131.661 89.6796 130.481 88.7495 129.591 87.5295C126.551 83.3795 123.161 79.5595 119.591 75.8495C115.411 71.5096 112.481 66.1796 109.441 60.9795C107.341 57.3895 105.281 53.7795 103.721 49.9095C101.041 43.2495 105.231 36.2096 112.391 35.2396V35.2495ZM65.0612 93.5595C65.1912 93.5295 65.3112 93.5095 65.4412 93.4895C66.6312 90.0895 67.8212 86.6895 71.7612 85.4495C71.9212 85.3195 72.0812 85.1796 72.2412 85.0496C72.4212 84.2796 73.1311 84.7196 73.5411 84.4796C74.7511 83.1696 75.9512 83.1696 77.1512 84.4796C77.9012 84.7796 78.8612 84.1995 79.5012 85.0295C79.6512 85.1595 79.7912 85.2796 79.9412 85.4096C81.0212 85.1196 81.9012 86.0595 82.9612 85.9195C83.8412 85.2196 84.6511 85.0096 85.2211 86.2795L86.0812 86.3996C86.9712 86.3895 87.9212 86.0295 88.6912 86.8095C88.7712 86.9296 88.8412 87.0595 88.9012 87.1995C91.6312 87.5095 94.1612 88.5195 96.6512 89.5595C97.2812 89.8195 97.8512 89.9696 98.5012 90.0096C99.0512 89.9096 99.5311 89.7296 99.5411 89.0496C95.9911 86.4096 93.0011 83.0695 89.1611 80.7996C88.6711 80.5096 88.3012 80.0396 87.8712 79.6596C85.6512 77.6296 83.6312 75.4296 81.1312 73.6596C76.4912 70.3696 76.3412 62.4995 82.5012 60.3596C82.7312 59.1996 83.5912 59.4795 84.3612 59.5396C85.8212 59.5396 87.2711 59.5396 88.7311 59.5495C89.4911 59.4995 90.3611 59.1796 90.6011 60.3495C94.4411 62.0695 97.6212 64.8296 101.061 67.1496C104.411 69.4096 107.821 71.4195 111.481 73.1395C114.991 74.7896 118.041 77.0896 120.401 80.3996C122.441 83.2696 125.321 85.4895 127.321 88.4696C129.431 91.6196 129.461 97.3995 127.081 100.38C126.511 101.09 125.741 101.75 124.661 101.67C123.741 102.93 122.811 102.91 121.891 101.67C121.331 101.62 120.781 101.58 120.221 101.53C119.581 101.6 119.221 101.95 119.181 102.6C119.621 104.12 121.101 105.17 121.081 106.89C121.211 106.97 121.341 107.04 121.471 107.12C122.191 108.81 122.231 110.5 121.471 112.19C121.341 112.26 121.201 112.33 121.071 112.4C120.511 114.83 119.001 116.3 116.591 116.88C116.591 117.01 116.551 117.13 116.501 117.24C115.081 117.99 113.671 117.99 112.251 117.24C112.161 117.12 112.091 116.99 112.051 116.85C107.781 115.46 103.371 114.52 99.2612 112.64C98.8112 112.43 98.2712 112.4 97.7712 112.29C97.0212 112.31 96.1412 112.62 95.9212 111.46C94.9712 111.32 94.3312 110.31 93.2712 110.5C92.3812 110.5 91.5012 110.49 90.6112 110.48C89.8811 110.49 88.9912 110.86 88.7612 109.7C83.3412 108.28 78.4912 105.6 73.6912 102.81C71.5212 101.55 69.3912 100.22 67.2311 98.9495C66.3311 98.4195 65.6212 97.7596 65.4312 96.6796C65.2912 96.5396 65.1512 96.3996 65.0212 96.2495C64.3512 95.3495 64.3312 94.4595 65.0512 93.5695L65.0612 93.5595ZM60.6011 81.1096C61.5111 82.7196 60.6112 83.8596 60.0812 85.0595C59.4012 83.7095 59.8911 82.5196 60.6011 81.1096ZM61.0411 116.81C61.0811 116.08 60.6812 115.16 61.8412 114.9C61.7012 113.5 63.0111 112.56 62.9811 111.16C62.9711 110.5 63.7112 110.45 64.2012 110.49C66.7212 110.67 69.2512 109.99 71.7612 110.58C72.9012 110.59 74.1412 110.22 75.0012 111.38C78.1512 111.05 81.0811 112.71 84.2311 112.41C85.0011 112.35 85.8811 112.05 86.1011 113.23C86.9811 113.53 87.6411 114.42 88.7211 114.2C90.8611 114.25 93.1112 113.46 95.0712 114.99C95.3512 115.02 95.6311 115.05 95.9111 115.09C96.6611 115.06 97.5312 114.73 97.7812 115.88L97.7412 115.94C98.6112 115.96 99.4811 115.98 100.351 115.99C101.871 116.25 103.651 115.03 104.921 116.77C105.201 116.81 105.471 116.84 105.751 116.88C106.511 116.83 107.381 116.55 107.611 117.7C110.921 119.55 114.781 120.47 117.451 123.43C120.551 126.87 119.701 132.71 115.781 134.45C113.741 135.36 111.571 134.84 109.441 134.68C108.691 134.72 107.831 135.01 107.561 133.9C104.551 134.04 101.711 132.68 98.6912 132.88C97.4512 132.71 95.9612 133.67 95.0212 132.1C85.4712 132.31 75.9612 131.11 66.4212 131.09C65.6712 131.13 64.8112 131.46 64.5112 130.34C61.1912 130 59.3012 127.86 59.3012 124.58C59.3012 121.85 59.5912 119.22 61.0312 116.82L61.0411 116.81ZM83.4512 156.28C82.5212 157.94 81.0012 156.85 79.7712 157.08C77.4412 157.07 75.1112 157.06 72.7712 157.05C71.5112 156.9 70.0312 157.89 69.0612 156.3C68.5012 156.25 67.9312 156.2 67.3712 156.15C66.6112 156.2 65.7511 156.51 65.4711 155.38C61.9911 154.96 60.2012 152.77 60.2012 149.52C60.2012 148.2 60.2012 146.88 60.2012 145.55C60.3912 144.01 59.2012 142.22 61.0112 140.97C62.2312 139.18 64.0312 140.46 65.5312 140.12L65.5012 140.09C65.9312 138.58 67.1912 139.3 68.0812 139.19C69.0212 139.08 69.9812 139.22 70.9412 139.26C81.9212 138.08 92.9412 138.31 103.951 138.24C104.721 136.83 106.031 137.68 107.091 137.54C108.161 137.39 109.261 137.49 110.341 137.49L110.281 137.39C111.481 136.01 112.681 135.99 113.881 137.39C119.051 139.96 118.801 140.83 118.271 147.45C118.021 150.56 115.321 153.45 111.201 154.49C111.041 155.42 110.321 155.35 109.651 155.34C105.941 155.32 102.241 155.29 98.5312 155.26C97.4112 155.31 96.3012 155.36 95.1812 155.41C94.9412 156.3 94.2012 156.16 93.5612 156.16C90.1712 156.17 86.7712 156.16 83.3812 156.16L83.4412 156.27L83.4512 156.28ZM43.7612 22.0596C43.3012 22.8896 42.5512 22.9896 41.3612 23.3796C42.0412 22.0196 42.6812 21.6296 43.7612 22.0596ZM146.961 132.12C146.961 134.15 146.961 136.17 146.961 138.2C146.981 139.53 147.011 140.85 147.031 142.18C147.031 142.85 147.091 143.56 146.171 143.71L146.071 143.66C146.071 147.24 146.071 150.81 146.071 154.39C145.881 155.63 146.921 157.12 145.301 158.06C145.261 158.34 145.221 158.62 145.181 158.91C145.041 160.17 145.891 161.63 144.421 162.62C144.401 164.77 144.421 166.93 144.371 169.08C144.291 172.64 141.811 175.19 138.411 176.1C136.211 176.69 134.061 176.7 131.861 176.77C130.601 176.65 129.121 177.61 128.171 176.01C127.601 175.96 127.031 175.91 126.461 175.86C125.481 175.77 124.291 176.48 123.661 175.11C115.411 174.85 107.171 175.57 98.9912 176.2C89.9212 176.91 80.9011 176.69 71.8511 176.78C70.8911 176.64 69.6412 177.5 69.0712 175.99C68.5012 175.95 67.9211 175.92 67.3511 175.88C65.9611 175.9 64.5812 175.93 63.1912 175.94C62.5812 175.94 62.0012 175.9 61.8712 175.12C54.6412 175.09 47.4212 175.07 40.1912 175.02C37.6612 175 35.8711 174.04 34.6611 171.58C33.9311 170.09 34.8812 169.19 35.2812 168.38C35.8312 167.29 35.9512 166.35 35.8412 165.26C34.3912 164.64 35.2012 163.42 35.1112 162.45C35.0712 161.87 35.0312 161.29 35.0012 160.72C33.2412 159.44 34.4912 157.64 34.2112 156.11C34.1712 155.26 34.1312 154.42 34.0912 153.57C33.3312 153.43 33.2512 152.86 33.2512 152.23C33.2712 149.36 33.2912 146.49 33.3012 143.62C33.3012 136.79 33.3012 129.96 33.3012 123.14C33.4012 121.88 32.4912 120.41 34.0512 119.45C34.8312 114.99 38.8912 112.1 43.9612 112.37C44.7112 112.34 45.5711 112.04 45.8511 113.15C49.8911 112.85 51.4811 114.95 51.3511 118.91C51.1711 124.34 50.8411 129.82 51.4212 135.19C51.9511 140.11 51.0812 144.88 51.1112 149.72C51.1212 152.85 52.3712 155.81 52.0112 158.95C51.9012 159.93 52.6511 159.94 53.3511 159.93C55.5811 159.9 57.8112 159.88 60.0512 159.85C61.2812 160.08 62.8112 158.99 63.7012 160.68C65.3712 161.08 66.9912 161.32 68.7712 160.93C70.2212 160.61 71.7812 160.7 73.3112 161.39C74.8812 162.1 76.4012 160.8 78.0212 160.79C81.5812 160.77 85.1512 160.69 88.7112 160.64C88.9212 159.9 89.5112 159.9 90.1112 159.9C92.6712 159.9 95.2312 159.9 97.7812 159.9C104.931 159.86 112.091 159.68 119.241 159.85C122.321 159.92 125.221 159.05 128.221 158.84C129.501 158.75 130.141 157.62 129.701 156.41C129.021 154.52 129.091 152.59 129.091 150.67C129.071 141.5 129.131 132.33 129.151 123.17C128.981 121.85 128.891 120.56 129.921 119.5C129.951 119.21 129.981 118.93 130.021 118.64C129.991 117.89 129.651 117 130.831 116.77C132.671 113.23 136.221 112.17 140.671 114.4C142.451 115.29 143.741 116.65 144.341 118.6C145.771 119.14 145.041 120.37 145.201 121.32C145.231 121.59 145.261 121.87 145.291 122.14C146.731 122.74 145.951 123.95 146.061 124.92C146.101 125.8 146.141 126.67 146.181 127.55C147.851 128.85 146.781 130.6 146.931 132.14L146.961 132.12ZM160.501 77.0295C160.531 79.8596 159.661 81.1195 156.971 81.9495C156.151 82.1995 155.531 82.5895 155.061 83.3495C153.891 85.2196 152.131 86.1296 149.941 85.7996C147.611 85.4496 146.101 83.9395 145.191 81.8495C144.101 79.3596 144.051 76.6296 143.541 74.0096C142.781 70.0695 141.971 66.1196 141.521 62.1395C141.291 60.1595 140.081 59.3996 138.461 58.7396C138.601 58.5796 138.741 58.4296 138.881 58.2696C139.431 58.4296 139.971 58.5896 140.731 58.8096C140.401 56.6296 140.221 54.5695 139.771 52.5695C138.971 48.9696 138.981 45.3195 138.901 41.6695C138.851 39.4795 138.111 37.4296 137.861 35.2896C137.501 32.2196 137.271 29.2396 140.051 26.8996C144.061 23.5196 148.221 23.0496 152.711 25.7896C154.101 26.6396 154.651 28.0896 154.951 29.5296C156.391 36.3696 157.851 43.2095 159.071 50.0896C160.061 55.6595 160.731 61.2696 160.481 66.9696C160.331 70.3195 160.471 73.6796 160.501 77.0295ZM169.431 22.2896C170.584 22.5629 171.458 23.6329 172.051 25.4996C170.651 24.5396 170.201 23.3596 169.431 22.2896Z" fill="#E500A0"/>
<path d="M146.203 127.509C146.163 126.629 146.123 125.759 146.083 124.879C145.293 124.099 145.103 123.159 145.312 122.099C145.283 121.829 145.252 121.549 145.222 121.279C143.762 120.749 144.512 119.509 144.362 118.559C143.762 116.609 142.473 115.249 140.693 114.359C136.253 112.129 132.702 113.189 130.852 116.729C130.862 117.469 131.192 118.359 130.042 118.599C130.012 118.889 129.983 119.169 129.943 119.459C129.843 120.719 130.612 122.159 129.172 123.129C129.142 132.299 129.092 141.469 129.112 150.629C129.112 152.549 129.042 154.479 129.722 156.369C130.162 157.589 129.522 158.709 128.242 158.799C125.232 159.009 122.343 159.879 119.263 159.809C112.113 159.649 104.952 159.819 97.8025 159.859C97.6725 160.649 97.0825 160.689 96.4625 160.679C93.8825 160.659 91.3025 160.629 88.7225 160.599C85.1625 160.649 81.5925 160.729 78.0325 160.749C76.4225 160.749 74.8925 162.059 73.3225 161.349C71.8025 160.659 70.2325 160.579 68.7825 160.889C67.0025 161.279 65.3825 161.029 63.7125 160.639C62.4625 160.489 61.0325 161.159 60.0625 159.809C57.8325 159.839 55.6025 159.859 53.3625 159.889C52.6525 159.889 51.9025 159.889 52.0225 158.909C52.3925 155.769 51.1425 152.819 51.1225 149.679C51.1025 144.839 51.9725 140.059 51.4325 135.149C50.8525 129.779 51.1825 124.289 51.3625 118.869C51.4925 114.909 49.9025 112.809 45.8625 113.109C45.0925 113.179 44.2425 113.479 43.9725 112.329C38.9025 112.049 34.8525 114.949 34.0625 119.409C33.9325 120.659 34.7525 122.109 33.3125 123.099C33.3125 129.929 33.3125 136.759 33.3125 143.579C34.4625 144.909 33.9725 146.519 34.0525 148.019C34.1425 149.849 34.0925 151.689 34.1025 153.519C34.1425 154.369 34.1825 155.209 34.2225 156.059C35.7425 157.379 34.8325 159.119 35.0125 160.669C35.0525 161.249 35.0925 161.829 35.1225 162.399C36.5425 163.029 35.7625 164.229 35.8525 165.209C35.9525 166.299 35.8425 167.249 35.2925 168.329C34.8825 169.129 33.9425 170.029 34.6725 171.529C35.8825 173.999 37.6725 174.959 40.2025 174.969C47.4325 175.019 54.6525 175.039 61.8825 175.069C63.7025 175.329 65.7125 174.259 67.3625 175.829C67.9325 175.869 68.5125 175.899 69.0825 175.939C70.0525 176.059 71.2525 175.379 71.8625 176.729C80.9125 176.639 89.9325 176.859 99.0025 176.149C107.183 175.509 115.422 174.789 123.672 175.059C124.642 175.159 125.862 174.339 126.472 175.809C127.042 175.859 127.612 175.909 128.182 175.959C129.432 176.099 130.882 175.299 131.872 176.719C134.072 176.649 136.212 176.629 138.422 176.049C141.822 175.139 144.313 172.589 144.383 169.029C144.433 166.879 144.422 164.719 144.432 162.569C144.572 161.309 143.583 159.809 145.193 158.859C145.233 158.579 145.272 158.299 145.312 158.009C145.312 156.829 145.312 155.639 145.302 154.459C145.282 151.359 145.252 148.259 145.242 145.159C145.242 144.499 145.153 143.779 146.083 143.609L146.182 143.659C146.412 141.819 145.572 139.819 146.972 138.149C146.972 136.119 146.972 134.099 146.972 132.069C145.522 130.729 146.432 129.009 146.222 127.479L146.203 127.509Z" fill="#0E4BF3"/>
<path d="M109.43 60.9697C112.47 66.1697 115.4 71.4997 119.58 75.8397C123.16 79.5497 126.54 83.3697 129.58 87.5197C130.47 88.7297 131.65 89.6697 132.99 90.3597C134.99 91.3797 136.91 91.4397 138.82 89.9997C141.86 87.7097 142.01 84.3197 142.47 81.3097C142.35 77.7397 141.16 74.7797 139.84 71.8397C138.15 68.0797 135.25 65.0897 133.24 61.5997C128.26 52.9497 121.62 45.3597 117.46 36.2097C117.06 35.3197 116.16 34.9197 115.25 34.8997C114.3 34.8797 113.34 35.1097 112.38 35.2397C105.22 36.1997 101.03 43.2497 103.71 49.9097C105.26 53.7697 107.32 57.3797 109.43 60.9797V60.9697Z" fill="#F3BBF8"/>
<path d="M67.2514 98.9292C69.4114 100.199 71.5414 101.539 73.7114 102.789C78.5114 105.569 83.3614 108.259 88.7814 109.679C89.3614 109.679 89.9414 109.679 90.5214 109.679C91.4214 109.659 92.3714 109.309 93.1514 110.089C93.2014 110.219 93.2514 110.349 93.2914 110.489C94.3614 110.309 94.9914 111.319 95.9414 111.449C96.6814 111.449 97.5814 111.109 97.7914 112.279C98.2914 112.389 98.8214 112.419 99.2814 112.629C103.391 114.509 107.801 115.459 112.071 116.839C113.581 116.849 115.101 116.859 116.611 116.869C119.011 116.289 120.531 114.819 121.091 112.389C121.091 110.549 121.091 108.719 121.091 106.879C121.111 105.159 119.631 104.109 119.191 102.589C117.641 101.529 116.081 100.469 115.461 98.5492C115.301 98.5192 115.151 98.4892 114.991 98.4592C113.461 99.1492 113.181 97.2492 112.071 97.0592C111.151 96.4892 109.901 96.4392 109.341 95.3192C105.871 93.7792 102.391 92.2492 98.9314 90.6892C98.7214 90.5992 98.6414 90.2292 98.4914 89.9992C97.8514 89.9592 97.2714 89.8192 96.6414 89.5492C94.1514 88.4992 91.6214 87.4992 88.8914 87.1892C87.9714 87.1892 87.0414 87.1992 86.1214 87.2092C85.4114 87.1692 84.5214 87.5492 84.2914 86.4092C83.8514 86.2192 83.2214 86.5492 82.9614 85.9092C81.9014 86.0592 81.0214 85.1092 79.9414 85.3992C77.2114 85.4092 74.4914 85.4292 71.7614 85.4392C67.8214 86.6792 66.6314 90.0792 65.4414 93.4792C65.4414 94.5392 65.4414 95.5992 65.4414 96.6592C65.6414 97.7392 66.3414 98.3992 67.2414 98.9292H67.2514Z" fill="#7AE828"/>
<path d="M159.072 50.0791C157.852 43.1991 156.392 36.3591 154.952 29.5191C154.652 28.0791 154.102 26.6291 152.712 25.7791C148.222 23.0391 144.052 23.5091 140.052 26.8891C137.282 29.2291 137.502 32.2091 137.862 35.2791C138.112 37.4191 138.852 39.4691 138.902 41.6591C138.982 45.2991 138.972 48.9491 139.772 52.5591C140.212 54.5591 140.402 56.6191 140.732 58.7991C139.982 58.5791 139.432 58.4191 138.882 58.2591C138.742 58.4191 138.602 58.5691 138.462 58.7291C140.082 59.3991 141.302 60.1491 141.522 62.1291C141.982 66.1091 142.792 70.0591 143.542 73.9991C144.042 76.6191 144.102 79.3491 145.192 81.8391C146.102 83.9391 147.622 85.4491 149.942 85.7891C152.132 86.1191 153.892 85.2091 155.062 83.3391C155.542 82.5791 156.152 82.1891 156.972 81.9391C159.662 81.1091 160.532 79.8491 160.502 77.0191C160.472 73.6691 160.332 70.3091 160.482 66.9591C160.732 61.2591 160.062 55.6491 159.072 50.0791Z" fill="#EE8AF7"/>
<path d="M64.5108 130.319C65.2708 130.269 66.1408 129.929 66.4208 131.069C75.9708 131.089 85.4708 132.289 95.0208 132.079C96.2708 132.229 97.7308 131.359 98.6908 132.859C101.711 132.659 104.551 134.019 107.561 133.879C108.311 133.849 109.171 133.529 109.441 134.659C111.561 134.819 113.731 135.339 115.781 134.429C119.701 132.689 120.551 126.849 117.451 123.409C114.781 120.449 110.931 119.529 107.611 117.679C106.871 117.679 106.011 117.949 105.751 116.859C105.471 116.819 105.201 116.789 104.921 116.749C103.451 116.749 101.981 116.749 100.511 116.749C99.5608 116.579 98.2708 117.509 97.7408 115.919L97.7808 115.859C97.0408 115.859 96.1608 116.199 95.9108 115.069C95.6308 115.039 95.3508 115.009 95.0708 114.969C93.4008 114.969 91.7408 114.949 90.0708 114.949C89.4708 114.949 88.8908 114.929 88.7108 114.189C87.6408 114.409 86.9708 113.519 86.0908 113.219C85.3608 113.189 84.4908 113.479 84.2208 112.399C81.0708 112.699 78.1408 111.039 74.9908 111.369C73.8808 111.239 72.5208 112.109 71.7508 110.569C69.2408 109.979 66.7108 110.659 64.1908 110.479C63.7008 110.439 62.9508 110.489 62.9708 111.149C63.0008 112.549 61.6808 113.489 61.8308 114.889C61.8508 115.649 62.2608 116.569 61.0308 116.799C59.5908 119.199 59.3008 121.829 59.3008 124.559C59.3008 127.829 61.1908 129.979 64.5108 130.319Z" fill="#4A78FE"/>
<path d="M110.282 94.4491C111.162 94.6691 111.872 95.0991 112.142 96.0291C113.662 96.1791 114.762 96.8191 114.992 98.4691C115.152 98.4991 115.302 98.5291 115.462 98.5591C115.642 98.4391 115.922 98.1691 115.972 98.2091C117.402 99.2991 118.812 100.419 120.222 101.529C120.782 101.579 121.332 101.619 121.892 101.669C122.812 101.669 123.742 101.669 124.662 101.669C125.732 101.739 126.512 101.089 127.082 100.379C129.452 97.3991 129.432 91.6191 127.322 88.4691C125.322 85.4891 122.442 83.2691 120.402 80.3991C118.052 77.0891 115.002 74.7791 111.482 73.1391C107.822 71.4291 104.412 69.4191 101.062 67.1491C97.6219 64.8291 94.4418 62.0691 90.6018 60.3491C89.8718 60.3191 88.9818 60.6991 88.7318 59.5491C87.2718 59.5491 85.8218 59.5491 84.3619 59.5391C84.1219 60.6691 83.2419 60.3491 82.5019 60.3591C76.3419 62.5091 76.4919 70.3791 81.1319 73.6591C83.6319 75.4291 85.6519 77.6291 87.8719 79.6591C88.2919 80.0491 88.6718 80.5191 89.1618 80.7991C93.0018 83.0691 95.9918 86.4091 99.5418 89.0491C103.122 90.8491 106.702 92.6591 110.282 94.4591V94.4491Z" fill="#518828"/>
<path d="M84.9527 155.32C88.3627 155.34 91.7827 155.38 95.1927 155.41C96.3127 155.36 97.4227 155.31 98.5427 155.26C98.7827 154.37 99.5227 154.5 100.163 154.5C103.843 154.48 107.533 154.49 111.213 154.49C115.333 153.45 118.033 150.56 118.283 147.45C118.813 140.83 119.063 139.95 113.893 137.39C112.693 137.39 111.493 137.39 110.293 137.39L110.353 137.49C109.993 138.75 108.923 138.29 108.143 138.32C106.753 138.38 105.363 138.28 103.963 138.24C92.9527 138.31 81.9227 138.08 70.9527 139.26C69.3427 140.86 67.3027 139.69 65.5127 140.09L65.5427 140.12C65.4427 141.07 64.7027 141.08 64.0727 140.98C62.8927 140.8 61.9827 141.34 61.0627 141.9C60.6927 143.09 61.5927 144.58 60.2227 145.55C60.2227 146.87 60.2227 148.19 60.2227 149.52C60.2227 152.77 62.0127 154.96 65.4927 155.38C66.2427 155.35 67.1127 155.01 67.3927 156.15C67.9527 156.2 68.5227 156.25 69.0827 156.3C70.3427 156.42 71.7927 155.63 72.7827 157.05C75.1127 157.06 77.4427 157.07 79.7827 157.08C80.7627 155.68 82.2027 156.4 83.4627 156.28L83.4027 156.17C83.5727 155.24 84.3027 155.32 84.9627 155.33L84.9527 155.32Z" fill="#0E4BF3"/>
<path d="M98.94 90.6893C102.4 92.2493 105.88 93.7793 109.35 95.3193C109.9 95.2793 110.29 95.0693 110.28 94.4393C106.7 92.6393 103.12 90.8293 99.54 89.0293C99.53 89.7093 99.05 89.8993 98.5 89.9893C98.64 90.2293 98.73 90.5893 98.94 90.6793V90.6893Z" fill="#CD2289"/>
<path d="M98.543 155.249C102.253 155.279 105.953 155.309 109.663 155.329C110.323 155.329 111.053 155.409 111.213 154.479C107.533 154.479 103.843 154.48 100.163 154.49C99.523 154.49 98.783 154.369 98.543 155.249Z" fill="#B611B2"/>
<path d="M95.1906 155.409C91.7806 155.379 88.3606 155.349 84.9506 155.319C84.2906 155.319 83.5606 155.239 83.3906 156.159C86.7806 156.159 90.1806 156.159 93.5706 156.159C94.2106 156.159 94.9506 156.299 95.1906 155.409Z" fill="#4139DF"/>
<path d="M145.233 145.189C145.253 148.289 145.273 151.389 145.293 154.489C145.553 154.449 145.813 154.409 146.073 154.379C146.073 150.799 146.073 147.229 146.073 143.649C145.143 143.819 145.233 144.539 145.233 145.199V145.189Z" fill="#4838D9"/>
<path d="M34.0517 148.059C33.9817 146.559 34.4717 144.939 33.3117 143.619C33.2917 146.489 33.2817 149.359 33.2617 152.229C33.2617 152.849 33.3317 153.419 34.1017 153.569C34.1017 151.739 34.1417 149.899 34.0517 148.069V148.059Z" fill="#9D19BC"/>
<path d="M96.4605 160.71C97.0705 160.71 97.6705 160.67 97.8005 159.89C95.2405 159.89 92.6805 159.89 90.1305 159.89C89.5305 159.89 88.9405 159.89 88.7305 160.63C91.3105 160.66 93.8905 160.68 96.4705 160.71H96.4605Z" fill="#5F2FD3"/>
<path d="M115.461 98.5493C116.081 100.469 117.641 101.529 119.191 102.589C119.231 101.939 119.581 101.589 120.231 101.519C118.821 100.409 117.411 99.2893 115.981 98.1993C115.931 98.1593 115.641 98.4293 115.471 98.5493H115.461Z" fill="#CB2089"/>
<path d="M108.121 138.31C108.911 138.28 109.971 138.74 110.331 137.48C109.241 137.48 108.141 137.39 107.081 137.53C106.031 137.68 104.721 136.83 103.941 138.23C105.331 138.26 106.731 138.36 108.121 138.31Z" fill="#5A2FDA"/>
<path d="M90.0805 114.95C91.7505 114.95 93.4105 114.96 95.0805 114.97C93.1205 113.44 90.8705 114.24 88.7305 114.18C88.9105 114.92 89.4805 114.94 90.0905 114.94L90.0805 114.95Z" fill="#AA30C5"/>
<path d="M146.173 143.699C147.093 143.549 147.043 142.839 147.033 142.169C147.023 140.839 146.993 139.519 146.963 138.189C145.563 139.859 146.393 141.859 146.173 143.699Z" fill="#C20BB1"/>
<path d="M70.9322 139.25C69.9822 139.22 69.0122 139.07 68.0722 139.18C67.1722 139.29 65.9122 138.57 65.4922 140.08C67.2822 139.67 69.3222 140.85 70.9322 139.25Z" fill="#951BC3"/>
<path d="M61.04 141.909C61.96 141.349 62.87 140.809 64.05 140.989C64.68 141.089 65.42 141.079 65.52 140.129C64.03 140.469 62.22 139.189 61 140.979C61.01 141.289 61.02 141.599 61.03 141.909H61.04Z" fill="#6D2ACC"/>
<path d="M61.8594 175.11C61.9794 175.89 62.5694 175.94 63.1794 175.93C64.5694 175.91 65.9494 175.89 67.3394 175.87C65.6994 174.3 63.6894 175.37 61.8594 175.11Z" fill="#8421C8"/>
<path d="M34.2104 156.09C34.4804 157.63 33.2304 159.42 35.0004 160.7C34.8204 159.15 35.7304 157.41 34.2104 156.09Z" fill="#C20DA8"/>
<path d="M60.603 81.1094C59.893 82.5194 59.403 83.7094 60.083 85.0594C60.613 83.8594 61.513 82.7194 60.603 81.1094Z" fill="#F12BB5"/>
<path d="M61.0423 141.91C61.0323 141.6 61.0223 141.289 61.0123 140.979C59.2023 142.239 60.3923 144.019 60.2023 145.559C61.5723 144.599 60.6723 143.11 61.0423 141.91Z" fill="#A614BF"/>
<path d="M146.201 127.51C146.411 129.05 145.501 130.77 146.951 132.1C146.801 130.55 147.871 128.81 146.201 127.51Z" fill="#9C19C0"/>
<path d="M100.519 116.739C101.989 116.739 103.459 116.739 104.929 116.739C103.659 114.999 101.879 116.219 100.359 115.959C100.409 116.219 100.469 116.479 100.519 116.739Z" fill="#C519B4"/>
<path d="M79.9495 85.3995C79.7995 85.2695 79.6595 85.1495 79.5095 85.0195C77.0895 85.0195 74.6695 85.0295 72.2495 85.0395C72.0895 85.1695 71.9295 85.3095 71.7695 85.4395C74.4995 85.4295 77.2195 85.4095 79.9495 85.3995Z" fill="#98D048"/>
<path d="M79.51 85.0197C78.88 84.1997 77.92 84.7697 77.16 84.4697C75.96 84.4697 74.75 84.4697 73.55 84.4697C73.14 84.7097 72.43 84.2697 72.25 85.0397C74.67 85.0397 77.09 85.0297 79.51 85.0197Z" fill="#7DAD2E"/>
<path d="M63.7203 160.67C62.8203 158.98 61.3003 160.07 60.0703 159.84C61.0403 161.19 62.4803 160.52 63.7203 160.67Z" fill="#C00DAF"/>
<path d="M128.18 175.999C129.13 177.599 130.61 176.639 131.87 176.759C130.88 175.329 129.43 176.139 128.18 175.999Z" fill="#971BC0"/>
<path d="M95.0312 132.08C95.9712 133.66 97.4612 132.7 98.7012 132.86C97.7412 131.36 96.2812 132.23 95.0312 132.08Z" fill="#9E38C6"/>
<path d="M144.421 162.6C145.891 161.61 145.041 160.15 145.181 158.89C143.571 159.85 144.561 161.34 144.421 162.6Z" fill="#4F35DB"/>
<path d="M77.1608 84.4698C75.9608 83.1598 74.7508 83.1598 73.5508 84.4698C74.7508 84.4698 75.9608 84.4698 77.1608 84.4698Z" fill="#D81D8F"/>
<path d="M145.293 154.489C145.293 155.669 145.293 156.859 145.303 158.039C146.913 157.099 145.883 155.609 146.073 154.369C145.813 154.409 145.553 154.449 145.293 154.479V154.489Z" fill="#A118B9"/>
<path d="M69.0625 156.299C70.0225 157.889 71.5125 156.899 72.7725 157.049C71.7725 155.629 70.3325 156.419 69.0725 156.299H69.0625Z" fill="#AD13B5"/>
<path d="M110.281 137.37C111.481 137.37 112.681 137.37 113.881 137.37C112.681 135.97 111.481 135.99 110.281 137.37Z" fill="#CD08AA"/>
<path d="M79.7617 157.08C81.0017 156.85 82.5217 157.93 83.4417 156.28C82.1817 156.4 80.7417 155.68 79.7617 157.08Z" fill="#C909AD"/>
<path d="M34.0608 119.439C32.5008 120.409 33.4108 121.869 33.3108 123.129C34.7508 122.139 33.9308 120.689 34.0608 119.439Z" fill="#8522C2"/>
<path d="M129.95 119.47C128.92 120.53 129 121.83 129.18 123.14C130.62 122.16 129.86 120.72 129.95 119.47Z" fill="#911DC1"/>
<path d="M75.0017 111.37C74.1417 110.21 72.9017 110.58 71.7617 110.57C72.5217 112.11 73.8817 111.24 75.0017 111.37Z" fill="#6563ED"/>
<path d="M69.0625 175.98C69.6325 177.49 70.8825 176.63 71.8425 176.77C71.2225 175.41 70.0325 176.1 69.0625 175.98Z" fill="#AD14B9"/>
<path d="M123.66 175.1C124.3 176.47 125.49 175.75 126.46 175.85C125.85 174.38 124.63 175.2 123.66 175.1Z" fill="#652DD2"/>
<path d="M121.902 101.649C122.822 102.889 123.752 102.909 124.672 101.649C123.752 101.649 122.822 101.649 121.902 101.649Z" fill="#AC3377"/>
<path d="M35.1106 162.439C35.2106 163.419 34.4006 164.629 35.8406 165.249C35.7406 164.269 36.5206 163.069 35.1106 162.439Z" fill="#7725CE"/>
<path d="M121.09 112.39C121.22 112.32 121.36 112.25 121.49 112.18C121.49 110.49 121.49 108.8 121.49 107.11C121.36 107.03 121.23 106.96 121.1 106.88C121.1 108.72 121.1 110.55 121.1 112.39H121.09Z" fill="#C19F73"/>
<path d="M145.223 121.289C145.063 120.339 145.793 119.119 144.363 118.569C144.513 119.519 143.763 120.749 145.223 121.289Z" fill="#7228D0"/>
<path d="M121.492 112.18C122.242 110.49 122.212 108.8 121.492 107.1C121.492 108.79 121.492 110.48 121.492 112.18Z" fill="#8B763F"/>
<path d="M100.52 116.739C100.47 116.479 100.41 116.219 100.36 115.959C99.49 115.939 98.62 115.919 97.75 115.909C98.28 117.499 99.57 116.569 100.52 116.739Z" fill="#6862EB"/>
<path d="M84.3027 86.4098L85.2327 86.2697C84.6627 85.0097 83.8527 85.2098 82.9727 85.9098C83.2427 86.5498 83.8727 86.2198 84.3027 86.4098Z" fill="#CF2E8A"/>
<path d="M146.08 124.889C145.97 123.919 146.75 122.709 145.31 122.109C145.1 123.169 145.29 124.109 146.08 124.889Z" fill="#7427CD"/>
<path d="M112.27 117.229C113.69 117.979 115.1 117.979 116.52 117.229C115.1 117.229 113.69 117.229 112.27 117.229Z" fill="#9D5053"/>
<path d="M112.082 116.84C112.122 116.99 112.182 117.12 112.282 117.23C113.702 117.23 115.112 117.23 116.532 117.23C116.582 117.11 116.612 116.99 116.622 116.87C115.112 116.86 113.592 116.85 112.082 116.84Z" fill="#CD8084"/>
<path d="M107.57 133.879C107.85 134.989 108.7 134.699 109.45 134.659C109.18 133.539 108.32 133.849 107.57 133.879Z" fill="#A133CA"/>
<path d="M64.5117 130.319C64.8117 131.439 65.6717 131.109 66.4217 131.069C66.1317 129.929 65.2617 130.269 64.5117 130.319Z" fill="#844DDC"/>
<path d="M84.36 59.5192C83.59 59.4592 82.73 59.1792 82.5 60.3392C83.24 60.3392 84.11 60.6492 84.36 59.5192Z" fill="#A23F67"/>
<path d="M90.6005 60.3295C90.3605 59.1595 89.4905 59.4795 88.7305 59.5295C88.9805 60.6795 89.8705 60.3095 90.6005 60.3295Z" fill="#A03E6A"/>
<path d="M84.3008 86.4098C84.5308 87.5498 85.4208 87.1598 86.1308 87.2098C86.1308 87.0598 86.1308 86.9198 86.1708 86.7698C86.1408 86.6398 86.1108 86.5098 86.0908 86.3798L85.2308 86.2598L84.3008 86.3998V86.4098Z" fill="#86CA39"/>
<path d="M130.851 116.739C129.671 116.969 130.011 117.859 130.041 118.609C131.191 118.369 130.861 117.489 130.851 116.739Z" fill="#5333DE"/>
<path d="M107.622 117.679C107.392 116.529 106.522 116.819 105.762 116.859C106.022 117.949 106.882 117.669 107.622 117.679Z" fill="#9F35CC"/>
<path d="M65.4727 155.38C65.7527 156.51 66.6127 156.2 67.3727 156.15C67.0927 155.01 66.2227 155.35 65.4727 155.38Z" fill="#911EC1"/>
<path d="M97.7919 115.859C97.5419 114.709 96.6719 115.039 95.9219 115.069C96.1819 116.199 97.0519 115.869 97.7919 115.859Z" fill="#9A3BD0"/>
<path d="M61.8314 114.89C60.6714 115.16 61.0714 116.07 61.0314 116.8C62.2614 116.56 61.8514 115.64 61.8314 114.89Z" fill="#7159EA"/>
<path d="M90.6812 110.079C90.6212 109.949 90.5612 109.819 90.5212 109.689C89.9412 109.689 89.3612 109.689 88.7812 109.689C89.0212 110.849 89.9012 110.479 90.6312 110.469C90.6312 110.339 90.6512 110.209 90.6812 110.079Z" fill="#CA3884"/>
<path d="M95.9414 111.45C96.1614 112.61 97.0414 112.3 97.7914 112.28C97.5714 111.11 96.6814 111.46 95.9414 111.45Z" fill="#BB586C"/>
<path d="M45.8627 113.139C45.5827 112.039 44.7227 112.329 43.9727 112.359C44.2427 113.499 45.0927 113.209 45.8627 113.139Z" fill="#6D29D3"/>
<path d="M86.1122 113.21C85.8822 112.03 85.0122 112.33 84.2422 112.39C84.5122 113.47 85.3822 113.18 86.1122 113.21Z" fill="#A92DC3"/>
<path d="M65.0312 96.2295C65.1713 96.3695 65.3112 96.5095 65.4412 96.6595C65.4412 95.5995 65.4412 94.5395 65.4412 93.4795C65.3112 93.4995 65.1812 93.5195 65.0612 93.5495C65.0612 94.4395 65.0412 95.3395 65.0312 96.2295Z" fill="#D3698F"/>
<path d="M90.6814 110.079C90.6414 110.209 90.6215 110.329 90.6315 110.469C91.5215 110.469 92.4014 110.479 93.2914 110.489C93.2514 110.359 93.2015 110.219 93.1515 110.089C92.3315 110.089 91.5115 110.089 90.6915 110.079H90.6814Z" fill="#906743"/>
<path d="M65.0297 96.2298C65.0297 95.3398 65.0497 94.4398 65.0597 93.5498C64.3397 94.4398 64.3597 95.3298 65.0297 96.2298Z" fill="#A73C63"/>
<path d="M86.1728 86.7695C86.1428 86.9095 86.1328 87.0595 86.1328 87.2095C87.0528 87.2095 87.9828 87.1995 88.9028 87.1895C88.8428 87.0495 88.7728 86.9295 88.6928 86.7995C87.8528 86.7995 87.0128 86.7795 86.1628 86.7695H86.1728Z" fill="#B1B363"/>
<path d="M86.1698 86.7691C87.0098 86.7691 87.8498 86.7891 88.6998 86.7991C87.9298 86.0091 86.9898 86.3691 86.0898 86.3891C86.1098 86.5191 86.1398 86.6491 86.1698 86.7791V86.7691Z" fill="#8D7640"/>
<path d="M112.149 96.0194C111.869 95.0894 111.169 94.6595 110.289 94.4395C110.289 95.0695 109.899 95.2795 109.359 95.3195C109.919 96.4395 111.169 96.4894 112.089 97.0594C112.109 96.7094 112.129 96.3694 112.159 96.0194H112.149Z" fill="#B83D77"/>
<path d="M112.152 96.0195C112.132 96.3695 112.112 96.7095 112.082 97.0595C113.182 97.2495 113.472 99.1495 115.002 98.4595C114.772 96.8095 113.672 96.1695 112.152 96.0195Z" fill="#C2397B"/>
<path d="M90.6817 110.079C91.5017 110.079 92.3217 110.079 93.1417 110.089C92.3617 109.309 91.4117 109.669 90.5117 109.679C90.5517 109.819 90.6117 109.949 90.6717 110.069L90.6817 110.079Z" fill="#C29A75"/>
</svg>
