<svg width="284" height="127" viewBox="0 0 284 127" fill="none" xmlns="http://www.w3.org/2000/svg">
<path d="M20.0634 45.1959C20.1226 46.3906 20.0843 47.338 19.9345 48.2819C19.7952 49.1735 20.0704 50.006 20.3455 50.8245C20.9621 52.6671 21.7039 54.4678 22.8777 56.0317C23.7485 57.1916 24.9188 57.836 26.42 58.045C28.7607 58.3758 31.0943 58.5082 33.4524 58.5221C34.3545 58.5291 35.2601 58.6789 36.1587 58.8043C37.2489 58.9575 38.0222 59.7343 38.1336 60.7304C38.2416 61.6987 37.6878 62.6322 36.622 62.9491C33.9156 63.7537 31.4949 65.1992 28.9104 66.279C27.9387 66.6865 27.0888 67.3378 26.3016 68.0344C25.4274 68.8042 25.1034 69.9083 24.8422 70.9846C24.1665 73.7711 24.2327 76.5854 24.6785 79.3997C24.783 80.0546 24.8596 80.7094 24.6332 81.3572C24.271 82.3917 23.5674 83.0291 22.4737 83.1336C21.4009 83.2346 20.5754 82.7574 20.0739 81.824C19.5479 80.8382 19.2205 79.7689 18.914 78.6961C18.7329 78.0692 18.4751 77.498 17.9945 77.0417C17.9631 77.0138 17.9353 76.9825 17.9178 76.9476C16.6918 74.8021 14.6228 73.5551 12.7455 72.1062C12.0001 71.5315 11.3662 70.8383 10.4745 70.4203C8.52048 69.5008 6.5003 68.8355 4.37214 68.4907C3.56406 68.3618 2.84306 68.1285 2.42161 67.3622C2.28577 67.1114 2.04544 67.1358 1.82949 67.1114C1.35579 67.0522 0.889054 66.9825 0.474567 66.7178C0.129742 66.4984 -0.0687936 66.2023 0.0356988 65.7844C0.133225 65.3943 0.453669 65.3037 0.80546 65.3002C1.8887 65.2898 2.82216 64.9449 3.74518 64.3459C4.75527 63.691 5.91862 63.2974 6.91478 62.566C9.77091 60.4727 12.0175 57.7768 14.3546 55.1714C15.3891 54.0185 15.612 52.4999 15.9011 51.0474C16.4793 48.1251 16.8067 45.1785 16.7092 42.19C16.6988 41.9218 16.7231 41.6536 16.7615 41.3889C16.8834 40.5808 17.4232 40.0653 18.1373 40.0409C18.8931 40.0165 19.4852 40.5042 19.635 41.3262C19.8858 42.6881 20.0878 44.0534 20.0739 45.1994L20.0634 45.1959Z" fill="#E500A0"/>
<path d="M77.9839 23.1C76.5523 23.1592 75.1138 23.1244 73.7902 22.386C73.5395 22.2467 73.2329 22.2536 72.9404 22.2432C71.9094 22.2014 70.8784 22.1561 69.8474 22.0969C69.5409 22.0795 69.2274 22.0342 68.9348 21.9506C67.8829 21.6476 67.5938 20.6514 68.3357 19.8329C68.5482 19.596 68.6353 19.4567 68.4925 19.1154C68.2661 18.5755 68.6562 18.1924 69.2379 18.2516C69.6036 18.2899 69.9797 18.2585 70.349 18.2446C70.5127 18.2376 70.6798 18.1506 70.8366 18.1715C72.5677 18.4118 74.1699 17.7883 75.8209 17.4714C77.0748 17.231 78.3635 17.3843 79.6418 17.1823C83.5847 16.5588 86.6916 14.6431 89.0427 11.4422C89.694 10.554 89.8612 9.52297 89.997 8.47457C90.2687 6.36034 90.2478 4.23217 90.2687 2.1075C90.2687 1.82188 90.2896 1.52582 90.3593 1.25066C90.5369 0.52966 91.0176 0.0942746 91.6584 0.0141637C92.4178 -0.0798795 93.0656 0.240564 93.4174 0.898866C93.6334 1.30639 93.717 1.74874 93.7309 2.21199C93.7692 3.55297 93.7239 4.89396 93.818 6.23495C93.9364 7.91031 94.2533 9.56129 94.7723 11.1391C95.1555 12.306 95.7162 13.5146 97.1582 13.8315C97.2801 13.8594 97.402 13.8908 97.524 13.8873C99.9586 13.842 102.39 13.9151 104.828 13.7654C106.59 13.6574 108.36 13.3265 110.133 13.6435C111.31 13.8524 112.08 14.6466 112.209 15.7159C112.338 16.7782 111.77 17.7639 110.693 18.2342C110.108 18.4884 109.481 18.6382 108.886 18.8716C105.929 20.0245 102.86 20.8952 100.025 22.3407C98.4853 23.1279 97.0154 24.0544 95.6396 25.1167C94.8838 25.7019 94.4171 26.3602 94.4623 27.4086C94.5947 30.2926 94.6295 33.1801 95.1485 36.0362C95.2774 36.7502 95.361 37.4747 95.1485 38.1852C94.8281 39.258 93.9329 39.9651 92.8392 40.0452C91.7943 40.1218 90.7424 39.4984 90.2687 38.443C89.7079 37.1926 89.3631 35.8725 89.2482 34.5071C89.182 33.7269 89.0218 33.0164 88.5097 32.3894C88.1301 31.9262 87.8375 31.3898 87.6912 30.8046C87.3743 29.5542 86.4338 28.7496 85.6188 27.8544C85.2008 27.3947 84.8351 26.907 84.4972 26.3846C83.4662 24.7998 81.9337 23.8384 80.2235 23.1767C79.5373 22.9119 78.7501 23.1383 77.9873 23.0965L77.9839 23.1Z" fill="#E500A0"/>
<path d="M177.38 88.2434C177.174 90.901 176.822 93.5098 175.544 95.9341C174.837 97.2785 174.778 98.8285 174.712 100.337C174.705 100.459 174.732 100.584 174.725 100.709C174.656 102.427 175.29 103.653 177.031 104.199C177.655 104.394 178.229 104.75 178.811 105.056C180.215 105.802 181.73 106.042 183.294 106.066C183.977 106.077 184.593 106.31 185.161 106.655C185.976 107.15 186.383 107.885 186.275 108.839C186.174 109.744 185.638 110.34 184.778 110.629C183.562 111.037 182.312 111.301 181.044 111.49C180.302 111.601 179.595 111.824 178.916 112.127C177.644 112.695 176.317 113.064 174.952 113.308C174.478 113.391 174.05 113.6 173.639 113.834C173.353 113.997 173.085 114.196 172.789 114.342C170.278 115.582 169.32 117.86 168.79 120.389C168.494 121.799 168.362 123.245 168.094 124.663C167.853 125.941 166.934 126.728 165.77 126.766C164.6 126.805 163.618 126.017 163.27 124.771C163.151 124.349 163.113 123.921 163.102 123.485C163.061 121.712 163.008 119.936 162.967 118.163C162.953 117.578 162.859 117.021 162.608 116.484C161.911 114.993 161.375 113.423 160.173 112.214C159.748 111.786 159.365 111.326 158.818 111.065C157.871 110.612 157.202 109.703 156.136 109.441C154.311 108.989 152.772 107.999 151.326 106.85C150.33 106.059 149.915 104.739 150.278 103.694C150.664 102.58 151.755 101.883 153.096 101.855C153.998 101.838 154.83 102.05 155.52 102.625C156.175 103.168 156.861 103.172 157.61 102.928C158.606 102.608 159.417 101.946 160.319 101.455C162.496 100.271 164.736 99.2291 166.997 98.2225C168.661 97.4806 170.149 96.4322 171.636 95.3942C171.963 95.1643 172.179 94.8543 172.298 94.4538C172.935 92.2768 173.59 90.1034 174.241 87.93C174.377 87.4702 174.572 87.0348 174.886 86.6726C175.29 86.2058 175.781 85.9376 176.422 86.1327C177.021 86.3173 177.338 86.7805 177.373 87.505C177.383 87.7523 177.373 87.9996 177.373 88.2469L177.38 88.2434Z" fill="#E500A0"/>
<path d="M282.015 68.3104C281.995 68.3104 281.974 68.3174 281.953 68.3104C280.445 67.7601 278.846 68.0666 277.303 67.8158C275.993 67.6033 274.67 67.6765 273.353 67.7705C272.841 67.8088 272.329 67.9133 271.817 67.9342C269.846 68.0178 268.633 69 268.202 70.9262C268.003 71.8109 267.857 72.706 267.686 73.5977C267.522 74.4511 267.209 75.2278 266.47 75.7503C265.178 76.6628 263.433 75.8617 263.238 74.2073C263.071 72.7966 263.019 71.3685 262.963 69.9474C262.935 69.2195 262.841 68.5124 262.646 67.8123C262.535 67.4152 262.399 67.0077 262.399 66.6037C262.395 65.3881 261.807 64.385 261.27 63.3679C260.901 62.6678 260.382 62.1001 259.654 61.7134C258.623 61.1666 257.937 60.3132 257.711 59.1394C257.407 57.5581 258.627 56.238 260.218 56.4366C260.932 56.5236 261.636 56.663 262.336 56.858C263.681 57.2342 265.042 57.0148 266.383 56.7675C269.114 56.2624 271.409 54.9981 273.186 52.8177C273.882 51.9608 274.088 50.8811 274.61 49.9511C274.893 49.4495 275.108 48.9061 275.412 48.4185C275.728 47.91 276.188 47.5652 276.822 47.5303C277.947 47.4642 278.64 48.5056 278.254 49.6864C277.864 50.8741 277.125 51.8842 276.547 52.9779C275.634 54.7124 275.283 56.5829 275.593 58.4916C275.816 59.8779 276.892 60.7939 277.972 61.6124C279.421 62.7131 281.026 63.563 282.583 64.4929C283.029 64.7611 283.468 65.0433 283.736 65.503C284.488 66.7918 283.555 68.3139 282.019 68.3174L282.015 68.3104Z" fill="#E500A0"/>
<path d="M255.317 19.6029C256.316 19.6238 257.156 20.0209 257.88 20.6861C258.246 21.024 258.601 21.2399 259.151 21.0135C259.559 20.8464 260.012 21.0344 260.423 21.1529C262.37 21.7102 264.258 21.6126 266.079 20.6896C266.135 20.6617 266.191 20.6339 266.25 20.62C267.281 20.3483 268.005 19.7979 268.406 18.7286C268.751 17.8056 269.465 17.0672 270.165 16.3601C270.541 15.9805 271.004 15.7471 271.534 15.7053C272.22 15.6496 272.861 15.775 273.303 16.3706C273.756 16.9836 273.641 17.628 273.31 18.2375C272.725 19.3103 272.067 20.3378 271.064 21.0797C270.332 21.6196 270.067 22.3545 270.05 23.2253C269.998 25.8968 269.987 25.9038 271.886 27.7951C272.742 28.6485 273.495 29.6063 274.568 30.2472C275.201 30.6234 275.397 31.313 275.188 32.0479C274.975 32.7829 274.442 33.1625 273.704 33.2635C273.293 33.3193 272.85 33.3611 272.485 33.1625C270.597 32.135 268.542 32.1106 266.483 32.1594C265.191 32.1907 264.198 32.8107 263.498 33.8766C262.899 34.7891 262.345 35.733 261.76 36.6561C261.266 37.4398 260.447 37.8264 259.663 37.6731C258.855 37.5164 258.284 36.8825 258.103 35.949C258.016 35.4927 258.061 35.0469 258.169 34.601C258.326 33.9532 258.629 33.3645 258.887 32.7585C259.472 31.3827 259.559 29.9198 259.618 28.4569C259.639 27.9902 259.493 27.5234 259.141 27.2169C258.441 26.6004 257.911 25.8237 257.215 25.2107C256.696 24.7544 256.278 24.2424 256.083 23.5492C255.947 23.0686 255.498 22.8247 255.097 22.5705C254.888 22.4381 254.658 22.3371 254.456 22.1943C253.819 21.7415 253.575 21.1076 253.784 20.4841C253.983 19.885 254.519 19.5715 255.313 19.5924L255.317 19.6029Z" fill="#0E4BF3"/>
<path d="M168.643 41.097C168.643 40.5119 168.796 39.9511 168.953 39.3973C169.051 39.0559 169.019 38.847 168.664 38.6449C167.4 37.9344 166.275 37.0358 165.247 36.0117C164.533 35.2977 164.303 34.4618 164.631 33.5178C164.948 32.6053 165.669 32.1455 166.609 32.0758C167.117 32.0375 167.508 31.839 167.866 31.5011C170.423 29.0874 172.579 26.3636 174.15 23.2079C174.505 22.4939 174.676 21.6893 174.958 20.937C175.292 20.0418 175.714 19.1954 176.407 18.5127C176.63 18.2933 176.87 18.1017 177.156 17.9729C177.727 17.7116 178.399 17.8231 178.754 18.2306C179.099 18.6277 179.148 19.2686 178.768 19.7806C176.957 22.2222 176.525 25.1515 175.832 27.9867C175.703 28.5161 176.358 29.6272 176.964 29.9059C177.939 30.3587 178.946 30.6687 180.036 30.7906C181.429 30.9473 182.823 31.0936 184.219 31.2329C185.205 31.3305 185.728 31.9505 185.693 32.8143C185.658 33.6119 185.041 34.2214 184.118 34.2493C181.851 34.3224 179.723 34.8797 177.727 35.963C177.619 36.0222 177.501 36.0744 177.417 36.1615C176.156 37.4816 174.7 38.6345 173.979 40.4039C173.634 41.2433 173.154 42.02 172.513 42.6818C171.698 43.5213 170.837 43.7755 169.96 43.4237C169.117 43.0859 168.64 42.243 168.65 41.097H168.643Z" fill="#0E4BF3"/>
<path d="M45.5718 94.5137C45.6032 95.6562 45.4081 96.7917 45.854 97.9306C46.2928 99.0487 47.0069 99.5746 48.1458 99.6478C49.6645 99.7488 51.1552 99.6408 52.5972 99.1184C52.9037 99.0069 53.1928 98.8327 53.461 98.6481C54.0566 98.2336 54.7289 98.0456 55.4255 97.955C56.1256 97.8644 56.7247 98.2511 56.9441 98.8676C57.1392 99.4179 56.9511 100.097 56.3485 100.411C55.1259 101.051 54.1019 102.023 52.7818 102.493C52.6286 102.549 52.4683 102.619 52.343 102.716C51.2284 103.584 49.8177 106.468 50.2461 108.094C50.6641 109.679 50.4133 111.299 50.2705 112.894C50.1834 113.866 49.4102 114.433 48.5359 114.426C47.6582 114.416 46.9755 113.838 46.8432 112.852C46.7247 111.978 46.7004 111.083 46.6899 110.198C46.676 109.094 46.1013 108.296 45.2479 107.753C43.8825 106.882 42.5137 105.98 40.7861 105.938C40.1696 105.924 39.5775 105.677 39.0376 105.353C37.6861 104.542 37.7105 102.939 39.0863 102.176C39.6332 101.873 40.2149 101.658 40.8453 101.626C41.2006 101.609 41.42 101.459 41.5524 101.139C42.2281 99.4945 42.7993 97.861 42.5973 96.001C42.444 94.5973 42.458 93.1518 42.8934 91.7656C43.1476 90.9575 43.6492 90.5604 44.304 90.6336C44.9275 90.7032 45.3559 91.1665 45.4325 91.9746C45.5126 92.814 45.5231 93.6638 45.5649 94.5067L45.5718 94.5137Z" fill="#0E4BF3"/>
<path d="M252.204 98.961C251.072 98.8426 249.92 98.7729 248.76 98.8077C247.582 98.8426 247.405 99.0028 247.084 100.103C246.778 101.159 246.67 102.249 246.433 103.315C246.332 103.768 246.52 104.213 246.517 104.67C246.517 105.227 246.499 105.784 246.381 106.331C246.217 107.087 245.635 107.596 244.925 107.627C244.169 107.658 243.598 107.258 243.337 106.509C243.079 105.763 243.187 104.959 242.926 104.203C242.501 102.977 241.863 101.838 241.048 100.894C240.376 100.117 239.38 99.5461 238.352 99.2013C237.753 98.9993 237.234 98.6719 236.729 98.3236C235.949 97.7872 235.688 96.7632 236.053 95.9621C236.461 95.0704 237.475 94.5758 238.478 94.7743C239.094 94.8997 239.638 95.2097 240.188 95.4849C240.536 95.659 240.773 95.6486 241.052 95.3595C242.483 93.8931 243.786 92.3222 244.772 90.518C245.252 89.6368 245.36 88.6371 245.486 87.6514C245.52 87.3623 245.555 87.0767 245.677 86.812C245.991 86.1467 246.652 85.774 247.276 85.9064C247.861 86.0318 248.216 86.5403 248.237 87.3205C248.272 88.564 248.028 89.7657 247.401 90.8315C246.349 92.6183 247.433 94.3529 248.826 95.2585C249.3 95.5685 249.836 95.7287 250.414 95.6799C251.403 95.5963 252.326 95.9516 253.277 96.1188C254.002 96.2477 254.437 96.8886 254.395 97.5503C254.354 98.247 253.842 98.7973 253.096 98.9157C252.814 98.961 252.521 98.9471 252.211 98.9645L252.204 98.961Z" fill="#0E4BF3"/>
<path d="M81.5423 98.4802C81.5806 96.777 82.0752 96.2301 83.7367 95.9132C84.7154 95.7251 85.4747 95.1643 86.039 94.3632C86.6311 93.5203 87.1919 92.6565 87.7492 91.7857C88.1045 91.2249 88.3448 90.6258 88.4284 89.9501C88.5433 89.0201 89.0449 88.2086 89.3828 87.3483C89.5534 86.9198 89.9818 86.7178 90.4625 86.8084C90.9118 86.892 91.194 87.1811 91.2741 87.6339C91.4587 88.6509 91.1243 89.5983 90.8213 90.5318C90.5949 91.2215 90.3685 91.8867 90.3894 92.6321C90.4312 94.0114 91.2253 95.0424 92.5767 95.3001C93.7679 95.5265 94.9522 95.8191 96.1782 95.8365C96.8331 95.8435 97.2998 96.2441 97.3869 96.7909C97.4844 97.4004 97.1848 97.8219 96.6798 98.1145C96.3733 98.2921 96.0285 98.4105 95.6767 98.4036C94.2904 98.3827 93.4545 99.2604 92.7021 100.236C91.7025 101.528 91.1974 103.012 91.0895 104.638C91.072 104.903 91.0059 105.171 90.9049 105.415C90.668 105.997 90.1177 106.345 89.5499 106.31C88.9508 106.272 88.4354 105.847 88.2542 105.234C88.1358 104.833 88.1219 104.419 88.1079 104.008C88.0836 103.255 87.7805 102.723 87.0386 102.437C86.4813 102.221 85.945 101.984 85.3668 101.814C84.1233 101.448 83.1376 100.598 82.0996 99.8665C81.6468 99.5495 81.4936 98.9957 81.5389 98.4837L81.5423 98.4802Z" fill="#0E4BF3"/>
<path d="M41.8963 27.5445C41.9799 28.147 42.0147 28.6625 41.9312 29.1745C41.8092 29.913 41.2485 30.4633 40.5867 30.5051C39.9005 30.5469 39.1795 30.108 39.1133 29.3626C38.988 27.8928 38.2286 27.1613 36.8737 26.6876C36.1283 26.4264 35.4387 25.9283 34.6585 25.6531C33.9549 25.4024 33.4394 24.8834 33.1085 24.2111C32.7776 23.5354 32.7637 22.8493 33.213 22.2153C33.6693 21.5675 34.3241 21.2749 35.0973 21.4177C35.5014 21.4909 35.6825 21.3724 35.8985 21.0624C37.2151 19.1572 37.9709 17.0464 38.2948 14.7615C38.3784 14.1729 38.5247 13.5877 38.664 13.0096C38.7964 12.4697 39.1342 12.1562 39.7159 12.1458C40.3011 12.1353 40.6285 12.4592 40.7957 12.9817C40.9176 13.3613 40.9454 13.7584 40.8653 14.145C40.6006 15.4338 40.7225 16.7365 40.7365 18.0322C40.7469 19.091 41.3355 19.7075 42.4153 19.8155C43.7807 19.9548 45.1251 20.324 46.5288 20.115C47.2603 20.0071 48.0126 20.1255 48.7092 20.4355C49.2526 20.6793 49.6531 21.0276 49.6322 21.6894C49.6148 22.3407 49.2143 22.6786 48.657 22.9015C48.0509 23.1453 47.4449 23.0861 46.8319 22.9607C45.3864 22.6716 43.5996 23.4901 42.8855 24.7893C42.3979 25.6775 41.9799 26.5936 41.8998 27.541L41.8963 27.5445Z" fill="#0E4BF3"/>
</svg>
