<svg width="237" height="242" viewBox="0 0 237 242" fill="none" xmlns="http://www.w3.org/2000/svg">
<g clip-path="url(#clip0_540_2250)">
<path d="M1.04102 179.5C1.02102 171.11 0.301016 162.95 0.0910156 154.79C-0.138984 145.81 0.0910156 136.79 0.511016 127.81C0.951016 118.48 1.59102 109.14 2.62102 99.8503C3.50102 91.9603 2.78102 84.0503 3.55102 76.1703C4.81102 63.3903 3.20102 50.5803 3.69102 37.7803C3.87102 33.0103 4.64102 28.3903 5.98102 23.8603C7.08102 20.1303 9.68102 17.4103 12.791 15.2603C16.371 12.7803 19.971 10.2903 23.761 8.18029C29.651 4.89029 35.961 3.47029 42.641 5.41029C49.971 7.53029 57.481 6.94029 64.851 6.38029C79.201 5.28029 93.551 5.74029 107.901 5.62029C111.081 5.59029 114.241 5.44029 117.411 5.05029C130.201 3.46029 143.121 3.15029 155.881 1.28029C172.681 -1.17971 189.391 0.370289 206.081 2.30029C211.901 2.97029 217.371 5.18029 222.311 8.32029C228.001 11.9403 230.311 18.0303 232.721 23.9103C236.451 33.0203 236.481 42.5803 235.401 52.1003C234.561 59.5603 234.381 66.9903 235.101 74.4003C236.141 85.2503 234.711 95.9803 234.231 106.76C233.831 115.74 233.731 124.72 234.211 133.72C234.751 143.88 234.971 154.07 233.501 164.19C232.111 173.82 232.311 183.6 230.571 193.18C228.951 202.1 228.491 211.24 225.221 219.83C221.421 229.81 214.281 235.35 203.641 236.39C200.111 236.73 196.701 237.79 193.231 238.36C181.691 240.27 170.161 242.39 158.341 240.5C151.891 239.47 145.391 238.79 138.831 238.58C128.661 238.26 118.501 237.2 108.341 237.28C97.551 237.37 86.751 236.56 75.951 237.78C69.181 238.55 62.351 238 55.571 237.05C49.551 236.21 43.521 235.38 37.421 235.24C22.601 234.9 10.741 226.25 5.96102 212.23C2.32102 201.56 0.411016 190.6 1.06102 179.5H1.04102Z" fill="#E500A0"/>
<path d="M217.49 109.97C218.13 116.82 217.25 123.66 216.11 130.31C214.84 137.77 212.09 144.95 208.36 151.68C202.68 161.91 196.87 172.07 189.94 181.51C186.32 186.44 181.43 190.11 176.37 193.6C169.26 198.51 161.73 202.49 153.77 205.77C150.31 207.2 146.54 207.15 143.05 208.37C140.43 209.28 137.72 209.89 135.04 210.63C127.52 212.69 119.89 211.98 112.35 211.07C103.5 210 94.6305 208.91 85.9905 206.45C81.8505 205.28 78.5605 202.58 74.7305 200.93C66.7505 197.49 59.9005 192.3 53.0705 187.19C48.2705 183.6 45.4305 178.06 42.0805 173.13C37.0205 165.7 33.8805 157.29 30.5305 149.03C27.8305 142.38 25.0205 135.7 23.6905 128.63C22.6305 123 23.0305 117.19 23.3605 111.49C23.8305 103.42 25.4705 95.5298 27.4905 87.6598C31.4005 72.4598 39.6205 60.0698 50.9705 49.6798C54.2805 46.6498 57.0405 43.3198 59.9805 40.0198C63.4405 36.1398 68.1205 33.3098 73.0005 31.2398C77.1905 29.4598 81.1505 27.1898 85.4905 25.7098C95.6305 22.2498 105.7 18.8898 116.72 19.5698C123.77 20.0098 130.9 19.4798 137.87 20.9598C148.53 23.2298 159.02 26.0298 168.27 32.1098C173.03 35.2398 178.38 37.3298 182.87 40.9998C187.94 45.1498 192.6 49.6398 196.94 54.5298C201.41 59.5598 205.58 64.8098 208.15 71.0398C211.6 79.3898 215.4 87.5898 216.7 96.7598C217.33 101.2 217.04 105.59 217.49 109.97Z" fill="#0D1F5C"/>
<path d="M120.521 25.2499C128.741 24.2099 136.591 26.2999 144.451 28.1399C157.101 31.0999 168.311 37.1799 179.021 44.3599C185.031 48.3799 189.391 53.9899 193.821 59.4999C203.051 70.9899 208.691 84.2499 211.031 98.6899C212.311 106.61 212.031 114.77 211.781 122.86C211.361 136.35 205.981 147.92 199.111 159.14C194.971 165.9 190.611 172.46 185.331 178.34C181.521 182.58 177.411 186.53 172.241 189.27C167.681 191.69 163.371 194.57 158.811 197.02C152.691 200.31 145.891 201.25 139.571 203.63C127.811 208.06 116.301 207.13 104.601 203.76C99.7214 202.36 94.7114 201.37 89.7314 200.41C87.0914 199.9 84.6714 198.9 82.3514 197.69C73.9214 193.28 65.1314 189.48 57.4114 183.8C52.3614 180.09 48.7614 175.07 45.2514 169.96C37.4514 158.57 32.9614 145.75 28.9714 132.7C26.7914 125.58 27.2714 118.27 27.8814 111.05C28.7014 101.33 31.0714 91.8799 34.6014 82.7899C39.2314 70.8899 45.7714 60.1899 54.9714 51.2199C56.0114 50.2099 57.2414 49.2999 58.0014 48.0999C62.7114 40.6799 69.8814 36.8299 77.8814 34.1699C89.6814 30.2499 101.391 25.9599 113.991 25.2699C116.161 25.1499 118.351 25.2499 120.531 25.2499H120.521Z" fill="white"/>
<path d="M176.78 104.48C176.78 111.07 175.6 117.48 173.33 123.67C170.5 131.38 169.22 139.48 167.34 147.42C166.29 151.85 164.98 156.19 163.03 160.31C162.56 161.3 162.03 162.43 160.66 162.12C159.31 161.82 159.21 160.58 159.26 159.49C159.36 157.14 158.57 155.05 157.66 152.95C151.38 138.52 147.3 123.32 142.15 108.5C139.05 99.6005 137.31 90.1705 132.78 81.8305C129.73 76.2205 131.05 76.8805 135.84 76.1205C137.96 75.7805 140.16 76.1105 142.14 74.7505C143.5 73.8205 144.36 72.9405 143.85 71.2305C143.32 69.4605 141.77 69.5005 140.49 69.6805C135.14 70.4505 129.77 70.0905 124.43 69.9205C118.98 69.7505 113.54 70.0405 108.1 70.0605C104.8 70.0705 101.69 68.7105 98.3697 69.0105C97.0997 69.1305 95.8397 69.1905 94.6297 69.6305C91.7197 70.6905 91.5497 71.4805 94.0097 73.5005C96.1297 75.2505 98.7197 75.8605 101.4 75.7305C104.09 75.6005 105.76 76.7705 106.55 79.2305C108.17 84.2305 110.48 88.9905 111.42 94.2305C112.05 97.7405 113.84 100.85 115.38 104.05C117.12 107.66 118.19 111.05 116.09 115.36C109.55 128.78 104.93 142.94 101.66 157.53C101.58 157.88 101.51 158.24 101.4 158.59C100.96 159.93 100.91 161.77 98.9397 161.64C97.1397 161.53 97.7197 159.77 97.3297 158.65C95.5597 153.6 93.4997 148.64 91.8997 143.54C88.7597 133.58 85.7597 123.58 82.8897 113.55C80.5097 105.25 77.7497 97.0905 74.4797 89.1005C73.3097 86.2305 72.1897 83.3505 71.7797 80.2705C71.5097 78.2305 71.9797 76.9605 74.5197 76.5505C76.9697 76.1605 79.2897 74.9805 81.8797 74.9905C82.6597 74.9905 83.2697 74.5205 83.4097 73.6905C83.6497 72.3405 83.3197 71.1005 82.2197 70.2705C80.2897 68.8105 78.1097 68.0805 75.6297 68.0705C70.9397 68.0505 66.4597 69.2705 61.9297 70.2105C59.6997 70.6705 57.4797 71.1505 55.1997 71.1805C52.4597 71.2105 51.4697 69.8605 52.6097 67.3705C53.5897 65.2305 54.5897 62.9905 56.0797 61.2205C60.1597 56.3605 64.3097 51.6005 69.9597 48.3105C81.3997 41.6405 93.2997 36.1805 106.27 33.2205C112.95 31.6905 119.66 30.9705 126.54 31.5505C135.06 32.2705 143.58 33.0705 151.77 35.5905C160.18 38.1705 168.1 41.7805 173.6 49.1505C174.31 50.1005 175.03 51.0505 175.36 52.2005C175.96 54.3105 175.07 55.8105 172.9 56.1905C171.66 56.4105 170.37 56.4505 169.11 56.4405C165.27 56.4105 163.59 57.8805 163.39 61.7405C163.16 66.1605 163.95 70.4305 165.67 74.5105C167.93 79.8605 169.96 85.3105 173.24 90.1805C176.14 94.4905 176.97 99.3805 176.81 104.5L176.78 104.48Z" fill="#0B1F5C"/>
<path d="M116.591 197.01C112.241 196.7 107.891 196.47 103.551 196.06C97.901 195.52 96.511 193.73 97.471 188.24C97.911 185.74 98.511 183.26 99.211 180.83C103.531 165.95 107.851 151.06 112.281 136.21C113.581 131.87 116.111 127.99 117.291 123.57C117.731 121.94 119.051 121.05 120.831 121.19C122.871 121.36 123.911 122.69 124.201 124.55C124.731 127.96 125.211 131.36 126.171 134.69C129.501 146.21 133.791 157.34 139.061 168.13C142.121 174.4 143.751 181.27 145.831 187.94C146.731 190.82 144.881 193.12 142.091 193.77C137.681 194.79 133.131 194.83 128.751 195.88C124.741 196.84 120.691 197.15 116.571 197.01H116.591Z" fill="#0B1F5C"/>
<path d="M37.3989 119.03C37.5089 107.63 38.6989 97.2999 42.5289 87.4299C42.9189 86.4199 43.4289 85.4299 44.0389 84.5399C44.9289 83.2499 45.2189 82.6799 46.7389 84.6299C54.2389 94.2599 55.6989 106.16 59.3489 117.17C64.8089 133.62 68.9089 150.5 75.1889 166.69C77.1889 171.85 79.2589 176.99 82.4189 181.6C83.4689 183.14 84.2489 184.88 82.8589 186.62C81.4989 188.32 79.7789 187.62 78.0989 187.14C71.6489 185.31 66.4389 181.72 61.7289 176.91C54.1889 169.2 49.6489 159.77 45.2289 150.23C42.6789 144.73 39.6889 139.39 38.6189 133.29C37.7389 128.26 37.2489 123.22 37.4089 119.02L37.3989 119.03Z" fill="#0B1F5C"/>
<path d="M205.609 115.4C204.639 132.02 199.749 147.33 190.879 161.5C185.979 169.33 179.679 175.73 172.579 181.44C170.899 182.79 168.919 183.79 167.069 184.93C165.689 185.78 164.209 186.31 162.769 185.18C161.379 184.1 161.249 182.52 161.629 180.95C162.889 175.65 164.059 170.29 166.199 165.29C168.919 158.93 171.209 152.42 173.149 145.83C175.619 137.44 178.949 129.42 182.319 121.39C184.929 115.18 186.979 108.83 188.329 102.21C189.349 97.2402 190.689 92.3302 192.079 87.4502C192.529 85.8902 192.599 84.4902 192.209 82.9502C191.969 82.0002 191.939 80.9702 191.969 79.9802C192.009 78.8902 192.119 77.6602 193.529 77.4702C194.809 77.3002 195.289 78.3602 195.519 79.3202C196.359 82.8102 199.429 84.9302 200.729 88.1902C203.729 95.7102 205.689 106.16 205.609 115.39V115.4Z" fill="#0B1F5C"/>
</g>
<defs>
<clipPath id="clip0_540_2250">
<rect width="236.01" height="241.23" fill="white"/>
</clipPath>
</defs>
</svg>
