<svg width="168" height="167" viewBox="0 0 168 167" xmlns="http://www.w3.org/2000/svg">
    <g clip-path="url(#clip0_729_3065)">
        <g clip-path="url(#clip1_729_3065)">
            <path d="M-29.6888 144.106C-30.3971 142.594 -30.8456 141.215 -30.6415 139.598C-30.4854 138.354 -31.6431 138.95 -32.1705 139.09C-35.4187 139.948 -38.7213 140.394 -42.0336 140.866C-46.8504 141.552 -50.8624 139.27 -50.8675 134.518C-50.8716 133.634 -51.3972 133.43 -52.1451 133.579C-54.4594 134.06 -56.7509 133.679 -59.0494 133.471C-59.3154 133.277 -59.5814 133.083 -59.8474 132.889C-60.0413 132.798 -60.2365 132.695 -60.4304 132.604L-60.4267 132.64C-61.6507 131.021 -62.6128 129.313 -62.4717 127.199C-62.4099 126.358 -62.9648 126.107 -63.656 125.969C-64.6617 125.764 -65.6892 125.586 -66.6779 125.305C-69.7479 124.414 -71.7281 122.38 -72.1835 119.246C-72.4711 117.273 -73.3617 117.351 -74.7792 117.815C-77.6155 118.729 -80.4925 119.366 -83.5078 119.009C-84.2061 118.92 -84.9264 118.858 -85.5969 118.681C-87.2671 118.237 -88.5971 117.266 -88.8161 115.483C-89.0301 113.749 -87.9442 112.57 -86.4418 111.853C-81.2068 109.356 -75.8738 107.094 -70.3535 105.342C-65.9304 103.935 -62.5847 105.719 -61.6734 109.581C-61.2607 111.332 -61.84 113.012 -62.3987 114.653C-63.1161 116.789 -62.9205 117.138 -60.6563 117.251C-59.0477 117.333 -57.4567 117.123 -55.8733 116.716C-54.5665 116.374 -53.2351 116.153 -51.8624 116.456C-50.0741 116.851 -48.8003 117.753 -48.3874 119.627C-47.9536 121.585 -48.5039 123.188 -50.2236 124.309C-51.1814 124.934 -52.1526 125.549 -53.0406 126.376C-50.339 126.433 -47.7848 125.891 -45.2887 124.9C-43.6217 124.227 -42.087 123.224 -40.2278 123.109C-39.8889 123.172 -39.55 123.236 -39.2112 123.3C-36.508 125.543 -36.6187 127.593 -39.4907 129.604C-40.962 130.625 -42.3759 131.727 -43.7751 132.852C-44.2083 133.19 -44.7484 133.687 -44.4877 134.312C-44.183 135.005 -43.4768 134.688 -42.9408 134.633C-37.6071 134.067 -32.4956 132.651 -27.6109 130.46C-26.7404 130.064 -25.8259 129.738 -24.9394 129.378C-24.0826 132.103 -21.9654 132.465 -19.5348 132.279C-19.3324 133.659 -19.7456 134.916 -20.2965 136.151C-20.7382 137.13 -20.4039 137.39 -19.4183 137.278C-17.0804 137.028 -14.7388 136.815 -12.3862 136.588C-6.57411 137.09 -1.58723 134.815 3.23166 131.979C3.54571 131.8 4.00595 131.606 3.83448 131.132C3.62995 130.576 3.09887 130.679 2.66897 130.809C1.68858 131.092 0.682584 131.367 -0.261028 131.769C-3.08938 133.003 -6.06802 133.367 -9.10181 133.552C-9.74999 133.594 -10.3922 133.573 -10.9958 133.327C-11.7287 133.021 -12.4447 132.639 -12.5109 131.75C-12.5774 130.737 -11.6194 130.836 -11.018 130.579C-9.09296 129.781 -7.29621 128.813 -6.18229 126.943C-2.55943 126.378 1.03884 125.693 4.49101 124.422C6.28224 123.761 7.82788 122.744 8.77146 121.015C9.11269 120.378 9.34653 119.654 8.81408 119.021C8.32438 118.444 7.62949 118.269 6.87437 118.469C3.424 119.397 -0.0285484 118.495 -3.48299 118.539C-4.65155 118.547 -4.39109 117.722 -4.14259 117.022C-3.51599 115.202 -2.77601 113.407 -2.23842 111.56C-0.852005 106.814 -3.35217 103.666 -8.3305 103.975C-12.2452 104.214 -16.1587 104.464 -20.0854 104.102C-21.9988 103.928 -22.9614 103.301 -22.8765 101.119C-22.7661 98.2213 -24.7678 96.4598 -27.7466 96.7012C-31.5308 97.0121 -35.3001 97.4688 -39.1116 97.5123C-40.0462 97.5214 -41.0094 97.8526 -41.8958 98.2129C-42.641 98.5097 -43.4787 98.865 -43.506 99.9239C-43.5236 100.957 -42.9727 101.65 -42.1409 102.082C-41.4127 102.462 -40.6092 102.737 -39.8009 102.937C-37.1104 103.609 -34.397 104.144 -31.6006 104.044C-30.5832 104.002 -30.2303 104.445 -30.1359 105.369C-29.7661 108.991 -27.4097 110.851 -24.1968 111.937C-21.4181 112.87 -18.5348 113.019 -15.6333 113.105C-13.151 113.185 -13.1557 113.259 -13.9313 115.548C-15.0196 118.754 -15.0236 121.849 -13.099 124.785C-14.7407 126.548 -16.5992 127.756 -19.3091 127.135C-19.0417 126.138 -18.2994 125.571 -17.5316 125.014C-15.7671 123.73 -15.2736 122.414 -16.0643 121.181C-16.8269 119.981 -18.1563 119.981 -20.1624 121.069C-21.667 121.885 -23.1763 122.776 -25.0179 122.582C-26.3782 120.35 -27.3171 118.026 -26.8798 115.317C-26.6967 114.217 -27.604 114.494 -28.1875 114.565C-31.3098 114.969 -34.4473 115.103 -37.5785 114.697C-38.339 114.602 -39.0729 114.407 -39.8275 114.25C-39.6345 113.85 -39.4293 113.448 -39.2619 113.038C-38.3908 110.96 -39.4042 109.233 -41.6573 109.229C-44.4513 109.231 -47.2609 109.442 -50.056 109.555C-52.2054 105.622 -52.3216 101.471 -51.3035 97.2163C-50.6492 96.5112 -49.9157 95.8595 -49.3676 95.0792C-46.5979 91.1012 -42.6009 89.2581 -37.9828 88.5554C-35.2431 88.1419 -32.4639 87.9945 -29.7192 87.6296C-25.3848 87.0417 -20.9763 86.9375 -16.7763 85.5159C-13.0402 84.252 -9.63436 82.2848 -6.17712 80.4597C-0.313203 77.3707 5.5875 74.4008 11.9373 72.4537C15.0525 71.4985 18.1739 70.6041 21.1545 69.2941C25.6423 67.3152 29.9661 64.9354 34.5471 63.2663C41.8704 60.6062 49.6046 60.0412 57.3355 59.6853C59.7348 61.0011 62.1024 62.3693 64.5333 63.6328C67.3276 65.0804 69.6028 67.1088 71.4924 69.5817C72.3731 70.7325 73.4652 71.5426 74.8042 72.1188C81.6725 75.1296 86.7109 80.2299 90.8395 86.3068C93.0841 89.6033 94.4728 93.3183 95.9077 97.0041C97.23 105.614 95.3897 113.992 93.9577 122.39C93.0548 127.652 90.9997 132.602 89.5019 137.703C88.4483 138.596 87.7987 139.829 87.1647 140.974C84.9776 144.991 81.6994 148.087 78.5945 151.313C76.0904 153.913 72.7131 154.834 69.3371 155.767C65.1719 156.927 60.8785 157.314 56.6542 158.136C54.1802 158.621 51.6599 158.41 49.1578 158.137C50.8432 155.595 51.9588 152.657 54.3201 150.587C55.213 149.809 54.9105 148.292 56.1793 147.819C57.1187 150.389 58.091 150.99 60.6904 150.529C63.1218 150.11 65.4027 149.301 67.5669 148.074C68.8244 147.369 70.043 146.767 71.7043 147.003C73.3278 147.231 73.0118 145.703 72.8648 144.625C81.6325 139.596 88.0948 132.602 91.2351 122.851C91.8142 121.048 92.3322 119.129 91.3271 117.242C91.0226 116.671 90.8082 116.017 89.9991 116.05C89.1913 116.096 89.1134 116.779 88.8281 117.361C87.3398 120.386 85.8515 123.411 83.1846 125.622L83.2114 125.644C84.2478 122.051 85.9157 118.615 86.167 114.807C86.2771 113.113 86.5566 111.39 85.9418 109.708C85.6871 109.022 85.3923 108.426 84.7069 108.102C85.1658 105.845 85.7624 103.611 85.4132 101.276C85.2898 100.429 85.2332 99.5136 84.1838 99.3623C83.0722 99.2051 82.5375 99.9963 82.2857 100.906C81.1784 105.01 79.5674 108.882 77.3028 112.502C76.4888 113.813 75.6064 115.057 74.5655 116.194C74.0219 116.778 73.6478 117.454 74.1136 118.279C70.8926 121.333 67.2439 123.693 63.1698 125.384C63.0587 125.26 62.9342 125.126 62.823 125.002C64.2738 123.418 65.7111 121.822 67.19 120.272C70.6025 116.683 73.9907 113.097 76.2537 108.617C77.2978 106.546 77.1688 104.681 75.8645 103.72C74.3343 102.598 72.4121 102.941 70.7572 104.816C67.1056 108.958 62.6597 111.829 57.1777 113.233C59.3956 110.724 61.6014 108.215 63.8193 105.706C68.1663 104.638 72.4624 99.8167 72.9952 95.3906C73.0769 94.7437 73.0245 94.1104 72.6822 93.5312C72.4145 93.0794 72.0678 92.6971 71.4877 92.6824C70.8711 92.6714 70.5807 93.0816 70.3867 93.5926C70.08 94.4465 69.6671 95.2254 68.9383 95.8029C67.1136 92.8813 64.3219 92.1826 62.055 94.5744C58.6984 98.1086 54.4841 99.7527 50.0672 101.221C45.6747 102.687 41.3337 104.295 36.973 105.831C36.319 106.057 35.6186 106.189 34.7069 106.061C37.3982 103.847 40.0773 101.634 42.7673 99.4084C43.0635 100.741 44.0811 100.822 45.1716 100.773C47.5 100.671 49.4927 99.5723 51.5087 98.5814C55.6577 96.5386 59.3535 93.9156 62.0771 90.0897C62.8087 89.0574 63.3015 87.9757 62.8969 86.666C62.7327 86.1423 62.4431 85.7173 61.8897 85.6017C61.3094 85.4641 60.9103 85.7749 60.6138 86.2471C59.1473 88.5208 56.9591 89.9958 54.7697 91.4587C54.5981 87.6077 52.7893 86.0476 48.9176 86.4657C46.0327 86.7834 43.4637 87.9042 41.0955 89.5449C36.3931 92.7983 31.2332 95.0666 25.7907 96.7372C25.3133 96.884 24.8053 96.9725 23.9284 97.1844C25.3081 95.3863 27.0551 94.5333 28.3467 93.1985C32.6952 92.9899 36.4401 91.2093 39.8326 88.6294C42.9051 86.2908 45.8932 83.8502 48.9083 81.4315C49.2489 81.1512 49.559 80.8127 49.8167 80.4426C50.1278 79.9935 50.1962 79.4584 49.8542 79.002C49.4694 78.4884 48.9689 78.6498 48.4574 78.8246C45.8027 79.7085 43.5441 81.338 41.1633 82.7344C39.7437 80.7664 37.8393 80.1985 35.4306 80.3574C29.9771 80.7151 25.0507 82.7386 20.1561 84.8326C16.1698 86.5395 12.0729 87.7664 7.76635 88.2655C6.46526 88.4223 5.18931 88.3432 3.9181 88.1899C2.13498 87.9659 0.683409 88.4573 -0.260635 89.941C-1.20344 91.4368 -0.98592 93.0849 -0.101047 94.5178C1.89364 97.7782 5.09902 98.7911 8.68128 98.6726C10.2884 98.6198 10.6482 98.7675 10.1591 100.487C9.01495 104.472 11.7006 107.748 15.847 107.609C17.3189 107.558 18.7818 107.299 20.2436 107.027C21.0171 106.887 21.5238 106.787 21.3625 107.859C20.4873 113.634 25.3308 118.153 32.9488 116.691C33.637 116.559 34.3374 116.427 35.0269 116.308C31.4983 121.05 34.038 128.443 39.7235 129.634C41.2082 129.95 41.7489 130.423 41.6017 131.875C41.5467 132.421 41.8268 132.994 41.957 133.545C36.841 130.578 32.2318 126.907 27.4925 123.41C24.9374 121.533 24.6105 121.345 22.3262 123.567C19.7622 126.063 16.2976 127.213 13.6981 129.602C12.5717 130.023 11.5639 130.641 10.66 131.433C8.69395 132.431 6.72788 133.429 4.7618 134.427C3.46015 134.94 2.1463 135.455 0.843408 135.956C-2.01947 136.971 -4.98095 137.383 -8.00154 137.456C-9.22853 137.495 -10.3834 137.637 -10.8844 138.879C-11.3672 140.058 -10.7425 141.112 -10.0426 142.06C-9.7848 142.415 -9.42359 142.697 -9.10863 143.009C-15.3532 144.54 -21.6387 145.67 -28.1853 145.329C-28.3531 145.493 -28.2174 145.737 -28.0623 145.93C-23.9896 150.736 -20.546 156.01 -16.7483 161.016C-12.28 166.923 -5.89996 170.094 0.566338 173.145C-1.97134 172.765 -4.4585 172.035 -6.89443 171.325C-11.5786 169.934 -15.0506 166.431 -18.5294 163.223C-21.4649 160.513 -23.3713 156.911 -25.684 153.671C-27.3797 151.289 -28.9854 148.824 -31.2969 146.922C-32.8163 145.664 -34.7995 145.289 -36.3249 144.093C-34.1608 144.069 -31.998 144.034 -29.6743 144.006L-29.6888 144.106ZM35.109 75.1584C35.6381 74.6748 36.6036 74.2451 35.9439 73.3297C35.3282 72.4835 34.4908 72.9616 33.8982 73.4271C29.9559 76.5295 25.3545 78.3603 20.8485 80.4025C19.7661 80.8932 18.767 81.5965 17.7324 82.1929C17.21 82.3811 16.7828 82.6579 16.5599 83.3682C17.3314 83.4495 18.0029 83.5163 18.6027 83.001C24.53 81.2564 30.3975 79.4075 35.1212 75.1572L35.109 75.1584ZM77.5304 79.5295C71.4983 74.7022 64.9488 70.8362 57.2254 69.3369C55.9955 69.1058 54.1669 68.6776 53.7672 69.9463C53.3953 71.1262 55.2959 71.6576 56.3033 72.1202C61.5743 74.5564 66.6752 77.2556 71.5721 80.3684C73.1386 81.3636 74.6443 82.4878 76.1463 83.5755C76.7711 84.0278 77.4057 84.5774 77.512 85.3771C77.6848 86.5876 78.3207 87.1493 79.4742 86.8724C80.7713 86.5564 80.7034 85.4089 80.7826 84.7377C80.5013 82.2241 79.0595 80.7619 77.5182 79.5308L77.5304 79.5295Z" fill="#032363"/>
            <path d="M13.5637 158.017C16.0465 159.668 18.7772 160.975 20.9513 163.099C20.2223 163.554 19.5913 163.041 18.9683 162.847C12.927 160.943 7.25449 158.191 1.64022 155.287C0.496131 154.691 -0.668596 154.133 -1.93033 153.832C-2.40942 153.721 -2.96804 153.434 -3.3386 154.024C-3.63504 154.496 -3.25048 154.887 -3.02802 155.258C-2.53663 156.092 -1.88336 156.824 -1.09878 157.395C4.58613 161.594 10.8473 164.446 17.8863 165.511C18.1996 165.565 18.5226 165.594 18.843 165.598C21.0121 165.623 21.4169 165.128 20.9111 163.067C21.3531 162.936 21.6437 163.25 21.9135 163.481C25.7042 166.73 30.0103 169.24 34.06 172.132C34.8433 172.691 35.6376 173.237 36.6779 173.057C37.609 173.135 38.42 172.88 38.9791 172.087C40.4435 170.636 41.6273 168.968 42.6536 167.206C44.5413 163.993 46.9085 161.137 49.1682 158.193C51.6691 158.455 54.1773 158.666 56.6646 158.193C60.8889 157.37 65.1823 156.983 69.3475 155.823C72.7223 154.878 76.0887 153.971 78.605 151.37C81.7099 148.144 84.9869 145.035 87.1752 141.03C87.8079 139.873 88.4588 138.652 89.5111 137.747C89.7952 138.48 89.1356 139.615 90.1453 139.979C91.1037 140.324 91.8027 139.455 92.4865 138.918C93.831 137.861 94.6679 136.412 95.4389 134.922C99.2648 127.545 100.74 119.572 101.594 111.417C101.717 110.213 101.889 109.005 102.049 107.797C108.017 106.454 112.263 103.308 113.341 96.7511C114.652 97.2933 115.445 98.183 116.247 99.0471C117.519 100.416 118.813 101.758 120.319 102.882C122.249 104.307 124.315 104.65 126.475 103.497C128.635 102.344 129.196 100.371 129.001 98.0947C128.924 97.3411 128.846 96.5754 128.762 95.761C129.747 95.7592 130.146 96.5292 130.741 96.9354C132.632 98.2169 134.899 98.3549 136.555 97.2164C138.154 96.1205 138.868 93.8252 138.341 91.6805C137.693 89.0691 136.262 86.7461 135.548 84.0924C137.66 86.2111 140.383 88.0466 141.326 90.7753C143.192 96.1489 144.874 101.652 145.541 107.344C146.083 111.931 145.115 116.315 143.009 120.398C139.978 126.281 137.209 132.31 133.592 137.872C130.888 142.016 127.856 145.836 123.759 148.868C119.799 151.801 116.297 155.35 112.09 158.037C110.727 158.912 110.186 160.723 108.775 161.739C106.985 163.014 105.044 164.009 103.166 165.146C102.401 165.616 101.538 165.962 101.295 166.957C101.083 167.298 100.954 167.716 100.484 167.813C99.2527 169.621 99.4686 171.735 99.5319 173.682C99.6249 176.521 98.9495 178.948 97.1379 181.097C95.5794 181.747 94.1446 182.764 92.3386 182.678C91.7329 182.653 91.0693 182.905 90.5674 182.33C91.9174 181.566 92.155 180.277 92.1595 178.754C92.9777 179.051 93.1572 180.568 94.2259 179.944C95.2946 179.319 95.0914 178.173 94.9884 177.165C94.8705 176.01 94.548 174.901 93.9052 173.91C93.5557 173.38 93.1719 172.756 92.378 173.058C91.69 173.312 91.7411 173.933 91.802 174.529C91.8603 175.1 91.9186 175.671 91.9807 176.279C91.0801 176.26 91.1506 175.504 90.8379 175.093C90.3994 174.536 90.0276 173.788 89.1934 174.057C88.3824 174.311 88.3827 175.159 88.4169 175.855C88.5137 178.13 88.518 180.463 90.6692 182C90.7094 182.033 90.644 182.236 90.6199 182.361C89.7504 182.646 89.1041 181.742 88.2503 181.939C85.4453 178.699 81.5482 176.578 79.0302 173.014C78.4401 172.178 77.4272 172.023 76.41 172.188C74.8057 171.786 73.3603 172.338 71.9614 172.984C69.9745 173.898 67.9336 174.646 65.8132 175.217C58.9234 177.06 51.9303 178.372 44.9225 179.662C44.2464 179.792 43.8543 179.93 43.6036 180.729C43.0307 182.593 42.2676 184.402 41.4898 186.188C40.6611 188.077 39.6275 189.889 37.6661 190.813C36.0226 191.594 34.6696 192.69 33.4071 193.948C29.2187 195.123 26.7229 192.982 24.8632 189.597C22.936 185.912 22.5958 181.857 22.1838 177.822C22.5322 175.809 21.2511 175.559 19.7719 175.66C17.4863 175.818 15.2292 176.257 12.9269 176.012C11.1035 175.755 9.26692 175.61 7.46766 175.228C5.12592 174.717 2.73195 174.297 0.54271 173.23C-5.93577 170.179 -12.3158 167.009 -16.7719 161.1C-20.5587 156.081 -24.0132 150.82 -28.0859 146.015C-28.2398 145.834 -28.3755 145.59 -28.2089 145.413C-21.6623 145.755 -15.3781 144.613 -9.13226 143.094C-1.55964 148.059 6.03238 152.973 13.5625 158.005L13.5637 158.017ZM129.309 118.474C128.989 117.635 128.649 116.589 127.533 116.751C126.273 116.953 126.879 118.058 126.858 118.821C126.823 119.807 126.561 120.731 126.016 121.547C123.501 125.364 121.326 129.38 119.112 133.376C118.613 134.274 118.022 135.12 117.258 135.836C116.808 136.25 116.451 136.728 116.859 137.35C117.209 137.88 117.79 138.029 118.398 137.955C119.543 137.839 120.453 137.23 121.262 136.473C122.925 134.916 124.213 133.066 125.265 131.068C126.555 128.628 127.817 126.166 129.041 123.684C129.593 122.584 129.979 121.415 129.774 120.134C129.619 119.585 129.511 119.006 129.297 118.475L129.309 118.474ZM137.859 113.602C136.356 113.705 137.336 115.595 137.176 116.68C136.342 122.131 134.728 127.306 131.631 131.931C130.745 133.262 129.283 133.889 127.977 134.722C127.434 135.072 126.439 135.333 126.81 136.191C127.084 136.827 127.983 136.588 128.584 136.453C130.834 135.942 132.892 134.996 134.27 133.063C137.746 128.166 138.797 122.545 139.232 117.159C138.713 115.578 139.081 113.514 137.87 113.588L137.859 113.602ZM114.638 130.183C117.627 127.03 118.992 123.158 119.71 118.983C119.765 118.67 119.743 118.341 119.699 118.026C119.611 117.286 119.321 116.616 118.507 116.477C117.718 116.349 117.376 116.973 117.144 117.598C116.166 120.191 114.758 122.557 113.375 124.932C112.257 126.876 111.178 128.852 109.078 129.986C108.682 130.199 108.308 130.519 108.374 131.041C108.46 131.646 108.959 131.828 109.444 132C110.006 132.201 110.574 132.217 111.154 132.109C112.518 131.847 113.668 131.178 114.612 130.173L114.638 130.183ZM106.981 116.678C106.311 116.501 106.087 117.089 105.94 117.57C104.303 122.759 101.541 127.412 99.0126 132.188C98.4966 133.162 97.4695 134.556 98.5358 135.233C99.4312 135.806 100.256 134.236 100.924 133.431C104.292 129.404 106.652 124.903 107.496 119.672C107.586 119.11 107.651 118.538 107.687 118.289C107.6 117.438 107.576 116.839 106.981 116.678V116.678ZM110.811 146.107C110.914 145.556 110.841 144.962 110.771 144.392C110.721 143.906 110.369 143.585 109.869 143.513C109.343 143.432 108.93 143.719 108.816 144.173C108.043 147.457 105.513 149.433 103.316 151.671C102.814 152.176 102.195 152.742 102.372 153.633C106.014 153.14 110.155 149.453 110.798 146.108L110.811 146.107ZM33.731 189.887C34.4502 190.059 35.0234 189.645 35.3599 189.083C36.5479 187.095 37.0911 184.94 36.67 182.625C36.5359 181.914 36.2396 181.183 35.355 181.199C34.5691 181.217 34.3547 181.89 34.2255 182.554C33.8453 184.496 32.7214 186.268 32.8837 188.34C32.9495 188.984 32.9618 189.707 33.7444 189.898L33.731 189.887ZM28.9749 185.863C28.7122 186.786 28.5117 187.716 28.2867 188.647C28.1501 189.238 28.111 189.819 28.7818 190.12C29.3501 190.381 29.9165 190.262 30.4215 189.904C31.445 189.198 31.6974 186.004 30.8306 185.11C30.5961 184.863 30.3364 184.73 29.9868 184.802C29.435 184.944 29.1202 185.357 28.9749 185.863V185.863Z" fill="#004DF8"/>
            <path d="M58.9153 59.0547C59.0516 58.9426 59.1744 58.8196 59.3107 58.7075L59.2766 58.7355C60.9874 58.7336 62.1507 57.8294 63.0072 56.4528C64.1795 54.553 65.2872 52.6228 65.4341 50.3237C65.9188 49.5253 66.2949 48.6274 66.9151 47.9503C71.6627 42.8502 76.5362 37.897 83.9674 36.8961C84.8469 37.433 85.813 36.6471 86.6948 37.0856C84.3293 38.8734 81.7828 40.3357 78.965 41.3098C78.2039 41.5714 77.4969 42.1222 76.8887 42.6752C76.0445 43.4488 75.543 44.4453 76.1045 45.6041C76.6635 46.7385 77.7236 46.7536 78.7774 46.5851C81.5389 46.1448 84.134 45.2792 86.4413 43.6447C86.8429 43.3583 87.1306 42.801 87.8217 43.5413C89.7997 45.6736 91.5483 45.6801 93.7771 43.7588C94.0143 43.5505 94.2625 43.3288 94.4728 43.0986C95.4663 41.9784 95.9217 42.4602 96.1895 43.6365C96.2583 43.9488 96.3272 44.2611 96.4447 44.5684C96.9236 45.8829 97.7357 46.8443 99.2538 46.7637C100.76 46.6843 101.468 45.6667 101.835 44.3153C102.435 42.1175 102.819 42.0171 104.433 43.7197C105.04 44.3581 105.631 45.0839 106.008 45.8808C106.355 46.6314 106.748 47.1072 107.577 46.9003C108.597 46.6492 108.805 45.7929 108.655 44.924C108.326 43.0293 107.284 41.5019 105.997 40.1098C105.665 39.7506 105.094 39.5876 105.009 38.9944C105.16 38.7826 105.311 38.5708 105.45 38.3724C108.316 41.483 110.993 44.6741 110.894 49.2526C110.887 49.7814 110.962 50.2773 111.44 50.6217L111.416 51.3487C109.536 51.6257 107.779 52.2587 106.171 53.2695C104.058 51.8632 102.867 52.1316 101.677 54.3403C99.7412 57.9265 98.6625 61.7081 99.3538 65.8256C99.4732 66.5135 99.6305 67.2098 99.8462 67.8756C100.184 68.8974 100.71 69.8264 101.92 69.8631C103.228 69.8899 103.807 68.9345 104.213 67.8493C104.387 67.3773 104.533 66.8835 104.692 66.3884C106.135 66.782 107.397 68.4099 108.974 67.5743C111.765 66.0993 114.974 66.3013 117.799 65.1545C119.489 64.467 121.039 64.2234 122.623 65.266C126.044 67.6692 129.211 70.3561 131.587 73.8481L131.599 73.8468C131.136 74.0167 130.723 73.8254 130.283 73.735C126.629 72.9151 124.56 74.8324 125.088 78.5612C125.183 79.2515 125.399 79.9173 125.63 80.8518C123.164 79.7269 120.756 79.0506 118.997 81.7101C117.481 83.9887 118.706 86.4556 118.741 88.8468C117.885 89.1425 117.445 88.4504 116.87 88.1281C114.544 86.8049 112.152 85.8075 109.374 86.446C107.425 86.8897 106.251 88.1635 105.662 89.9918C105.269 91.2106 104.954 92.4585 104.688 93.7136C104.306 95.5209 103.332 96.7128 101.478 97.1223C100.419 91.6913 98.8729 86.4326 96.0528 81.5981C95.5467 80.7408 95.1951 79.7081 93.97 80.1273C92.8047 80.5282 92.8226 81.6685 93.0266 82.5811C93.5831 85.0176 94.343 87.3965 94.9117 89.8317C95.4729 92.194 96.0232 94.5697 95.906 97.0378C94.4832 93.3507 93.0823 89.6369 90.8378 86.3405C86.7091 80.2635 81.6695 75.1511 74.8024 72.1525C73.4622 71.5641 72.3713 70.7662 71.4906 69.6154C69.5997 67.1303 67.3259 65.114 64.5315 63.6664C62.1007 62.4029 59.733 61.0348 57.3337 59.719C57.8536 59.5065 58.3601 59.2831 58.88 59.0706L58.9153 59.0547ZM87.6826 51.3415C86.8232 51.1218 85.9759 50.9009 85.1164 50.6812C82.3709 49.9532 79.7618 50.4395 77.2904 51.6731C75.7687 52.4418 74.9169 53.7442 74.7642 55.5036C74.1791 61.9491 79.6909 66.7433 85.7341 65.0484C87.0607 65.5031 88.1678 65.2555 88.9686 64.0565C93.0324 62.747 94.9899 59.7357 93.6996 56.5019C92.708 54.0237 90.6995 52.5577 88.1102 51.9121L88.1505 51.9448C87.9954 51.7518 87.8268 51.5479 87.6717 51.3549L87.6826 51.3415Z" fill="#004DF8"/>
            <path d="M122.643 65.2903C126.064 67.6935 129.231 70.3804 131.607 73.8724C131.658 73.8917 131.72 73.8977 131.76 73.9305C131.787 73.9523 131.768 74.0034 131.773 74.052C131.717 73.984 131.662 73.9282 131.606 73.8602C131.144 74.0422 130.731 73.8509 130.291 73.7605C126.637 72.9406 124.568 74.8579 125.096 78.5867C125.191 79.2771 125.407 79.9429 125.638 80.8773C123.172 79.7525 120.764 79.0761 119.005 81.7357C117.489 84.0143 118.714 86.4811 118.749 88.8723C117.893 89.1681 117.453 88.476 116.878 88.1536C114.552 86.8304 112.16 85.8331 109.382 86.4716C107.433 86.9153 106.259 88.1891 105.67 90.0173C105.277 91.2362 104.962 92.4841 104.696 93.7392C104.314 95.5464 103.34 96.7384 101.486 97.1478C101.885 100.693 102.175 104.25 102.059 107.823C108.028 106.48 112.273 103.334 113.352 96.777C114.663 97.3192 115.455 98.2089 116.257 99.073C117.53 100.442 118.824 101.784 120.33 102.908C122.26 104.333 124.326 104.676 126.485 103.523C128.645 102.37 129.207 100.397 129.011 98.1206C128.934 97.367 128.856 96.6013 128.773 95.7869C129.757 95.7851 130.156 96.5551 130.752 96.9613C132.643 98.2428 134.909 98.3808 136.566 97.2423C138.165 96.1465 138.878 93.8511 138.351 91.7064C137.703 89.095 136.272 86.7721 135.558 84.1183C137.67 86.237 140.393 88.0725 141.336 90.8013C143.202 96.1748 144.884 101.678 145.552 107.37C146.094 111.957 145.126 116.341 143.019 120.423C139.989 126.307 137.219 132.336 133.602 137.898C130.899 142.042 127.867 145.862 123.769 148.894C119.81 151.827 116.307 155.376 112.101 158.063C110.738 158.938 110.196 160.749 108.786 161.765C106.996 163.039 105.054 164.035 103.176 165.172C102.412 165.642 101.548 165.988 101.305 166.983C101.452 167.091 101.696 167.311 101.742 167.282C103.914 165.526 107.059 165.342 108.89 163.142C110.885 160.741 113.985 159.996 116.18 157.992C121.821 152.838 128.365 148.697 133.424 142.902C135.175 140.882 136.79 138.741 138.675 136.83C140.204 135.287 140.49 133.023 141.837 131.388C143.721 129.108 145.488 126.755 146.464 123.905C147.376 121.258 148.248 118.59 149.237 115.972C149.673 114.823 149.129 113.834 149.021 112.777C148.476 107.797 147.821 102.828 147.287 97.8474C147.208 97.0695 146.707 96.5063 146.579 95.7334C146.351 94.3443 145.86 93.1538 146.542 91.6353C147.074 90.4515 145.882 89.2708 145.27 88.2155C142.769 83.9749 140.5 79.6001 137.684 75.5267C135.605 72.5204 132.977 70.2945 129.809 68.5655C128.349 67.7683 127.013 66.7374 125.626 65.81C125.361 65.6281 125.156 65.4279 125.551 65.0807C126.646 64.1098 125.95 63.1981 125.637 62.0632C124.97 59.6257 123.873 57.4407 122.449 55.4362C119.779 51.7041 116.209 49.7704 111.46 50.646C111.449 50.8928 111.448 51.1262 111.436 51.373C118.55 51.6079 122.812 54.8836 124.782 61.6466C125.368 63.6502 124.708 64.7735 122.631 65.2915L122.643 65.2903Z" fill="#032363"/>
            <path d="M105.022 39.0094C105.173 38.7976 105.323 38.5858 105.463 38.3874C103.804 36.0016 101.261 34.8477 98.5888 34.7141C93.6156 34.4704 88.6387 34.9148 83.9559 36.9136C84.8355 37.4505 85.8015 36.6646 86.6834 37.103C86.8733 37.0346 87.0498 36.9553 87.2398 36.8868C92.468 35.287 97.5535 36.2684 102.631 37.6559L102.607 37.6584C102.955 37.5739 103.259 37.6535 103.429 37.9924L103.39 37.9718C103.646 37.9458 103.814 38.0269 103.866 38.2919L103.839 38.27C104.225 38.1939 104.516 38.2749 104.622 38.7062L104.569 38.6747C104.846 38.6098 105.029 38.714 105.071 39.0045L105.022 39.0094V39.0094Z" fill="#032363"/>
            <path d="M59.2712 58.7412C60.982 58.7393 62.1453 57.8351 63.0018 56.4586C64.1741 54.5587 65.2818 52.6285 65.4287 50.3294C62.8706 52.7631 61.562 56.1014 59.2712 58.7412Z" fill="#032363"/>
            <path d="M58.906 59.0597C59.0423 58.9476 59.1651 58.8246 59.3014 58.7125C59.1651 58.8246 59.0423 58.9476 58.906 59.0597Z" fill="#032363"/>
            <path d="M74.1542 118.359C70.9332 121.413 67.2844 123.773 63.2103 125.465C63.0992 125.341 62.9747 125.206 62.8636 125.082C64.3143 123.498 65.7517 121.903 67.2305 120.353C70.6431 116.764 74.0312 113.177 76.2943 108.698C77.3383 106.627 77.2094 104.761 75.905 103.801C74.3749 102.679 72.4527 103.022 70.7977 104.897C67.1462 109.038 62.7002 111.909 57.2182 113.314C59.4362 110.804 61.6419 108.296 63.8599 105.786C63.4114 105.734 62.9653 105.705 62.5362 105.601C61.5549 105.394 60.6209 105.047 60.4908 103.894C60.3716 102.727 61.4512 102.691 62.1439 102.362C65.1242 100.93 67.3061 98.6692 68.9776 95.8712C67.1529 92.9496 64.3612 92.2509 62.0943 94.6427C58.7377 98.1769 54.5234 99.821 50.1065 101.289C45.714 102.755 41.3729 104.363 37.0122 105.899C36.3583 106.125 35.6579 106.258 34.7462 106.129C37.4375 103.915 40.1166 101.703 42.8066 99.4767C43.2254 98.6359 44.0082 98.2247 44.7726 97.7541C48.1331 95.7055 51.6281 93.8889 54.7834 91.5173C54.6117 87.6663 52.803 86.1062 48.9313 86.5243C46.0464 86.842 43.4774 87.9628 41.1092 89.6035C36.4068 92.8569 31.2469 95.1252 25.8044 96.7959C25.327 96.9426 24.819 97.0311 23.9421 97.243C25.3218 95.4449 27.0688 94.5919 28.3482 93.2584C27.9258 92.8592 26.8928 92.9887 27.0714 92.0864C27.2332 91.2594 28.0637 90.9539 28.7589 90.6499C33.3223 88.6879 37.2588 85.7702 41.1648 82.7943C39.7452 80.8262 37.8408 80.2584 35.4321 80.4172C29.9786 80.775 25.0522 82.7985 20.1576 84.8925C16.1713 86.5994 12.0744 87.8263 7.76784 88.3254C6.46674 88.4822 5.1908 88.4031 3.91959 88.2498C2.13647 88.0258 0.684894 88.5172 -0.25915 90.0008C-1.20195 91.4967 -0.984435 93.1448 -0.0995622 94.5776C1.89512 97.8381 5.10052 98.8509 8.68277 98.7325C10.2899 98.6797 10.6496 98.8273 10.1606 100.547C9.01643 104.532 11.7021 107.808 15.8485 107.669C17.3203 107.618 18.7833 107.359 20.245 107.087C21.0186 106.947 21.5253 106.847 21.364 107.919C20.4888 113.694 25.3323 118.212 32.9503 116.751C33.6385 116.619 34.3389 116.487 35.0284 116.367C35.7069 116.262 36.3964 116.142 37.0749 116.037C38.9855 115.339 40.8839 114.642 42.7957 113.957C41.2242 116.168 39.6292 118.147 39.5392 120.883C39.9548 122.904 41.1225 123.731 43.2227 123.443C45.4082 123.148 47.6039 123.072 48.8257 125.514C50.8551 125.136 52.752 124.305 55.0718 123.516C53.3959 125.91 51.563 127.729 51.4558 130.417C55.0856 130.282 56.0802 131.102 56.2154 134.355C61.0103 133.695 65.176 131.454 69.4087 129.268C67.7809 131.288 66.1518 133.296 64.5361 135.314C65.8324 135.833 66.9667 136.455 67.0843 138.089C67.1793 139.381 66.4534 140.228 65.6557 141.095C64.335 142.507 62.7458 143.7 61.8002 145.65C64.0035 145.77 65.6198 144.722 67.3931 144.247C69.2869 143.747 71.1617 143.422 72.9041 144.694C81.6718 139.664 88.1341 132.67 91.2744 122.919C91.8535 121.117 92.3715 119.197 91.3664 117.31C91.0619 116.739 90.8474 116.086 90.0384 116.119C89.2306 116.164 89.1527 116.847 88.8674 117.429C87.3791 120.454 85.8908 123.479 83.2239 125.69C83.2288 125.739 83.235 125.8 83.2022 125.84C83.1925 125.865 83.1438 125.87 83.1085 125.886C83.1522 125.833 83.2069 125.766 83.2507 125.712C84.2871 122.119 85.955 118.683 86.2063 114.875C86.3164 113.181 86.596 111.458 85.9811 109.777C85.7264 109.09 85.4316 108.494 84.734 108.172C83.4458 111.348 81.7075 114.215 79.1932 116.595C77.7676 117.943 76.1581 118.696 74.1395 118.336L74.1542 118.359Z" fill="#004DF8"/>
            <path d="M-9.12548 143.111C-1.55286 148.076 6.03916 152.991 13.5692 158.022C16.052 159.673 18.7827 160.98 20.9569 163.105L20.93 163.083C21.3721 162.952 21.6627 163.266 21.9324 163.497C25.7232 166.747 30.0293 169.256 34.0789 172.148C34.8622 172.707 35.6565 173.253 36.6968 173.074C35.7983 164.274 34.583 155.506 34.2339 146.662C34.1993 145.72 33.8092 145.637 33.1108 145.548C29.1545 145.017 25.1819 144.929 21.2023 145.015C18.2792 145.078 15.891 144.474 14.6936 141.427C14.1414 139.997 13.1387 138.736 12.6827 137.284C12.2488 135.928 11.6452 135.682 10.3406 135.925C7.18689 136.504 4.01164 136.63 0.829041 136.082C-2.03384 137.097 -4.99531 137.509 -8.01591 137.582C-9.24289 137.621 -10.3978 137.763 -10.8988 139.005C-11.3815 140.184 -10.7569 141.238 -10.0569 142.186C-9.79917 142.541 -9.43796 142.823 -9.123 143.135L-9.12548 143.111Z" fill="#42E900"/>
            <path d="M-6.16787 126.95C-2.54501 126.385 1.05325 125.7 4.50542 124.428C6.29665 123.767 7.84229 122.75 8.78588 121.021C9.12711 120.385 9.36094 119.661 8.82848 119.027C8.33878 118.451 7.6439 118.276 6.88878 118.475C3.43841 119.403 -0.0141309 118.501 -3.46858 118.546C-4.63713 118.554 -4.37667 117.729 -4.12817 117.028C-3.50157 115.208 -2.7616 113.414 -2.224 111.566C-0.837588 106.82 -3.33776 103.672 -8.3161 103.982C-12.2308 104.22 -16.1442 104.47 -20.071 104.108C-21.9844 103.934 -22.947 103.307 -22.8621 101.125C-22.7517 98.2279 -24.7534 96.4664 -27.7322 96.7077C-31.5164 97.0187 -35.2857 97.4754 -39.0971 97.5189C-40.0317 97.528 -40.995 97.8592 -41.8814 98.2195C-42.6266 98.5162 -43.4643 98.8716 -43.4916 99.9305C-43.5091 100.964 -42.9583 101.657 -42.1265 102.088C-41.3983 102.469 -40.5948 102.743 -39.7865 102.943C-37.096 103.616 -34.3825 104.15 -31.5862 104.05C-30.5688 104.008 -30.2158 104.451 -30.1215 105.375C-29.7517 108.997 -27.3952 110.858 -24.1824 111.944C-21.4036 112.877 -18.5203 113.026 -15.6189 113.112C-13.1366 113.191 -13.1413 113.265 -13.9169 115.555C-15.0052 118.76 -15.0092 121.855 -13.0846 124.791C-12.2884 124.391 -11.5143 123.895 -10.6826 123.602C-7.51045 122.481 -6.04373 123.584 -6.16911 126.938L-6.16787 126.95Z" fill="#004DF8"/>
            <path d="M41.9461 133.633C36.83 130.666 32.2209 126.995 27.4816 123.498C24.9265 121.621 24.5996 121.433 22.3153 123.655C19.7513 126.15 16.2867 127.301 13.6872 129.689C15.4951 132.809 16.0746 136.435 17.9094 139.576C18.8935 141.257 20.042 141.656 21.7979 141.613C25.8383 141.521 29.8778 141.541 33.9085 142.077C38.1012 142.633 42.3575 142.606 46.5142 143.411C49.5774 143.996 52.6418 143.869 55.7138 143.938C53.4274 141.075 50.0456 139.54 47.2972 137.216C45.7338 135.889 43.6666 134.932 41.9461 133.633Z" fill="#42E900"/>
            <path d="M41.9413 133.632C43.674 134.93 45.729 135.887 47.2924 137.215C50.0409 139.539 53.4227 141.074 55.7091 143.936C56.5643 144.476 56.9495 145.235 56.8198 146.255C56.8344 146.88 56.477 147.358 56.2099 147.877C57.1493 150.446 58.1216 151.047 60.721 150.587C63.1525 150.168 65.4333 149.359 67.5975 148.132C68.855 147.427 70.0736 146.824 71.7349 147.06C73.3584 147.288 73.0424 145.761 72.8954 144.683C71.1517 143.399 69.2783 143.736 67.3844 144.236C65.6098 144.699 63.9936 145.747 61.7915 145.639C62.7371 143.689 64.3251 142.484 65.647 141.084C66.4569 140.216 67.1719 139.382 67.0756 138.078C66.9593 136.456 65.8237 135.822 64.5274 135.303C63.37 135.421 62.3242 135.908 61.2796 136.407C59.2258 137.389 57.0726 138.001 54.5783 138.046C55.1765 136.671 55.6861 135.514 56.1945 134.345C56.0593 131.092 55.0647 130.272 51.435 130.408C50.3255 130.754 49.2097 130.916 47.9288 130.788C48.3251 129.004 49.2652 127.361 48.8061 125.517C47.5855 123.086 45.3886 123.15 43.2031 123.446C41.0907 123.734 39.9352 122.906 39.5196 120.885C38.5383 119.351 38.3531 117.418 37.0675 116.038C36.3889 116.144 35.6995 116.263 35.0209 116.369C31.4924 121.111 34.0321 128.504 39.7175 129.695C41.2023 130.011 41.7429 130.484 41.5958 131.936C41.5407 132.482 41.8208 133.055 41.951 133.607L41.9413 133.632Z" fill="#FDFDFD"/>
            <path d="M102.049 107.79C102.164 104.216 101.875 100.66 101.476 97.1144C100.417 91.6834 98.8707 86.4247 96.0506 81.5902C95.5445 80.7329 95.1929 79.7002 93.9678 80.1194C92.8024 80.5203 92.8204 81.6606 93.0243 82.5733C93.5808 85.0097 94.3408 87.3886 94.9094 89.8238C95.4707 92.1861 96.021 94.5618 95.9037 97.0299C97.226 105.639 95.3857 114.018 93.9536 122.416C93.0507 127.678 90.9957 132.627 89.4979 137.729C89.7819 138.461 89.1224 139.597 90.132 139.961C91.0904 140.305 91.7894 139.436 92.4733 138.9C93.8178 137.842 94.6546 136.394 95.4256 134.903C99.2515 127.527 100.727 119.554 101.581 111.399C101.704 110.195 101.876 108.986 102.036 107.779L102.049 107.79Z" fill="#FDFDFD"/>
            <path d="M56.2166 147.878C56.4837 147.36 56.8398 146.869 56.8265 146.256C54.2639 146.234 51.7636 146.943 49.1543 146.705C45.0167 146.327 40.9127 145.675 36.7248 145.77C35.4722 145.799 35.4264 146.073 35.5856 147.15C36.7659 155.455 37.8731 163.767 39.0059 172.089C40.4703 170.638 41.6541 168.971 42.6805 167.208C44.5681 163.995 46.9353 161.139 49.1951 158.195C50.8805 155.654 51.9961 152.716 54.3574 150.646C55.2504 149.867 54.9478 148.351 56.2166 147.878V147.878Z" fill="#42E900"/>
            <path d="M38.998 172.09C37.8664 163.78 36.7579 155.456 35.5776 147.151C35.4184 146.074 35.4642 145.8 36.7168 145.771C40.9035 145.664 45.0087 146.328 49.1463 146.706C51.7556 146.944 54.2559 146.235 56.8185 146.257C56.9617 145.248 56.563 144.478 55.7078 143.939C52.6358 143.87 49.5727 144.01 46.5082 143.412C42.3515 142.607 38.083 142.635 33.9025 142.078C29.8718 141.542 25.8323 141.522 21.7919 141.614C20.036 141.657 18.8874 141.258 17.9034 139.577C16.0564 136.437 15.4891 132.81 13.6811 129.691C12.5548 130.112 11.547 130.73 10.6431 131.522C10.8769 132.125 11.0974 132.716 11.3312 133.319C11.5161 133.804 11.5352 134.231 10.848 134.252C8.81197 134.324 6.8002 134.995 4.74488 134.516C3.44322 135.029 2.12938 135.544 0.826488 136.044C4.00908 136.593 7.18433 136.467 10.338 135.888C11.6426 135.645 12.2584 135.89 12.6801 137.247C13.1349 138.686 14.1389 139.96 14.6911 141.39C15.8775 144.45 18.2767 145.041 21.1998 144.977C25.1794 144.892 29.1519 144.98 33.1083 145.511C33.8066 145.6 34.198 145.695 34.2314 146.625C34.5804 155.469 35.7957 164.236 36.6943 173.036C37.6254 173.114 38.4364 172.859 38.9955 172.066L38.998 172.09Z" fill="#F800A2"/>
            <path d="M80.788 84.738C80.5067 82.2244 79.0649 80.7622 77.5236 79.5311C71.4915 74.7037 64.9421 70.8378 57.2187 69.3385C55.9888 69.1073 54.1602 68.6791 53.7604 69.9479C53.3885 71.1278 55.2892 71.6592 56.2965 72.1217C61.5675 74.558 66.6684 77.2571 71.5654 80.37C73.1318 81.3652 74.6376 82.4894 76.1396 83.5771C76.7643 84.0294 77.399 84.5789 77.5053 85.3786C77.6781 86.5892 78.314 87.1508 79.4674 86.874C80.7646 86.5579 80.6966 85.4104 80.7758 84.7392L80.788 84.738Z" fill="#004DF8"/>
            <path d="M54.7564 91.5476C51.6 93.9071 48.1062 95.7358 44.7456 97.7844C43.9691 98.2563 43.1985 98.6662 42.7797 99.5071C43.0758 100.84 44.0934 100.921 45.1839 100.871C47.5124 100.77 49.505 99.6709 51.5211 98.68C55.67 96.6373 59.3658 94.0143 62.0895 90.1883C62.8211 89.1561 63.3138 88.0744 62.9093 86.7646C62.745 86.241 62.4555 85.816 61.902 85.7003C61.3218 85.5628 60.9227 85.8735 60.6262 86.3458C59.1597 88.6194 56.9715 90.0944 54.7821 91.5573L54.7564 91.5476Z" fill="#FDFDFD"/>
            <path d="M41.1801 82.8189C37.2741 85.7949 33.3388 88.7247 28.7742 90.6746C28.0777 90.9664 27.2485 91.284 27.0867 92.111C26.9068 93.0012 27.9289 92.8851 28.3635 93.283C32.712 93.0744 36.4569 91.2938 39.8494 88.7139C42.9218 86.3753 45.91 83.9347 48.925 81.516C49.2657 81.2357 49.5758 80.8972 49.8335 80.5271C50.1446 80.078 50.213 79.543 49.871 79.0865C49.4862 78.573 48.9857 78.7343 48.4742 78.9091C45.8195 79.793 43.5609 81.4225 41.1801 82.8189V82.8189Z" fill="#FDFDFD"/>
            <path d="M74.1448 118.362C76.1511 118.723 77.7728 117.969 79.1984 116.62C81.7127 114.24 83.4511 111.374 84.7393 108.197C85.1981 105.94 85.7947 103.706 85.4455 101.371C85.3221 100.524 85.2656 99.6088 84.2162 99.4576C83.1046 99.3004 82.5699 100.092 82.3181 101.001C81.2108 105.105 79.5998 108.978 77.3351 112.597C76.5212 113.908 75.6388 115.152 74.5979 116.29C74.0543 116.873 73.6802 117.55 74.146 118.374L74.1448 118.362Z" fill="#FDFDFD"/>
            <path d="M68.9798 95.886C67.307 98.6718 65.1264 100.944 62.1461 102.377C61.4534 102.705 60.3616 102.743 60.493 103.908C60.6121 105.075 61.5571 105.409 62.5384 105.616C62.9663 105.708 63.4245 105.735 63.8621 105.801C68.209 104.733 72.5051 99.912 73.0379 95.4859C73.1196 94.839 73.0672 94.2057 72.725 93.6264C72.4573 93.1747 72.1105 92.7924 71.5305 92.7776C70.9139 92.7666 70.6234 93.1769 70.4294 93.6878C70.1227 94.5418 69.7098 95.3206 68.981 95.8982L68.9798 95.886Z" fill="#FDFDFD"/>
            <path d="M18.5876 83.0025C24.5149 81.258 30.3824 79.409 35.106 75.1588C35.6352 74.6751 36.6007 74.2454 35.941 73.33C35.3253 72.4838 34.4878 72.9619 33.8952 73.4274C29.953 76.5299 25.3515 78.3607 20.8455 80.4029C19.7632 80.8936 18.7641 81.5969 17.7294 82.1933C18.0151 82.459 18.3141 82.7356 18.5997 83.0013L18.5876 83.0025Z" fill="#FDFDFD"/>
            <path d="M4.74982 134.525C6.80515 135.004 8.81692 134.333 10.8529 134.261C11.528 134.242 11.5211 133.813 11.3362 133.328C11.1023 132.725 10.8819 132.134 10.648 131.531C8.68197 132.529 6.71589 133.527 4.74982 134.525V134.525Z" fill="#4CE400"/>
            <path d="M18.5948 83.0052C18.3092 82.7395 18.0223 82.4616 17.7245 82.1971C17.2034 82.3975 16.764 82.6755 16.5533 83.3846C17.3248 83.4658 17.9963 83.5327 18.5961 83.0173L18.5948 83.0052Z" fill="#4CE400"/>
            <path d="M20.9348 163.101C20.2058 163.556 19.5748 163.042 18.9518 162.848C12.9105 160.944 7.23797 158.193 1.62369 155.288C0.479604 154.692 -0.685123 154.135 -1.94686 153.833C-2.42595 153.722 -2.98456 153.435 -3.35512 154.025C-3.65156 154.498 -3.26701 154.888 -3.04455 155.259C-2.55315 156.093 -1.89988 156.825 -1.11531 157.396C4.56961 161.596 10.8308 164.447 17.8698 165.512C18.1831 165.566 18.506 165.595 18.8265 165.599C20.9955 165.624 21.4004 165.129 20.8945 163.068L20.9214 163.09L20.9348 163.101Z" fill="#FDFDFD"/>
            <path d="M129.788 120.138C129.633 119.589 129.525 119.01 129.311 118.479C128.991 117.64 128.651 116.594 127.535 116.756C126.275 116.958 126.88 118.063 126.86 118.827C126.825 119.813 126.562 120.736 126.018 121.552C123.503 125.37 121.328 129.385 119.114 133.381C118.615 134.279 118.024 135.125 117.26 135.841C116.81 136.255 116.453 136.734 116.861 137.355C117.21 137.885 117.792 138.034 118.4 137.96C119.545 137.844 120.455 137.236 121.264 136.478C122.927 134.921 124.215 133.071 125.267 131.073C126.556 128.633 127.819 126.171 129.043 123.689C129.595 122.589 129.98 121.42 129.776 120.139L129.788 120.138Z" fill="#FDFDFD"/>
            <path d="M139.222 117.172C138.704 115.592 139.072 113.528 137.86 113.602C136.357 113.705 137.338 115.595 137.178 116.68C136.343 122.131 134.73 127.306 131.632 131.931C130.747 133.262 129.284 133.889 127.978 134.722C127.436 135.072 126.441 135.333 126.811 136.192C127.085 136.827 127.984 136.588 128.586 136.453C130.836 135.942 132.893 134.996 134.271 133.063C137.747 128.166 138.798 122.545 139.233 117.159L139.222 117.172Z" fill="#FDFDFD"/>
            <path d="M111.186 132.133C112.55 131.872 113.7 131.202 114.644 130.197C117.633 127.044 118.998 123.172 119.717 118.998C119.771 118.685 119.75 118.356 119.705 118.041C119.617 117.301 119.327 116.63 118.513 116.492C117.725 116.363 117.382 116.987 117.15 117.613C116.172 120.205 114.764 122.571 113.382 124.947C112.263 126.89 111.185 128.866 109.085 130.001C108.688 130.213 108.315 130.534 108.38 131.055C108.467 131.66 108.965 131.843 109.451 132.015C110.013 132.215 110.58 132.231 111.16 132.123L111.186 132.133Z" fill="#FDFDFD"/>
            <path d="M107.677 118.308C107.59 117.457 107.566 116.858 106.971 116.698C106.301 116.52 106.077 117.108 105.93 117.589C104.293 122.779 101.531 127.431 99.0027 132.208C98.4866 133.181 97.4595 134.575 98.5258 135.253C99.4212 135.825 100.246 134.255 100.914 133.45C104.282 129.424 106.642 124.922 107.486 119.691C107.576 119.129 107.641 118.558 107.677 118.308V118.308Z" fill="#FDFDFD"/>
            <path d="M102.395 153.647C106.037 153.154 110.178 149.467 110.822 146.122C110.925 145.571 110.852 144.977 110.782 144.407C110.732 143.921 110.379 143.6 109.88 143.528C109.354 143.447 108.941 143.734 108.827 144.188C108.054 147.472 105.524 149.448 103.327 151.686C102.825 152.191 102.205 152.758 102.383 153.648L102.395 153.647Z" fill="#FDFDFD"/>
            <path d="M117.817 65.1844C114.993 66.3433 111.795 66.128 108.992 67.6042C107.427 68.4386 106.153 66.8119 104.71 66.4183C104.786 63.5491 105.374 60.7507 106.102 57.9872C106.508 56.4231 106.658 54.8728 106.2 53.286C107.808 52.2752 109.565 51.6422 111.445 51.3652C118.559 51.6001 122.82 54.8758 124.791 61.6387C125.377 63.6423 124.716 64.7657 122.64 65.2837C121.057 64.2533 119.505 64.4847 117.815 65.1723L117.817 65.1844ZM110.932 58.1595C111.039 59.3276 113.085 60.8021 114.447 60.6391C115.433 60.5266 115.978 59.9555 115.837 58.9382C115.689 57.848 113.492 56.7081 112.011 56.9077C111.202 56.9408 110.864 57.3682 110.932 58.1595V58.1595Z" fill="#4CE400"/>
            <path d="M87.2703 36.8732C87.0803 36.9416 86.9038 37.0209 86.7138 37.0894C84.3483 38.8772 81.8018 40.3395 78.984 41.3136C78.2229 41.5752 77.5159 42.126 76.9077 42.679C76.0635 43.4526 75.5621 44.4491 76.1235 45.6079C76.6825 46.7423 77.7426 46.7574 78.7964 46.5889C81.5579 46.1486 84.153 45.2831 86.4603 43.6485C86.8619 43.3621 87.1497 42.8048 87.8407 43.5451C89.8187 45.6774 91.5673 45.6839 93.7961 43.7626C94.0333 43.5543 94.2815 43.3326 94.4918 43.1025C95.4853 41.9822 95.9407 42.464 96.2085 43.6403C96.2774 43.9526 96.3462 44.2649 96.4637 44.5722C96.9426 45.8867 97.7547 46.8481 99.2728 46.7675C100.779 46.6881 101.487 45.6705 101.854 44.3191C102.454 42.1213 102.838 42.0209 104.452 43.7235C105.059 44.3619 105.65 45.0878 106.027 45.8846C106.374 46.6352 106.767 47.111 107.596 46.9041C108.616 46.653 108.824 45.7967 108.674 44.9278C108.345 43.0331 107.303 41.5057 106.016 40.1137C105.684 39.7544 105.113 39.5914 105.028 38.9982L105.077 38.9933C104.768 39.0984 104.607 38.9674 104.575 38.6636L104.628 38.6951C104.22 38.7979 103.992 38.6124 103.845 38.2589L103.872 38.2807C103.616 38.3067 103.458 38.2122 103.396 37.9606L103.435 37.9812C103.085 38.0536 102.812 37.9094 102.612 37.6351L102.636 37.6326C100.176 37.7721 97.7452 38.4367 95.2399 37.7702C94.278 37.5118 93.2396 38.0718 92.4074 38.7213C91.9851 39.0466 91.5582 39.4462 91.1767 38.7235C90.3231 37.1155 88.8264 36.9238 87.2447 36.8635L87.2703 36.8732Z" fill="#FDFDFD"/>
            <path d="M85.1089 50.6847C82.3635 49.9567 79.7543 50.443 77.2829 51.6766C75.7612 52.4453 74.9094 53.7477 74.7567 55.5071C74.1716 61.9526 79.6834 66.7468 85.7266 65.0519C85.2098 64.3308 84.845 63.4099 84.1568 62.9395C81.9498 61.4568 82.0847 59.2817 82.2439 57.1041C82.3127 56.09 82.7166 55.1034 82.7867 54.1015C82.8909 52.4698 83.5857 51.3185 85.1089 50.6847Z" fill="#FDFDFD"/>
            <path d="M104.704 66.4142C104.78 63.545 105.369 60.7466 106.096 57.9832C106.502 56.4191 106.652 54.8688 106.194 53.2819C104.081 51.8756 102.89 52.144 101.7 54.3527C99.7643 57.939 98.6856 61.7206 99.3768 65.8381C99.4963 66.5259 99.6536 67.2222 99.8693 67.888C100.207 68.9098 100.733 69.8389 101.943 69.8755C103.251 69.9023 103.83 68.9469 104.236 67.8617C104.41 67.3897 104.556 66.8959 104.715 66.4008L104.704 66.4142Z" fill="#F800A2"/>
            <path d="M85.1108 50.6857C83.5876 51.3194 82.8928 52.4708 82.7886 54.1024C82.7198 55.1165 82.3158 56.1031 82.2458 57.105C82.0866 59.2826 81.9504 61.4456 84.1587 62.9405C84.8456 63.3987 85.2117 64.3317 85.7285 65.0529C87.0551 65.5075 88.1623 65.2599 88.9752 64.0597C89.3786 62.1029 89.2007 60.1192 89.3188 58.1423C89.4525 55.955 89.4911 53.8019 88.1168 51.9153L88.1571 51.948C88.0019 51.755 87.8334 51.5511 87.6783 51.3581C86.8188 51.1384 85.9715 50.9175 85.1121 50.6978L85.1108 50.6857Z" fill="#032363"/>
            <path d="M88.1199 51.9177C89.4942 53.8043 89.4568 55.9696 89.3219 58.1447C89.2037 60.1216 89.3817 62.1053 88.9783 64.0621C93.0421 62.7526 94.9996 59.7414 93.7092 56.5076C92.7176 54.0294 90.7092 52.5633 88.1199 51.9177V51.9177Z" fill="#FDFDFD"/>
            <path d="M87.6836 51.3604C87.8387 51.5534 88.0072 51.7573 88.1623 51.9503C88.0072 51.7573 87.8387 51.5534 87.6836 51.3604Z" fill="#FDFDFD"/>
            <path d="M131.605 73.8623C131.662 73.9306 131.717 73.9866 131.773 74.0548C131.77 74.0182 131.763 73.9572 131.761 73.9328C131.721 73.8999 131.658 73.8939 131.607 73.8745L131.618 73.8611L131.605 73.8623Z" fill="#004DF8"/>
            <path d="M87.2587 36.874C88.8295 36.9477 90.3371 37.1261 91.1906 38.7341C91.5722 39.4567 91.9991 39.0572 92.4213 38.7318C93.2536 38.0823 94.292 37.5224 95.2539 37.7807C97.7714 38.4459 100.19 37.7826 102.65 37.6431C97.5724 36.2556 92.4868 35.2742 87.2587 36.874V36.874Z" fill="#004DF8"/>
            <path d="M103.852 38.2643C103.987 38.6191 104.227 38.8034 104.635 38.7005C104.542 38.2679 104.238 38.1882 103.852 38.2643Z" fill="#004DF8"/>
            <path d="M102.618 37.6365C102.819 37.9231 103.091 38.0551 103.441 37.9827C103.259 37.6451 102.967 37.5642 102.618 37.6365Z" fill="#004DF8"/>
            <path d="M104.583 38.6733C104.614 38.9772 104.775 39.1081 105.084 39.003C105.042 38.7126 104.871 38.6071 104.583 38.6733Z" fill="#004DF8"/>
            <path d="M103.406 37.9589C103.469 38.2104 103.628 38.3171 103.882 38.279C103.83 38.0141 103.661 37.9208 103.406 37.9589Z" fill="#004DF8"/>
            <path d="M56.192 134.348C55.6824 135.505 55.174 136.675 54.5758 138.05C57.0566 137.994 59.2233 137.393 61.2771 136.411C62.3217 135.911 63.3565 135.438 64.5249 135.307C66.1527 133.287 67.7697 131.28 69.3975 129.261C65.1648 131.447 61.0004 133.7 56.2042 134.347L56.192 134.348Z" fill="#032363"/>
            <path d="M48.8096 125.518C49.2687 127.362 48.3286 129.005 47.9323 130.789C49.2132 130.917 50.3303 130.767 51.4385 130.409C51.559 127.731 53.3785 125.901 55.0545 123.508C52.7224 124.297 50.8255 125.129 48.8083 125.506L48.8096 125.518Z" fill="#032363"/>
            <path d="M37.0894 116.051C38.3872 117.43 38.5602 119.365 39.5415 120.898C39.6315 118.163 41.2387 116.182 42.798 113.973C40.8874 114.67 38.989 115.367 37.0772 116.052L37.0894 116.051Z" fill="#032363"/>
            <path d="M83.2623 125.726C83.2623 125.726 83.1639 125.846 83.1202 125.9C83.1555 125.884 83.2042 125.879 83.2139 125.854C83.2345 125.815 83.2283 125.754 83.2355 125.704L83.2623 125.726Z" fill="#032363"/>
            <path d="M111.999 56.8935C111.19 56.9266 110.852 57.3539 110.921 58.1452C111.028 59.3133 113.074 60.7878 114.436 60.6248C115.421 60.5123 115.966 59.9412 115.825 58.9239C115.677 57.8337 113.48 56.6938 111.999 56.8935V56.8935Z" fill="#F800A2"/>
        </g>
    </g>
    <path d="M165.046 154.279C162.989 137.12 162.231 119.891 162.704 102.628C162.948 93.6607 162.965 84.6898 163.203 75.7223C163.533 63.4205 163.863 51.1187 164.651 38.8405C165.29 28.8646 167.065 18.9761 167.133 8.94651C167.146 6.9231 167.092 4.91986 166.667 2.94351C166.286 1.189 165.28 0.704991 163.625 1.46125C163.217 1.64947 162.911 1.75031 162.503 1.54528C160.515 0.550378 158.336 0.499961 156.198 0.459628C147.303 0.298293 138.404 0.167208 129.506 0.133597C112.64 0.0663742 95.7745 0.163847 78.9122 0.0226794C67.7432 -0.0714325 56.5946 0.0966245 45.4663 1.11505C37.1932 1.87131 28.9541 3.10148 20.6062 2.86284C15.5894 2.85612 10.6133 3.1519 5.75953 4.56022C3.90029 5.10136 2.51011 5.53159 1.69436 7.91128C0.501319 11.4001 -0.042517 14.8151 0.195411 18.3812C0.620283 24.8077 0.990771 31.2342 1.32047 37.6641C2.04105 51.6733 2.73444 65.6859 3.30547 79.7019C3.58759 86.5956 3.79492 93.496 4.1858 100.383C4.71604 109.74 5.39584 119.091 5.35165 128.472C5.31426 136.697 4.93018 144.908 4.37955 153.113C4.25718 154.941 3.98527 156.796 4.77043 158.561C5.12392 159.351 4.46792 159.394 4.03285 159.61C3.2069 160.013 2.13962 160.305 2.30277 161.472C2.46253 162.621 3.63177 162.588 4.47472 162.883C4.80102 162.998 5.15451 163.028 5.49781 163.098C10.4773 164.147 15.5316 164.288 20.596 164.308C38.6854 164.382 56.7747 164.44 74.864 164.493C86.0297 164.527 97.1987 164.53 108.361 164.971C123.874 165.582 139.383 166.275 154.896 166.95C157.908 167.081 160.688 166.833 163.241 164.819C165.341 163.162 166.341 161.62 165.865 159.028C165.572 157.445 165.236 155.865 165.046 154.272V154.279ZM161.011 10.9934C159.22 20.8449 158.373 30.8174 157.109 40.7362C156.042 49.1222 155.161 57.5251 154.465 65.9481C153.074 82.7706 153.374 99.6233 153.414 116.476C153.431 123.955 153.52 131.43 153.809 138.902C154.036 144.817 154.298 150.743 155.787 156.524C156.123 157.825 155.875 158.356 154.373 158.386C152.507 158.426 150.654 158.4 148.798 158.238C136.868 157.216 124.931 156.299 113.001 155.304C100.02 154.225 86.9882 153.923 73.9531 154.642C68.4978 154.944 63.0186 154.827 57.5599 155.086C43.5629 155.748 29.5693 156.48 15.6199 157.855C14.0734 158.006 13.9477 157.751 14.0938 156.211C14.726 149.513 14.9164 142.78 14.9843 136.051C15.1135 123.558 14.172 111.115 13.3154 98.6621C12.758 90.5752 12.5269 82.4647 12.1666 74.3644C11.5956 61.5013 11.1605 48.6483 9.56638 35.8289C8.4889 27.1437 6.93897 18.5661 5.33466 9.9851C5.07634 8.60367 5.41963 8.47259 6.66366 8.55997C8.57048 8.69106 10.4943 8.59359 12.4079 8.59359C15.2563 8.35495 18.1012 8.35831 20.9359 8.75828C27.7849 9.72293 34.6474 8.90617 41.4997 8.81878C53.6545 8.66753 65.8126 8.53645 77.9673 8.86584C91.1723 9.22212 104.371 9.0507 117.565 8.39864C126.005 7.98186 134.424 8.30789 142.84 8.95323C145.563 9.16162 148.316 9.29606 151.032 9.13137C154.227 8.93642 157.248 9.91115 160.375 10.0658C161.042 10.0994 161.106 10.4389 161.008 10.9834L161.011 10.9934Z" fill="#F5F4F4"/>
    <path d="M164.948 154.279C162.892 137.12 162.134 119.891 162.606 102.628C162.851 93.6607 162.868 84.6898 163.106 75.7223C163.435 63.4205 163.765 51.1187 164.554 38.8405C165.193 28.8646 166.967 18.9761 167.035 8.94651C167.048 6.9231 166.994 4.91986 166.569 2.94351C166.189 1.189 165.182 0.704991 163.527 1.46125C163.119 1.64947 162.813 1.75031 162.405 1.54528C160.417 0.550378 158.238 0.499961 156.1 0.459628C147.205 0.298293 138.307 0.167208 129.408 0.133597C112.543 0.0663742 95.6769 0.163847 78.8146 0.0226794C67.6455 -0.0714325 56.4969 0.0966245 45.3687 1.11505C37.0956 1.87131 28.8565 3.10148 20.5086 2.86284C15.4917 2.85612 10.5156 3.1519 5.66187 4.56022C3.80264 5.10136 2.41246 5.53159 1.5967 7.91128C0.403662 11.4001 -0.140173 14.8151 0.0977548 18.3812C0.522626 24.8077 0.893114 31.2342 1.22281 37.6641C1.9434 51.6733 2.63679 65.6859 3.20782 79.7019C3.48993 86.5956 3.69727 93.496 4.08815 100.383C4.61839 109.74 5.29818 119.091 5.254 128.472C5.21661 136.697 4.83252 144.908 4.28189 153.113C4.15953 154.941 3.88761 156.796 4.67277 158.561C5.02627 159.351 4.37026 159.394 3.9352 159.61C3.10924 160.013 2.04197 160.305 2.20512 161.472C2.36487 162.621 3.53412 162.588 4.37706 162.883C4.70336 162.998 5.05686 163.028 5.40015 163.098C10.3796 164.147 15.4339 164.288 20.4984 164.308C38.5877 164.382 56.6771 164.44 74.7664 164.493C85.932 164.527 97.101 164.53 108.263 164.971C123.776 165.582 139.286 166.275 154.799 166.95C157.81 167.081 160.59 166.833 163.143 164.819C165.244 163.162 166.243 161.62 165.767 159.028C165.475 157.445 165.138 155.865 164.948 154.272V154.279ZM160.913 10.9934C159.122 20.8449 158.276 30.8174 157.011 40.7362C155.944 49.1222 155.064 57.5251 154.367 65.9481C152.977 82.7706 153.276 99.6233 153.317 116.476C153.334 123.955 153.422 131.43 153.711 138.902C153.939 144.817 154.2 150.743 155.689 156.524C156.026 157.825 155.778 158.356 154.275 158.386C152.409 158.426 150.557 158.4 148.701 158.238C136.77 157.216 124.833 156.299 112.903 155.304C99.9222 154.225 86.8905 153.923 73.8555 154.642C68.4001 154.944 62.921 154.827 57.4622 155.086C43.4652 155.748 29.4717 156.48 15.5223 157.855C13.9758 158.006 13.85 157.751 13.9962 156.211C14.6284 149.513 14.8187 142.78 14.8867 136.051C15.0158 123.558 14.0743 111.115 13.2178 98.6621C12.6604 90.5752 12.4292 82.4647 12.0689 74.3644C11.4979 61.5013 11.0628 48.6483 9.46872 35.8289C8.39125 27.1437 6.84132 18.5661 5.237 9.9851C4.97868 8.60367 5.32198 8.47259 6.566 8.55997C8.47282 8.69106 10.3966 8.59359 12.3103 8.59359C15.1586 8.35495 18.0035 8.35831 20.8383 8.75828C27.6872 9.72293 34.5497 8.90617 41.4021 8.81878C53.5568 8.66753 65.7149 8.53645 77.8697 8.86584C91.0747 9.22212 104.273 9.0507 117.468 8.39864C125.907 7.98186 134.327 8.30789 142.742 8.95323C145.465 9.16162 148.218 9.29606 150.934 9.13137C154.129 8.93642 157.151 9.91115 160.278 10.0658C160.944 10.0994 161.009 10.4389 160.91 10.9834L160.913 10.9934Z" fill=""/>
    <defs>
        <clipPath id="clip0_729_3065">
            <rect width="156.301" height="155.633" fill="white" transform="translate(5.48438 5.93262)"/>
        </clipPath>
        <clipPath id="clip1_729_3065">
            <rect width="261.538" height="296.454" fill="white" transform="translate(-107.332 -33.1426)"/>
        </clipPath>
    </defs>
</svg>
