<svg width="194" height="197" viewBox="0 0 194 197" fill="none" xmlns="http://www.w3.org/2000/svg">
<path d="M97.8505 196.25C73.4805 196.25 49.1005 196.26 24.7305 196.25C17.0605 196.25 8.99046 191.89 7.48046 186.47C6.28046 182.19 4.90046 177.89 4.79046 173.33C4.42046 157.64 3.70046 141.96 3.29046 126.27C2.70046 103.88 1.36046 81.5096 0.210455 59.1396C-0.479545 45.6696 0.720455 32.2396 0.680455 18.7896C0.660455 12.6296 9.29046 5.97962 17.1205 5.37962C48.4005 2.98962 79.6505 0.299618 111.1 0.889618C124.51 1.13962 137.96 -1.21038 151.37 0.869618C158.9 2.03962 166.58 1.56962 174.07 3.31962C182.06 5.18962 188.26 12.5896 188.91 20.7496C189.59 29.2696 188.61 37.8896 189.73 46.2596C190.82 54.3796 191.74 62.4596 192.31 70.6396C193.03 80.9696 192.43 91.2596 192.56 101.57C192.77 117.83 191.8 134.11 193.53 150.36C194.62 160.59 193.09 170.66 190.01 180.41C186.94 190.13 178.65 195.5 168.28 195.46C144.8 195.36 121.33 195.43 97.8505 195.43C97.8505 195.71 97.8505 195.99 97.8505 196.26V196.25Z" fill="#0E4BF3"/>
<path d="M101.161 22.23C117.001 22.23 132.851 22.23 148.691 22.23C150.191 22.23 151.681 22.2 153.181 22.22C167.891 22.37 175.171 28.83 175.721 43.58C176.351 60.75 176.771 77.95 174.911 95.11C174.411 99.7 174.251 104.37 174.411 108.99C174.991 125.81 172.331 142.33 170.201 158.91C169.581 163.75 166.671 166.87 162.281 168.34C154.021 171.11 145.711 173 136.811 170.76C130.821 169.25 124.571 170.4 118.541 171.17C107.921 172.52 97.401 172.15 86.801 171.17C83.291 170.84 79.671 171.35 76.131 171.7C63.761 172.92 51.351 172.3 38.961 172.51C30.591 172.65 26.341 168.63 25.351 160.14C22.971 139.74 23.321 119.25 24.311 98.8C25.021 84.06 22.591 69.6 21.321 55.05C20.701 47.92 20.541 40.78 23.831 34.45C28.161 26.1 35.871 22.22 45.151 21.85C63.811 21.11 82.491 20.76 101.161 22.26V22.23Z" fill="#FEFEFE"/>
<path d="M92.9004 86.9595C91.3804 86.9595 90.1904 86.9095 89.0004 86.9595C80.9204 87.3895 80.3504 86.9595 80.7004 79.0695C80.8904 74.7595 81.4204 70.4595 82.0204 66.1795C82.4704 62.9595 84.5304 61.2395 87.8504 61.1795C92.0204 61.1095 96.1904 61.0595 100.36 60.9595C104.03 60.8695 105.94 62.5395 105.89 66.3095C105.84 70.7795 106.03 75.2495 105.78 79.7095C105.41 86.3095 103.77 87.6095 97.0304 87.2795C95.5404 87.2095 94.0604 87.0495 92.9004 86.9595Z" fill="#0E4BF3"/>
<path d="M120.042 112.73C118.402 112.73 116.762 112.77 115.122 112.73C108.472 112.55 107.422 111.25 107.192 104.7C107.042 100.38 106.692 96.1197 107.482 91.7997C108.162 88.0897 110.282 86.5197 113.742 87.1597C117.322 87.8297 120.812 87.6997 124.392 87.3297C128.042 86.9497 130.522 88.6697 131.002 92.3997C131.552 96.6697 132.292 100.94 131.902 105.31C131.382 111.13 130.472 112.11 124.502 112.37C123.012 112.43 121.522 112.5 120.032 112.57C120.032 112.62 120.032 112.68 120.032 112.73H120.042Z" fill="#0F4BF2"/>
<path d="M69.1309 37.9493C72.1309 38.7693 75.2409 37.7793 78.3709 37.8793C82.0809 37.9993 83.9809 39.8593 83.9609 43.4293C83.9309 48.4993 82.9109 53.4793 81.7509 58.3993C81.1309 61.0193 79.1609 62.0993 76.6609 61.6493C72.9409 60.9793 69.2009 61.0393 65.4909 61.2293C61.4009 61.4393 59.7009 59.3293 59.4109 55.7293C59.0909 51.7093 59.1509 47.6693 58.8609 43.6493C58.5809 39.7693 60.3409 38.1593 64.0909 38.2393C65.7309 38.2693 67.3709 38.0693 69.1509 37.9593L69.1309 37.9493Z" fill="#0F4BF2"/>
<path d="M92.5622 110.27C91.5122 110.27 90.4722 110.27 89.4222 110.27C79.5522 110.19 79.0122 107.97 79.0922 100.44C79.2122 89.2095 78.8522 89.2095 90.4222 89.4995C93.4122 89.5695 96.3922 89.4995 99.3822 89.5995C103.772 89.7595 105.552 91.8595 104.972 96.2395C104.782 97.7095 104.172 99.1095 103.932 100.58C102.852 107.053 99.0589 110.283 92.5522 110.27H92.5622Z" fill="#104BF2"/>
<path d="M118.21 83.6395C116.42 83.6395 114.62 83.7195 112.84 83.6195C110.66 83.4995 108.84 82.3595 108.83 80.1495C108.82 75.0995 107.03 70.1795 108.08 65.0595C108.83 61.3795 110.58 59.4695 114.53 59.9595C117.49 60.3295 120.47 60.5395 123.45 60.7495C127.3 61.0195 129.13 63.2095 129.04 66.8995C128.94 71.0695 128.64 75.2495 128.32 79.4095C128.12 81.9995 126.55 83.5195 124.01 83.7695C122.09 83.9595 120.14 83.8095 118.2 83.8095C118.2 83.7495 118.2 83.6995 118.2 83.6395H118.21Z" fill="#104BF2"/>
<path d="M114.752 134.539C113.082 134.029 109.622 136.359 109.112 132.839C108.582 129.169 112.392 129.709 114.652 129.239C116.812 128.789 119.122 128.639 121.322 128.849C125.802 129.289 127.922 131.879 127.682 136.389C127.432 140.999 126.992 145.609 126.662 150.209C126.562 151.639 126.192 152.909 124.672 153.379C123.172 153.839 121.732 153.289 121.432 151.829C120.942 149.399 119.802 150.059 118.292 150.639C116.492 151.329 114.642 151.999 112.762 152.289C110.462 152.649 108.022 152.239 106.892 149.989C105.712 147.629 105.862 145.049 107.562 142.789C110.402 139.029 114.442 137.779 118.892 137.309C119.942 137.199 121.722 137.849 121.782 136.159C121.852 134.219 120.002 134.599 118.732 134.539C117.542 134.479 116.342 134.529 114.742 134.529L114.752 134.539Z" fill="#0D1F5D"/>
<path d="M98.3197 147.95C100.01 147.95 102.43 146.92 103.01 149.67C103.56 152.3 101.31 153.28 99.3397 154.01C92.4097 156.6 84.5697 151.35 84.1897 143.93C83.7197 134.99 85.5697 131.67 92.6797 128.49C94.3797 127.73 96.0897 127.45 97.9097 127.81C99.7997 128.19 102.21 128.23 102.14 130.84C102.07 133.46 99.6197 132.27 98.2397 132.5C92.9697 133.39 89.4097 138.1 90.7197 143.2C91.6597 146.85 94.3497 148.5 98.3397 147.94L98.3197 147.95Z" fill="#0F1E5B"/>
<path d="M149.85 141.589C148.72 135.619 150.68 129.859 150.1 124.029C149.95 122.529 150.48 121.319 152.11 121.049C153.83 120.769 155.34 121.559 155.38 123.269C155.48 127.429 157.15 128.979 161.34 128.049C162.84 127.719 164.98 128.019 164.99 130.279C165 132.469 163.08 132.559 161.39 132.709C157.277 133.069 155.223 135.286 155.23 139.359C155.23 140.999 155.34 142.649 155.23 144.289C155.04 146.959 155.13 148.909 158.88 148.449C161.78 148.089 161.12 150.279 160.05 151.609C158.13 153.989 155.3 153.939 152.61 153.499C149.86 153.049 149.85 150.769 149.85 148.619C149.85 146.229 149.85 143.839 149.85 141.589Z" fill="#0C215A"/>
<path d="M64.529 153.859C64.199 153.829 63.449 153.779 62.719 153.659C60.829 153.359 58.349 153.369 58.469 150.739C58.579 148.199 61.089 148.429 62.929 147.969C64.489 147.569 66.829 148.899 67.459 146.319C68.089 143.719 65.639 143.309 64.199 142.169C62.809 141.059 61.229 139.999 60.299 138.549C58.299 135.459 58.409 132.269 61.239 129.629C63.389 127.629 68.909 127.569 70.969 129.359C72.189 130.409 72.159 131.419 70.669 132.099C69.889 132.459 68.959 132.559 68.089 132.659C66.649 132.819 64.779 132.439 64.429 134.349C64.059 136.379 65.829 137.139 67.379 137.709C71.079 139.069 73.329 141.379 73.439 145.579C73.589 151.349 70.879 154.099 64.539 153.859H64.529Z" fill="#0E205B"/>
<path d="M49.1011 147.209C50.7211 147.069 52.6911 146.519 53.3511 148.559C54.0911 150.839 52.0611 151.699 50.4711 152.419C47.2511 153.879 43.9611 153.929 41.2711 151.379C37.3111 147.629 34.7411 143.229 36.4211 137.459C38.1111 131.619 42.7311 127.449 47.6511 127.419C49.7611 127.409 52.3811 127.659 52.5711 130.159C52.7811 132.859 50.0511 132.049 48.4611 132.169C44.1911 132.499 42.2511 135.479 40.9911 138.879C39.7211 142.299 42.4811 144.309 44.4611 146.459C45.7911 147.909 47.5011 147.309 49.1111 147.209H49.1011Z" fill="#11215C"/>
<path d="M136.47 132.18C138.14 129.32 140.38 128.12 143.34 128.53C144.84 128.74 145.9 129.61 145.95 131.12C146 132.66 144.94 133.78 143.45 133.69C137.75 133.33 136.84 136.45 137.33 141.23C137.65 144.31 137.33 147.47 137.11 150.59C137.01 152.08 136.54 153.79 134.49 153.43C132.79 153.13 132.85 151.54 132.87 150.19C132.98 144.4 133.45 138.61 132.09 132.86C131.72 131.28 131.05 128.66 132.92 128.11C135.22 127.44 134.76 130.64 136.46 132.19L136.47 132.18Z" fill="#13235D"/>
<path d="M79.0807 147.22C80.9007 147.47 81.9007 148.39 81.8007 150.19C81.7007 151.95 80.6707 152.96 78.9107 152.9C77.1407 152.84 76.1707 151.77 76.2507 149.99C76.3307 148.21 77.4907 147.42 79.0807 147.22Z" fill="#1F2A5F"/>
<path d="M121.221 142.93C121.711 147.03 118.291 146.11 116.351 146.58C114.491 147.03 111.571 149.35 110.671 146.48C109.901 144.03 113.141 142.85 115.251 141.84C116.301 141.34 117.521 141.17 118.661 140.85C120.591 140.31 122.071 140.31 121.221 142.93Z" fill="#F2F3F1"/>
</svg>
