<svg width="168" height="167" viewBox="0 0 168 167" xmlns="http://www.w3.org/2000/svg">
<g clip-path="url(#clip0_1218_2310)">
<g clip-path="url(#clip1_1218_2310)">
<path d="M112.271 104.369C114.876 104.475 117.128 105.888 119.654 106.328C120.8 106.528 121.906 106.967 123.032 107.294C123.172 107.541 123.212 107.8 123.105 108.067C121.966 109.353 122.079 110.719 122.846 112.132C123.832 113.951 125.251 115.323 127.057 116.316C127.696 116.669 128.349 116.896 129.096 116.862C129.642 116.836 130.188 116.849 130.702 117.076C131.901 119.075 132.541 121.3 133.38 123.459C135.053 127.77 136.279 132.261 138.284 136.446C138.891 137.705 139.244 139.051 139.497 140.424C139.45 140.544 139.397 140.67 139.284 140.73C136.672 142.09 135.659 144.568 134.733 147.127C133.94 149.313 133.214 151.478 133.413 153.877C133.52 155.17 133.913 156.342 134.413 157.502C134.566 157.855 134.813 158.155 135.166 158.328C135.646 158.575 136.119 158.961 136.699 158.681C137.298 158.395 137.305 157.795 137.278 157.249C137.178 155.01 137.831 153.031 139.171 151.238C139.67 150.572 139.93 149.739 140.337 149C140.656 148.413 140.956 147.787 141.709 147.614C142.456 149.359 142.882 151.198 143.435 153.011C144.701 157.142 146.114 161.233 147.453 165.345C147.846 166.544 148.206 167.75 148.579 168.956C148.426 169.383 148.066 169.589 147.72 169.842C145.787 171.275 144.614 173.187 144.048 175.539C143.668 177.112 143.542 178.678 143.562 180.284C143.575 181.55 144.035 182.662 144.515 183.789C144.741 184.328 145.134 184.688 145.767 184.681C146.407 184.675 146.773 184.288 146.993 183.749C147.48 182.576 147.686 181.336 147.933 180.097C148.319 178.158 148.699 176.219 149.639 174.447C149.832 174.087 149.952 173.654 150.378 173.46C152.757 178.558 154.969 183.729 157.042 188.959C157.648 190.485 157.954 192.104 158.281 193.71C158.408 194.31 158.674 194.616 159.267 194.836C161.093 195.509 162.825 196.362 164.005 198.008C163.891 198.654 163.345 198.521 162.925 198.588C162.599 198.641 162.259 198.608 161.932 198.688C161.479 198.794 160.993 198.908 160.913 199.461C160.826 200.06 161.259 200.36 161.713 200.607C162.366 200.967 163.085 200.887 163.791 200.953C164.258 201 164.944 200.76 165.017 201.593C164.551 203.725 163.885 204.132 160.14 204.471C160.9 205.757 161.859 206.884 162.119 208.329C161.766 208.836 161.219 208.656 160.74 208.709C160.247 208.769 159.614 208.676 159.5 209.302C159.394 209.902 160.053 209.922 160.426 210.142C160.946 210.455 161.726 210.475 161.792 211.315C160.666 212.054 159.594 211.888 158.514 211.181C157.894 210.775 157.255 210.375 156.335 210.215C156.748 211.688 157.115 213.08 157.541 214.46C157.854 215.486 157.808 216.439 157.228 217.352C156.588 217.172 156.395 216.579 156.062 216.099C155.549 215.353 155.136 214.5 154.103 214.067C154.043 214.959 154.623 215.519 154.843 216.192C155.023 216.732 155.449 217.225 155.089 217.845C153.104 217.305 152.237 215.499 150.871 213.98C150.838 216.066 151.718 218.211 149.585 219.604C149.079 219.637 149.019 219.191 148.846 218.891C148.553 218.391 148.333 217.851 148.053 217.338C147.78 216.838 147.52 216.052 146.92 216.179C146.327 216.305 146.673 217.105 146.587 217.605C146.527 217.931 146.547 218.278 146.247 218.504C145.554 217.798 145.188 216.892 144.801 216.019C144.555 215.466 144.328 215.286 143.675 215.386C142.102 215.626 140.99 214.906 140.397 213.434C140.303 213.2 140.19 212.954 140.183 212.707C140.103 210.095 139.117 207.636 138.857 205.064C138.677 203.332 137.958 201.839 137.038 200.413C136.492 199.567 135.886 198.754 135.612 197.761C136.245 197.415 136.519 197.975 136.872 198.281C137.591 198.901 138.358 199.401 139.344 199.427C140.49 199.461 141.083 198.854 140.983 197.708C140.936 197.202 140.856 196.709 140.876 196.196C140.91 195.296 141.296 194.656 142.202 194.423C143.742 194.017 145.048 193.144 146.307 192.231C147.46 191.391 147.626 190.105 147.36 188.799C147.153 187.813 146.673 186.98 145.494 186.854C145.061 186.807 144.654 186.807 144.261 187.014C142.882 187.747 141.449 188.366 139.983 188.899C138.498 189.432 137.418 190.512 136.425 191.665C135.266 193.017 135.306 194.603 135.666 196.222C135.786 196.749 136.085 197.268 135.632 197.775C132.947 194.003 130.682 190.012 129.102 185.634C128.149 182.989 126.957 180.43 125.917 177.818C124.418 174.067 123.099 170.235 122.299 166.277C121.599 162.833 120.067 159.674 119.227 156.283C118.528 153.437 118.414 150.539 117.948 147.674C117.395 144.309 117.122 140.904 116.355 137.579C116.349 137.545 116.315 137.485 116.296 137.485C116.229 137.492 116.162 137.519 116.096 137.539C115.756 137.512 115.629 137.212 115.423 137.012C114.823 136.426 114.17 136.373 113.47 136.819C111.151 138.305 109.626 140.997 110.239 143.955C110.612 145.748 112.211 146.554 113.63 145.808C114.336 145.435 114.556 144.875 114.523 144.149C114.49 143.329 114.63 142.556 115.089 141.856C115.283 141.563 115.469 141.283 115.889 141.423C115.816 149.393 116.582 157.302 117.435 165.211C117.528 166.084 117.741 166.95 117.901 167.817C117.828 167.93 117.675 168.043 117.601 167.97C116.822 167.117 115.782 166.377 115.603 165.165C115.436 164.012 115.349 162.799 115.789 161.66C116.062 160.953 115.862 160.407 115.296 159.994C114.69 159.541 114.063 159.054 113.224 159.481C112.098 160.047 111.231 160.907 110.632 161.993C109.592 163.872 109.439 165.938 109.699 168.01C109.819 168.983 110.465 169.896 111.185 170.442C112.811 171.675 114.263 173.187 116.315 173.807C117.042 174.027 117.688 174.153 118.388 173.82C118.701 173.674 119.034 173.627 119.361 173.82C120.52 177.625 122.386 181.117 124.211 184.628C125.358 186.834 126.317 189.119 127.083 191.485C126.943 191.944 126.53 191.931 126.171 192.018C124.798 192.344 123.932 193.224 123.872 194.623C123.765 197.308 123.758 200 123.872 202.686C123.952 204.618 125.564 205.431 127.283 204.518C128.976 203.612 129.689 202.019 130.175 200.28C130.295 199.854 130.142 199.327 130.655 199.061C134.58 206.55 138.831 213.867 142.442 221.523C143.015 222.742 143.548 223.975 144.108 225.208C143.675 225.387 143.288 225.168 142.889 225.068C141.609 224.748 140.683 225.348 140.55 226.627C140.483 227.3 140.43 227.96 140.143 228.586C139.964 228.979 140.037 229.399 140.163 229.819C141.076 232.844 142.782 235.349 145.148 237.415C146.487 238.587 147.453 238.781 148.646 238.141C148.946 237.981 149.152 237.608 149.579 237.721C151.105 241.313 152.69 244.878 154.096 248.522C156.075 253.653 158.607 258.551 160.84 263.575C159.207 264.361 158.414 264.028 158.021 262.389C157.741 261.223 157.002 260.516 155.989 260.456C155.009 260.396 154.25 261.069 153.777 262.176C152.824 264.401 153.09 266.293 154.936 267.986C156.922 269.812 159.993 269.912 162.006 268.086C162.306 267.819 162.492 267.353 163.032 267.553C164.058 269.432 165.097 271.298 166.097 273.183C167.29 275.429 169.075 276.635 171.674 276.515C172.34 276.482 173.013 276.542 173.686 276.555C172.98 277.674 172.873 279 172.44 280.213C172.141 281.059 171.694 281.852 170.775 281.892C169.788 281.932 169.242 281.146 168.902 280.26C168.689 279.693 168.722 279.1 168.696 278.514C168.656 277.628 168.302 276.895 167.376 276.755C166.497 276.622 166.297 277.448 166.064 278.054C164.331 282.519 167.076 285.784 170.628 286.916C171.967 287.343 173.267 286.97 174.246 285.97C175.939 284.251 176.825 282.259 176.012 279.78C175.679 278.767 175.625 277.714 176.079 276.695C179.104 277.128 181.849 278.394 184.234 280.166C187.659 282.705 186.966 287.516 183.202 289.548C179.017 291.807 174.606 292.92 169.875 292.487C165.964 292.12 162.072 291.521 159.167 288.429C159.167 288.042 159.407 287.836 159.694 287.623C160.96 286.676 161.546 285.344 161.593 283.811C161.639 282.099 161.712 280.42 160.833 278.767C159.494 276.262 156.375 274.862 153.843 275.109C153.41 275.149 153.03 275.316 152.65 275.509C152.177 275.749 151.784 276.049 151.764 276.635C151.751 277.315 152.311 277.401 152.77 277.581C155.722 278.74 157.401 281.985 156.675 285.091C156.628 285.297 156.542 285.49 156.329 285.584C151.691 280.506 147.893 274.909 145.561 268.392C144.268 264.788 142.336 261.449 141.103 257.811C141.969 257.958 142.722 257.964 143.162 256.951C143.435 256.325 144.101 256.152 144.774 256.139C145.701 256.119 146.66 255.979 147.553 256.165C149.239 256.512 150.985 256.485 152.637 256.958C153.603 257.238 154.383 257.005 155.016 256.252C155.676 255.459 155.382 254.686 154.929 253.92C154.589 253.353 154.13 252.907 153.517 252.7C151.438 252.014 149.345 251.308 147.12 252.141C146.6 252.334 146.04 252.287 145.487 252.301C143.422 252.34 142.142 253.287 141.429 255.252C141.243 255.759 141.116 256.305 140.703 256.705C139.304 253.053 137.805 249.442 136.525 245.751C134.133 238.827 131.481 232.011 128.849 225.181C128.716 224.828 128.623 224.461 128.509 224.101C128.636 223.975 128.789 223.908 128.962 223.962C129.909 224.235 130.875 224.515 131.701 223.702C132.894 222.529 134.313 221.469 134.26 219.537C134.233 218.711 134.46 217.838 133.913 217.078C133.14 215.999 132.094 215.586 130.815 215.886C129.555 216.179 128.583 216.865 128.149 218.158C127.963 218.704 128.289 219.131 128.463 219.597C129.036 221.096 129.149 222.602 128.509 224.115C126.164 217.725 122.852 211.708 121.2 205.044C121.386 208.396 121.906 211.688 122.486 214.979C123.452 220.417 124.731 225.787 125.511 231.258C125.584 231.758 125.751 232.237 125.877 232.73C125.251 233.137 124.498 233.284 123.972 233.897C123.225 234.776 123.172 235.529 124.052 236.289C124.705 236.855 125.371 237.495 126.357 237.441C126.617 237.428 126.843 237.548 127.077 237.648C128.203 241.186 128.536 244.898 129.475 248.469C128.603 248.896 127.823 248.323 127.05 248.143C125.931 247.876 124.831 247.749 123.692 247.729C122.173 247.703 121.659 247.17 121.593 245.657C121.559 244.818 121.599 243.971 121.573 243.132C121.553 242.432 121.726 241.586 120.833 241.306C119.974 241.04 119.081 241.02 118.321 241.666C118.128 241.833 117.935 241.999 117.788 242.199C116.642 243.798 115.922 245.557 115.716 247.536C115.343 251.094 119.214 254.992 122.679 254.626C124.132 254.473 125.604 254.793 127.063 254.319C128.169 253.96 129.022 253.393 129.649 252.44C129.795 252.214 129.902 251.881 130.302 251.974C131.534 255.759 132.254 259.663 133.034 263.555C132.467 263.948 132.234 263.342 131.874 263.148C129.182 261.669 127.683 261.576 125.484 263.821C124.938 264.381 124.598 265.007 125.024 265.74C125.458 266.473 126.17 266.36 126.817 266.074C127.623 265.72 128.183 266.047 128.723 266.6C130.788 268.739 133.067 270.685 134.793 273.143C135.219 275.402 135.159 277.668 134.793 279.92C134.626 280.926 134.506 281.919 134.633 282.925C134.913 285.191 134.879 287.456 134.68 289.722C134.593 290.721 134.766 291.607 135.239 292.5C136.025 293.986 136.725 295.512 137.238 297.124C137.538 298.064 137.651 299.01 137.425 299.976C136.732 299.996 136.259 299.31 135.539 299.383C135.039 299.43 134.48 299.33 134.2 299.863C133.94 300.343 134.34 300.723 134.506 301.142C134.706 301.629 135.552 301.855 135.099 302.602C133.46 303.261 132.414 302.095 131.241 301.336C130.888 301.109 130.682 300.469 130.108 300.843C129.602 301.176 129.889 301.669 129.949 302.115C130.148 303.701 130.515 305.307 129.276 306.68C128.763 306.666 128.609 306.24 128.383 305.9C128.176 305.587 127.996 305.254 127.79 304.947C127.49 304.501 127.177 303.841 126.564 304.141C125.864 304.487 126.297 305.154 126.45 305.693C126.51 305.893 126.637 306.067 126.697 306.267C126.837 306.713 126.923 307.159 126.59 307.573C125.131 307.213 124.265 306.14 123.492 304.967C122.872 304.034 122.292 303.075 121.573 301.935C121.146 303.401 121.08 304.801 120.28 305.933C119.727 305.86 119.707 305.394 119.627 304.994C119.547 304.581 119.454 304.181 119.307 303.788C119.101 303.228 118.914 302.622 118.161 302.655C117.368 302.695 117.042 303.268 116.815 303.948C116.569 304.681 117.022 305.56 116.335 306.2C115.323 305.613 115.289 304.547 115.109 303.581C114.963 302.802 114.91 302.002 114.856 301.209C114.823 300.636 114.596 300.216 114.03 300.103C113.277 299.95 113.444 300.636 113.304 301.009C112.824 302.269 112.397 303.561 110.805 303.834C110.219 303.095 110.558 302.215 110.458 301.409C110.398 300.916 110.458 300.25 109.839 300.183C109.159 300.116 108.866 300.729 108.699 301.316C108.479 302.082 108.886 303.048 107.966 303.581C106.76 302.775 106.321 301.582 106.434 300.203C106.567 298.57 106.74 296.938 107.02 295.332C107.227 294.153 107.127 293.12 106.46 292.1C106.147 291.621 106.027 291.014 105.821 290.468C106.027 290.201 106.274 290.395 106.507 290.401C107.28 290.441 107.966 290.168 108.3 289.488C108.626 288.835 108.573 288.089 108.106 287.463C107.62 286.81 107.014 286.596 106.234 286.963C105.927 287.103 105.588 287.156 105.268 286.95C104.468 275.482 102.596 264.141 101.283 252.727C100.963 249.928 100.87 247.096 100.23 244.338C101.949 242.799 103.942 241.459 104.828 239.234C105.514 237.515 106.147 235.749 105.528 233.783C105.254 232.924 105.208 231.984 104.948 231.091C103.815 227.28 100.317 226.294 97.3784 228.626C97.1452 228.812 96.9186 228.999 96.6055 229.019L94.7864 224.595C95.3794 224.068 96.2123 224.228 96.8787 223.835C97.5317 223.448 97.9448 223.009 97.7516 222.229C97.5383 221.363 96.832 221.396 96.1457 221.396C95.3195 221.396 94.7198 222.096 93.9002 222.109C93.567 221.29 93.2738 220.45 92.894 219.65C91.0083 215.659 88.323 214.24 83.9386 214.84C82.486 215.039 81.1999 215.652 79.9006 216.259C78.6013 216.858 77.2819 217.412 75.9693 217.971C74.3634 218.651 73.3439 220.01 72.7642 221.669C71.3982 225.601 70.9918 229.725 70.3654 233.803C70.0589 235.802 69.7324 237.795 69.4192 239.794C68.653 238.781 67.7734 238.034 66.3874 237.901C65.268 237.795 64.0086 238.321 63.6688 239.354C63.2024 240.773 63.7621 241.919 64.9948 242.472C66.2275 243.032 67.4802 242.912 68.7463 242.852C66.9005 248.336 65.8211 254 64.8082 259.683C64.7283 260.137 64.5884 260.583 64.4817 261.029C63.5955 260.476 63.4689 259.51 63.4356 258.657C63.329 256.012 63.1424 253.34 64.002 250.761C64.2885 249.902 64.4684 249.122 63.5356 248.542C62.7959 248.083 61.39 248.169 60.6637 248.736C59.6575 249.529 59.2111 250.681 58.7047 251.794C57.412 254.639 56.8256 257.598 56.9922 260.75C57.1655 264.015 58.7713 266.367 61.27 268.246C61.6365 268.519 62.0896 268.686 62.2895 269.152C60.9435 272.577 60.1373 276.195 58.678 279.58C58.5114 279.96 58.3449 280.346 58.1783 280.726C55.8395 281.113 53.4673 281.239 51.2751 282.352C48.883 283.565 47.8368 285.724 46.9839 288.016C46.5575 289.148 47.8368 291.641 48.9096 292.247C49.3361 292.487 49.8825 292.553 50.1357 293.067C49.2428 294.586 48.3433 296.105 47.4504 297.624C45.3581 301.182 42.4262 303.561 38.2284 304.101C37.4354 304.201 36.9424 304.574 36.5625 305.254C35.9029 306.426 35.1766 307.552 34.4969 308.712C33.9106 309.711 33.1176 310.391 31.9449 310.558C31.7983 309.725 32.2514 309.012 32.4113 308.246C32.5446 307.606 32.8045 306.746 32.1048 306.413C31.4385 306.1 30.9121 306.8 30.4323 307.273C29.9526 307.752 29.8993 308.639 29.0197 308.739C27.9402 306.926 28.7598 305.094 29.0197 303.115C28.1002 303.754 27.7537 304.667 27.1673 305.38C26.1412 306.62 25.0217 307.632 23.2293 307.226C22.6163 306.54 23.2693 306 23.4492 305.4C23.5625 305.014 23.9223 304.587 23.5025 304.254C22.9894 303.841 22.7029 304.401 22.3564 304.661C21.91 304.994 21.6701 305.634 20.9771 305.607C20.3174 304.381 20.6706 303.075 20.6972 301.569C18.9115 303.021 17.179 304.301 14.9002 303.008C14.7336 302.169 15.3999 301.742 15.8064 301.189C16.1662 300.709 16.8325 300.156 16.2662 299.59C15.7731 299.097 15.1001 299.55 14.5404 299.863C14.0739 300.123 13.8607 300.909 13.0944 300.576C12.3881 298.584 13.301 296.991 14.3605 295.445C14.6603 295.006 15.0068 294.599 15.4599 294.013C13.8207 293.979 12.688 293.246 11.6818 292.28C11.7751 291.734 12.2482 291.474 12.588 291.128C12.9079 290.801 13.3077 290.548 13.5942 290.188C13.874 289.835 14.3205 289.448 14.0206 288.989C13.7075 288.516 13.1944 288.782 12.7679 288.949C12.2682 289.142 11.7951 289.442 11.2154 289.295C11.5619 287.489 12.7879 286.377 14.2605 285.477C15.4799 284.724 16.7792 284.144 18.1652 283.745C18.7782 283.571 19.3846 283.385 19.6711 282.732C20.2841 282.592 20.6106 283.038 20.9305 283.398C21.75 284.318 22.7562 284.984 23.749 285.684C24.3554 286.11 25.0151 286.137 25.6747 285.943C26.6409 285.67 27.0407 284.804 26.6076 283.878C25.888 282.319 25.095 280.793 24.3221 279.26C24.0889 278.8 23.9489 278.334 23.8823 277.834C27.0274 275.002 29.2396 271.417 31.7383 268.066C32.4713 269.312 32.3314 270.824 31.3852 271.864C30.1791 273.19 29.806 274.556 30.4123 275.442C31.012 276.328 32.4046 276.388 34.1304 276.028C36.9157 275.449 37.6886 272.897 38.0218 270.218C38.395 267.253 37.7153 264.548 35.7963 262.195C35.6297 261.996 35.5964 261.736 35.5097 261.503C36.949 257.871 38.1084 254.153 38.8747 250.315C39.9342 250.228 40.2473 251.108 40.7204 251.754C40.967 252.094 41.1602 252.554 41.66 252.454C42.2197 252.34 42.0731 251.801 42.1064 251.408C42.2197 250.015 41.6666 248.776 41.1202 247.556C40.7271 246.683 40.234 245.85 40.0008 244.911C41.0469 239.873 41.5667 234.756 42.233 229.659C43.6656 218.624 45.1182 207.603 45.7712 196.469C46.4309 185.274 47.2705 174.087 47.577 162.873C47.6769 159.214 47.9834 155.556 48.2033 151.751C46.6441 152.858 45.8245 154.41 45.1182 155.923C41.2468 164.252 37.4421 172.614 33.704 181.003C32.358 184.028 32.0981 187.367 31.3918 190.572C30.0458 196.669 28.7598 202.772 26.481 208.603C26.1278 209.502 26.1611 210.255 26.6875 211.101C27.6004 212.581 28.2068 214.213 28.4866 215.932C28.6332 216.852 28.6399 217.785 28.0135 218.578C26.9474 218.904 26.3077 217.891 25.3482 217.745C25.6547 218.591 26.8208 218.817 26.8208 219.85C25.4948 220.45 24.3088 219.884 23.0627 219.251C23.196 221.016 23.6691 222.729 22.2765 224.101C21.6568 224.448 21.3769 223.895 21.0237 223.602C20.6706 223.309 20.4041 222.922 20.0176 222.676C19.3446 222.249 18.9248 222.462 18.8382 223.255C18.7982 223.608 19.0048 224.015 18.5917 224.275C17.7254 223.762 17.279 222.815 16.3528 221.996C16.4927 223.202 16.3328 224.155 15.8264 225.028C15.1667 225.108 14.9268 224.515 14.527 224.188C14.2005 223.922 13.9407 223.568 13.5076 223.462C13.221 223.395 12.8879 223.302 12.7013 223.602C12.5281 223.875 12.8346 224.041 12.9545 224.248C13.221 224.721 14.0073 225.014 13.5009 225.774C12.3348 225.561 11.7218 224.721 11.262 223.748C10.5824 222.316 9.9427 220.863 9.20307 219.231C8.46344 220.97 7.18409 221.723 5.54492 221.943C4.81196 221.11 5.26507 220.09 5.11847 219.171C5.02519 218.598 5.41832 217.631 4.6054 217.591C3.71918 217.545 3.89909 218.538 3.83912 219.177C3.77915 219.79 3.97239 220.457 3.46598 220.97C2.43317 220.21 1.94674 219.117 1.96673 217.911C2.09334 210.708 1.32706 203.499 2.15997 196.309C2.59975 192.537 3.6059 188.866 4.69868 185.241C6.58439 178.991 8.31685 172.694 10.5091 166.544C10.9622 165.278 11.4353 164.012 11.895 162.753C14.3005 163.419 16.6127 162.106 17.5655 159.914C18.2718 158.301 17.6921 156.689 16.8858 155.216C16.566 154.637 16.1262 154.104 15.5865 153.684C19.3779 142.736 23.8223 132.048 28.4267 121.427C28.8931 120.347 29.2396 119.215 29.646 118.108C31.8183 118.622 32.5846 118.275 33.6307 116.316C34.4969 114.697 34.9434 112.971 35.0233 111.145C35.0433 110.719 35.1033 110.312 35.3165 109.933C39.0213 106.155 43.6456 104.435 48.8097 104.136C53.374 103.869 57.4053 102.23 61.1234 99.7445C62.3495 98.9249 63.0758 97.5389 63.8887 96.3196C64.7016 95.0935 65.2947 93.7275 66.0409 92.4615C66.3674 91.9151 66.1676 91.6352 65.7544 91.3087C64.9682 90.6824 64.0686 90.1827 63.4223 89.3897C63.8754 88.2037 65.0148 87.9704 66.001 87.5307C66.4607 87.4707 66.9272 87.5307 67.3803 87.464C68.553 87.2975 68.9195 86.4379 69.0994 85.4251C69.4259 84.8654 69.8457 84.3523 70.1189 83.7726C70.3055 83.3728 69.8124 83.7859 69.7191 83.606C69.3326 83.4661 69.0994 83.2129 69.1194 82.7797C69.2327 82.18 69.7457 82.0468 70.2122 81.8402C71.6781 81.1939 73.264 80.8541 74.9764 80.0744C74.1835 80.2344 73.6238 80.6475 73.1374 80.0478C72.9908 79.8679 72.8841 79.8812 72.8841 80.1477C72.8841 80.9074 72.2311 80.9607 71.7381 81.0939C70.6519 81.3871 69.7124 82.18 68.4997 82.0668C68.2931 82.0534 68.0932 82.0001 67.9 81.9335C65.8011 81.1872 64.8016 81.6603 63.982 83.7859C62.9425 84.8054 61.7964 85.585 60.2572 85.505C59.7441 84.199 59.2044 82.8997 58.3249 81.7803C58.5647 81.1872 59.1045 81.0539 59.6442 80.9407C63.7155 80.0944 67.82 79.4148 71.7247 78.4819C70.8652 78.3553 69.9923 79.1349 68.9728 78.9084C68.3331 78.5685 68.6996 77.9555 68.6197 77.3225C67.9467 77.749 68.2398 78.5819 67.7201 78.9417C67.2603 79.2749 66.7206 79.4414 66.1809 79.4748C63.5222 79.6347 60.9635 80.3876 58.3382 80.7141C57.965 80.7608 57.5919 80.874 57.2321 80.6675C57.0388 79.6547 56.0527 79.1682 55.6729 78.2754C56.2859 77.609 57.1255 77.4958 57.9517 77.3625C62.4228 76.6162 66.8872 75.8633 71.2716 74.6905C68.0133 75.2102 64.7416 75.65 61.5032 76.3164C60.8502 76.4496 60.1906 76.7428 59.6242 76.1165C59.5109 75.6633 59.8174 75.5168 60.1506 75.4101C61.6498 74.9437 62.3562 73.9709 62.1029 72.3783C62.0763 72.1984 62.1962 72.0652 62.3428 71.9652C65.348 71.5921 68.3331 71.5255 71.2783 72.465C70.612 71.9053 69.839 71.6121 68.9995 71.5388C64.5884 71.1456 60.1906 71.2922 55.7995 71.8586C54.68 72.0052 53.5539 72.2251 52.4478 71.752C51.4284 67.1743 50.5688 62.5833 50.8553 57.859C50.9086 56.9662 50.6487 56.2332 50.229 55.4736C47.2038 50.063 47.0306 44.5058 49.4494 38.8353C50.4289 36.5298 52.2613 35.1039 54.4468 34.0644C56.1126 33.2715 57.7718 33.3848 59.2444 34.4509C61.8964 36.3699 64.9948 37.6559 67.3003 40.0814C68.0133 40.8343 68.6863 39.9348 69.3859 39.8482C69.7724 40.8277 70.1589 41.8671 70.1255 42.8733C70.0589 45.1188 70.6186 47.2911 70.7119 49.5099C70.7452 50.2496 71.0384 50.8892 71.3583 51.5356C71.7781 52.4018 72.4311 52.9682 73.4172 52.9615C74.4833 52.9549 75.2163 52.3818 75.6894 51.429C76.469 49.8564 76.7822 48.1107 76.9354 46.4382C77.1953 43.5263 77.9349 40.6278 77.4752 37.6626C78.4413 37.1895 79.4875 37.1829 80.5269 37.1362C80.7135 37.4227 80.8268 37.7426 80.8268 38.0891C80.8268 40.7344 80.8801 43.3664 81.3132 45.9984C81.5198 47.2644 81.7996 48.4638 82.3327 49.6165C82.7592 50.5294 83.4455 51.0891 84.5249 50.9692C85.5577 50.8559 86.2374 50.2962 86.5506 49.3234C87.3435 46.8713 87.7699 44.3659 87.7033 41.7672C87.6767 40.6677 87.3635 39.495 88.0565 38.4555C90.0421 38.6488 91.8945 39.2885 93.667 40.168C93.9335 40.921 93.4071 41.534 93.2871 42.2136C93.0139 43.7262 92.4876 45.1988 92.4742 46.758C92.4742 47.3843 92.4409 48.0707 93.1939 48.3505C94.0534 48.6704 94.3999 47.984 94.7731 47.4443C95.5993 46.2516 95.7726 44.7923 96.2923 43.473C96.5388 42.8533 96.6721 42.187 97.1852 41.7072C97.9848 42.2736 98.3313 41.7205 98.7777 41.1408C101.696 37.3161 105.501 34.7841 110.185 33.7513C115.289 32.6252 118.521 34.0977 120.44 39.9481C121.673 43.7062 121.326 47.6242 119.254 51.1891C118.368 52.715 117.242 54.1276 116.535 55.7335C115.789 57.4393 117.128 59.1251 116.995 60.9042C116.862 62.6633 117.342 64.4224 117.155 66.1948C116.455 67.121 115.523 66.9877 114.576 66.7745C114.037 66.3881 114.31 66.0749 114.676 65.795C115.023 65.5285 115.256 65.1953 115.403 64.7955C115.862 63.5561 115.403 62.3168 114.343 61.9503C113.15 61.5372 111.618 62.3434 111.138 63.4229C110.565 64.7089 111.391 65.775 111.458 66.9544C110.858 67.9673 109.825 67.8406 108.879 67.9406C106.194 68.1938 103.622 68.9867 101.003 69.5731C99.3441 69.9396 97.6916 70.3194 96.5055 70.8658C99.1575 69.8663 102.343 69.3999 105.474 68.6936C106.947 68.3604 108.486 68.4337 109.905 67.8673C111.898 67.5341 113.89 67.221 115.896 66.9811C116.335 66.9278 116.829 66.7212 117.122 67.2943C117.168 68.5603 116.609 69.773 116.809 71.0524C116.355 71.6587 115.676 71.5254 115.069 71.5321C112.631 71.5588 110.199 71.5921 107.76 71.5321C105.108 71.4655 102.482 71.752 99.8571 72.0052C98.8243 72.1052 97.8315 72.2717 97.4117 73.4645C98.7244 71.4921 100.943 72.4983 102.649 71.8186C106.714 71.6521 110.772 71.752 114.836 71.7653C115.383 71.7653 115.942 71.832 116.242 72.405C115.949 73.3245 115.662 74.2507 115.369 75.1703C114.13 75.9032 112.824 75.5967 111.525 75.4301C108.846 73.1913 106.034 73.9242 103.202 75.0503C101.696 75.6367 100.217 74.8837 98.7177 74.937C99.7705 74.9504 100.783 75.137 101.736 75.6167C102.049 76.5696 101.203 76.8561 100.73 77.3558C99.8105 77.729 99.0709 77.0693 98.2446 76.9094C97.525 76.4563 96.6588 76.3963 95.9058 76.0165C95.6593 75.8899 95.3261 75.8166 95.1195 76.1431C95.0196 76.2964 95.0329 76.4763 95.1529 76.6095C95.3528 76.8361 95.6126 76.8094 95.8459 76.7028C96.8853 76.2364 97.445 76.5296 97.5383 77.6957C97.5783 78.1887 97.8782 78.2154 98.238 77.9489C98.5378 77.7223 98.831 77.4758 99.2441 77.4691C99.6572 77.4824 100.017 77.6157 100.277 77.9622C100.157 78.8751 100.057 79.7879 100.05 80.7141C100.05 81.587 100.35 82.2533 100.997 82.8131C101.876 83.586 102.576 83.606 103.449 82.8464C103.609 82.7065 103.795 82.5799 103.888 82.3933C104.988 80.1478 106.94 79.708 109.186 79.8812C110.325 79.9545 111.538 79.7946 112.404 80.8074C111.458 82.6398 110.512 84.4722 109.059 85.9781C108.553 86.3246 107.986 86.2113 107.467 86.1114C104.035 85.4384 100.63 84.6588 97.2718 83.6726C96.8653 83.5527 96.4789 83.3861 96.1057 83.1795C95.4794 82.8397 95.3727 82.4266 95.8525 81.8669C96.1723 81.4937 96.6654 81.1006 96.2856 80.5542C95.8792 79.9745 95.2462 80.1144 94.6598 80.2743C94.2933 80.381 93.8935 80.4276 93.567 80.5875C92.1077 81.3338 90.975 80.7275 89.9222 79.7746C89.8089 79.748 89.8222 79.7746 89.9222 79.8679C90.3353 80.261 91.0683 80.5875 90.7817 81.2538C90.5019 81.9068 89.7689 82.0801 89.0493 82.0868C87.0636 82.1067 85.7177 80.4209 86.2441 78.5086C86.5972 77.2226 86.9104 75.9565 87.9565 74.9304C89.649 73.2779 87.7966 69.6731 85.7576 69.5065C83.8319 69.3466 81.9529 68.7002 79.9872 68.9268C79.6141 68.9668 79.2276 68.9468 78.8611 69.0667C76.1825 69.9063 75.7094 71.752 77.5684 74.0908C78.0549 74.6439 78.5746 75.1569 79.161 75.6034C80.427 76.1431 81.6864 76.6362 82.6192 77.7756C83.079 78.3353 83.2456 78.7618 82.8591 79.3082C82.0129 80.5076 81.2799 81.8002 80.1538 82.7864C79.0943 83.7193 77.835 83.9125 76.489 83.7726C75.9893 83.7193 75.4895 83.5993 74.9831 83.6793C74.4634 83.7593 73.9769 83.9058 73.8037 84.4789C73.6438 85.0119 73.7904 85.525 74.2102 85.8582C75.6761 87.0243 77.3019 87.8305 79.2209 87.3374C80.9334 86.8977 82.4127 86.0181 83.3522 84.4322C83.4788 84.2124 83.6254 84.0125 83.7786 83.8059C84.6982 82.5132 84.7382 82.5132 85.9842 83.4794C87.7366 84.8454 89.8089 84.9053 91.5947 83.9991C93.7336 82.913 95.5727 83.0729 97.7049 83.8792C100.577 84.9653 103.635 85.4317 106.647 86.0248C107.24 86.138 108.046 85.9248 108.286 86.811C106.247 89.423 103.662 91.3487 100.697 92.7614C99.8305 93.1745 99.6373 93.6609 99.8705 94.5404C100.157 95.6399 100.317 96.7727 100.53 97.8854C98.9443 99.0049 98.198 100.557 98.6244 102.436C99.0309 104.222 100.384 105.215 102.103 105.748C103.149 106.075 104.115 106.334 105.281 105.981C106.614 105.582 107.393 104.975 107.333 103.536C108.353 103.789 109.366 104.049 110.385 104.302C110.065 105.535 108.859 106.128 108.293 107.221C107.8 108.167 107.173 109.093 106.334 109.826C105.761 110.326 105.241 110.839 104.455 111.032C103.709 111.219 103.215 111.752 103.142 112.558C103.069 113.331 103.542 113.817 104.135 114.191C105.548 115.077 107.067 115.223 108.399 114.204C109.925 113.031 111.338 111.712 112.331 109.993C113.057 108.747 113.07 107.441 113.064 106.088C113.064 105.388 112.431 105.008 112.338 104.375L112.271 104.369Z" fill="#E600A1"/>
<path d="M108.241 86.8134C107.042 86.1071 105.649 86.2004 104.356 85.9072C101.258 85.2142 98.1461 84.6212 95.2009 83.3685C94.6612 83.1419 94.1148 83.1952 93.5284 83.5284C92.0358 84.388 90.4633 85.001 88.6576 84.8677C87.3849 84.7745 86.3121 84.4346 85.4525 83.4684C85.0527 83.0153 84.8195 82.7954 84.3331 83.5884C83.2803 85.3275 81.9743 86.8734 79.8687 87.5131C77.5498 88.2194 75.6175 87.4797 73.8184 86.0938C73.1587 85.5807 73.1254 84.8144 73.4053 84.1481C73.6585 83.5551 74.2848 83.2752 74.9712 83.3152C75.4709 83.3418 75.9706 83.4151 76.4771 83.4618C77.7697 83.5817 78.9358 83.4085 79.9353 82.409C80.7016 81.636 81.3213 80.7698 81.9876 79.9236C82.6073 79.1373 83.1337 78.5976 81.9543 77.6381C81.168 76.9984 80.4151 76.512 79.4889 76.2188C79.2157 76.1322 78.8758 76.1455 78.8692 75.7257C78.9358 75.6124 79.0424 75.5525 79.169 75.5191C79.5555 75.4325 80.1352 75.7324 80.3084 75.2459C80.5017 74.6729 79.7954 74.5929 79.5222 74.2664C78.7293 73.3003 78.0696 73.9 77.3966 74.4197C75.5242 72.4673 75.4576 70.7682 77.23 69.4222C77.863 68.9425 78.5827 68.6759 79.4022 68.6226C81.5678 68.476 83.6934 68.8292 85.8123 69.129C87.145 69.3156 88.0579 70.2485 88.5443 71.5745C89.1306 73.1603 89.0707 74.5663 87.7247 75.7723C86.5919 76.7918 86.392 78.3044 86.3787 79.6237C86.3587 81.5094 88.7908 82.2624 90.6565 81.0697C90.2634 80.2501 89.0707 79.9635 89.0707 78.6242C89.6237 79.0907 90.0569 79.4172 90.4433 79.797C91.2562 80.5832 92.1091 80.9497 93.1886 80.2767C93.4218 80.1301 93.7883 80.2234 94.0482 80.1035C94.9943 79.677 96.0605 79.4305 96.6868 80.37C97.3398 81.3495 96.1471 81.8359 95.5541 82.6422C99.9518 84.2747 104.45 85.2276 109.007 85.9672C110.926 86.3936 112.845 86.8201 114.764 87.2532C112.539 87.5131 110.413 86.9467 108.248 86.8134H108.241Z" fill="#0C1F5C"/>
<path d="M77.421 37.6569C77.9941 37.9167 77.8075 38.4431 77.8208 38.8762C77.9607 42.4011 77.3477 45.8594 76.7414 49.291C76.4882 50.7302 76.155 52.3694 74.5025 53.149C73.3897 53.6754 71.9105 53.3489 71.2508 52.2895C70.7244 51.4499 70.4312 50.537 70.258 49.5442C69.7849 46.8722 69.9648 44.1402 69.3918 41.4816C69.2785 40.9552 69.3518 40.3888 69.3384 39.8424C71.9904 38.9495 74.6957 38.2699 77.421 37.6569Z" fill="#7AE828"/>
<path d="M119.351 173.819C116.939 175.072 115.033 173.893 113.214 172.48C112.101 171.614 111.002 170.788 110.089 169.628C107.837 166.75 109.809 160.2 113.407 158.987C114.334 158.674 114.893 159.187 115.493 159.62C116.133 160.08 116.513 160.739 116.246 161.552C115.553 163.611 115.233 165.577 117.259 167.136C117.492 167.316 117.392 167.829 117.872 167.809C118.358 169.815 118.851 171.82 119.338 173.819H119.351Z" fill="#7AE828"/>
<path d="M141.714 147.634C140.201 149.986 138.642 152.318 137.789 155.004C137.516 155.856 137.663 156.843 137.643 157.769C137.609 159.088 136.837 159.468 135.584 158.942C133.771 158.182 133.425 156.529 133.152 154.957C132.665 152.185 133.445 149.58 134.424 146.981C135.017 145.402 135.637 143.889 136.643 142.537C137.383 141.544 138.169 140.611 139.509 140.438C140.248 142.836 140.981 145.235 141.721 147.634H141.714Z" fill="#7AE828"/>
<path d="M88.0004 38.4417C87.9804 40.5939 88.0804 42.7529 87.9005 44.8851C87.7606 46.4776 87.4274 48.0968 86.861 49.5894C86.288 51.1153 85.4084 51.5351 83.8625 51.3951C82.7897 51.2952 81.7436 50.1957 81.4171 48.8231C80.4976 44.9717 80.2177 41.0737 80.4576 37.1224C83.0962 36.8492 85.6016 37.3423 88.0004 38.435V38.4417Z" fill="#7AE828"/>
<path d="M57.1763 80.6675C60.3347 79.8812 63.5598 79.4614 66.7715 78.9417C67.098 78.8884 67.4245 78.8017 67.751 78.7285C68.0908 78.4353 68.4506 78.4419 68.8238 78.6685C70.1764 78.5752 71.4824 77.9089 73.1349 78.3553C72.0355 78.9217 70.9827 78.995 70.0032 79.2015C66.4916 79.9545 62.9668 80.6075 59.4485 81.3205C59.0487 81.4004 58.6689 81.6203 58.2825 81.7802C54.0713 82.6931 49.96 83.9458 45.9021 85.3651C37.6262 88.2636 29.617 91.7885 21.9275 96.013C20.7681 96.6527 19.6154 97.3257 18.1694 97.5389C18.3493 96.8859 18.8224 96.6927 19.2222 96.4195C25.9122 91.8485 33.2351 88.5235 40.7447 85.5717C46.082 83.4794 51.5925 81.9335 57.1763 80.6608V80.6675Z" fill="#0D1F5A"/>
<path d="M99.3894 71.6663C105.153 70.7935 110.964 71.2532 116.754 71.0333C130.334 71.3665 143.88 71.9195 156.92 76.3173C155.414 76.7638 153.968 76.3573 152.549 76.0575C146.039 74.6782 139.456 73.8852 132.826 73.3788C127.289 72.9524 121.758 72.3593 116.194 72.3793C115.788 72.306 115.381 72.1728 114.975 72.1728C110.704 72.1594 106.439 72.1728 102.168 72.1728C101.382 72.3727 100.575 72.2061 99.7825 72.3327C99.3761 72.3993 98.8097 72.306 99.3961 71.6663H99.3894Z" fill="#0C1F5B"/>
<path d="M52.4115 71.7475C56.5961 71.381 60.774 70.8013 64.9718 70.9212C66.8709 70.9745 68.8499 70.8079 70.6823 71.6075C70.8355 71.6742 71.0554 71.6675 71.1487 71.7741C71.5085 72.1806 72.4947 72.3138 72.1482 72.9802C71.895 73.4732 71.222 72.9535 70.7156 72.7736C69.816 72.4604 68.8765 72.1473 67.897 72.1539C66.0046 72.1539 64.1123 72.014 62.2199 72.2405C60.4475 73.0068 58.5418 72.8069 56.696 73.0068C55.4766 72.9802 54.2906 73.7131 53.0445 73.1934C47.9338 73.6465 42.903 74.566 37.9189 75.7787C31.7953 77.2713 25.885 79.3503 20.2145 82.1155C19.6281 82.4021 19.0418 82.7619 18.1955 82.7819C18.8818 81.889 19.7747 81.4559 20.6076 80.9894C26.3114 77.7844 32.4616 75.7588 38.7718 74.1529C43.2562 73.0135 47.8338 72.4005 52.4049 71.7408L52.4115 71.7475Z" fill="#0D205B"/>
<path d="M112.278 104.37C113.058 104.683 113.278 105.303 113.398 106.096C113.964 109.741 110.879 113.046 108.16 114.731C106.421 115.811 104.269 115.138 103.21 113.979C102.177 112.846 102.53 111.14 104.062 110.767C105.348 110.454 106.021 109.667 106.714 108.814C107.627 107.682 108.407 106.449 109.246 105.256C109.533 104.85 109.879 104.51 110.339 104.297C110.986 104.323 111.639 104.343 112.285 104.37H112.278Z" fill="#7AE828"/>
<path d="M66.0721 87.7564C65.1192 88.2229 64.2064 88.7426 63.3734 89.3956C54.2114 93.76 44.5496 96.8318 35.0545 100.323C32.6623 101.203 30.2236 101.936 27.7581 102.602C27.485 102.676 27.2317 102.875 26.9319 102.576C27.0985 101.996 27.6782 101.969 28.098 101.783C37.2867 97.7314 46.7685 94.4264 56.1504 90.8748C58.1428 90.1219 60.1551 89.3889 62.0075 88.3161C62.6671 87.5232 63.6666 87.2833 64.5195 86.8036C66.3786 85.964 67.9378 84.638 69.6903 83.6318C69.9701 83.4053 70.2566 83.1787 70.7231 82.8123C70.6164 83.9983 69.9701 84.6513 69.2971 85.2977C68.5108 86.4971 67.438 87.3167 66.0721 87.7631V87.7564Z" fill="#0F205B"/>
<path d="M112.353 80.7942C111.267 80.3811 110.127 80.2345 108.981 80.1278C106.449 80.0079 103.997 79.4149 101.565 78.7486C101.045 78.602 100.499 78.4687 100.152 77.9823C99.819 77.8757 99.4792 77.7691 99.146 77.6624C98.7262 77.4892 98.2332 77.6624 97.8334 77.3826C97.6534 77.256 97.5068 77.1094 97.5668 76.8762C97.6468 76.563 97.8733 76.5297 98.1399 76.623C99.0261 76.603 99.759 77.2693 100.652 77.196C101.112 76.9561 101.558 77.1627 102.005 77.256C105.05 77.909 108.108 78.4887 111.187 78.9485C111.886 79.195 112.679 79.175 113.286 79.6814C117.43 80.3278 121.575 80.9808 125.726 81.6204C129.671 82.2335 133.622 82.7665 137.613 83.0197C141.558 83.2663 145.496 83.5528 149.441 83.8326C149.547 83.8393 149.654 83.9193 149.894 84.0192C149.461 84.4723 148.967 84.479 148.508 84.4923C142.357 84.6656 136.221 84.4057 130.11 83.6461C124.24 82.9131 118.443 81.7337 112.613 80.7675C112.533 80.7542 112.446 80.7809 112.359 80.7875L112.353 80.7942Z" fill="#0D2059"/>
<path d="M115.881 141.416C115.088 142.115 114.895 143.022 114.895 144.028C114.895 145.46 114.335 146.227 113.089 146.54C112.229 146.76 110.837 146.007 110.324 145.087C108.538 141.882 110.963 137.284 113.928 136.112C114.788 135.772 115.747 136.425 116.081 137.531C115.841 138.817 115.921 140.116 115.881 141.416Z" fill="#7AE828"/>
<path d="M130.709 117.088C128.21 117.967 125.045 115.895 123.519 113.749C122.68 112.57 121.7 111.437 121.88 109.791C121.967 109.005 122.127 108.352 122.966 108.079C124.146 107.346 124.899 108.339 125.778 108.792C126.631 109.232 126.951 110.291 127.877 110.658C129.017 112.717 130.049 114.822 130.709 117.088Z" fill="#7AE828"/>
<path d="M107.273 103.53C107.966 104.829 107.44 105.669 105.981 106.128C103.135 107.021 100.896 106.135 98.9708 104.076C97.3782 102.37 98.0646 99.705 99.3972 98.1258C99.6504 97.826 100.097 97.8926 100.477 97.8793C100.67 98.1991 100.943 98.4923 101.056 98.8388C102.023 101.884 104.428 103.003 107.28 103.53H107.273Z" fill="#7AE729"/>
<path d="M111.35 75.132C112.676 75.132 113.995 75.1387 115.321 75.1453C122.691 75.6784 130.12 75.3386 137.597 76.5046C137.163 77.071 136.677 76.9111 136.277 76.8978C131.226 76.7645 126.176 76.6113 121.125 76.458C119.019 76.3914 116.92 76.3181 114.815 76.2514C113.842 76.7712 112.789 76.538 111.763 76.5446C108.958 76.2648 106.133 76.3247 103.321 76.0915C102.734 76.0449 102.135 76.1048 101.635 75.6984C100.196 75.4185 98.7696 75.052 97.2837 74.9721C99.1627 74.3257 101.048 75.1986 102.914 74.7855C105.2 74.3257 107.485 74.5989 109.777 74.7722C110.324 74.8122 110.863 74.8588 111.35 75.1387V75.132Z" fill="#112259"/>
<path d="M15.5498 153.697C15.8897 153.651 16.2695 153.631 16.4694 153.937C17.3623 155.31 18.1219 156.689 18.1885 158.435C18.2885 161.093 15.15 163.725 12.5647 163.326C12.1649 163.266 11.965 163.112 11.8584 162.766C12.2915 161.22 12.9312 159.754 13.5509 158.282C14.4637 157.242 14.9568 156.023 15.0768 154.65C15.2367 154.33 15.3966 154.017 15.5565 153.697H15.5498Z" fill="#7AE729"/>
<path d="M117.08 67.2796C115.647 67.4262 114.201 67.4995 112.789 67.746C111.803 67.9193 110.83 68.0992 109.824 68.1192C109.477 68.2324 109.124 68.3191 108.757 68.2991C108.551 68.2858 108.318 68.2258 108.291 67.9926C108.258 67.6527 108.624 67.7394 108.791 67.6061C109.724 67.6061 110.603 67.4195 111.416 66.9464C112.389 66.6732 113.342 66.2401 114.395 66.5333C115.321 66.56 116.247 66.6199 117.113 66.1801C121.531 65.6537 125.935 65.0141 130.36 64.6209C135.484 64.1678 140.635 64.1478 145.779 64.3477C146.145 64.3611 146.505 64.501 147.045 64.6209C145.979 64.9674 145.066 65.0074 144.16 65.0074C138.636 64.9941 133.125 65.3006 127.635 65.8403C124.103 66.1868 120.598 66.7865 117.08 67.2729V67.2796Z" fill="#11225A"/>
<path d="M97.1359 41.7018C96.5228 44.0473 95.9498 46.4128 94.5172 48.4384C94.1041 49.0181 93.4977 49.0048 92.9447 48.8649C92.4049 48.7249 92.0784 48.2985 92.0584 47.6854C91.9718 45.0468 92.6048 42.568 93.6243 40.1626C94.937 40.3625 96.0897 40.9155 97.1425 41.7018H97.1359Z" fill="#7BE629"/>
<path d="M59.5354 76.0495C60.8681 76.416 62.1208 75.7896 63.3735 75.5764C65.7656 75.1633 68.1777 74.8234 70.5632 74.337C70.7697 74.297 70.9763 74.1971 71.1762 74.2237C71.5493 74.2637 72.1557 73.9506 72.2023 74.5769C72.2423 75.11 71.656 75.1033 71.2562 75.1833C67.2315 75.9829 63.2202 76.8291 59.1823 77.5621C57.9896 77.7819 56.7968 78.0285 55.6108 78.275C52.1658 78.7681 48.8009 79.7609 45.2827 79.8609C48.3078 78.4416 51.5795 77.9352 54.7778 77.1623C55.5974 76.7025 56.497 76.4759 57.4098 76.3693C58.0095 76.296 58.5693 76.1561 59.0757 75.8429C59.2756 75.8163 59.4888 75.763 59.5288 76.0628L59.5354 76.0495Z" fill="#121F5D"/>
<path d="M35.2711 109.938C35.6376 112.997 34.7314 115.689 32.8123 118.028C31.8861 119.154 30.2536 119.127 29.6006 118.114C30.86 114.949 32.4792 112.037 35.2711 109.938Z" fill="#7CE52B"/>
<path d="M59.2269 76.058C57.8876 76.9975 56.2817 76.8642 54.7825 77.1574C54.2028 75.8381 53.6164 74.5188 53.0367 73.1994C54.2361 73.0262 55.4022 72.653 56.6349 72.733C56.9347 73.0129 56.9347 73.4193 57.0813 73.7592C57.3945 74.5121 57.7277 75.2184 58.6605 75.3983C58.9604 75.4583 59.3535 75.5649 59.2269 76.0513V76.058Z" fill="#E600A1"/>
<path d="M68.5306 81.8336C69.87 81.667 71.0027 80.8741 72.3154 80.6142C72.9817 80.481 72.342 80.1345 72.362 79.8879C72.382 79.6547 72.2421 79.3482 72.5953 79.2683C72.8285 79.215 73.2083 79.1616 73.2416 79.4548C73.3749 80.5743 73.9346 79.9812 74.4543 79.828C74.8674 79.708 75.3339 79.5614 75.8803 79.9279C73.728 81.1673 71.3159 81.5604 69.2036 82.6532C68.7106 83.3662 67.851 83.3795 67.158 83.6994C66.0652 84.1991 64.9258 84.6122 63.8064 85.0653C62.7136 85.3185 61.8007 86.1448 60.608 86.0981C59.7484 86.3847 58.8889 86.6712 57.6961 87.071C58.589 86.1848 59.5019 86.0048 60.2082 85.4984C61.4609 85.1453 62.5603 84.4523 63.7131 83.8793C65.1324 82.7665 66.7715 82.1535 68.5306 81.8203V81.8336Z" fill="#0F205B"/>
<path d="M60.5909 86.1041C61.5237 85.4778 62.5899 85.1579 63.6493 84.8181C64.1358 85.4911 64.4689 86.2374 64.7155 87.0303C63.8093 87.4368 63.023 88.1164 62.0102 88.3097C61.5904 87.5434 60.8508 86.977 60.5976 86.1041H60.5909Z" fill="#DD089E"/>
<path d="M111.915 76.1643C112.888 76.191 113.854 76.2176 114.827 76.2443C114.327 77.397 113.561 78.4298 113.274 79.6825C112.568 79.6625 111.875 79.5959 111.262 79.1894C111.302 78.1433 111.655 77.1638 111.908 76.1643H111.915Z" fill="#DC0C9D"/>
<path d="M127.871 110.654C127.465 111.234 127.298 110.534 127.165 110.434C126.452 109.908 125.846 109.235 125.133 108.702C124.506 108.235 123.773 107.962 122.954 108.076C122.981 107.816 123.001 107.549 123.027 107.289C125.173 107.642 126.719 108.869 127.871 110.648V110.654Z" fill="#C95A90"/>
<path d="M15.0707 154.644C15.1107 156.083 15.2239 157.556 13.5448 158.276C14.0512 157.063 14.5576 155.857 15.0707 154.644Z" fill="#CE6099"/>
<path d="M92.5649 194.71C90.7259 196.256 88.8002 197.635 86.4347 198.301C85.6618 198.521 84.9621 199.001 84.1892 199.261C77.9323 201.333 73.3946 198.361 70.3362 193.364C69.9297 192.697 69.8165 192.624 69.0568 192.97C67.0845 193.863 65.0322 193.917 62.8666 193.37C61.2874 192.97 59.9481 192.404 58.8687 191.198C56.9696 189.072 56.4166 185.348 57.7892 182.869C58.9086 180.85 61.3074 180.297 62.8733 182.169C63.453 182.862 63.393 183.828 63.5596 184.641C63.8062 185.834 64.3526 186.201 65.4187 186.114C66.0184 186.061 66.798 186.534 67.1711 185.941C67.5309 185.361 66.8579 184.748 66.5581 184.295C64.4592 181.09 63.3531 177.472 62.087 173.913C61.3807 171.921 61.3474 169.862 61.0276 167.823C60.4212 163.919 60.9143 160.021 60.6744 156.129C60.5012 153.344 60.8943 150.592 61.2541 147.867C61.574 145.408 62.0604 142.923 63.0932 140.597C63.3464 140.037 63.5463 139.951 64.0594 139.977C65.7518 140.064 69.1101 137.838 69.6499 136.193C69.9564 135.273 69.7765 134.38 68.737 133.914C68.3439 133.574 67.8641 133.707 67.411 133.667C66.9113 133.627 66.4515 133.554 66.6514 132.861C67.3577 131.542 68.0507 130.216 68.777 128.91C70.143 126.464 71.389 123.932 73.368 121.893C73.6145 121.633 74.001 120.827 74.5074 121.78C75.0271 122.759 75.9267 123.086 76.9462 122.753C77.9257 122.433 78.0456 121.42 78.3055 120.594C78.4254 120.207 78.3854 119.754 78.3521 119.334C78.3055 118.761 78.6853 118.402 79.0918 118.315C82.1036 117.695 85.082 116.782 88.2205 117.209C89.7863 117.422 90.8058 118.595 91.9186 119.494C94.7705 121.813 96.423 124.965 97.6623 128.383C98.4819 130.649 99.1149 132.968 99.9878 135.22C100.561 136.706 100.887 138.325 101.107 139.911C102.047 146.741 102.367 153.617 102.087 160.507C101.894 165.271 101.387 170.022 101.007 174.773C100.647 179.324 99.4215 183.762 97.5957 187.973C96.8561 189.679 95.7766 191.231 94.5573 192.657C93.831 192.931 93.8443 192.344 93.7577 191.938C93.6444 191.418 93.8509 190.832 93.4445 190.372C92.9647 189.792 92.5449 189.152 91.712 188.999C90.2261 188.726 89.4398 189.159 88.9867 190.518C88.6269 191.605 89.3066 193.084 90.3927 193.564C90.8191 193.75 91.2723 193.83 91.7387 193.863C92.1785 193.983 92.7981 193.93 92.5516 194.71H92.5649Z" fill="#7AE828"/>
<path d="M112.485 129.757C111.992 132.889 110.533 135.721 107.521 137.586C106.301 138.339 104.635 138.193 103.836 137.42C103.096 136.7 102.843 134.601 103.436 133.548C104.209 132.176 104.995 130.796 105.888 129.504C106.814 128.171 106.088 126.765 104.715 126.299C104.089 126.085 103.503 125.766 102.796 125.812C102.017 125.859 101.257 125.792 101.111 124.779C100.957 123.68 101.737 123.18 102.53 122.867C106.648 121.248 110.479 123.587 112.012 126.885C112.412 127.751 112.232 128.604 112.472 129.764L112.485 129.757Z" fill="#7AE828"/>
<path d="M125.545 144.303C125.525 143.923 125.479 143.543 125.499 143.163C125.532 142.61 125.239 141.87 125.959 141.604C126.651 141.344 127.358 141.351 128.077 141.83C130.103 143.163 130.916 145.049 131.123 147.408C131.409 150.659 130.07 153.431 128.837 156.25C128.357 157.349 128.051 158.542 127.145 159.448C126.532 160.068 125.885 160.448 125.072 160.188C124.273 159.935 123.76 159.348 123.446 158.509C122.4 155.717 123.4 153.151 124.233 150.573C124.892 148.527 125.652 146.508 125.545 144.303Z" fill="#7AE828"/>
<path d="M40.3988 135.994C40.3255 138.106 39.6259 139.912 37.7535 141.071C36.4075 141.904 34.655 141.724 33.9021 140.725C32.9159 139.412 32.9759 137.693 34.2619 136.474C34.8816 135.887 35.488 135.268 35.2214 134.321C35.0948 133.868 35.0415 133.369 34.142 133.748C33.2358 134.135 32.043 134.408 31.1302 133.415C30.3639 132.582 30.0907 130.87 30.4572 129.837C31.1235 127.945 32.5161 127.032 34.4152 126.905C36.5074 126.765 37.9067 127.965 38.7929 129.69C39.7991 131.643 40.2522 133.775 40.3921 135.987L40.3988 135.994Z" fill="#7AE828"/>
<path d="M69.7171 109.042C68.9708 112.666 68.2179 116.325 64.2399 117.95C62.9805 118.463 61.6945 119.063 60.2286 118.304C59.0225 117.677 58.6494 116.464 59.5556 115.432C60.0154 114.912 60.5617 114.505 61.1681 114.152C62.4541 113.413 63.1804 112.307 63.1738 110.781C63.1738 110.021 63.2137 109.261 63.1404 108.509C62.9938 106.909 64.4664 105.583 66.0723 105.177C67.3117 104.87 68.8309 106.083 69.3373 107.602C69.4972 108.069 69.8304 108.482 69.7104 109.042H69.7171Z" fill="#7AE828"/>
<path d="M48.7131 115.789C48.4999 115.769 48.0801 115.749 47.6603 115.682C46.0344 115.436 44.6751 116.122 43.9222 117.582C43.7756 117.875 43.6223 118.168 43.4291 118.428C42.9427 119.074 42.4829 119.914 41.5167 119.66C40.6572 119.441 40.244 118.701 39.8243 117.895C38.5716 115.496 40.3373 112.477 42.4363 110.905C44.855 109.099 47.7402 108.586 50.3656 110.085C51.7249 110.865 52.4312 112.437 52.0114 113.877C51.6249 115.216 50.6521 115.816 48.7131 115.782V115.789Z" fill="#7AE828"/>
<path d="M76.3341 98.2542C75.5811 100.26 77.4602 100.98 78.7328 101.946C79.7323 102.705 80.5653 103.512 81.1516 104.624C81.638 105.544 81.3182 107.016 80.3853 107.876C79.4525 108.736 78.2331 108.822 77.3002 107.849C75.801 106.283 73.9486 105.131 72.496 103.532C70.3571 101.179 70.517 97.4813 72.2961 95.5623C73.189 94.5961 74.3417 94.6627 75.4212 95.0292C76.434 95.3757 76.434 96.3485 76.394 97.2547C76.3807 97.5079 76.3607 97.7611 76.3274 98.2476L76.3341 98.2542Z" fill="#7AE828"/>
<path d="M47.978 141.877C48.0313 139.932 48.1046 138.379 49.5705 137.42C51.3896 136.233 52.629 137.153 52.9954 139.085C53.0954 139.618 53.0821 140.178 53.0487 140.724C52.9821 141.917 53.6418 142.524 54.588 143.123C55.8473 143.916 57.4265 144.423 57.733 146.268C58.0529 148.234 57.0734 149.313 55.241 149.6C53.9016 149.813 52.8022 149.094 51.8227 148.421C49.4173 146.775 47.858 144.563 47.9846 141.871L47.978 141.877Z" fill="#7AE828"/>
<path d="M118.538 115.604C120.031 115.611 120.344 116.124 119.944 117.577C119.591 118.843 119.864 120.095 120.67 121.101C121.476 122.114 122.263 123.16 123.116 124.12C123.909 125.013 124.402 125.832 123.649 126.925C122.703 128.298 120.99 128.618 120.051 128.211C117.312 127.032 114.287 123.294 114.84 119.669C115.12 117.863 117.065 115.591 118.538 115.598V115.604Z" fill="#7AE828"/>
<path d="M111.649 52.3623C110.849 52.3823 110.056 52.4356 109.256 52.4156C108.863 52.409 108.384 52.4356 108.25 51.8826C107.857 51.4095 107.937 50.8631 108.01 50.3167C108.23 48.6442 108.517 46.9717 108.384 45.2859C108.204 43.1004 108.763 41.2146 110.416 39.7154C111.722 38.6759 112.701 39.6421 113.734 40.2551C114.38 40.6483 114.42 41.3812 114.66 41.9809C115.533 44.1731 115.38 46.4587 115.02 48.6975C114.72 50.5632 113.548 51.8559 111.655 52.369L111.649 52.3623Z" fill="#0E4BF3"/>
<path d="M29.2835 153.178C31.3958 152.918 32.835 153.817 33.8678 155.517C35.0073 157.396 36.2733 159.235 36.3333 161.54C36.3733 162.853 35.2072 164.192 34.0211 164.312C32.4619 164.472 31.1692 163.439 30.6828 162.047C30.323 161 30.263 159.908 29.8632 158.862C29.4368 157.729 28.5705 157.422 27.7243 157.316C26.4449 157.156 25.4321 156.843 25.2855 155.437C25.1789 154.437 26.7048 153.284 28.0974 153.178C28.5172 153.144 28.937 153.178 29.2835 153.178Z" fill="#7AE828"/>
<path d="M59.6332 52.7683C57.4343 54.2809 55.8618 54.1676 53.7562 52.3685C52.8633 51.8554 53.0965 50.8826 52.9433 50.1363C52.3969 47.491 52.5035 44.8656 53.9028 42.4469C54.2626 41.8205 54.6024 41.0542 55.5553 41.1342C56.1816 40.8477 56.808 40.5678 57.5276 40.6611C58.2539 40.901 58.4605 41.5207 58.4605 42.1603C58.4605 43.6596 58.9069 45.0589 59.3 46.4715C59.7132 47.9774 59.7931 49.5366 60.0064 51.0758C60.093 51.6888 59.8997 52.2352 59.6399 52.775L59.6332 52.7683Z" fill="#0F4BF3"/>
<path d="M67.192 126.791C67.2253 128.216 65.6261 129.756 63.847 129.796C62.4944 129.822 62.1345 130.462 62.1412 131.661C62.1412 132.548 62.4411 133.527 61.7014 134.287C61.0551 134.953 60.4087 135.2 59.5492 134.487C58.4231 133.547 57.9367 132.374 57.5169 130.995C56.8306 128.73 57.7767 127.117 59.1361 125.584C59.849 124.778 60.7752 124.312 61.9147 124.252C63.0008 124.199 64.0536 123.839 65.1663 124.252C66.0859 124.592 67.1653 125.804 67.1853 126.784L67.192 126.791Z" fill="#7AE828"/>
<path d="M111.654 52.3629C112.101 51.9898 112.514 51.6033 113.033 51.2968C114.406 50.4906 114.699 49.0446 114.866 47.6253C115.159 45.0733 114.686 42.6212 113.74 40.2491C113.726 39.2962 114.439 39.043 115.152 38.9697C115.919 38.8898 116.505 39.3562 116.838 40.0359C117.478 41.3219 117.731 42.7411 117.818 44.1338C118.098 48.4849 116.518 52.303 114.046 55.7679C113.387 56.6941 112.274 57.8935 111.201 57.2471C110.175 56.6275 110.748 55.1282 111.088 54.0154C111.261 53.4557 111.461 52.9093 111.654 52.3563V52.3629Z" fill="#0C1F5D"/>
<path d="M55.6907 164.606C55.6907 167.498 54.7778 169.423 52.5522 170.616C51.4461 171.209 50.1868 171.229 49.1873 170.683C48.3744 170.236 47.828 169.21 48.0412 168.124C48.2144 167.224 48.7875 166.491 49.4272 165.858C50.5666 164.719 51.2063 163.426 51.0263 161.774C50.9464 161.027 50.9131 160.201 51.766 159.848C52.6589 159.482 53.4185 159.995 53.9849 160.581C55.1576 161.814 55.8173 163.293 55.684 164.606H55.6907Z" fill="#7AE729"/>
<path d="M89.5466 114.32C89.46 113.314 90.0663 112.368 90.6394 111.515C91.4257 110.342 92.3252 109.216 93.5246 108.397C94.6574 107.617 96.4098 107.964 97.2294 109.043C97.6758 109.629 97.6492 110.089 97.3093 110.722C96.4365 112.328 95.6702 113.994 94.8106 115.606C94.4841 116.219 94.684 116.986 94.0643 117.512C93.1181 118.325 92.032 118.432 91.0458 117.572C90.113 116.766 89.5333 115.746 89.5533 114.32H89.5466Z" fill="#7AE728"/>
<path d="M134.135 134.328C134.228 135.394 134.081 136.487 133.102 137.346C132.255 138.093 131.216 138.253 130.323 137.84C129.357 137.393 128.411 136.68 128.484 135.341C128.537 134.341 128.411 133.382 128.158 132.389C127.944 131.529 129.284 130.05 130.117 129.884C131.469 129.61 132.922 130.263 133.528 131.316C134.055 132.222 134.148 133.189 134.128 134.328H134.135Z" fill="#7AE828"/>
<path d="M59.6279 52.7697C59.5413 49.9178 59.2214 47.1125 58.2952 44.3806C58.0354 43.6143 58.1553 42.7214 58.0553 41.8952C58.002 41.4421 57.8888 40.9823 57.5223 40.6558C58.9482 40.1494 59.8611 40.949 60.5941 41.9618C61.4803 43.1812 62.2865 44.4672 63.0728 45.7532C64.2522 47.6922 64.0057 49.1515 62.2732 50.6374C61.4136 51.377 60.5074 52.0567 59.6279 52.7697Z" fill="#FDFCFD"/>
<path d="M110.417 39.7084C110.331 39.9816 110.337 40.3747 110.151 40.5146C108.851 41.4742 108.791 42.8601 108.825 44.2527C108.891 46.8181 108.485 49.3435 108.258 51.8822C107.932 51.7889 107.612 51.6956 107.285 51.609C106.253 51.7956 105.613 51.3025 105.213 50.3963C104.753 50.0365 104.247 49.71 103.834 49.3035C102.461 47.9375 102.881 45.9252 104.687 45.2456C105.193 45.0523 105.493 44.7258 105.846 44.3527C107.339 42.7735 108.885 41.2543 110.417 39.715V39.7084Z" fill="#FCFCFC"/>
<path d="M105.215 50.39C105.788 50.9963 106.541 51.2895 107.288 51.6027C106.968 54.0481 105.275 55.3475 103.296 56.4402C102.05 57.1265 100.711 57.0399 99.3982 56.9C98.4587 56.8 97.6991 56.227 97.6591 55.1742C97.6191 54.1614 98.3254 53.6083 99.2117 53.3951C101.457 52.862 103.363 51.6893 105.215 50.3833V50.39Z" fill="#7AE728"/>
<path d="M55.55 41.1339C53.8575 42.3799 53.3045 44.219 53.0712 46.158C52.8114 48.2636 53.2645 50.3292 53.7509 52.3682C53.8708 52.8546 53.8575 53.3677 53.3511 53.5676C52.8047 53.7808 52.2783 53.5143 51.8785 53.1145C50.6325 51.8685 50.5525 50.196 50.6658 48.6701C50.9323 45.1452 52.2717 41.9135 53.9775 38.8351C54.4039 38.0621 55.0436 37.8156 55.7299 38.1887C56.4229 38.5685 56.1297 39.2016 55.8299 39.8012C55.6366 40.1944 55.6366 40.6875 55.55 41.1339Z" fill="#0E1F5D"/>
<path d="M92.0009 100.584C89.8686 100.824 88.1029 98.5188 89.5155 96.5332C90.0619 95.7602 90.3284 94.834 91.3212 94.3143C92.6206 93.6346 93.6067 93.9545 94.5663 94.7874C95.4391 95.5403 95.8589 97.2128 95.4791 98.179C94.8661 99.7449 93.6467 100.591 91.9942 100.584H92.0009Z" fill="#7AE729"/>
<path d="M97.764 57.9983C98.7968 58.5247 99.9496 58.4914 101.049 58.6913C103.708 59.1844 104.574 61.4699 102.841 63.5621C101.822 64.7882 100.723 65.9543 99.1833 66.5673C98.9168 66.3807 98.8168 66.0875 98.8235 65.801C98.8435 63.3822 98.3104 61.0567 97.7174 58.7379C97.6574 58.4914 97.6508 58.2382 97.764 57.9983Z" fill="#FCFCFC"/>
<path d="M111.915 76.1637C112.369 77.3165 111.722 78.236 111.269 79.1888C108.77 79.1688 106.372 78.4692 103.94 78.0294C102.833 77.8229 101.694 77.6763 100.648 77.1965C100.681 76.4969 101.521 76.3303 101.647 75.6906C105.079 75.664 108.497 75.8772 111.915 76.1637Z" fill="#7AE72A"/>
<path d="M105.186 150.919C105.172 148.946 106.019 148.033 107.858 148.02C109.597 148.007 110.776 149.313 110.79 151.258C110.796 152.818 109.637 154.15 108.264 154.164C106.505 154.177 105.199 152.804 105.186 150.919Z" fill="#7AE729"/>
<path d="M97.7555 58.0012C98.8283 60.7598 99.2281 63.6251 99.1748 66.5702C98.3219 67.4898 97.2624 67.7296 96.063 67.5231C95.4167 66.3637 95.6832 65.0577 95.5233 63.825C95.3367 62.419 95.41 60.9731 95.2301 59.5538C95.1635 59.0207 95.1635 58.4543 95.5766 58.0012C96.3029 57.828 97.0292 57.8213 97.7488 57.9946L97.7555 58.0012Z" fill="#0F4AF1"/>
<path d="M100.146 77.9768C103.091 78.6964 106.029 79.4094 108.975 80.129C108.348 80.1757 107.715 80.1957 107.089 80.2623C106.023 80.3822 105.177 80.822 104.683 81.8615C103.991 83.3341 102.811 84.0337 101.605 83.7605C100.619 83.534 99.6327 82.148 99.6261 80.8287C99.6261 79.8625 99.3195 78.8097 100.139 77.9768H100.146Z" fill="#7AE729"/>
<path d="M61.6592 56.9879C63.0918 56.9879 64.4511 58.5071 64.5777 59.9864C64.7043 61.5389 63.1318 63.0048 61.6192 62.9915C60.7064 62.9848 58.6607 61.6055 58.6874 60.4528C58.734 58.6071 60.12 56.9745 61.6592 56.9879Z" fill="#7BE629"/>
<path d="M27.781 141.784C27.7077 142.936 27.7676 143.743 27.2945 144.522C26.8947 145.182 26.5083 145.668 25.6887 145.575C24.8891 145.482 24.376 144.849 24.2694 144.222C24.0362 142.83 23.5898 141.477 23.5764 140.031C23.5764 139.025 23.9696 138.432 24.8558 138.199C25.6421 137.992 26.2551 138.432 26.7415 139.032C27.4745 139.931 27.9609 140.911 27.781 141.79V141.784Z" fill="#7BE62A"/>
<path d="M73.4161 59.4131C73.9558 59.4731 74.1624 59.9262 74.3889 60.306C75.1752 61.592 75.9614 62.8713 76.6811 64.1907C77.2008 65.1435 76.7944 65.7565 76.0081 66.5228C74.8287 67.6822 73.6226 67.9421 72.1301 67.5689C71.9102 67.5156 71.7503 67.409 71.657 67.2025C72.1367 64.5838 72.7897 61.9984 73.4161 59.4131Z" fill="#FBFBFC"/>
<path d="M114.38 66.5366C113.407 66.8164 112.448 67.1896 111.401 66.943C109.896 65.1106 110.509 62.5986 111.995 61.8656C113.607 61.0727 114.786 61.4192 115.686 62.6119C116.419 63.5914 115.826 65.3705 114.593 66.1168C114.413 66.2234 114.413 66.37 114.38 66.5299V66.5366Z" fill="#7AE729"/>
<path d="M124.549 141.724C124.562 142.73 124.562 143.723 123.456 144.036C122.357 144.343 121.497 144.003 120.824 142.937C120.231 141.997 119.578 141.178 120.105 140.018C120.491 139.165 121.204 138.632 122.11 138.612C123.15 138.592 124.262 139.652 124.456 140.658C124.529 141.031 124.529 141.411 124.556 141.724H124.549Z" fill="#7BE629"/>
<path d="M68.2823 65.4568C67.1962 65.1436 66.9296 64.0508 66.25 63.3445C66.4965 61.079 67.4027 59.02 68.3023 56.9611C68.4022 56.7279 68.6221 56.5813 68.862 56.4813C69.7082 56.6279 70.5811 56.7079 71.2075 57.4142C70.228 60.0928 69.5017 62.8648 68.2889 65.4634L68.2823 65.4568Z" fill="#114BF1"/>
<path d="M68.2754 65.4565C68.7885 63.1043 69.5881 60.8322 70.5476 58.6333C70.7142 58.2468 70.361 57.4605 71.1939 57.4072C71.8336 57.5871 72.2734 58.0536 72.7465 58.48C73.0797 58.6866 72.973 58.9931 72.8864 59.2596C72.2401 61.2519 71.647 63.2576 70.8475 65.1966C70.6209 65.743 70.3477 66.2694 69.728 66.476C69.1217 66.3094 68.7818 65.763 68.2821 65.4498L68.2754 65.4565Z" fill="#0B2060"/>
<path d="M95.5893 58.005C95.7359 61.1767 96.1024 64.3417 96.0757 67.5201C95.4294 67.5201 94.783 67.5201 94.1367 67.5135C93.7702 67.2203 93.7169 66.8005 93.7236 66.3807C93.7702 64.5416 93.4504 62.7292 93.2505 60.9102C93.1838 60.2838 92.9373 59.5842 93.557 59.0511C94.23 58.6979 94.7897 58.1116 95.5893 57.9983V58.005Z" fill="#0C1F5D"/>
<path d="M93.5474 59.0588C93.6074 61.8841 94.2204 64.676 94.1271 67.5146C93.4408 67.4946 92.7545 67.4746 92.0748 67.4479C91.4485 66.655 91.3951 65.6755 91.2419 64.7426C91.062 63.6365 91.1819 62.5038 91.0487 61.3843C91.0087 61.0712 91.022 60.7047 91.4151 60.5448C92.0548 59.9451 92.7678 59.4586 93.5474 59.0588Z" fill="#124BEF"/>
<path d="M59.2297 76.0552C58.3701 75.5621 57.244 75.5155 56.8442 74.2761C56.671 73.7364 56.6976 73.2499 56.6443 72.7369C58.4967 72.5103 60.3491 72.2571 62.2215 72.2438C62.9544 73.3499 61.9549 75.4088 60.549 75.702C60.2025 75.7753 59.7827 75.6487 59.5495 76.0485C59.4429 76.0485 59.3363 76.0485 59.2363 76.0485L59.2297 76.0552Z" fill="#7CE42C"/>
<path d="M50.5591 124.273C50.5591 125.186 50.6191 126.033 49.6462 126.332C48.5601 126.672 48.0404 125.813 47.6339 125.113C47.2541 124.46 46.9743 123.747 46.6011 123.067C46.3412 122.594 46.3879 122.081 46.9209 121.635C47.5873 121.068 48.3003 121.128 48.8733 121.502C49.8728 122.155 50.759 122.987 50.5591 124.28V124.273Z" fill="#7CE42B"/>
<path d="M75.3239 116.576C75.3239 115.737 75.3039 114.891 75.3305 114.051C75.3439 113.698 75.2772 113.251 75.8036 113.158C76.2168 113.085 76.5766 113.045 76.9431 113.411C77.8159 114.297 78.2357 117.682 77.5694 118.709C77.1763 119.308 76.4966 119.408 75.9436 119.715C75.5504 119.935 75.3439 119.655 75.3505 119.222C75.3639 118.335 75.3505 117.456 75.3505 116.57C75.3372 116.57 75.3239 116.57 75.3172 116.57L75.3239 116.576Z" fill="#7CE42B"/>
<path d="M91.4128 60.5388C91.3795 62.8643 91.6593 65.1631 92.0725 67.4487C90.5466 67.1022 89.2472 66.4691 88.9874 64.7234C88.7342 63.0509 89.6937 61.4584 91.4128 60.5388Z" fill="#F9F8FB"/>
<path d="M69.7184 66.4833C71.0311 64.5176 71.4776 62.1988 72.2771 60.0265C72.4637 59.5268 72.5903 59.0004 72.7369 58.4873C73.3833 58.4873 73.27 59.047 73.4166 59.4135C73.4166 62.1388 72.7169 64.7175 71.6575 67.2029C70.8379 67.4228 70.3115 66.8697 69.7184 66.4833Z" fill="#124CED"/>
<path d="M64.7169 87.04C63.964 86.4936 63.6641 85.7273 63.6508 84.8277C65.4632 84.0148 67.2556 83.1619 69.1947 82.6688C69.3612 82.9887 69.5278 83.3085 69.6944 83.635C68.3218 85.1876 66.4827 86.0671 64.7169 87.0466V87.04Z" fill="#7BE52C"/>
<path d="M108.788 67.6007C108.735 67.7607 108.142 67.9939 108.841 68.0605C109.168 68.0938 109.494 68.0938 109.821 68.1138C109.374 68.6069 108.755 68.5269 108.182 68.6002C105.863 68.8868 103.604 69.4665 101.312 69.9062C99.2461 70.2994 97.2338 70.8724 95.2148 71.4655C96.2076 70.2594 97.7002 70.0395 99.0328 69.6664C101.831 68.8801 104.69 68.2937 107.535 67.6541C107.935 67.5608 108.368 67.6141 108.788 67.6007Z" fill="#621277"/>
<path d="M89.0363 110.839C89.043 111.978 88.2701 112.938 87.2906 112.991C86.4243 113.038 85.5048 112.105 85.5048 111.179C85.5048 110.159 86.4243 109.153 87.3838 109.127C88.39 109.1 89.0297 109.766 89.043 110.839H89.0363Z" fill="#7DE02C"/>
<path d="M68.8521 56.4749C67.786 58.6871 67.1863 61.0792 66.2468 63.3447C65.4072 61.7322 65.2673 60.0797 66.0203 58.3939C66.5666 57.1678 67.4862 56.4948 68.8521 56.4815V56.4749Z" fill="#FAF8FC"/>
<path d="M111.354 75.1326C108.543 75.0727 105.731 75.0527 102.925 74.7795C104.798 73.7733 106.797 73.3935 108.902 73.64C109.929 73.76 110.875 74.0798 111.354 75.1326Z" fill="#7EDE35"/>
<path d="M103.148 130.129C103.175 130.935 102.362 131.848 101.563 131.888C100.59 131.935 100.097 131.455 100.05 130.489C100.003 129.549 100.81 128.43 101.583 128.363C102.256 128.31 103.128 129.289 103.155 130.129H103.148Z" fill="#7DE12C"/>
<path d="M57.7115 110.165C56.8852 110.265 56.5121 109.792 56.5054 108.846C56.4921 107.78 57.0385 107.473 57.998 107.507C58.8043 107.533 59.5172 107.653 59.5839 108.626C59.6372 109.446 58.7843 110.165 57.7115 110.165Z" fill="#80DA30"/>
<path d="M81.9519 97.5255C81.9986 98.2784 81.6054 98.8714 80.7059 98.9181C79.8796 98.9581 79.3532 98.4783 79.4265 97.6121C79.4932 96.8791 79.7064 96.0595 80.5926 95.9996C81.4455 95.9396 81.9519 96.4727 81.9519 97.5255Z" fill="#87CB38"/>
<path d="M68.5306 81.8333C66.9247 82.5197 65.3189 83.206 63.713 83.8857C63.6397 81.3736 66.4983 80.6939 67.8576 81.5202C68.0708 81.6468 68.304 81.7267 68.5306 81.8333Z" fill="#7DDD31"/>
<path d="M98.1309 76.6236C97.9443 76.7502 97.4179 76.8435 97.9576 77.11C98.3441 77.2966 98.8305 77.2899 99.137 77.663C98.6906 77.6764 98.464 78.0428 98.2841 78.3427C98.0642 78.6958 97.811 78.8025 97.4512 78.7158C96.9915 78.6092 97.0448 78.2028 97.0781 77.8963C97.2313 76.6236 96.8249 76.4103 95.7854 77.1233C95.4656 77.3432 94.9858 77.4098 94.7259 77.1233C94.3461 76.7102 94.526 76.1438 94.706 75.6907C94.8659 75.2842 95.259 75.4442 95.5855 75.5641C96.4451 75.8773 97.4046 75.9639 98.1242 76.6302L98.1309 76.6236Z" fill="#611EA0"/>
<path d="M77.3923 74.4252C77.8587 73.359 78.5695 73.1769 79.5245 73.8788C79.5912 73.9254 79.6578 73.9787 79.7178 74.032C80.1642 74.4585 81.1903 74.6117 80.7905 75.458C80.4107 76.2576 79.5512 75.8444 78.8649 75.7312C78.1119 75.5912 77.8254 74.9249 77.3856 74.4252H77.3923Z" fill="#0F47E5"/>
<path d="M99.3988 71.6658C99.1989 72.1189 99.4788 72.1322 99.8119 72.1322C100.598 72.1322 101.384 72.1522 102.177 72.1655C101.185 72.5187 100.132 72.4854 99.1056 72.612C98.5526 72.6853 98.1128 72.6986 98.1794 73.4382C98.2061 73.7714 98.1394 74.1112 97.673 74.1645C97.3132 74.2045 97.1933 73.9513 96.9667 73.7647C96.5669 73.4315 96.8201 73.2316 96.9934 72.9385C97.5397 72.0123 98.4659 71.839 99.3988 71.6658Z" fill="#58209B"/>
<path d="M66.0848 87.7595C67.1576 86.9399 68.2304 86.1137 69.3098 85.2941C69.2632 87.4863 68.4103 88.1393 66.0848 87.7595Z" fill="#7EDA37"/>
<path d="M68.8124 78.6618C68.4592 78.6818 68.0994 78.7018 67.7396 78.7217C67.7263 78.3952 67.7396 78.0621 67.6996 77.7356C67.6396 77.2625 67.9995 77.0892 68.286 76.876C68.6325 76.6161 68.7924 77.0159 69.0056 77.1559C69.4854 77.4757 69.0256 77.6689 68.9057 77.9355C68.8124 78.1487 68.839 78.4152 68.8124 78.6618Z" fill="#4E2094"/>
<path d="M66.6616 132.864C66.7149 133.577 67.2613 133.357 67.6745 133.41C68.0809 133.464 68.634 133.237 68.7406 133.917C67.7877 134.03 66.7682 133.61 65.8354 134.41C65.6954 133.544 66.0819 133.15 66.655 132.864H66.6616Z" fill="#B77570"/>
<path d="M91.93 77.4545C91.6368 77.7544 91.5368 78.1942 91.0104 78.2008C90.3974 78.2075 90.4774 77.781 90.484 77.4279C90.484 77.0547 90.504 76.6749 91.0704 76.6816C91.6301 76.6816 91.6035 77.2213 91.93 77.4545Z" fill="#2D41E5"/>
<path d="M78.3715 79.8093C78.3715 80.2758 77.9717 80.4823 77.6718 80.5623C77.3653 80.6423 76.9922 80.2091 77.0321 79.9759C77.0988 79.6228 77.292 79.1697 77.8517 79.2296C78.2115 79.2629 78.3715 79.4629 78.3715 79.8093Z" fill="#642DD1"/>
<path d="M73.8042 72.1237C73.8176 72.4969 73.5977 72.6368 73.2445 72.6168C72.7381 72.5902 72.5982 72.1504 72.4582 71.8039C72.4249 71.7173 72.9447 71.2442 73.0379 71.2908C73.3644 71.4574 73.8775 71.544 73.7976 72.1171L73.8042 72.1237Z" fill="#3C3CE1"/>
<path d="M94.0085 75.4908C93.4688 75.5575 92.8757 76.0239 92.5892 75.2443C92.4159 74.7712 92.8024 74.4447 93.0756 74.3781C93.9552 74.1715 93.4754 75.2443 94.0018 75.4842L94.0085 75.4908Z" fill="#4438E1"/>
<path d="M75.1393 75.1104C75.4192 75.7634 75.5458 76.2432 75.0794 76.5963C74.8861 76.7429 74.513 76.7829 74.3664 76.3964C74.1132 75.7301 74.7462 75.6102 75.1393 75.1038V75.1104Z" fill="#5134DA"/>
<path d="M93.0258 73.147C92.6193 73.167 92.5461 72.9204 92.5461 72.5939C92.5461 72.2141 92.726 72.1009 93.0858 72.1342C93.4589 72.1675 93.5589 72.3674 93.5655 72.7005C93.5655 73.0937 93.359 73.1936 93.0325 73.147H93.0258Z" fill="#2643E8"/>
<path d="M86.6827 75.1989C86.023 75.2455 85.7098 74.859 85.8231 74.286C85.9697 73.5264 86.1096 72.6668 87.1824 72.6135C87.9487 72.5735 88.2352 73.0333 88.2419 73.6996C88.2419 74.4326 87.409 75.2055 86.6893 75.1922L86.6827 75.1989Z" fill="#0F48EA"/>
<path d="M75.9784 146.06C73.0333 146.36 71.1209 145.061 70.0148 142.542C69.4151 141.169 69.5483 139.064 71.3075 137.818C72.3802 137.058 74.3592 137.245 75.492 138.324C76.0184 138.824 76.5715 138.99 77.2844 138.99C79.1701 138.99 81.0425 138.97 82.8816 138.484C83.8811 138.218 83.8944 137.471 83.9744 136.665C84.0277 136.099 83.5812 135.212 84.3075 135.012C85.0672 134.806 85.467 135.725 85.8134 136.259C87.7191 139.164 87.4726 141.622 85.4736 143.202C83.8478 144.481 82.0354 145.401 79.9497 145.58C78.5771 145.7 77.2844 146.36 75.9784 146.067V146.06Z" fill="#E600A1"/>
<path d="M93.011 128.914C93.1043 129.727 93.724 130.374 93.6307 131.28C93.5107 132.513 92.8111 133.292 91.5717 133.419C88.9397 133.685 86.8475 132.939 85.7547 130.354C85.155 128.948 85.3349 127.429 85.6347 126.023C85.8813 124.87 86.3344 123.697 87.034 122.678C87.747 121.638 88.5999 120.805 89.9592 120.759C91.0453 120.719 91.665 121.358 92.0848 122.265C92.458 123.457 92.418 124.65 92.1181 125.849C92.1181 126.176 92.1048 126.496 92.1048 126.822C92.4046 127.522 92.6245 128.255 93.011 128.914Z" fill="#E501A1"/>
<path d="M93.0383 168.969C93.145 166.703 91.799 164.944 90.9394 163.025C90.8728 162.872 90.513 162.805 90.2797 162.765C89.9399 162.705 89.5934 162.718 89.5868 162.232C89.5801 161.779 89.9532 161.439 90.2064 161.393C91.0327 161.226 91.8789 160.953 92.6519 161.732C94.371 163.458 95.717 165.331 96.2034 167.816C96.4899 169.302 96.8231 170.688 96.1701 172.167C95.2972 174.139 93.6847 175.192 91.8056 175.972C90.7129 176.425 89.5734 176.578 88.3874 176.532C87.1813 176.485 86.5216 175.725 86.1352 174.726C85.7754 173.813 86.2351 173.013 86.8815 172.4C87.5811 171.734 88.4007 171.241 89.4468 171.587C91.7124 172.34 93.0517 171.374 93.045 168.969H93.0383Z" fill="#E502A0"/>
<path d="M72.7992 154.224C71.693 154.411 70.9601 153.698 70.3004 153.065C68.3414 151.206 66.549 149.173 64.2435 147.701C63.6904 147.348 63.164 146.708 63.4905 146.122C63.9969 145.222 65.0164 145.002 65.9893 145.189C69.1543 145.815 71.6597 147.721 74.1518 149.593C75.9575 150.946 75.5977 152.965 74.3117 153.871C73.7787 154.244 73.2789 154.071 72.7925 154.224H72.7992Z" fill="#E600A1"/>
<path d="M85.9645 159.775C86.0245 161.294 85.678 163.013 85.065 164.712C84.6985 165.732 83.8856 166.118 83.026 166.145C82.0132 166.171 81.0803 164.919 80.9471 163.872C80.8138 162.826 81.2802 161.893 81.5401 160.967C81.9799 159.401 82.1931 157.822 82.3664 156.23C82.5129 154.89 81.9532 153.611 81.6667 152.325C81.5401 151.765 81.72 151.505 81.9799 151.286C82.2531 151.052 82.6529 151.066 82.9661 151.432C84.1121 152.758 85.1183 154.131 85.5314 155.916C85.8113 157.109 85.9312 158.289 85.9579 159.781L85.9645 159.775Z" fill="#E502A0"/>
<path d="M65.6264 167.471C65.7663 166.978 65.5397 166.339 66.0062 165.866C66.2527 165.612 66.0795 165.492 65.9195 165.266C65.5064 164.693 65.0067 164.186 64.4136 163.88C63.5407 163.434 62.8144 162.84 63.0277 161.861C63.2875 160.668 64.4003 160.502 65.3398 160.822C67.7519 161.648 70.0974 162.667 71.3768 165.113C72.0831 166.465 71.5633 168.438 70.3106 169.364C69.2712 170.137 68.2917 170.803 66.8524 170.004C65.753 169.397 65.633 168.558 65.6264 167.478V167.471Z" fill="#E502A1"/>
<path d="M88.5089 148.94C88.1424 146.734 89.6284 145.042 90.348 143.116C90.4813 142.763 90.8078 142.416 91.1343 142.216C91.6873 141.876 92.4536 141.75 92.8934 142.183C93.3931 142.676 93.0533 143.396 92.8734 144.055C92.4136 145.728 91.654 147.374 92.4802 149.199C92.7801 149.866 93.3331 150.172 93.7796 150.612C94.5725 151.398 94.959 152.231 94.3393 153.217C93.6996 154.25 92.8134 154.337 91.5407 153.85C89.2819 152.984 88.2024 151.432 88.5089 148.94Z" fill="#E502A0"/>
<path d="M76.3331 130.503C76.2731 128.857 76.2532 127.358 77.3859 126.145C78.0322 125.452 78.7319 124.879 79.7381 124.799C81.3706 124.673 81.7704 125.905 81.3239 126.832C80.8308 127.851 80.9374 128.857 80.8841 129.883C80.8442 130.67 80.9774 131.463 80.5443 132.216C80.3977 132.469 80.3911 132.949 80.5376 133.195C81.084 134.108 80.9774 134.894 80.1045 135.427C79.3916 135.86 78.0056 135.227 77.3659 134.474C76.3331 133.255 76.2465 131.842 76.3331 130.503Z" fill="#E402A0"/>
<path d="M79.4371 158.647C79.5237 159.787 79.2505 160.839 77.9245 161.339C76.5385 161.859 74.986 160.879 74.866 159.373C74.8261 158.874 74.8594 158.361 74.8794 157.854C74.9527 156.348 75.679 155.615 77.0982 155.622C78.5309 155.622 79.3638 156.442 79.4304 157.894C79.4371 158.107 79.4304 158.314 79.4304 158.647H79.4371Z" fill="#E403A0"/>
<path d="M101.71 154.792C101.824 155.445 101.324 155.838 100.871 156.131C99.7913 156.851 98.532 157.211 97.3059 157.604C96.6729 157.804 96.2598 157.257 95.86 156.851C95.4069 156.384 95.5135 155.791 95.74 155.332C96.4597 153.866 98.9584 152.793 100.571 153.219C101.317 153.419 101.77 153.906 101.697 154.792H101.71Z" fill="#E4039F"/>
<path d="M96.2416 139.53C94.9223 139.53 94.0827 138.664 94.076 137.292C94.0694 135.879 94.9556 134.939 96.3082 134.933C97.6409 134.926 98.6737 135.966 98.6337 137.265C98.5938 138.578 97.5876 139.53 96.2416 139.53Z" fill="#E3059F"/>
<path d="M95.0322 146.661C95.0322 145.455 95.4653 145.015 96.6847 145.002C97.9974 144.982 98.5771 145.455 98.6038 146.561C98.6304 147.547 97.7775 148.527 96.858 148.56C95.8918 148.6 95.0322 147.707 95.0322 146.661Z" fill="#DD1197"/>
<path d="M63.7104 153.173C64.6233 153.139 65.1297 153.566 65.183 154.485C65.223 155.218 64.3634 156.185 63.7037 156.185C63.0307 156.185 62.1778 155.205 62.2178 154.472C62.2578 153.633 62.7975 153.166 63.7171 153.166L63.7104 153.173Z" fill="#D12A8A"/>
<path d="M93.0118 128.918C92.0523 128.505 91.939 127.725 92.1056 126.826C92.5321 127.072 92.7853 126.846 93.0451 126.526C93.4516 126.019 93.9647 125.733 94.4378 126.399C94.9242 127.092 94.7043 127.732 94.038 128.218C93.7048 128.458 93.0518 128.238 93.0185 128.925L93.0118 128.918Z" fill="#A68959"/>
<path d="M73.7642 129.734C73.4111 130.088 73.5843 130.921 72.8514 130.861C72.2717 130.814 71.8319 130.387 71.7986 129.708C71.7719 129.168 71.9518 128.862 72.5582 128.815C73.2512 128.762 73.4644 129.228 73.7642 129.728V129.734Z" fill="#C73F80"/>
<path d="M92.1186 125.846C92.1053 124.653 92.0987 123.453 92.0853 122.261C92.7983 122.98 92.8116 125.033 92.1186 125.846Z" fill="#A68959"/>
</g>
</g>
<path d="M165.465 154.279C163.409 137.12 162.651 119.891 163.123 102.628C163.368 93.6604 163.385 84.6896 163.623 75.722C163.953 63.4203 164.282 51.1185 165.071 38.8402C165.71 28.8644 167.484 18.9759 167.552 8.94626C167.566 6.92286 167.511 4.91962 167.086 2.94327C166.706 1.18875 165.7 0.704747 164.044 1.461C163.636 1.64923 163.331 1.75006 162.923 1.54503C160.934 0.550134 158.756 0.499717 156.618 0.459383C147.722 0.298049 138.824 0.166964 129.925 0.133353C113.06 0.0661301 96.1941 0.163603 79.3317 0.0224352C68.1627 -0.0716767 57.0141 0.0963804 45.8859 1.11481C37.6128 1.87106 29.3736 3.10124 21.0258 2.8626C16.0089 2.85588 11.0328 3.15166 6.17905 4.55997C4.31982 5.10112 2.92964 5.53134 2.11388 7.91103C0.920844 11.3999 0.377008 14.8148 0.614936 18.381C1.03981 24.8075 1.4103 31.234 1.74 37.6638C2.46058 51.6731 3.15397 65.6857 3.725 79.7016C4.00711 86.5953 4.21445 93.4957 4.60533 100.383C5.13557 109.74 5.81536 119.091 5.77118 128.472C5.73379 136.696 5.34971 144.908 4.79907 153.112C4.67671 154.941 4.40479 156.796 5.18995 158.561C5.54345 159.351 4.88744 159.394 4.45238 159.609C3.62643 160.013 2.55915 160.305 2.7223 161.471C2.88205 162.621 4.0513 162.587 4.89424 162.883C5.22054 162.997 5.57404 163.028 5.91733 163.098C10.8968 164.147 15.9511 164.288 21.0156 164.308C39.1049 164.382 57.1942 164.439 75.2836 164.493C86.4492 164.527 97.6182 164.53 108.78 164.97C124.293 165.582 139.803 166.275 155.316 166.95C158.327 167.081 161.108 166.832 163.66 164.819C165.761 163.162 166.76 161.619 166.284 159.028C165.992 157.445 165.655 155.865 165.465 154.272V154.279ZM161.431 10.9932C159.639 20.8447 158.793 30.8172 157.529 40.7359C156.461 49.122 155.581 57.5248 154.884 65.9478C153.494 82.7703 153.793 99.6231 153.834 116.476C153.851 123.954 153.939 131.43 154.228 138.901C154.456 144.817 154.718 150.743 156.206 156.524C156.543 157.825 156.295 158.356 154.792 158.386C152.926 158.426 151.074 158.399 149.218 158.238C137.288 157.216 125.35 156.299 113.42 155.304C100.439 154.225 87.4077 153.922 74.3726 154.642C68.9173 154.944 63.4381 154.826 57.9794 155.085C43.9824 155.747 29.9889 156.48 16.0395 157.855C14.4929 158.006 14.3672 157.751 14.5133 156.211C15.1455 149.512 15.3359 142.78 15.4039 136.051C15.533 123.558 14.5915 111.115 13.735 98.6618C13.1775 90.5749 12.9464 82.4645 12.5861 74.3641C12.0151 61.5011 11.58 48.648 9.9859 35.8287C8.90843 27.1435 7.3585 18.5658 5.75418 9.98485C5.49586 8.60343 5.83916 8.47234 7.08318 8.55973C8.99001 8.69081 10.9138 8.59334 12.8274 8.59334C15.6758 8.3547 18.5207 8.35806 21.3555 8.75804C28.2044 9.72268 35.0669 8.90593 41.9193 8.81854C54.074 8.66729 66.2321 8.5362 78.3868 8.86559C91.5918 9.22188 104.79 9.05046 117.985 8.3984C126.425 7.98161 134.844 8.30764 143.26 8.95298C145.982 9.16138 148.735 9.29582 151.451 9.13112C154.646 8.93618 157.668 9.91091 160.795 10.0655C161.461 10.0991 161.526 10.4386 161.427 10.9831L161.431 10.9932Z" fill="#F5F4F4"/>
<path d="M165.63 154.279C163.574 137.12 162.816 119.891 163.288 102.628C163.533 93.6604 163.55 84.6896 163.788 75.722C164.118 63.4203 164.447 51.1185 165.236 38.8402C165.875 28.8644 167.649 18.9759 167.717 8.94626C167.731 6.92286 167.676 4.91962 167.252 2.94327C166.871 1.18875 165.865 0.704747 164.21 1.461C163.802 1.64923 163.496 1.75006 163.088 1.54503C161.099 0.550134 158.921 0.499717 156.783 0.459383C147.888 0.298049 138.989 0.166964 130.091 0.133353C113.225 0.0661301 96.3592 0.163603 79.4969 0.0224352C68.3279 -0.0716767 57.1793 0.0963804 46.051 1.11481C37.7779 1.87106 29.5388 3.10124 21.1909 2.8626C16.1741 2.85588 11.198 3.15166 6.34422 4.55997C4.48499 5.10112 3.09481 5.53134 2.27905 7.91103C1.08601 11.3999 0.542177 14.8148 0.780105 18.381C1.20498 24.8075 1.57546 31.234 1.90516 37.6638C2.62575 51.6731 3.31914 65.6857 3.89017 79.7016C4.17228 86.5953 4.37962 93.4957 4.7705 100.383C5.30074 109.74 5.98053 119.091 5.93635 128.472C5.89896 136.696 5.51487 144.908 4.96424 153.112C4.84188 154.941 4.56996 156.796 5.35512 158.561C5.70862 159.351 5.05261 159.394 4.61755 159.609C3.79159 160.013 2.72432 160.305 2.88747 161.471C3.04722 162.621 4.21647 162.587 5.05941 162.883C5.38571 162.997 5.73921 163.028 6.0825 163.098C11.062 164.147 16.1163 164.288 21.1807 164.308C39.2701 164.382 57.3594 164.439 75.4487 164.493C86.6144 164.527 97.7834 164.53 108.946 164.97C124.459 165.582 139.968 166.275 155.481 166.95C158.492 167.081 161.273 166.832 163.825 164.819C165.926 163.162 166.925 161.619 166.449 159.028C166.157 157.445 165.821 155.865 165.63 154.272V154.279ZM161.596 10.9932C159.804 20.8447 158.958 30.8172 157.694 40.7359C156.626 49.122 155.746 57.5248 155.049 65.9478C153.659 82.7703 153.958 99.6231 153.999 116.476C154.016 123.954 154.104 131.43 154.393 138.901C154.621 144.817 154.883 150.743 156.371 156.524C156.708 157.825 156.46 158.356 154.958 158.386C153.091 158.426 151.239 158.399 149.383 158.238C137.453 157.216 125.516 156.299 113.585 155.304C100.605 154.225 87.5729 153.922 74.5378 154.642C69.0825 154.944 63.6033 154.826 58.1446 155.085C44.1476 155.747 30.154 156.48 16.2046 157.855C14.6581 158.006 14.5323 157.751 14.6785 156.211C15.3107 149.512 15.5011 142.78 15.569 136.051C15.6982 123.558 14.7567 111.115 13.9001 98.6618C13.3427 90.5749 13.1116 82.4645 12.7513 74.3641C12.1803 61.5011 11.7452 48.648 10.1511 35.8287C9.0736 27.1435 7.52367 18.5658 5.91935 9.98485C5.66103 8.60343 6.00433 8.47234 7.24835 8.55973C9.15517 8.69081 11.079 8.59334 12.9926 8.59334C15.841 8.3547 18.6859 8.35806 21.5206 8.75804C28.3696 9.72268 35.2321 8.90593 42.0844 8.81854C54.2391 8.66729 66.3973 8.5362 78.552 8.86559C91.757 9.22188 104.955 9.05046 118.15 8.3984C126.59 7.98161 135.009 8.30764 143.425 8.95298C146.147 9.16138 148.901 9.29582 151.616 9.13112C154.811 8.93618 157.833 9.91091 160.96 10.0655C161.626 10.0991 161.691 10.4386 161.592 10.9831L161.596 10.9932Z" fill=""/>
<path d="M99.8527 71.7647C105.616 70.8918 111.427 71.3516 117.217 71.1317C130.797 71.4649 144.344 72.0179 157.384 76.4157C155.878 76.8621 154.432 76.4557 153.012 76.1558C146.502 74.7765 139.919 73.9836 133.289 73.4772C127.752 73.0507 122.221 72.4577 116.658 72.4777C116.251 72.4044 115.845 72.2711 115.438 72.2711C111.167 72.2578 106.902 72.2711 102.631 72.2711C101.845 72.471 101.039 72.3045 100.246 72.4311C99.8394 72.4977 99.273 72.4044 99.8594 71.7647H99.8527Z" fill="#0C1F5B"/>
<defs>
<clipPath id="clip0_1218_2310">
<rect width="156.301" height="155.633" fill="white" transform="translate(5.89761 5.93262)"/>
</clipPath>
<clipPath id="clip1_1218_2310">
<rect width="287.351" height="325.712" fill="white" transform="translate(-129.026 -41.4948)"/>
</clipPath>
</defs>
</svg>
