<svg width="167" height="168" viewBox="0 0 167 168" xmlns="http://www.w3.org/2000/svg">
<g clip-path="url(#clip0_1218_2025)">
<g clip-path="url(#clip1_1218_2025)">
<path d="M65.4226 250.794C65.4604 246.924 64.8843 243.497 62.1358 240.241C56.4876 233.549 52.1334 226.073 49.5171 217.54C47.3919 210.584 46.0697 203.523 44.8324 196.406C44.464 194.292 44.8512 192.14 44.9173 189.997C45.2763 177.68 47.0708 165.598 50.3672 153.714C51.1322 150.939 51.5006 148.051 52.0956 145.219C52.7757 142 51.8028 138.895 51.4911 135.742C51.1511 132.269 51.0661 128.795 51.2456 125.341C51.6234 118.167 51.3589 110.994 51.17 103.82C51.0755 100.337 51.2456 96.8823 52.0201 93.4654C52.0578 93.2955 52.0956 93.1256 52.1239 92.9557C52.7379 89.2651 52.6434 89.0385 49.4699 87.0941C48.4876 86.49 47.4581 85.952 46.438 85.414C41.2904 82.6578 38.1925 78.2876 36.4546 72.8413C36.3507 72.5204 36.3507 72.1712 36.2468 71.5387C40.3648 74.8046 45.0307 74.2572 49.5927 74.3138C50.0933 73.7475 50.5939 74.2005 50.9717 74.4271C52.719 75.4654 54.3719 75.2199 56.0437 74.2288C56.7332 73.8135 57.4699 73.4643 58.2255 73.1717C61.399 72.4826 64.6009 72.1617 67.85 72.3222C69.2668 72.3882 70.608 72.0579 71.8547 71.3972C74.6127 69.9341 75.7556 66.6966 73.9327 64.2047C71.7414 61.2031 68.9929 58.6829 64.9409 58.3903C62.9669 58.2487 61.0307 58.6452 59.1039 59.0227C58.1971 59.2021 57.2998 59.4192 56.3648 59.4003C55.6564 59.3531 54.9952 59.2304 54.7213 58.4469C54.6363 57.0972 54.0507 55.9268 53.4746 54.7374C52.3412 52.4155 51 50.2067 50.15 47.7526C49.8949 47.0069 49.4982 46.233 50.2349 45.5156C52.0106 44.7794 53.7296 43.8827 55.6092 43.4107C56.5442 43.9959 56.2231 44.9493 56.2609 45.761C56.3837 48.234 55.9587 50.7448 56.8843 53.1517C57.0638 53.6236 57.0637 54.19 57.9138 54.6902C58.131 52.6042 58.6411 50.707 58.7072 48.7343C58.7544 47.5827 58.6883 46.4217 58.7355 45.2607C58.7638 44.5906 58.641 43.8449 59.3211 43.3635C61.9185 43.6278 64.2514 44.5151 66.2726 46.2141C66.6599 46.5445 67.151 46.8182 67.6327 46.9598C71.3541 48.0547 73.6304 50.7353 75.3966 53.9634C80.3931 63.1098 78.9102 71.803 73.4226 80.1565C72.0058 82.3086 69.9657 83.7527 67.3683 84.1586C66.2349 84.3379 66.1593 84.7816 66.3482 85.7727C67.0472 89.5577 67.1511 93.3616 66.3294 97.1466C65.7532 99.8178 65.6965 102.565 65.6682 105.264C65.5643 114.184 63.8925 123 63.9303 131.929C63.9492 136.384 64.0814 140.839 64.157 145.295C64.1664 146.021 64.4687 146.654 64.837 147.239C66.6222 150.146 68.4167 153.044 70.5513 155.715C72.4592 158.103 75.0472 159.491 77.7201 160.765C78.5608 161.171 79.4391 161.076 80.2325 160.652C85.4934 157.82 89.7342 154.148 91.0093 147.919C91.576 145.144 92.2844 142.397 92.9834 139.65C93.4651 137.734 93.654 135.78 93.9845 133.845C95.2974 126.124 93.654 118.677 92.0578 111.22C90.6788 104.773 91.3022 98.3265 92.0578 91.8702C92.1144 91.4077 92.1333 90.9452 92.2278 90.4921C93.0684 86.5655 92.8795 83.1014 89.0164 80.5718C87.3446 79.4769 86.5229 77.4286 85.6445 75.5881C84.7378 73.7191 84.1427 71.7558 83.9822 69.6887C83.9349 69.0374 83.5949 67.9897 84.9928 68.3484C88.3175 72.2278 93.0022 72.5298 97.5831 73.1151C98.5937 73.3793 99.3116 74.1816 100.322 74.5214C102.088 75.1161 103.77 75.3426 105.517 74.5686C105.829 74.4271 106.188 74.4271 106.537 74.4365C108.445 74.7952 110.343 75.2011 112.317 75.1255C113.895 75.0595 115.397 74.8613 116.804 74.125C117.758 73.6814 118.627 73.1056 119.382 72.3599C119.515 72.2655 119.656 72.2089 119.817 72.1806C120.053 72.0296 120.289 71.888 120.61 71.6898C120.355 73.974 119.647 76.1072 118.079 77.6174C114.943 80.6473 112.176 84.1964 107.888 85.801C106.839 86.188 106.887 86.9148 106.915 87.7454C107.113 94.3055 108.369 100.705 109.531 107.142C110.636 113.297 114.036 118.545 115.727 124.397C118.088 132.552 123.085 139.282 127.014 146.588C128.327 149.032 129.602 151.505 131.189 153.79C131.548 154.309 131.85 154.885 132.417 155.224C133.399 155.366 133.597 156.234 133.947 156.923C136.1 161.199 137.498 165.834 139.992 169.949C142.466 174.036 144.912 178.142 147.396 182.229C149.408 185.523 151.174 188.978 153.526 192.055C155.888 195.151 158.296 198.153 161.432 200.663C165.021 203.542 169.148 205.685 172.388 209.092C174.088 210.876 176.298 212.273 178.622 213.387C182.003 215.011 185.413 216.606 188.671 218.484C189.2 219.117 189.994 218.956 190.664 219.164C191.231 219.334 191.779 219.56 192.242 219.928C193.016 220.636 193.98 220.268 194.858 220.362C195.85 220.334 196.653 220.882 197.521 221.25C198.258 221.92 199.222 221.684 200.081 221.892C200.242 221.939 200.393 222.005 200.534 222.08C201.29 222.713 202.282 222.326 203.104 222.656C203.264 222.713 203.425 222.798 203.566 222.892C205.616 223.477 207.741 222.854 209.8 223.251C209.98 223.298 210.15 223.373 210.32 223.458C211.368 224.11 212.539 223.732 213.654 223.817C214.277 223.864 214.9 223.798 215.514 223.978C215.703 224.034 215.883 224.119 216.043 224.223C218.716 224.837 221.427 224.365 224.119 224.487C227.415 224.393 230.721 224.327 234.017 224.487C238.485 224.695 242.707 223.487 247.004 222.637C247.571 222.524 248.128 222.382 248.714 222.392C249.715 222.373 250.763 222.666 251.698 222.043C251.944 221.92 252.199 221.844 252.464 221.807C253.21 221.731 254.003 221.826 254.645 221.278C258.877 219.456 263.212 217.88 267.368 215.926C270.012 214.68 272.44 212.991 274.905 211.395C277.323 209.838 279.58 208.054 281.951 206.431C282.386 206.138 282.801 205.789 283.349 206.176C284.567 207.242 285.776 208.309 287.287 208.96C290.48 210.489 293.332 212.471 295.798 215.039C297.677 216.993 299.472 219.05 301.842 220.485C303.165 221.287 304.506 221.769 306.083 221.741C310.022 221.684 313.951 221.722 317.89 221.722C318.702 221.722 319.514 221.684 320.241 222.165C325.805 222.543 331.349 222.175 336.893 221.712C339.557 221.486 342.23 221.287 344.874 221.646C348.964 222.203 352.411 224.336 355.462 226.894C358.173 229.16 358.815 232.35 357.634 235.748C356.511 238.985 354.074 240.59 350.768 241.053C347.509 241.506 344.279 241.223 341.096 240.562C337.989 239.92 334.91 239.769 331.783 240.345C331.462 240.618 331.084 240.769 330.669 240.769C327.901 240.769 325.162 241.241 322.433 241.374C319.25 241.534 316.274 242.11 313.346 243.195C312.638 243.46 311.901 243.601 311.174 243.762C302.352 245.111 293.909 248.151 285.058 249.472C279.25 250.331 273.554 250.699 267.85 249.217C266.206 248.793 265.11 249.123 263.92 250.463C260.331 254.494 255.599 256.24 250.291 256.381C246.013 256.495 241.715 256.551 237.446 256.023C236.171 255.862 234.943 255.551 233.724 255.154C225.696 252.54 218.187 254.012 211.056 258.099C206.305 260.818 202.216 264.423 198.135 268.029C194.49 271.248 190.693 274.297 186.886 277.326C181.087 281.933 174.324 283.575 167.241 282.244C157.701 280.451 148.832 282.329 140.029 285.576C134.863 287.483 129.838 289.729 124.842 292.032C123.472 292.665 122.065 293.212 120.591 293.561C116.53 294.524 112.421 295.232 108.36 296.195C106.282 296.695 104.072 296.516 101.947 296.308C93.2761 295.487 85.1817 293.071 78.7119 286.907C72.6481 281.14 68.4923 274.23 67.0283 265.868C66.0649 263.347 66.1971 260.648 65.7249 258.043C65.4132 256.363 64.7142 254.711 64.9409 252.927C65.0354 252.191 64.8653 251.407 65.3943 250.765L65.4226 250.794Z" fill="#E500A0"/>
<path d="M252.594 222.24C252.377 222.259 252.169 222.287 251.952 222.306C251.121 222.995 249.959 222.25 249.128 222.948C246.088 223.571 243.056 224.203 240.006 224.807C239.336 224.939 238.647 225.024 237.957 225.033C233.349 225.052 228.741 225.042 224.133 225.042C222.226 224.344 220.243 224.892 218.297 224.712C217.447 224.637 216.55 224.948 215.776 224.363C214.879 223.74 213.859 224.127 212.905 224.024C212.008 223.92 211.045 224.288 210.214 223.674C209.138 223.005 207.957 223.457 206.824 223.325C205.634 223.184 204.397 223.656 203.264 222.976C202.452 222.231 201.281 223.005 200.46 222.306C199.685 221.504 198.486 222.325 197.693 221.599C196.777 221.353 195.852 221.117 194.936 220.872C194.133 220.146 192.953 220.938 192.15 220.193C191.659 219.985 191.168 219.778 190.677 219.57C190.214 218.787 189.185 219.466 188.675 218.806C183.491 216.155 177.759 214.353 173.378 210.399C168.193 205.72 161.867 202.474 157.136 197.256C153.793 193.567 151.121 189.406 148.571 185.17C145.597 180.207 142.783 175.15 139.723 170.244C137.202 166.196 135.993 161.582 133.727 157.44C133.34 156.723 132.934 156.025 132.537 155.318C132.669 153.544 131.753 151.968 131.64 150.232C131.149 142.646 131.432 135.098 133.208 127.692C134.067 124.125 135.436 120.691 136.579 117.2C138.345 111.822 139.959 106.378 142.83 101.453C146.786 94.6597 151.017 88.0551 156.72 82.5168C161.253 78.1106 166.522 74.8744 172.103 71.9306C179.072 68.2604 186.484 65.8451 193.878 63.3259C194.199 63.2127 194.567 63.2221 194.907 63.1749C197.599 62.4013 200.403 62.1182 203.075 61.3917C205.332 60.7879 207.655 61.0709 209.855 60.3822C210.592 60.1557 211.319 60.0897 212.065 60.0897C218.826 60.0897 225.587 59.9953 232.339 60.1463C234.709 60.2029 237.07 60.8256 239.43 61.2407C241.857 61.6653 244.209 62.3352 246.607 62.8541C247.948 63.1466 249.242 63.5523 250.564 63.9109C251.423 64.5241 252.613 64.1184 253.444 64.8355C256.673 65.8545 259.94 66.7885 263.075 68.0811C265.408 69.2039 267.816 70.1757 270.006 71.5816C276.475 75.5348 281.895 80.6769 286.834 86.3663C290.394 90.4705 294.01 94.5276 297.532 98.6601C302.207 104.142 305.474 110.463 308.212 117.077C308.448 117.653 308.703 118.228 308.949 118.794C310.28 121.71 311.621 124.644 312.471 127.72C313.245 130.541 314.445 133.334 314.18 136.381C314.133 136.966 314.35 137.514 314.454 138.07C315.124 141.674 314.577 145.288 314.397 148.892C314.369 149.449 314.161 150.015 314.18 150.6C314.331 156.091 312.82 161.252 311.026 166.347C310.819 166.932 310.79 167.602 310.375 168.121C307.06 178.499 301.678 187.623 294.039 195.445C290.866 198.69 287.853 202.087 284.397 205.05C284.001 205.389 283.604 205.729 283.472 206.267C281.262 207.276 279.563 209.031 277.561 210.333C274.369 212.409 271.3 214.711 267.844 216.315C263.576 218.296 259.279 220.24 254.756 221.608C254.161 222.212 253.226 221.674 252.632 222.25L252.594 222.24Z" fill="#79E828"/>
<path d="M115.567 52.145C119.254 50.5516 122.175 47.9022 125.012 45.1963C129.521 40.8874 134.144 36.6917 138.767 32.5055C139.07 32.2321 139.363 31.9492 139.703 31.7418C141.131 30.8932 142.057 31.4118 142.114 33.0523C142.143 33.8255 141.991 34.5892 141.623 35.2303C136.3 44.4514 129.937 52.6825 120.02 57.4816C119.972 57.5099 119.906 57.5099 119.85 57.5287C116.352 59.603 112.551 60.4987 108.495 60.3856C108.202 60.3856 107.918 60.3196 107.644 60.2253C106.633 59.6124 105.167 59.6124 104.78 58.1416C104.685 57.5759 104.704 57.0007 104.751 56.4256C104.817 55.5582 105.271 54.9453 106.15 54.9925C109.015 55.1622 111.312 53.6536 113.761 52.5599C114.347 52.2959 114.905 52.0319 115.567 52.145Z" fill="#0B1F5C"/>
<path d="M39.9403 52.638C38.2766 47.9312 37.8607 43.0539 37.8985 38.1103C37.8985 37.1443 37.6527 35.951 38.9855 35.7143C40.4224 35.4586 40.6493 36.7371 40.9045 37.7125C41.6797 40.7336 42.3509 43.7831 43.1071 46.8137C43.2962 47.5808 43.4569 48.3952 43.9862 49.0487C44.9221 49.8537 45.3002 51.0469 45.8674 52.0698C47.1719 54.4279 49.5162 55.8674 50.8775 58.1403C51.3123 58.8127 51.5108 59.523 50.8208 60.1197C49.97 60.8584 49.0152 60.9625 48.0416 60.3375C47.8147 60.2712 47.5689 60.2617 47.3798 60.1481C45.9902 59.2863 44.922 58.718 44.6006 61.2182C44.4305 62.563 42.9653 63.0271 41.5757 63.065C39.496 63.1218 37.6716 62.0895 36.5656 60.6879C34.0038 57.4395 31.1301 54.3711 29.646 50.3556C28.521 47.3156 28.2658 44.285 28.9086 41.1408C29.0221 40.5726 29.1733 40.0044 29.5892 39.5687C30.44 38.6501 31.6027 38.8679 32.0092 40.0517C32.1794 40.5442 32.3117 41.0651 32.3306 41.5765C32.5953 46.6716 34.8262 50.7723 38.5885 54.1059C40.0916 54.9014 40.914 56.4641 42.6155 57.6005C41.6891 55.7159 39.9403 54.6268 39.9403 52.6569V52.638Z" fill="#0D205D"/>
<path d="M115.391 52.1906C113.35 53.1848 111.308 54.16 109.277 55.1826C108.778 55.4383 108.28 55.4004 107.772 55.4004C104.856 55.4193 104.846 55.4288 105.063 58.2788C104.724 58.5439 104.329 58.6386 103.934 58.506C101.676 57.7296 99.4471 57.9569 97.2367 58.6954C95.3554 58.7617 93.4742 58.8564 91.5929 59.0079C89.4295 59.1783 87.6047 59.9074 85.9869 61.3087C85.3661 61.5833 85.0368 62.8142 84.2843 62.2555C83.767 61.8768 84.0586 60.8732 84.3031 60.1725C84.5665 59.4245 84.6418 58.6197 84.9804 57.8906C88.4231 48.7819 98.3184 44.9946 108.261 48.1097C110.932 48.9429 113.303 50.3064 115.391 52.1906Z" fill="#E500A0"/>
<path d="M48.0285 60.3955C48.4714 60.3955 48.9238 60.3955 49.3667 60.3669C50.8557 60.2718 51.1291 59.7296 50.4505 58.3028C50.9594 57.637 51.8171 57.7511 52.4673 57.3896C53.3815 57.5609 54.3239 57.6465 55.125 58.2077C55.4266 58.8355 56.0109 58.9306 56.6046 58.9877C58.6403 59.8818 59.6769 61.6416 60.0256 63.6772C60.4968 66.4262 60.3554 69.2133 59.4507 71.9052C59.2057 72.6281 58.8947 73.3035 58.1313 73.6364C55.0684 76.0715 53.2872 76.5091 49.7343 74.4354C46.2473 70.8779 46.7185 66.5594 47.4442 62.2028C47.5478 61.5845 47.8211 60.9852 48.0096 60.386L48.0285 60.3955Z" fill="#0E4BF3"/>
<path d="M107.364 59.7374C107.671 59.8409 107.978 59.9444 108.284 60.048C111.574 59.8033 114.613 61.3371 117.864 61.3277C118.056 61.3653 118.238 61.4406 118.411 61.5347C118.593 61.6664 118.641 61.8264 118.564 62.0334C120.885 65.1575 121.307 68.5544 120.041 72.1865H120.031C118.938 72.5818 118.324 73.551 117.509 74.2755C114.69 76.2233 111.593 75.8752 108.476 75.3388C107.795 75.2259 107.134 74.9812 106.463 74.8025C106.165 74.0497 106.75 73.6262 107.134 73.1463C110.058 69.5142 110.279 65.0728 107.709 61.2618C107.393 60.8007 106.884 60.3679 107.373 59.728L107.364 59.7374Z" fill="#FDFEFD"/>
<path d="M118.375 61.825H118.213L118.062 61.7967C117.474 61.4576 116.82 61.7402 116.204 61.6083C115.626 61.4765 115.066 61.2975 115.057 60.5533C115.057 59.8939 115.37 59.5924 116.024 59.3569C117.474 58.8106 118.981 58.5845 120.488 58.3396C127.076 54.6846 133.769 51.1709 139.39 46.037C140.67 44.8689 142.006 43.7479 143.371 42.6646C144.225 41.9958 145.201 41.1197 146.272 42.203C147.267 43.2109 146.613 44.266 145.988 45.1797C143.969 48.1188 141.362 50.5021 138.698 52.8382C134.091 56.8795 128.498 59.1309 122.944 61.4576C122.744 61.5424 122.479 61.4859 122.252 61.4953C120.943 61.4482 119.73 62.5315 118.365 61.825H118.375Z" fill="#0D215D"/>
<path d="M121.647 63.1C125.386 61.3832 129.434 60.8425 133.38 59.9699C137.006 59.1637 140.624 58.3954 143.669 56.0622C144.503 55.7017 145.272 55.1801 146.134 54.8671C146.696 54.6584 147.296 54.592 147.661 55.199C147.989 55.7492 147.633 56.1855 147.249 56.5554C146.556 57.2383 145.937 58.0066 145.122 58.5472C142.882 61.4401 139.771 62.8628 136.369 63.688C132.564 64.6175 128.685 65.1202 124.768 65.2056C124.009 65.5091 123.212 65.3953 122.444 65.3289C120.944 65.1961 120.672 64.3804 121.638 63.0905L121.647 63.1Z" fill="#0E225D"/>
<path d="M55.1981 58.0492C54.2887 58.0492 53.3409 58.1716 52.6133 57.4371C50.5263 57.0228 49.3871 55.5067 48.3819 53.8682C47.0991 51.7871 45.9886 49.6495 46.3332 47.0882C46.4673 44.8282 46.2471 42.5588 46.7545 40.3271C47.2331 39.4042 47.0991 38.359 47.3672 37.3985C47.5204 36.8523 47.6831 36.4097 48.3245 36.3532C49.0808 36.2873 49.0425 36.9088 49.2435 37.3702C49.7222 38.4626 49.2244 39.6491 49.6647 40.732C50.1434 42.2481 49.7222 43.896 50.4019 45.3744C50.3253 47.7756 51.857 49.6307 52.7186 51.7024C53.3409 53.209 54.2025 54.6215 55.0162 56.0434C55.3992 56.712 55.2842 57.3712 55.2172 58.0492H55.1981Z" fill="#10205D"/>
<path d="M59.472 43.2978C59.3932 46.9252 59.344 50.5527 58.7339 54.1418C58.6355 54.6984 59.0783 55.6676 58.1533 55.7156C57.248 55.7636 56.8151 54.9191 56.5297 54.113C55.7228 51.8674 55.6736 49.5259 55.6441 47.1939C55.6244 45.908 55.6244 44.6221 55.6146 43.3266C55.9983 41.2441 56.4805 39.2001 57.8877 37.4919C58.3305 37.1273 58.6651 36.4459 59.3736 36.7626C60.0231 37.0601 60.1017 37.6359 59.7475 38.25C59.531 39.9198 59.1768 41.5896 59.4818 43.2882L59.472 43.2978Z" fill="#181F60"/>
<path d="M46.3523 47.3804C46.991 49.6072 47.4199 51.8527 48.7734 53.8728C49.8219 55.4513 51.2993 56.4567 52.6147 57.6969C52.1381 58.6553 51.1754 58.1385 50.4605 58.3922C48.3063 55.9305 45.8662 53.6849 44.3888 50.6971C44.1505 50.2179 44.0457 49.7387 43.9313 49.2501C44.7415 48.6206 45.5517 48.0005 46.3619 47.371L46.3523 47.3804Z" fill="#DC049F"/>
<path d="M120.404 58.3563C119.191 59.1348 117.708 59.1165 116.412 59.6569C115.964 59.8493 115.414 59.6936 115.395 60.4447C115.376 61.1958 115.964 61.1774 116.412 61.3332C116.934 61.5072 117.578 61.1958 118.007 61.727C115.917 61.727 113.809 61.8827 112.009 60.4447C111.487 60.0325 110.796 60.4996 110.172 60.4447C109.556 60.3989 108.903 60.5454 108.381 60.0874C112.391 60.289 116.057 58.9058 119.769 57.7242C119.294 58.5853 120.124 58.2097 120.394 58.3563H120.404Z" fill="#6E538F"/>
<path d="M85.1106 57.7242C85.2798 59.1839 84.114 60.4611 84.537 61.988C85.1106 61.7864 85.167 60.9893 85.7969 60.8933C86.1636 61.335 85.9756 61.7768 85.7593 62.1801C84.8756 63.8415 84.6969 65.57 85.2422 67.385C85.3738 67.8268 85.4773 68.2973 85.1106 68.691C84.4055 68.4126 84.3961 68.8351 84.3961 69.3729C84.3961 71.0246 84.8379 72.5803 85.3832 74.1072C85.5713 74.645 85.9285 75.1348 85.8157 75.759C84.4713 74.1648 84.2362 72.1578 83.9824 70.218C83.4841 66.3671 83.5123 62.5258 84.5277 58.7422C84.6311 58.3484 84.7439 57.9451 85.1294 57.7242H85.1106Z" fill="#EB7CCD"/>
<path d="M39.8979 52.7128C40.7425 54.3251 41.7339 55.8223 42.8263 57.2619C43.0375 57.5498 43.5424 57.8473 43.0558 58.2408C42.7345 58.5096 42.3031 58.3944 42.0002 58.0681C40.8343 56.8012 39.494 55.6975 38.5851 54.1812C39.0258 53.6917 39.4572 53.2022 39.8887 52.7128H39.8979Z" fill="#C90997"/>
<path d="M49.5295 40.6818C48.8549 39.7088 49.3175 38.5063 48.8357 37.4873C48.6815 37.1477 48.7586 36.6612 48.1611 36.7162C47.6793 36.7621 47.5348 37.1293 47.4384 37.5332C47.2071 38.4695 47.3709 39.5068 46.6 40.2963C46.6964 38.442 47.0433 36.6245 47.4962 34.8253C47.6215 34.3479 47.7853 33.6962 48.3732 33.6778C49.1152 33.6595 48.9995 34.4122 49.038 34.8528C49.1826 36.7989 49.8089 38.7082 49.5391 40.691L49.5295 40.6818Z" fill="#657095"/>
<path d="M145.259 58.7264C145.877 58.0227 146.504 57.3189 147.122 56.6053C147.435 56.2534 147.891 55.8722 147.511 55.3737C147.198 54.9534 146.656 55.1098 146.2 55.2271C145.364 55.4421 144.737 56.2437 143.787 56.1459C145.098 55.0414 146.599 54.3278 148.205 53.8391C148.594 53.7218 149.06 53.5947 149.335 53.9466C149.63 54.3278 149.364 54.7481 149.107 55.0707C147.986 56.4685 146.932 57.9445 145.25 58.7167L145.259 58.7264Z" fill="#515E88"/>
<path d="M121.572 63.0755C120.877 64.3983 121.419 64.9704 122.884 65.0062C123.503 65.024 124.131 65.0508 124.749 65.0687C123.712 65.5603 122.59 65.3726 121.505 65.3548C120.62 65.3369 120.106 64.8453 120.116 63.9961C120.135 62.8967 119.545 62.2978 118.461 62.0476C118.432 61.9582 118.413 61.8688 118.404 61.7794C119.716 61.833 120.963 61.1895 122.304 61.4666C121.981 61.5649 121.667 61.6811 121.343 61.7436C120.934 61.8241 120.554 61.8598 120.525 62.3872C120.487 63.1648 121.086 63.0397 121.581 63.0844L121.572 63.0755Z" fill="#6E538F"/>
<path d="M59.7151 38.3515C59.7058 36.7041 58.8523 37.1018 57.9617 37.6036C58.5369 36.3538 59.5295 35.9467 60.9675 36.0224C60.5129 36.8745 60.114 37.613 59.7244 38.3515H59.7151Z" fill="#848BA7"/>
<path d="M107.495 59.7205C107.532 59.9296 107.495 60.1957 107.617 60.3573C111.137 65.0429 110.846 70.1181 106.798 74.4711C106.685 74.5851 106.666 74.7847 106.6 74.9463C105.584 74.8132 104.878 75.6876 103.861 75.7446C101.48 75.8777 99.4937 75.0318 97.6581 73.6347C95.9638 72.7033 95.4179 71.0305 95.079 69.3103C94.5331 66.554 94.5237 63.7788 95.3802 61.0511C95.7379 59.9201 96.2462 58.8936 97.3946 58.3614C100.011 56.9167 102.647 57.2494 105.292 58.2758C105.706 59.2643 106.864 59.0742 107.495 59.711V59.7205Z" fill="#0E4BF3"/>
<path d="M58.1531 73.386C60.9414 68.2012 60.4439 63.4989 56.623 58.8156C58.5475 58.4844 60.4626 58.0776 62.3965 57.8505C65.7856 57.4437 68.9399 57.9262 71.3714 60.6889C71.6718 61.0295 72.0755 61.285 72.4417 61.5594C74.8637 63.3949 75.8119 65.7696 75.0891 68.1634C74.3099 70.7274 72.0755 72.4493 69.1183 72.6291C67.1656 72.7427 65.2129 72.7332 63.2509 72.7521C61.5235 72.771 59.8994 73.6225 58.1438 73.3766L58.1531 73.386Z" fill="#FEFEFE"/>
<path d="M97.4357 58.3915C95.1384 61.255 95.0044 64.5584 95.3586 67.9741C95.5692 70.0328 96.4402 71.8015 97.7037 73.4204C95.0236 73.2613 92.3817 72.9057 89.8164 72.0916C87.8255 71.4552 86.1408 70.4071 85.0209 68.6198C83.8818 65.9621 84.2264 63.4354 85.7196 61.0117C87.2224 59.4115 89.1272 58.6535 91.3096 58.5506C93.3485 58.457 95.3968 58.4383 97.4357 58.3915Z" fill="#FDFDFE"/>
<path d="M117.404 74.4228C118.017 73.4502 118.026 71.6672 119.742 72.1738C119.271 73.3388 118.462 74.048 117.404 74.4228Z" fill="#FBFBFB"/>
<path d="M285.901 139.918C286.373 143.231 285.759 147.166 285.108 150.987C283.674 159.339 281.486 167.473 277.948 175.305C272.976 186.317 265.475 195.225 256.644 203.161C252.588 206.804 247.597 208.993 242.587 211.022C237.388 213.126 231.973 214.221 226.35 214.73C221.642 215.155 216.934 215.73 212.236 215.693C208.302 215.664 204.254 215.589 200.443 214.409C194.64 212.616 189.074 210.238 183.743 207.257C176.96 203.463 171.441 198.264 166.506 192.385C163.77 189.12 161.082 185.779 159.308 181.844C158.402 179.834 157.506 177.806 157.487 175.531C157.478 174.267 158.034 173.956 159.1 174.616C161.28 175.956 163.233 177.589 164.903 179.514C170.752 186.289 177.073 192.545 184.649 197.395C189.149 200.283 194.008 202.434 199.065 204.227C204.047 205.992 209.122 206.351 214.283 206.039C219.802 205.709 225.322 205.369 230.803 204.69C234.907 204.18 238.558 202.17 242.257 200.377C249.106 197.056 253.767 191.432 258.399 185.675C262.305 180.816 265.192 175.39 267.664 169.747C269.079 166.501 270.004 163.056 270.843 159.574C272.381 153.186 273.296 146.722 273.23 140.192C273.193 136.163 273.164 132.077 272.627 128.085C271.287 117.979 267.136 109.194 259.428 102.352C255.012 98.4361 249.842 95.7373 244.342 93.6047C240.907 92.2742 237.388 91.255 233.822 90.3586C233.322 90.2359 232.794 90.2076 232.275 90.1982C228.407 90.151 224.557 89.8301 220.67 90.0472C213.547 90.4529 207.358 92.8592 202.16 97.7944C196.31 103.343 191.999 109.864 189.338 117.507C187.734 122.121 186.574 126.811 185.819 131.643C185.017 136.842 184.696 142.061 184.696 147.288C184.696 154.111 186.819 160.32 190.64 165.972C192.98 169.435 195.527 172.71 198.961 175.201C202.669 177.89 206.811 179.665 211.047 181.363C215.198 183.033 219.416 182.807 223.595 182.439C229.378 181.929 234.001 178.834 237.794 174.588C242.219 169.643 246.342 164.425 248.738 158.15C250.276 154.12 251.719 150.025 250.776 145.495C250.304 143.221 250.521 140.843 249.965 138.512C248.842 133.794 246.578 129.708 243.049 126.557C240.162 123.98 237.19 121.357 233.426 119.894C228.227 117.885 223.35 118.356 218.529 121.046C213.755 123.697 210.962 127.802 209.528 132.917C208.188 137.663 208.613 142.447 209.387 147.251C209.773 149.628 210.368 151.874 211.585 153.96C213.623 157.451 218.359 159.707 222.35 159.159C223.831 158.961 225.359 159.027 226.85 158.904C230.011 158.64 231.322 156.857 231.728 154.196C232.143 151.421 231.435 148.77 229.728 146.448C228.369 144.58 224.038 143.646 222.472 145.241C221.472 146.26 221.935 147.911 222.397 149.289C222.68 150.138 223.454 150.751 223.538 151.714C223.699 153.403 222.614 154.271 220.982 153.743C217.529 152.629 216.481 149.761 215.878 146.637C214.576 139.918 220.661 136.993 225.265 137.191C230.369 137.408 234.275 139.664 236.351 144.438C238.388 149.128 238.143 156.63 233.879 160.688C232.379 162.113 230.614 162.972 228.482 163.207C226.105 163.472 223.765 164.057 221.397 164.434C217.198 165.114 213.698 163.377 210.236 161.292C205.792 158.621 203.839 154.422 202.556 149.676C201.462 145.609 200.763 141.485 200.669 137.295C200.546 131.652 202.745 126.726 205.82 122.112C209.056 117.243 213.67 114.185 218.944 112.015C220.085 111.543 221.35 111.241 222.576 111.166C226.312 110.949 230.077 110.685 233.728 111.789C236.369 112.591 238.936 113.685 241.143 115.346C244.361 117.762 247.785 119.989 250.436 123.065C253.937 127.123 256.493 131.69 257.626 137.021C258.333 140.343 258.805 143.665 258.824 147.062C258.861 152.469 257.371 157.555 255.22 162.386C251.578 170.587 246.134 177.532 239.417 183.458C236.436 186.091 233.001 187.855 229.133 188.969C224.057 190.441 218.897 190.526 213.764 190.063C209.887 189.714 206.235 188.082 202.641 186.553C196.169 183.798 190.753 179.598 186.366 174.163C182.224 169.039 178.62 163.585 176.818 157.102C174.828 149.949 174.677 142.646 175.092 135.361C175.299 131.614 175.649 127.821 176.271 124.075C178.026 113.582 181.394 103.758 188.074 95.2938C191.961 90.3586 196.376 85.999 201.933 82.9416C205.198 81.1392 208.641 79.8653 212.264 78.8934C215.576 78.0063 218.925 77.9592 222.246 77.4496C226.737 76.7702 231.133 77.1665 235.501 77.7893C238.841 78.2611 242.115 79.1765 245.37 80.1956C250.238 81.7243 254.946 83.5455 259.38 86.0178C264.928 89.113 269.674 93.1423 273.683 98.1436C277.4 102.767 280.25 107.825 282.221 113.355C283.231 116.186 283.995 119.149 284.486 122.112C285.429 127.793 286.005 133.521 285.901 139.918Z" fill="#0E4BF3"/>
</g>
</g>
<path d="M164.905 154.888C162.849 137.729 162.091 120.5 162.563 103.237C162.808 94.2694 162.825 85.2986 163.063 76.331C163.392 64.0293 163.722 51.7275 164.511 39.4492C165.15 29.4734 166.924 19.5849 166.992 9.55527C167.006 7.53186 166.951 5.52863 166.526 3.55227C166.146 1.79776 165.139 1.31376 163.484 2.07001C163.076 2.25824 162.77 2.35907 162.363 2.15404C160.374 1.15914 158.195 1.10873 156.057 1.06839C147.162 0.907058 138.264 0.775973 129.365 0.742362C112.5 0.675139 95.6339 0.772612 78.7716 0.631444C67.6026 0.537332 56.4539 0.705389 45.3257 1.72381C37.0526 2.48007 28.8135 3.71025 20.4656 3.47161C15.4487 3.46489 10.4726 3.76067 5.6189 5.16898C3.75967 5.71013 2.36949 6.14035 1.55373 8.52004C0.360694 12.0089 -0.183142 15.4238 0.0547861 18.99C0.479658 25.4165 0.850146 31.843 1.17985 38.2729C1.90043 52.2821 2.59382 66.2947 3.16485 80.3106C3.44696 87.2043 3.6543 94.1048 4.04518 100.992C4.57542 110.349 5.25521 119.7 5.21103 129.081C5.17364 137.305 4.78956 145.517 4.23892 153.721C4.11656 155.55 3.84464 157.405 4.6298 159.17C4.9833 159.96 4.32729 160.003 3.89223 160.218C3.06628 160.622 1.999 160.914 2.16215 162.08C2.3219 163.23 3.49115 163.196 4.33409 163.492C4.66039 163.606 5.01389 163.637 5.35718 163.707C10.3367 164.756 15.391 164.897 20.4554 164.917C38.5448 164.991 56.6341 165.048 74.7234 165.102C85.889 165.136 97.0581 165.139 108.22 165.579C123.733 166.191 139.243 166.884 154.756 167.559C157.767 167.69 160.547 167.441 163.1 165.428C165.201 163.771 166.2 162.228 165.724 159.637C165.432 158.054 165.095 156.474 164.905 154.881V154.888ZM160.87 11.6022C159.079 21.4537 158.233 31.4262 156.968 41.3449C155.901 49.731 155.021 58.1338 154.324 66.5568C152.934 83.3794 153.233 100.232 153.274 117.085C153.291 124.563 153.379 132.039 153.668 139.51C153.896 145.426 154.157 151.352 155.646 157.133C155.983 158.434 155.735 158.965 154.232 158.995C152.366 159.035 150.514 159.008 148.658 158.847C136.727 157.825 124.79 156.908 112.86 155.913C99.8792 154.834 86.8476 154.531 73.8125 155.251C68.3571 155.553 62.878 155.435 57.4192 155.694C43.4223 156.356 29.4287 157.089 15.4793 158.464C13.9328 158.615 13.807 158.36 13.9532 156.82C14.5854 150.122 14.7757 143.389 14.8437 136.66C14.9729 124.167 14.0314 111.724 13.1748 99.2708C12.6174 91.1839 12.3863 83.0735 12.026 74.9731C11.4549 62.1101 11.0199 49.2571 9.42575 36.4377C8.34828 27.7525 6.79835 19.1749 5.19403 10.5939C4.93571 9.21243 5.27901 9.08135 6.52303 9.16874C8.42986 9.29982 10.3537 9.20235 12.2673 9.20235C15.1156 8.96371 17.9606 8.96707 20.7953 9.36705C27.6442 10.3317 34.5068 9.51494 41.3591 9.42755C53.5138 9.2763 65.672 9.14521 77.8267 9.4746C91.0317 9.83088 104.23 9.65947 117.425 9.0074C125.864 8.59062 134.284 8.91665 142.699 9.56199C145.422 9.77038 148.175 9.90483 150.891 9.74013C154.086 9.54519 157.108 10.5199 160.235 10.6745C160.901 10.7081 160.966 11.0476 160.867 11.5921L160.87 11.6022Z" fill="#F5F4F4"/>
<path d="M164.905 154.97C162.849 137.812 162.091 120.583 162.563 103.32C162.808 94.3522 162.825 85.3813 163.063 76.4138C163.392 64.112 163.722 51.8103 164.511 39.532C165.15 29.5561 166.924 19.6677 166.992 9.63803C167.006 7.61463 166.951 5.61139 166.526 3.63504C166.146 1.88052 165.139 1.39652 163.484 2.15278C163.076 2.341 162.77 2.44183 162.363 2.2368C160.374 1.24191 158.195 1.19149 156.057 1.15116C147.162 0.989821 138.264 0.858737 129.365 0.825125C112.5 0.757903 95.6339 0.855376 78.7716 0.714208C67.6026 0.620096 56.4539 0.788153 45.3257 1.80658C37.0526 2.56283 28.8135 3.79301 20.4656 3.55437C15.4487 3.54765 10.4726 3.84343 5.6189 5.25175C3.75967 5.79289 2.36949 6.22312 1.55373 8.6028C0.360694 12.0917 -0.183142 15.5066 0.0547861 19.0728C0.479658 25.4993 0.850146 31.9258 1.17985 38.3556C1.90043 52.3648 2.59382 66.3774 3.16485 80.3934C3.44696 87.2871 3.6543 94.1875 4.04518 101.074C4.57542 110.432 5.25521 119.783 5.21103 129.164C5.17364 137.388 4.78956 145.6 4.23892 153.804C4.11656 155.633 3.84464 157.488 4.6298 159.252C4.9833 160.042 4.32729 160.086 3.89223 160.301C3.06628 160.704 1.999 160.997 2.16215 162.163C2.3219 163.313 3.49115 163.279 4.33409 163.575C4.66039 163.689 5.01389 163.719 5.35718 163.79C10.3367 164.839 15.391 164.98 20.4554 165C38.5448 165.074 56.6341 165.131 74.7234 165.185C85.889 165.218 97.0581 165.222 108.22 165.662C123.733 166.274 139.243 166.966 154.756 167.642C157.767 167.773 160.547 167.524 163.1 165.511C165.201 163.854 166.2 162.311 165.724 159.72C165.432 158.137 165.095 156.557 164.905 154.964V154.97ZM160.87 11.685C159.079 21.5365 158.233 31.509 156.968 41.4277C155.901 49.8137 155.021 58.2166 154.324 66.6396C152.934 83.4621 153.233 100.315 153.274 117.168C153.291 124.646 153.379 132.121 153.668 139.593C153.896 145.509 154.157 151.434 155.646 157.216C155.983 158.516 155.735 159.047 154.232 159.078C152.366 159.118 150.514 159.091 148.658 158.93C136.727 157.908 124.79 156.99 112.86 155.996C99.8792 154.917 86.8476 154.614 73.8125 155.333C68.3571 155.636 62.878 155.518 57.4192 155.777C43.4223 156.439 29.4287 157.172 15.4793 158.547C13.9328 158.698 13.807 158.442 13.9532 156.903C14.5854 150.204 14.7757 143.472 14.8437 136.743C14.9729 124.25 14.0314 111.807 13.1748 99.3536C12.6174 91.2667 12.3863 83.1563 12.026 75.0559C11.4549 62.1928 11.0199 49.3398 9.42575 36.5204C8.34828 27.8352 6.79835 19.2576 5.19403 10.6766C4.93571 9.2952 5.27901 9.16411 6.52303 9.2515C8.42986 9.38259 10.3537 9.28512 12.2673 9.28512C15.1156 9.04647 17.9606 9.04984 20.7953 9.44981C27.6442 10.4145 34.5068 9.5977 41.3591 9.51031C53.5138 9.35906 65.672 9.22797 77.8267 9.55737C91.0317 9.91365 104.23 9.74223 117.425 9.09017C125.864 8.67339 134.284 8.99942 142.699 9.64476C145.422 9.85315 148.175 9.98759 150.891 9.8229C154.086 9.62795 157.108 10.6027 160.235 10.7573C160.901 10.7909 160.966 11.1304 160.867 11.6749L160.87 11.685Z" fill="E600A1"/>
<defs>
<clipPath id="clip0_1218_2025">
<rect width="156.301" height="155.633" fill="white" transform="translate(5.34613 6.54163)"/>
</clipPath>
<clipPath id="clip1_1218_2025">
<rect width="282.838" height="307.794" fill="white" transform="translate(-114.049 -27.4406)"/>
</clipPath>
</defs>
</svg>
