<svg width="748" height="501" viewBox="0 0 748 501" fill="none" xmlns="http://www.w3.org/2000/svg">
<path d="M660.42 299.162C662.143 295.474 663.234 292.112 662.737 288.169C662.358 285.135 665.174 286.59 666.457 286.93C674.359 289.023 682.393 290.111 690.451 291.261C702.169 292.934 711.929 287.37 711.941 275.783C711.951 273.628 713.23 273.129 715.049 273.494C720.679 274.667 726.254 273.737 731.845 273.229C732.492 272.756 733.139 272.283 733.786 271.81C734.258 271.588 734.733 271.337 735.205 271.116L735.196 271.205C738.173 267.256 740.514 263.092 740.171 257.937C740.02 255.885 741.37 255.274 743.052 254.936C745.498 254.437 747.998 254.003 750.403 253.319C757.871 251.146 762.688 246.186 763.796 238.543C764.496 233.734 766.663 233.924 770.111 235.054C777.011 237.284 784.009 238.836 791.345 237.966C793.044 237.75 794.796 237.599 796.427 237.166C800.49 236.083 803.726 233.717 804.258 229.37C804.779 225.141 802.137 222.266 798.482 220.516C785.747 214.428 772.774 208.914 759.345 204.641C748.585 201.21 740.445 205.561 738.228 214.977C737.225 219.247 738.634 223.343 739.993 227.345C741.738 232.553 741.262 233.403 735.754 233.68C731.841 233.881 727.971 233.367 724.119 232.375C720.94 231.542 717.701 231.003 714.361 231.741C710.011 232.705 706.912 234.905 705.908 239.474C704.853 244.247 706.191 248.157 710.375 250.889C712.705 252.414 715.067 253.912 717.228 255.929C710.656 256.068 704.442 254.746 698.369 252.331C694.314 250.69 690.581 248.243 686.058 247.962C685.234 248.118 684.409 248.274 683.585 248.429C677.009 253.898 677.278 258.896 684.265 263.8C687.844 266.291 691.284 268.977 694.688 271.719C695.741 272.546 697.055 273.757 696.421 275.28C695.68 276.971 693.962 276.197 692.658 276.064C679.683 274.683 667.248 271.23 655.365 265.887C653.247 264.923 651.023 264.127 648.866 263.249C646.782 269.894 641.631 270.776 635.718 270.324C635.226 273.687 636.231 276.754 637.571 279.766C638.646 282.151 637.832 282.787 635.435 282.513C629.747 281.903 624.051 281.383 618.328 280.83C604.189 282.055 592.057 276.507 580.335 269.593C579.571 269.156 578.451 268.682 578.868 267.527C579.366 266.17 580.658 266.422 581.703 266.738C584.088 267.43 586.536 268.099 588.831 269.081C595.712 272.088 602.958 272.976 610.338 273.428C611.915 273.529 613.477 273.478 614.946 272.879C616.729 272.133 618.47 271.202 618.631 269.032C618.793 266.563 616.463 266.805 615 266.177C610.317 264.233 605.946 261.871 603.236 257.313C594.422 255.936 585.669 254.265 577.271 251.164C572.913 249.552 569.153 247.073 566.858 242.857C566.028 241.305 565.459 239.54 566.754 237.995C567.946 236.589 569.636 236.162 571.473 236.649C579.867 238.911 588.266 236.713 596.669 236.82C599.512 236.84 598.878 234.829 598.274 233.121C596.749 228.683 594.949 224.308 593.642 219.802C590.269 208.229 596.351 200.554 608.462 201.309C617.985 201.89 627.505 202.5 637.058 201.617C641.713 201.193 644.054 199.664 643.848 194.343C643.579 187.279 648.449 182.983 655.695 183.572C664.901 184.33 674.07 185.444 683.343 185.55C685.616 185.572 687.959 186.38 690.116 187.258C691.929 187.982 693.966 188.848 694.033 191.43C694.076 193.95 692.736 195.64 690.712 196.692C688.941 197.619 686.986 198.288 685.02 198.777C678.474 200.416 671.873 201.72 665.071 201.476C662.596 201.373 661.737 202.454 661.508 204.706C660.608 213.538 654.875 218.075 647.06 220.722C640.3 222.998 633.285 223.362 626.227 223.571C620.188 223.764 620.2 223.945 622.087 229.528C624.734 237.343 624.744 244.891 620.062 252.05C624.056 256.349 628.577 259.295 635.169 257.781C634.519 255.349 632.713 253.967 630.845 252.609C626.553 249.477 625.352 246.27 627.276 243.262C629.131 240.337 632.365 240.337 637.245 242.99C640.905 244.98 644.577 247.15 649.057 246.679C652.366 241.236 654.65 235.57 653.587 228.963C653.141 226.283 655.348 226.957 656.768 227.131C664.363 228.115 671.996 228.443 679.613 227.452C681.463 227.222 683.249 226.745 685.084 226.363C684.615 225.387 684.115 224.407 683.708 223.408C681.589 218.341 684.054 214.13 689.535 214.119C696.333 214.123 703.167 214.64 709.967 214.913C715.196 205.324 715.478 195.202 713.002 184.828C711.41 183.109 709.626 181.52 708.292 179.617C701.554 169.917 691.831 165.423 680.596 163.71C673.932 162.701 667.171 162.342 660.494 161.452C649.949 160.019 639.225 159.765 629.008 156.298C619.919 153.216 611.634 148.42 603.223 143.97C588.958 136.438 574.604 129.196 559.156 124.448C551.578 122.119 543.985 119.938 536.734 116.744C525.816 111.919 515.298 106.116 504.154 102.046C486.338 95.5596 467.524 94.1819 448.717 93.3142C442.88 96.5226 437.12 99.8586 431.207 102.939C424.409 106.469 418.874 111.415 414.277 117.445C412.135 120.251 409.478 122.227 406.221 123.631C389.512 130.973 377.255 143.409 367.212 158.227C361.751 166.265 358.373 175.323 354.882 184.311C351.666 205.304 356.142 225.733 359.626 246.211C361.823 259.042 366.822 271.11 370.466 283.549C373.029 285.726 374.609 288.732 376.151 291.524C381.472 301.319 389.447 308.869 397 316.736C403.092 323.076 411.308 325.32 419.52 327.594C429.653 330.423 440.098 331.367 450.374 333.372C456.392 334.554 462.524 334.041 468.61 333.374C464.51 327.177 461.797 320.013 456.052 314.966C453.88 313.068 454.616 309.369 451.529 308.217C449.244 314.482 446.879 315.948 440.555 314.824C434.64 313.803 429.092 311.83 423.827 308.838C420.768 307.119 417.803 305.649 413.762 306.226C409.812 306.782 410.581 303.057 410.939 300.428C389.61 288.164 373.889 271.111 366.249 247.335C364.841 242.939 363.58 238.259 366.026 233.657C366.766 232.265 367.288 230.672 369.256 230.752C371.221 230.863 371.411 232.529 372.105 233.947C375.725 241.323 379.346 248.699 385.834 254.091L385.769 254.145C383.247 245.383 379.19 237.005 378.579 227.719C378.311 223.589 377.631 219.388 379.126 215.288C379.746 213.614 380.463 212.16 382.13 211.372C381.014 205.868 379.563 200.42 380.412 194.727C380.713 192.661 380.85 190.43 383.403 190.061C386.107 189.677 387.408 191.607 388.02 193.825C390.714 203.832 394.633 213.274 400.142 222.1C402.123 225.297 404.269 228.33 406.801 231.103C408.124 232.526 409.034 234.176 407.901 236.186C415.736 243.632 424.613 249.388 434.524 253.511C434.794 253.21 435.097 252.881 435.367 252.579C431.838 248.716 428.341 244.826 424.744 241.046C416.442 232.295 408.2 223.55 402.694 212.628C400.154 207.578 400.468 203.029 403.641 200.687C407.364 197.952 412.04 198.787 416.066 203.36C424.949 213.458 435.765 220.459 449.101 223.884C443.705 217.764 438.339 211.648 432.943 205.528C422.369 202.924 411.918 191.169 410.621 180.376C410.423 178.799 410.55 177.255 411.383 175.842C412.034 174.741 412.878 173.809 414.289 173.773C415.789 173.746 416.495 174.746 416.967 175.992C417.713 178.074 418.718 179.973 420.491 181.382C424.93 174.258 431.721 172.554 437.236 178.386C445.401 187.004 455.653 191.013 466.398 194.593C477.084 198.167 487.644 202.087 498.252 205.833C499.843 206.384 501.547 206.708 503.765 206.395C497.218 200.996 490.701 195.601 484.156 190.173C483.436 193.424 480.961 193.621 478.308 193.5C472.643 193.253 467.796 190.573 462.891 188.157C452.798 183.176 443.808 176.78 437.182 167.451C435.402 164.934 434.203 162.296 435.187 159.103C435.587 157.826 436.291 156.79 437.638 156.507C439.049 156.172 440.02 156.93 440.741 158.081C444.309 163.625 449.632 167.222 454.958 170.789C455.376 161.399 459.776 157.595 469.195 158.614C476.213 159.389 482.462 162.122 488.224 166.122C499.663 174.055 512.215 179.586 525.455 183.66C526.617 184.018 527.852 184.234 529.986 184.75C526.629 180.366 522.379 178.286 519.237 175.031C508.659 174.523 499.549 170.181 491.296 163.89C483.821 158.188 476.552 152.237 469.218 146.339C468.389 145.656 467.634 144.83 467.008 143.928C466.251 142.833 466.084 141.528 466.916 140.415C467.852 139.163 469.07 139.556 470.314 139.983C476.772 142.138 482.267 146.111 488.059 149.516C491.512 144.717 496.145 143.333 502.005 143.72C515.271 144.592 527.256 149.526 539.163 154.632C548.86 158.794 558.826 161.786 569.303 163.003C572.468 163.385 575.572 163.192 578.665 162.819C583.002 162.272 586.534 163.47 588.83 167.088C591.124 170.736 590.595 174.754 588.442 178.248C583.59 186.198 575.792 188.668 567.077 188.379C563.168 188.25 562.292 188.61 563.482 192.804C566.266 202.52 559.732 210.509 549.645 210.17C546.065 210.045 542.506 209.413 538.95 208.751C537.068 208.41 535.835 208.164 536.228 210.78C538.357 224.861 526.574 235.878 508.042 232.313C506.368 231.993 504.664 231.67 502.987 231.379C511.571 242.944 505.392 260.97 491.561 263.873C487.949 264.643 486.634 265.797 486.992 269.337C487.126 270.668 486.445 272.066 486.128 273.411C498.574 266.175 509.786 257.226 521.315 248.698C527.531 244.121 528.326 243.663 533.883 249.08C540.121 255.165 548.549 257.97 554.873 263.795C557.613 264.823 560.065 266.33 562.264 268.261C567.046 270.695 571.829 273.128 576.612 275.562C579.779 276.813 582.975 278.067 586.144 279.288C593.109 281.764 600.313 282.768 607.661 282.947C610.646 283.042 613.456 283.388 614.675 286.417C615.849 289.291 614.329 291.861 612.627 294.173C612 295.038 611.121 295.727 610.355 296.487C625.546 300.221 640.836 302.976 656.762 302.143C657.171 302.544 656.84 303.139 656.463 303.61C646.555 315.327 638.178 328.189 628.94 340.393C618.07 354.798 602.549 362.529 586.818 369.97C592.992 369.042 599.042 367.263 604.968 365.531C616.363 362.14 624.81 353.598 633.272 345.776C640.414 339.167 645.051 330.386 650.677 322.485C654.803 316.676 658.709 310.666 664.332 306.028C668.028 302.961 672.853 302.045 676.563 299.129C671.299 299.072 666.037 298.985 660.385 298.919L660.42 299.162ZM502.787 131.043C501.5 129.864 499.151 128.816 500.756 126.584C502.254 124.521 504.291 125.686 505.732 126.821C515.323 134.386 526.517 138.851 537.478 143.83C540.111 145.027 542.542 146.742 545.059 148.196C546.33 148.655 547.369 149.329 547.911 151.062C546.034 151.26 544.401 151.423 542.942 150.166C528.522 145.912 514.248 141.404 502.757 131.04L502.787 131.043ZM399.589 141.701C414.263 129.931 430.196 120.504 448.984 116.848C451.976 116.285 456.425 115.241 457.397 118.334C458.302 121.211 453.678 122.507 451.228 123.635C438.405 129.575 425.996 136.157 414.083 143.747C410.273 146.174 406.61 148.915 402.956 151.567C401.436 152.67 399.892 154.01 399.633 155.96C399.213 158.912 397.666 160.281 394.86 159.606C391.705 158.835 391.87 156.037 391.677 154.401C392.361 148.272 395.869 144.706 399.618 141.704L399.589 141.701Z" fill="#032363"/>
<path d="M555.178 333.088C549.138 337.115 542.495 340.301 537.206 345.481C538.979 346.59 540.514 345.339 542.03 344.865C556.727 340.223 570.526 333.514 584.184 326.431C586.967 324.978 589.8 323.619 592.87 322.884C594.035 322.613 595.394 321.913 596.296 323.353C597.017 324.504 596.081 325.457 595.54 326.36C594.345 328.394 592.756 330.179 590.847 331.571C577.017 341.811 561.786 348.764 544.662 351.362C543.9 351.494 543.114 351.563 542.335 351.574C537.058 351.635 536.073 350.427 537.304 345.402C536.228 345.082 535.521 345.849 534.865 346.411C525.643 354.335 515.168 360.455 505.317 367.507C503.411 368.87 501.479 370.2 498.948 369.762C496.683 369.951 494.71 369.331 493.35 367.395C489.787 363.858 486.908 359.792 484.411 355.495C479.819 347.661 474.06 340.696 468.563 333.518C462.479 334.156 456.377 334.672 450.326 333.517C440.05 331.512 429.606 330.568 419.473 327.739C411.263 325.435 403.074 323.223 396.952 316.88C389.399 309.014 381.427 301.434 376.104 291.669C374.564 288.847 372.981 285.871 370.421 283.663C369.73 285.45 371.335 288.218 368.878 289.106C366.547 289.947 364.846 287.827 363.183 286.52C359.912 283.94 357.876 280.409 356.001 276.774C346.693 258.788 343.104 239.347 341.027 219.462C340.727 216.526 340.309 213.579 339.92 210.635C325.401 207.359 315.073 199.689 312.449 183.701C309.26 185.023 307.333 187.192 305.381 189.299C302.286 192.637 299.138 195.91 295.475 198.651C290.779 202.125 285.753 202.961 280.499 200.15C275.246 197.339 273.879 192.528 274.355 186.977C274.542 185.139 274.732 183.272 274.935 181.286C272.54 181.282 271.57 183.16 270.121 184.15C265.521 187.275 260.007 187.611 255.977 184.835C252.087 182.163 250.352 176.566 251.633 171.337C253.21 164.969 256.692 159.305 258.429 152.834C253.291 158 246.666 162.476 244.372 169.13C239.833 182.232 235.741 195.65 234.117 209.529C232.798 220.714 235.153 231.404 240.278 241.359C247.65 255.705 254.387 270.406 263.187 283.969C269.764 294.072 277.139 303.387 287.107 310.781C296.739 317.931 305.26 326.585 315.493 333.137C318.809 335.271 320.126 339.688 323.557 342.163C327.912 345.272 332.635 347.7 337.204 350.471C339.063 351.618 341.164 352.461 341.755 354.887C342.269 355.718 342.584 356.738 343.728 356.975C346.723 361.382 346.198 366.539 346.044 371.285C345.817 378.209 347.46 384.126 351.868 389.366C355.659 390.95 359.149 393.432 363.543 393.22C365.016 393.161 366.631 393.774 367.851 392.372C364.567 390.51 363.989 387.367 363.978 383.652C361.988 384.378 361.551 388.077 358.951 386.554C356.352 385.031 356.846 382.237 357.097 379.777C357.383 376.962 358.168 374.257 359.732 371.841C360.582 370.55 361.515 369.028 363.447 369.764C365.12 370.383 364.996 371.898 364.848 373.35C364.706 374.743 364.564 376.136 364.413 377.618C366.604 377.571 366.433 375.727 367.193 374.727C368.26 373.368 369.165 371.544 371.194 372.2C373.167 372.82 373.166 374.886 373.083 376.585C372.847 382.13 372.837 387.819 367.604 391.568C367.506 391.648 367.665 392.143 367.724 392.448C369.839 393.143 371.411 390.938 373.488 391.419C380.312 383.52 389.792 378.347 395.918 369.658C397.354 367.618 399.818 367.24 402.292 367.642C406.195 366.662 409.711 368.008 413.114 369.583C417.948 371.812 422.912 373.635 428.071 375.029C444.831 379.522 461.844 382.722 478.891 385.866C480.536 386.183 481.49 386.52 482.1 388.469C483.494 393.012 485.35 397.424 487.242 401.779C489.258 406.386 491.773 410.805 496.544 413.058C500.542 414.962 503.834 417.633 506.905 420.701C517.094 423.565 523.165 418.345 527.689 410.092C532.378 401.107 533.205 391.219 534.208 381.38C533.36 376.472 536.477 375.861 540.075 376.108C545.635 376.495 551.126 377.563 556.727 376.966C561.163 376.34 565.63 375.986 570.007 375.055C575.704 373.808 581.528 372.785 586.854 370.183C602.614 362.745 618.134 355.013 628.975 340.606C638.187 328.369 646.591 315.54 656.498 303.823C656.873 303.382 657.203 302.786 656.797 302.356C640.872 303.189 625.584 300.404 610.39 296.7C591.968 308.808 573.499 320.791 555.181 333.059L555.178 333.088ZM273.605 236.669C274.382 234.622 275.211 232.071 277.926 232.468C280.99 232.96 279.518 235.654 279.568 237.516C279.652 239.92 280.291 242.171 281.615 244.163C287.734 253.47 293.025 263.262 298.411 273.004C299.625 275.194 301.062 277.257 302.921 279.003C304.016 280.013 304.885 281.18 303.892 282.696C303.042 283.986 301.627 284.351 300.148 284.171C297.362 283.887 295.148 282.404 293.18 280.556C289.135 276.76 286.001 272.249 283.443 267.377C280.306 261.427 277.234 255.425 274.257 249.372C272.914 246.69 271.976 243.84 272.474 240.716C272.85 239.377 273.113 237.966 273.635 236.672L273.605 236.669ZM252.806 224.788C256.463 225.041 254.077 229.649 254.467 232.294C256.496 245.587 260.421 258.204 267.957 269.482C270.111 272.726 273.669 274.257 276.846 276.287C278.166 277.14 280.587 277.776 279.685 279.87C279.018 281.419 276.831 280.837 275.368 280.508C269.895 279.262 264.889 276.956 261.537 272.242C253.081 260.301 250.524 246.595 249.467 233.461C250.728 229.607 249.833 224.575 252.779 224.756L252.806 224.788ZM309.296 265.219C302.024 257.531 298.703 248.09 296.955 237.91C296.823 237.148 296.875 236.345 296.984 235.577C297.197 233.772 297.903 232.137 299.884 231.8C301.802 231.486 302.635 233.008 303.199 234.533C305.579 240.855 309.004 246.623 312.367 252.416C315.088 257.155 317.711 261.974 322.82 264.74C323.785 265.258 324.694 266.039 324.534 267.31C324.324 268.786 323.111 269.232 321.93 269.65C320.563 270.14 319.181 270.179 317.771 269.915C314.452 269.278 311.654 267.645 309.358 265.195L309.296 265.219ZM327.922 232.29C329.553 231.858 330.096 233.291 330.456 234.465C334.437 247.118 341.157 258.463 347.307 270.109C348.562 272.483 351.061 275.882 348.467 277.534C346.289 278.929 344.283 275.102 342.656 273.139C334.463 263.321 328.724 252.345 326.669 239.589C326.45 238.219 326.292 236.826 326.204 236.218C326.416 234.143 326.475 232.682 327.922 232.29ZM318.606 304.048C318.353 302.705 318.531 301.255 318.703 299.865C318.823 298.68 319.681 297.899 320.897 297.723C322.175 297.524 323.182 298.226 323.458 299.332C325.338 307.339 331.494 312.158 336.838 317.614C338.06 318.846 339.566 320.227 339.135 322.399C330.274 321.197 320.2 312.206 318.636 304.051L318.606 304.048ZM506.117 410.799C504.367 411.219 502.973 410.209 502.154 408.838C499.264 403.992 497.943 398.737 498.967 393.092C499.293 391.358 500.014 389.575 502.166 389.614C504.078 389.659 504.6 391.3 504.914 392.919C505.839 397.654 508.573 401.976 508.178 407.026C508.018 408.597 507.988 410.36 506.084 410.825L506.117 410.799ZM517.687 400.987C518.326 403.239 518.814 405.504 519.361 407.776C519.693 409.217 519.789 410.634 518.157 411.366C516.774 412.004 515.396 411.714 514.168 410.84C511.678 409.119 511.064 401.331 513.173 399.15C513.743 398.549 514.375 398.225 515.225 398.401C516.568 398.747 517.333 399.754 517.687 400.987Z" fill="#004DF8"/>
<path d="M444.887 91.7878C444.555 91.5144 444.256 91.2145 443.925 90.9412L444.008 91.0095C439.846 91.0048 437.016 88.8 434.932 85.4435C432.08 80.811 429.386 76.1046 429.029 70.4984C427.849 68.5517 426.934 66.3623 425.426 64.7114C413.876 52.2755 402.021 40.1977 383.943 37.7573C381.803 39.0665 379.453 37.1502 377.308 38.2193C383.062 42.5785 389.257 46.1442 396.112 48.5194C397.964 49.1572 399.683 50.5003 401.163 51.8488C403.217 53.735 404.437 56.165 403.071 58.9904C401.711 61.7565 399.132 61.7933 396.568 61.3824C389.85 60.3088 383.537 58.1983 377.924 54.2128C376.947 53.5144 376.247 52.1555 374.566 53.9606C369.755 59.1599 365.501 59.1758 360.079 54.491C359.502 53.9831 358.898 53.4425 358.386 52.8813C355.969 50.1496 354.862 51.3244 354.21 54.1926C354.043 54.9542 353.875 55.7157 353.589 56.4651C352.424 59.6703 350.449 62.0144 346.756 61.8179C343.092 61.6243 341.368 59.143 340.476 55.848C339.016 50.4888 338.083 50.244 334.156 54.3956C332.68 55.9521 331.242 57.7221 330.325 59.665C329.48 61.4954 328.523 62.6556 326.509 62.1509C324.026 61.5387 323.52 59.4508 323.885 57.332C324.685 52.7122 327.221 48.9878 330.351 45.5935C331.159 44.7176 332.547 44.32 332.755 42.8738C332.388 42.3573 332.021 41.8408 331.681 41.357C324.71 48.9416 318.198 56.7227 318.438 67.8867C318.457 69.1762 318.273 70.3853 317.11 71.2251L317.169 72.9978C321.742 73.6732 326.016 75.2167 329.927 77.6813C335.068 74.2522 337.966 74.9068 340.861 80.2924C345.57 89.0369 348.194 98.2577 346.512 108.298C346.222 109.975 345.839 111.673 345.314 113.296C344.492 115.788 343.213 118.053 340.269 118.142C337.088 118.208 335.679 115.878 334.69 113.232C334.269 112.081 333.912 110.877 333.526 109.67C330.015 110.63 326.945 114.599 323.11 112.562C316.32 108.965 308.514 109.458 301.642 106.661C297.53 104.985 293.758 104.391 289.906 106.933C281.583 112.793 273.878 119.345 268.1 127.859L268.07 127.856C269.196 128.27 270.202 127.804 271.272 127.584C280.16 125.584 285.194 130.259 283.908 139.351C283.677 141.035 283.152 142.658 282.59 144.937C288.589 142.194 294.447 140.545 298.727 147.03C302.413 152.586 299.435 158.601 299.35 164.431C301.433 165.153 302.503 163.465 303.901 162.679C309.56 159.452 315.377 157.021 322.136 158.578C326.877 159.659 329.734 162.765 331.167 167.223C332.122 170.195 332.89 173.238 333.536 176.299C334.465 180.705 336.834 183.612 341.344 184.61C343.92 171.367 347.682 158.545 354.543 146.757C355.774 144.666 356.629 142.148 359.609 143.17C362.444 144.148 362.401 146.928 361.904 149.154C360.551 155.094 358.702 160.895 357.319 166.833C355.953 172.593 354.615 178.386 354.9 184.404C358.361 175.414 361.769 166.358 367.229 158.32C377.273 143.502 389.533 131.036 406.238 123.725C409.499 122.29 412.152 120.345 414.295 117.538C418.895 111.479 424.426 106.563 431.224 103.033C437.138 99.9519 442.898 96.6159 448.734 93.4075C447.47 92.8893 446.237 92.3446 444.973 91.8265L444.887 91.7878ZM374.905 72.9802C376.995 72.4445 379.057 71.9059 381.147 71.3702C387.826 69.5951 394.174 70.7807 400.186 73.7888C403.888 75.6631 405.96 78.8388 406.331 83.1288C407.755 98.8452 394.346 110.535 379.645 106.403C376.418 107.511 373.724 106.907 371.776 103.984C361.89 100.791 357.128 93.4484 360.267 85.5632C362.68 79.5205 367.565 75.9457 373.865 74.3715L373.767 74.4513C374.144 73.9807 374.554 73.4835 374.931 73.0128L374.905 72.9802Z" fill="#004DF8"/>
<path d="M723.206 217.787C726.385 218.62 730.784 218.949 730.497 223.531C730.191 228.59 725.611 228.573 721.938 228.768C715.223 229.132 708.498 228.716 701.875 227.592C698.606 227.05 697.103 227.406 697.184 231.307C697.386 239.323 693.522 244.918 686.026 247.958C690.549 248.239 694.309 250.718 698.337 252.326C704.377 254.768 710.593 256.06 717.195 255.924C715.035 253.907 712.672 252.409 710.342 250.884C706.162 248.122 704.85 244.245 705.875 239.469C706.877 234.929 709.979 232.7 714.329 231.736C717.668 230.998 720.907 231.538 724.086 232.371C727.909 233.359 731.809 233.876 735.722 233.676C741.23 233.398 741.736 232.551 739.961 227.34C738.605 223.309 737.192 219.242 738.196 214.972C740.413 205.556 748.522 201.202 759.312 204.636C772.738 208.939 785.712 214.453 798.45 220.512C802.105 222.261 804.747 225.136 804.226 229.365C803.693 233.712 800.458 236.078 796.395 237.161C794.734 237.591 793.008 237.775 791.312 237.961C783.974 238.861 776.978 237.279 770.079 235.049C766.627 233.949 764.461 233.758 763.764 238.539C762.656 246.181 757.839 251.141 750.371 253.315C747.962 254.027 745.495 254.435 743.019 254.931C741.338 255.269 740.021 255.854 740.138 257.932C740.481 263.087 738.141 267.251 735.193 271.203C743.487 271.209 751.69 270.637 759.793 268.408C771.807 265.111 784.082 263.965 796.524 264.993C798.661 265.181 801.38 264.949 801.745 267.831C802.101 270.502 800.053 272.09 797.825 273.091C796.256 273.8 794.612 274.351 792.928 274.718C781.019 277.278 769.077 279.865 757.12 282.3C751.34 283.478 745.588 282.922 739.893 281.503C738.989 281.262 738.101 280.872 737.182 280.778C730.869 280.135 730.34 279.452 731.783 273.221C726.195 273.7 720.62 274.629 714.987 273.486C713.168 273.121 711.859 273.617 711.879 275.775C711.87 287.333 702.11 292.896 690.389 291.253C682.331 290.103 674.297 289.015 666.395 286.923C665.112 286.582 662.296 285.127 662.675 288.161C663.172 292.104 662.081 295.467 660.358 299.154C666.04 299.224 671.272 299.308 676.537 299.365C681.359 299.646 686.216 300.171 691.042 300.124C704.925 299.951 718.852 301.1 732.582 298.007C737.332 295.766 742.021 294.716 747.476 295.841C757.622 297.953 768.06 297.189 778.375 297.641C780.551 297.743 782.735 298.055 784.902 298.246C799.964 299.721 814.81 299.197 829.082 293.434C830.192 291.061 832.636 289.993 834.323 288.129C841.212 280.476 842.4 271.164 842.459 261.468C842.453 260.06 842.355 258.672 842.319 257.261L842.337 257.383C841.461 256.575 841.783 255.47 841.613 254.494C841.35 253.839 841.087 253.183 840.828 252.498C829.675 235.281 813.444 223.536 797.218 211.732C796.466 211.176 795.777 210.597 795.028 210.012C788.852 207.436 782.531 205.115 776.51 202.196C769.633 198.86 762.625 195.931 755.343 193.632C750.775 192.028 746.257 190.221 741.6 188.908C732.229 186.246 722.705 184.497 712.895 184.965C715.401 195.342 715.122 205.435 709.86 215.05C714.29 215.951 718.768 216.677 723.114 217.808L723.206 217.787ZM790.624 257.655C784.074 255.52 777.803 252.695 771.947 249.044C771.017 248.471 769.91 247.879 770.223 246.563C770.54 245.218 771.886 244.936 772.867 245.305C782.876 249.05 793.073 252.424 801.517 259.483C797.46 260.507 794.102 258.788 790.624 257.655Z" fill="#004DF8"/>
<path d="M289.871 106.989C281.548 112.849 273.843 119.4 268.065 127.915C267.941 127.962 267.789 127.977 267.691 128.056C267.626 128.11 267.673 128.234 267.661 128.353C267.798 128.187 267.931 128.051 268.068 127.885C269.191 128.329 270.197 127.863 271.267 127.642C280.155 125.643 285.188 130.318 283.903 139.41C283.671 141.093 283.147 142.717 282.585 144.995C288.584 142.253 294.442 140.603 298.722 147.088C302.408 152.644 299.43 158.659 299.345 164.49C301.428 165.211 302.498 163.524 303.895 162.738C309.554 159.511 315.372 157.079 322.131 158.636C326.871 159.718 329.729 162.824 331.162 167.282C332.117 170.254 332.885 173.297 333.531 176.357C334.46 180.764 336.829 183.67 341.338 184.669C340.368 193.314 339.664 201.986 339.945 210.699C325.425 207.423 315.097 199.753 312.474 183.765C309.285 185.087 307.357 187.256 305.405 189.363C302.31 192.701 299.162 195.974 295.499 198.715C290.803 202.189 285.777 203.025 280.524 200.214C275.27 197.403 273.904 192.592 274.379 187.041C274.567 185.203 274.757 183.336 274.959 181.35C272.564 181.346 271.594 183.223 270.146 184.214C265.545 187.339 260.031 187.675 256.002 184.899C252.112 182.227 250.376 176.63 251.657 171.4C253.234 165.033 256.716 159.369 258.453 152.898C253.315 158.064 246.691 162.54 244.396 169.193C239.857 182.296 235.765 195.714 234.142 209.593C232.823 220.778 235.177 231.468 240.302 241.423C247.674 255.769 254.412 270.47 263.211 284.033C269.788 294.135 277.164 303.451 287.131 310.845C296.763 317.995 305.285 326.648 315.517 333.201C318.833 335.335 320.15 339.751 323.581 342.227C327.936 345.336 332.659 347.763 337.228 350.535C339.088 351.682 341.188 352.525 341.779 354.951C341.423 355.214 340.829 355.753 340.717 355.681C335.433 351.4 327.783 350.95 323.329 345.585C318.475 339.731 310.935 337.914 305.593 333.028C291.871 320.461 275.95 310.365 263.645 296.235C259.386 291.309 255.456 286.088 250.87 281.428C247.15 277.665 246.455 272.145 243.178 268.157C238.594 262.6 234.297 256.862 231.921 249.912C229.704 243.458 227.581 236.953 225.177 230.569C224.115 227.766 225.439 225.356 225.702 222.777C227.028 210.635 228.622 198.52 229.919 186.374C230.112 184.478 231.33 183.104 231.642 181.22C232.197 177.833 233.391 174.93 231.732 171.227C230.438 168.341 233.337 165.462 234.827 162.888C240.911 152.548 246.429 141.881 253.281 131.949C258.339 124.618 264.732 119.191 272.438 114.975C275.99 113.031 279.24 110.517 282.615 108.256C283.259 107.812 283.758 107.324 282.796 106.478C280.132 104.11 281.826 101.887 282.587 99.1198C284.211 93.1764 286.88 87.8486 290.342 82.9609C296.839 73.8607 305.524 69.1457 317.075 71.2807C317.104 71.8825 317.105 72.4516 317.134 73.0534C299.827 73.6261 289.461 81.6135 284.667 98.104C283.241 102.989 284.849 105.728 289.9 106.992L289.871 106.989Z" fill="#032363"/>
<path d="M506.904 420.738C517.092 423.602 523.164 418.382 527.688 410.129C529.739 413.811 531.386 417.632 532.092 421.866C532.819 426.193 536.845 427.831 539.65 430.272C546.114 435.902 550.34 442.621 552.43 450.919C553.321 454.513 553.682 458.024 550.353 460.14C546.928 462.306 542.814 462.127 539.43 459.776C536.274 457.538 533.439 454.794 530.625 452.141C527.429 449.121 526.516 450.734 526.202 454.116C525.408 461.911 522.36 468.607 516.732 474.173C513.667 477.215 513.297 481.728 511.855 485.594C510.414 489.46 507.49 491.408 504.298 490.993C501.225 490.59 499.137 487.862 498.507 484.055C497.894 480.369 497.563 476.862 498.088 473.172C498.428 470.721 498.093 469.01 494.886 470.51C485.324 475.016 474.967 477.914 466.264 484.274C464.453 485.586 462.042 486.329 459.812 486.761C456.36 487.427 455.716 484.637 455.341 482.143C454.817 478.766 457.16 476.339 458.488 473.6C464.37 467.881 470.23 462.099 477.443 458.013C478.939 457.147 480.876 456.656 481.884 454.692C478.366 454.244 475.141 454.454 471.92 455.204C467.85 452.244 463.325 454.628 459.042 454.342C455.799 454.131 452.523 454.546 449.657 452.697C445.921 450.28 445.953 447.319 449.598 444.755C452.468 442.742 455.586 441.233 458.902 440.133C462.674 439.26 466.402 438.232 470.189 437.51C479.382 435.752 488.792 435.093 497.906 432.638C498.537 432.612 499.136 432.613 499.767 432.588C509.349 432.007 509.593 431.672 506.95 422.629C506.797 422.075 506.926 421.399 506.927 420.8L506.904 420.738Z" fill="#F800A2"/>
<path d="M351.84 389.399C355.631 390.983 359.121 393.465 363.515 393.254C364.988 393.194 366.603 393.808 367.824 392.405L367.758 392.458C369.873 393.153 371.446 390.947 373.523 391.428C373.444 392.498 373.391 393.601 373.312 394.671C371.317 399.858 371.016 405.157 371.623 410.669C372.544 418.968 373.101 427.319 373.782 435.624C373.15 438.883 373.877 441.742 375.947 444.349C378.89 448.092 380.702 452.349 381.298 457.081C380.584 458.506 381.435 459.85 381.691 461.164C382.56 465.565 381.235 468.574 377.102 470.638C372.622 472.877 369.871 469.902 367.741 467.289C364.627 463.468 361.004 460.524 356.992 457.869L356.951 457.686C356.631 457.593 356.501 457.4 356.594 457.08C354.608 453.644 351.886 450.672 350.764 446.694C349.433 441.827 349.279 441.872 345.268 445.386C337.086 450.451 328.511 454.968 320.885 460.749C316.376 464.153 310.169 465.407 307.478 471.541C306.505 473.748 302.844 475.291 299.781 473.901C295.916 472.16 293.955 466.72 295.752 463.19C296.692 461.309 297.786 459.384 299.73 458.235C308.58 449.254 320.243 444.124 330.395 436.175C329.367 435.98 328.795 435.712 328.25 435.777C327.366 435.926 326.491 436.286 325.625 436.557C320.745 435.371 315.622 435.688 311.117 436.996C306.149 438.436 301.313 437.405 296.475 437.87C292.724 438.236 289.169 438.743 285.737 440.1C282.459 441.413 279.893 440.433 277.962 437.93C275.815 435.196 277.279 432.591 279.28 430.578C282.214 427.643 285.663 425.24 289.712 424.005C292.773 423.059 295.884 422.208 298.969 421.325C299.555 421.444 300.157 421.715 300.675 421.618C308.889 420.06 317.117 418.951 325.501 418.667C328.388 418.542 331.408 418.88 334.172 418.203C338.161 417.262 342.044 415.891 343.064 410.874C344.258 405.037 348.144 400.102 348.905 394.101C351.056 393.272 351.155 391.126 351.84 389.399Z" fill="#F800A2"/>
<path d="M381.296 457.105C380.7 452.373 378.888 448.116 375.945 444.373C373.878 441.737 373.151 438.878 373.78 435.648C375.948 436.707 376.151 439.123 377.446 440.812C382.473 447.314 389.964 449.035 397.207 451.12C401.192 452.275 405.611 451.228 409.496 453.36C410.462 453.878 411.588 453.993 411.496 455.481C411.399 456.728 410.603 457.486 409.571 457.92C407.821 458.64 405.982 459.051 404.068 458.736C396.532 457.46 388.863 457.786 381.266 457.102L381.296 457.105Z" fill="#032363"/>
<path d="M373.307 394.669C373.386 393.599 373.438 392.496 373.518 391.426C380.341 383.527 389.822 378.354 395.944 369.695C397.38 367.655 399.844 367.277 402.318 367.679C400.02 373.194 397.377 378.555 394.202 383.561C391.634 387.612 388.387 390.964 383.257 391.939C379.898 392.585 376.635 393.75 373.307 394.669Z" fill="#032363"/>
<path d="M497.88 432.569C488.796 435.027 479.389 435.656 470.164 437.441C466.377 438.163 462.619 439.188 458.877 440.064C458.653 434.621 461.826 432.28 466.693 430.949C477.322 428.019 487.712 428.029 497.877 432.598L497.88 432.569Z" fill="#032363"/>
<path d="M471.863 455.135C475.054 454.382 478.28 454.172 481.827 454.623C480.848 456.589 478.909 457.11 477.386 457.944C470.14 462.056 464.313 467.811 458.43 473.53C453.541 469.499 453.365 468.283 458.129 463.558C461.995 459.7 466.448 456.56 471.863 455.135Z" fill="#032363"/>
<path d="M332.693 42.8992C332.327 42.3827 331.96 41.8662 331.62 41.3824C335.656 35.565 341.842 32.7515 348.343 32.4256C360.442 31.8314 372.549 32.915 383.941 37.7887C381.801 39.0979 379.451 37.1816 377.306 38.2507C376.844 38.0838 376.414 37.8904 375.952 37.7235C363.234 33.8227 350.862 36.2157 338.509 39.5988L338.569 39.6048C337.721 39.3987 336.983 39.593 336.569 40.4193L336.664 40.3691C336.042 40.3057 335.632 40.5035 335.507 41.1495L335.572 41.0963C334.633 40.9107 333.924 41.108 333.667 42.1599L333.795 42.083C333.122 41.9247 332.677 42.1788 332.575 42.8871L332.693 42.8992Z" fill="#032363"/>
<path d="M351.835 389.397C351.147 391.154 351.051 393.27 348.901 394.099C343.958 388.235 340.949 381.91 342.286 373.781C343.206 368.275 344.109 362.648 343.725 357.009C346.72 361.416 346.195 366.573 346.041 371.319C345.814 378.243 347.458 384.16 351.865 389.4L351.835 389.397Z" fill="#032363"/>
<path d="M732.645 297.992C737.395 295.751 742.083 294.701 747.539 295.826C757.684 297.938 768.123 297.174 778.438 297.626C780.614 297.728 782.798 298.04 784.964 298.231C767.494 302.171 750.092 296.924 732.645 297.992Z" fill="#032363"/>
<path d="M325.593 436.551C326.459 436.28 327.334 435.92 328.218 435.77C328.767 435.677 329.338 435.944 330.363 436.169C320.211 444.118 308.549 449.248 299.698 458.229C300.232 451.515 305.034 448.471 310.28 445.771C315.588 443.048 321.358 441.091 325.593 436.551Z" fill="#032363"/>
<path d="M345.236 445.385C349.247 441.871 349.401 441.827 350.732 446.694C351.824 450.668 354.576 453.643 356.561 457.08C350.407 457.231 346.232 452.943 345.236 445.385Z" fill="#032363"/>
<path d="M444.008 91.0148C439.846 91.01 437.016 88.8053 434.932 85.4488C432.08 80.8162 429.386 76.1099 429.029 70.5037C435.251 76.4379 438.435 84.5778 444.008 91.0148Z" fill="#032363"/>
<path d="M534.207 381.416C533.36 376.508 536.476 375.897 540.075 376.144C545.635 376.531 551.126 377.599 556.727 377.002C551.643 379.868 546.09 380.59 540.342 380.573C538.306 380.575 535.996 379.442 534.178 381.413L534.207 381.416Z" fill="#032363"/>
<path d="M325.471 418.658C317.117 418.945 308.86 420.05 300.646 421.609C300.127 421.706 299.496 421.432 298.939 421.316C305.636 417.895 312.438 415.205 320.219 417.015C322.032 417.44 323.825 417.772 325.471 418.658Z" fill="#032363"/>
<path d="M444.889 91.7878C444.558 91.5145 444.259 91.2145 443.928 90.9412C444.259 91.2145 444.558 91.5145 444.889 91.7878Z" fill="#032363"/>
<path d="M407.816 236.392C415.652 243.838 424.528 249.593 434.439 253.717C434.709 253.415 435.012 253.087 435.282 252.785C431.753 248.922 428.257 245.032 424.659 241.252C416.357 232.501 408.115 223.755 402.61 212.834C400.07 207.784 400.384 203.234 403.557 200.892C407.279 198.157 411.955 198.993 415.981 203.565C424.864 213.663 435.68 220.664 449.016 224.089C443.62 217.97 438.254 211.853 432.859 205.734C433.95 205.605 435.035 205.536 436.079 205.283C438.466 204.778 440.738 203.931 441.055 201.119C441.345 198.274 438.718 198.186 437.033 197.385C429.783 193.892 424.475 188.38 420.409 181.558C424.848 174.434 431.639 172.73 437.154 178.562C445.319 187.18 455.571 191.188 466.316 194.769C477.002 198.342 487.563 202.263 498.171 206.009C499.762 206.56 501.465 206.883 503.683 206.57C497.136 201.172 490.619 195.777 484.075 190.349C483.056 188.299 481.152 187.296 479.292 186.149C471.117 181.153 462.615 176.724 454.939 170.941C455.357 161.551 459.757 157.747 469.175 158.766C476.193 159.541 482.443 162.274 488.204 166.275C499.644 174.208 512.196 179.738 525.436 183.812C526.597 184.17 527.833 184.386 529.966 184.903C526.61 180.518 522.36 178.438 519.248 175.186C520.275 174.213 522.788 174.529 522.354 172.329C521.96 170.312 519.94 169.567 518.249 168.826C507.147 164.042 497.571 156.928 488.069 149.671C491.522 144.873 496.155 143.488 502.015 143.875C515.281 144.748 527.266 149.682 539.173 154.787C548.87 158.949 558.837 161.941 569.313 163.158C572.478 163.54 575.582 163.348 578.675 162.974C583.013 162.428 586.544 163.626 588.841 167.243C591.134 170.891 590.605 174.909 588.452 178.403C583.6 186.354 575.802 188.823 567.088 188.534C563.178 188.406 562.303 188.766 563.493 192.959C566.276 202.676 559.743 210.664 549.656 210.325C546.075 210.2 542.516 209.568 538.96 208.906C537.078 208.565 535.846 208.32 536.238 210.935C538.367 225.016 526.584 236.033 508.052 232.469C506.378 232.148 504.674 231.825 502.997 231.534C501.346 231.276 499.669 230.986 498.018 230.728C493.37 229.027 488.752 227.328 484.101 225.657C487.924 231.047 491.804 235.874 492.023 242.544C491.012 247.472 488.172 249.488 483.063 248.788C477.746 248.067 472.405 247.882 469.432 253.838C464.495 252.916 459.881 250.889 454.237 248.966C458.314 254.802 462.773 259.239 463.034 265.793C454.204 265.463 451.784 267.462 451.455 275.394C439.791 273.786 429.657 268.322 419.36 262.991C423.32 267.916 427.283 272.812 431.214 277.734C428.06 279 425.301 280.515 425.015 284.499C424.784 287.649 426.549 289.716 428.49 291.83C431.703 295.271 435.569 298.181 437.869 302.937C432.509 303.229 428.578 300.673 424.264 299.514C419.656 298.296 415.096 297.502 410.857 300.604C389.528 288.34 373.807 271.287 366.168 247.511C364.759 243.115 363.499 238.435 365.944 233.833C366.685 232.441 367.206 230.847 369.175 230.928C371.14 231.038 371.329 232.705 372.023 234.123C375.644 241.499 379.264 248.875 385.752 254.267C385.74 254.386 385.725 254.534 385.805 254.632C385.828 254.694 385.947 254.706 386.033 254.745C385.926 254.614 385.793 254.451 385.687 254.32C383.166 245.559 379.108 237.18 378.497 227.895C378.229 223.765 377.549 219.564 379.045 215.464C379.664 213.79 380.381 212.336 382.078 211.551C385.212 219.296 389.441 226.285 395.558 232.089C399.026 235.376 402.941 237.213 407.852 236.335L407.816 236.392Z" fill="#004DF8"/>
<path d="M610.387 296.732C591.965 308.839 573.496 320.823 555.177 333.09C549.138 337.117 542.495 340.303 537.206 345.484L537.271 345.43C536.195 345.111 535.488 345.878 534.832 346.44C525.611 354.364 515.135 360.484 505.284 367.535C503.378 368.898 501.446 370.229 498.915 369.791C501.101 348.334 504.057 326.955 504.907 305.391C504.991 303.094 505.94 302.891 507.639 302.675C517.263 301.379 526.927 301.166 536.608 301.374C543.719 301.529 549.529 300.055 552.442 292.626C553.785 289.139 556.225 286.064 557.334 282.523C558.39 279.217 559.858 278.618 563.032 279.211C570.704 280.621 578.428 280.929 586.17 279.592C593.135 282.068 600.339 283.071 607.687 283.251C610.672 283.345 613.482 283.692 614.7 286.72C615.875 289.595 614.355 292.165 612.653 294.477C612.025 295.342 611.147 296.031 610.381 296.791L610.387 296.732Z" fill="#42E900"/>
<path d="M603.201 257.337C594.387 255.96 585.634 254.29 577.236 251.189C572.878 249.577 569.118 247.098 566.823 242.881C565.993 241.329 565.424 239.565 566.719 238.02C567.91 236.614 569.601 236.187 571.438 236.674C579.831 238.936 588.23 236.737 596.634 236.845C599.477 236.865 598.843 234.854 598.239 233.145C596.714 228.708 594.914 224.332 593.606 219.827C590.234 208.254 596.316 200.579 608.427 201.334C617.95 201.914 627.47 202.525 637.023 201.641C641.677 201.217 644.019 199.689 643.812 194.368C643.544 187.303 648.413 183.008 655.66 183.597C664.866 184.355 674.035 185.469 683.307 185.575C685.581 185.597 687.924 186.404 690.081 187.283C691.893 188.006 693.931 188.873 693.998 191.455C694.04 193.975 692.7 195.665 690.677 196.716C688.905 197.644 686.951 198.313 684.984 198.801C678.439 200.44 671.838 201.744 665.036 201.501C662.561 201.398 661.702 202.479 661.472 204.731C660.573 213.563 654.84 218.1 647.024 220.747C640.265 223.023 633.25 223.387 626.192 223.596C620.153 223.789 620.165 223.97 622.052 229.552C624.699 237.368 624.709 244.915 620.027 252.074C618.09 251.098 616.207 249.888 614.184 249.173C606.467 246.441 602.899 249.132 603.204 257.308L603.201 257.337Z" fill="#004DF8"/>
<path d="M486.165 273.631C498.611 266.394 509.824 257.445 521.353 248.917C527.569 244.34 528.364 243.882 533.921 249.299C540.158 255.385 548.587 258.19 554.911 264.014C550.512 271.621 549.103 280.461 544.639 288.122C542.245 292.22 539.451 293.193 535.18 293.087C525.35 292.865 515.524 292.912 505.718 294.218C495.519 295.575 485.164 295.508 475.053 297.473C467.601 298.9 460.146 298.589 452.673 298.756C458.235 291.777 466.462 288.033 473.148 282.366C476.951 279.13 481.98 276.798 486.165 273.631Z" fill="#42E900"/>
<path d="M603.202 257.343C602.897 249.167 606.465 246.476 614.182 249.208C616.206 249.923 618.089 251.133 620.026 252.109C624.023 256.379 628.541 259.355 635.133 257.841C634.482 255.409 632.677 254.027 630.809 252.669C626.516 249.536 625.316 246.33 627.239 243.322C629.094 240.396 632.328 240.396 637.209 243.05C640.869 245.039 644.541 247.21 649.021 246.738C652.852 247.638 656.714 247.941 660.635 247.951C661.833 247.954 663.345 247.808 663.976 246.615C664.746 245.226 663.271 244.417 662.585 243.509C661.556 242.146 660.367 240.887 659.243 239.575C656.859 236.816 654.863 233.768 657.807 230.445C660.882 227.015 664.294 228.5 667.414 230.795C670.312 232.917 673.094 235.296 676.626 236.195C679.458 236.903 682.753 238.077 684.851 235.116C686.673 232.517 687.144 229.361 685.021 226.39C684.552 225.414 684.052 224.434 683.645 223.435C681.526 218.368 683.991 214.157 689.472 214.147C696.27 214.15 703.104 214.667 709.904 214.94C714.334 215.841 718.812 216.566 723.158 217.698C726.337 218.531 730.736 218.859 730.449 223.441C730.143 228.501 725.563 228.483 721.89 228.678C715.175 229.042 708.45 228.627 701.827 227.503C698.558 226.96 697.054 227.316 697.136 231.217C697.338 239.233 693.474 244.829 685.977 247.868C685.153 248.023 684.329 248.179 683.504 248.335C678.977 247.215 675.156 247.095 673.518 252.887C672.826 255.272 670.052 256.337 667.732 257.358C663.22 259.324 658.498 259.233 653.887 258.344C649.51 257.508 648.209 259.113 648.786 263.154C646.701 269.799 641.551 270.682 635.638 270.229C633.053 270.325 629.516 267.12 628.116 271.17C626.313 276.227 622.783 278.832 618.247 280.735C604.108 281.96 591.977 276.412 580.254 269.498C579.49 269.061 578.37 268.588 578.788 267.433C579.285 266.076 580.577 266.327 581.623 266.643C584.008 267.335 586.455 268.004 588.751 268.986C595.631 271.993 602.877 272.881 610.258 273.333C611.834 273.434 613.397 273.384 614.865 272.785C616.648 272.038 618.39 271.107 618.551 268.938C618.713 266.469 616.382 266.711 614.919 266.082C610.236 264.138 605.865 261.776 603.155 257.218L603.202 257.343Z" fill="#FDFDFD"/>
<path d="M486.166 273.625C481.951 276.789 476.952 279.124 473.149 282.36C466.463 288.028 458.236 291.771 452.674 298.751C450.593 300.066 449.656 301.917 449.972 304.404C449.936 305.928 450.806 307.095 451.455 308.359C449.17 314.624 446.805 316.09 440.481 314.967C434.566 313.945 429.018 311.972 423.753 308.98C420.694 307.261 417.729 305.791 413.688 306.368C409.738 306.924 410.507 303.199 410.865 300.57C415.107 297.439 419.664 298.263 424.271 299.481C428.588 300.609 432.52 303.166 437.877 302.903C435.577 298.147 431.714 295.208 428.498 291.796C426.528 289.679 424.788 287.645 425.022 284.465C425.305 280.511 428.068 278.966 431.221 277.7C434.037 277.987 436.581 279.174 439.122 280.391C444.119 282.787 449.357 284.279 455.425 284.388C453.969 281.035 452.73 278.214 451.493 275.363C451.822 267.431 454.241 265.432 463.071 265.762C465.77 266.606 468.485 267.003 471.601 266.691C470.637 262.341 468.35 258.335 469.467 253.837C472.436 247.911 477.78 248.066 483.097 248.787C488.236 249.49 491.047 247.471 492.058 242.543C494.445 238.804 494.895 234.088 498.023 230.724C499.674 230.982 501.351 231.272 503.002 231.53C511.586 243.095 505.407 261.122 491.576 264.025C487.964 264.795 486.649 265.948 487.007 269.488C487.141 270.82 486.46 272.217 486.143 273.563L486.166 273.625Z" fill="#FDFDFD"/>
<path d="M339.92 210.613C339.64 201.901 340.344 193.228 341.314 184.583C343.891 171.341 347.652 158.518 354.513 146.73C355.744 144.639 356.599 142.121 359.58 143.144C362.415 144.121 362.371 146.902 361.875 149.127C360.521 155.068 358.672 160.868 357.289 166.806C355.924 172.566 354.585 178.359 354.87 184.377C351.654 205.37 356.13 225.8 359.614 246.278C361.811 259.108 366.81 271.176 370.454 283.615C369.763 285.402 371.367 288.17 368.911 289.058C366.58 289.898 364.879 287.779 363.215 286.471C359.945 283.892 357.909 280.361 356.033 276.726C346.726 258.739 343.137 239.299 341.06 219.413C340.76 216.478 340.342 213.531 339.953 210.587L339.92 210.613Z" fill="#FDFDFD"/>
<path d="M451.454 308.362C450.804 307.098 449.938 305.902 449.971 304.408C456.205 304.354 462.287 306.082 468.635 305.501C478.7 304.58 488.684 302.991 498.872 303.221C501.919 303.292 502.03 303.962 501.643 306.587C498.772 326.837 496.078 347.105 493.323 367.396C489.76 363.859 486.88 359.793 484.383 355.496C479.791 347.662 474.033 340.697 468.535 333.519C464.435 327.322 461.721 320.158 455.977 315.111C453.805 313.213 454.541 309.515 451.454 308.362Z" fill="#42E900"/>
<path d="M493.322 367.397C496.074 347.135 498.771 326.838 501.642 306.588C502.03 303.962 501.918 303.292 498.871 303.221C488.686 302.962 478.699 304.58 468.634 305.501C462.286 306.082 456.204 304.355 449.97 304.408C449.621 301.947 450.591 300.07 452.672 298.754C460.145 298.587 467.597 298.927 475.052 297.471C485.163 295.506 495.547 295.576 505.717 294.216C515.523 292.909 525.35 292.862 535.179 293.085C539.45 293.191 542.244 292.218 544.638 288.12C549.131 280.462 550.511 271.619 554.91 264.012C557.65 265.04 560.101 266.547 562.3 268.478C561.731 269.948 561.195 271.39 560.626 272.859C560.176 274.041 560.13 275.085 561.802 275.135C566.755 275.31 571.649 276.947 576.649 275.779C579.815 277.03 583.011 278.284 586.181 279.505C578.439 280.843 570.714 280.535 563.042 279.124C559.869 278.532 558.371 279.128 557.345 282.437C556.239 285.948 553.796 289.053 552.453 292.539C549.567 300.001 543.73 301.443 536.619 301.287C526.938 301.079 517.274 301.293 507.649 302.588C505.95 302.804 504.999 303.037 504.917 305.304C504.068 326.868 501.112 348.247 498.926 369.705C496.661 369.893 494.688 369.273 493.328 367.338L493.322 367.397Z" fill="#F800A2"/>
<path d="M735.218 271.267C743.512 271.273 751.715 270.702 759.818 268.473C771.832 265.175 784.106 264.03 796.549 265.058C798.686 265.245 801.404 265.013 801.769 267.895C802.126 270.567 800.078 272.155 797.85 273.155C796.28 273.864 794.637 274.415 792.953 274.783C781.043 277.343 769.101 279.929 757.145 282.364C751.365 283.542 745.612 282.986 739.918 281.568C739.014 281.326 738.125 280.936 737.207 280.842C730.894 280.199 730.365 279.516 731.808 273.285C732.455 272.812 733.102 272.339 733.749 271.866C734.372 271.929 734.944 271.898 735.167 271.172L735.158 271.261L735.218 271.267Z" fill="#FDFDFD"/>
<path d="M391.647 154.403C392.331 148.274 395.838 144.709 399.588 141.707C414.262 129.936 430.195 120.51 448.984 116.854C451.976 116.29 456.424 115.246 457.397 118.34C458.301 121.217 453.678 122.513 451.227 123.64C438.404 129.581 425.995 136.162 414.083 143.753C410.272 146.179 406.609 148.92 402.955 151.573C401.435 152.675 399.891 154.015 399.633 155.965C399.212 158.917 397.665 160.287 394.859 159.612C391.704 158.841 391.869 156.043 391.676 154.406L391.647 154.403Z" fill="#004DF8"/>
<path d="M454.967 171.006C462.646 176.759 471.145 181.218 479.32 186.213C481.209 187.364 483.084 188.364 484.103 190.414C483.382 193.664 480.907 193.861 478.254 193.741C472.59 193.493 467.742 190.813 462.838 188.397C452.744 183.416 443.754 177.021 437.128 167.692C435.348 165.174 434.149 162.537 435.134 159.343C435.533 158.066 436.238 157.03 437.584 156.748C438.996 156.413 439.966 157.171 440.688 158.322C444.255 163.866 449.578 167.463 454.905 171.03L454.967 171.006Z" fill="#FDFDFD"/>
<path d="M648.833 263.278C648.257 259.237 649.558 257.632 653.935 258.467C658.545 259.356 663.297 259.451 667.78 257.482C670.1 256.461 672.906 255.369 673.565 253.011C675.233 247.222 679.024 247.338 683.552 248.458C676.976 253.927 677.245 258.926 684.232 263.83C687.811 266.32 691.25 269.006 694.654 271.749C695.708 272.575 697.022 273.787 696.388 275.309C695.647 277 693.929 276.226 692.625 276.094C679.649 274.712 667.215 271.259 655.332 265.916C653.214 264.952 650.989 264.156 648.833 263.278Z" fill="#004DF8"/>
<path d="M488.04 149.725C497.542 156.981 507.115 164.125 518.22 168.879C519.914 169.591 521.931 170.366 522.325 172.382C522.762 174.553 520.276 174.269 519.219 175.24C508.64 174.731 499.53 170.389 491.277 164.099C483.803 158.396 476.534 152.445 469.199 146.548C468.37 145.864 467.616 145.039 466.989 144.136C466.232 143.041 466.066 141.737 466.898 140.624C467.834 139.371 469.051 139.765 470.296 140.191C476.754 142.346 482.248 146.32 488.04 149.725Z" fill="#FDFDFD"/>
<path d="M407.818 236.393C402.938 237.273 398.992 235.434 395.524 232.146C389.408 226.342 385.179 219.353 382.045 211.608C380.929 206.104 379.478 200.656 380.327 194.963C380.627 192.897 380.765 190.666 383.318 190.297C386.022 189.914 387.323 191.843 387.935 194.061C390.629 204.068 394.548 213.51 400.057 222.336C402.037 225.533 404.184 228.566 406.716 231.339C408.039 232.762 408.949 234.412 407.815 236.422L407.818 236.393Z" fill="#FDFDFD"/>
<path d="M420.407 181.588C424.476 188.381 429.781 193.922 437.031 197.416C438.716 198.216 441.372 198.307 441.053 201.149C440.763 203.994 438.464 204.808 436.077 205.314C435.036 205.537 433.921 205.603 432.857 205.764C422.282 203.16 411.831 191.405 410.534 180.612C410.336 179.035 410.463 177.491 411.296 176.078C411.947 174.977 412.791 174.045 414.202 174.009C415.702 173.982 416.408 174.982 416.88 176.228C417.626 178.31 418.631 180.209 420.404 181.618L420.407 181.588Z" fill="#FDFDFD"/>
<path d="M685.069 226.49C687.195 229.432 686.723 232.588 684.898 235.217C682.83 238.18 679.503 237.033 676.673 236.295C673.112 235.394 670.36 233.017 667.462 230.895C664.338 228.631 660.929 227.115 657.855 230.545C654.884 233.836 656.906 236.917 659.29 239.675C660.414 240.987 661.574 242.243 662.633 243.609C663.349 244.52 664.823 245.329 664.023 246.715C663.366 247.876 661.881 248.054 660.683 248.052C656.794 248.015 652.899 247.738 649.068 246.839C652.377 241.396 654.662 235.73 653.598 229.123C653.152 226.443 655.359 227.117 656.779 227.292C664.375 228.275 672.007 228.603 679.624 227.612C681.474 227.382 683.26 226.905 685.095 226.523L685.069 226.49Z" fill="#004DF8"/>
<path d="M542.97 150.168C528.551 145.914 514.277 141.405 502.786 131.042C501.499 129.863 499.15 128.815 500.755 126.583C502.253 124.519 504.29 125.685 505.732 126.82C515.322 134.385 526.516 138.849 537.477 143.829C540.11 145.025 542.541 146.74 545.058 148.194C544.363 148.842 543.636 149.517 542.941 150.165L542.97 150.168Z" fill="#FDFDFD"/>
<path d="M618.297 280.863C622.833 278.959 626.363 276.354 628.165 271.298C629.596 267.251 633.102 270.453 635.687 270.357C635.195 273.721 636.2 276.788 637.54 279.799C638.615 282.184 637.802 282.82 635.404 282.546C629.717 281.936 624.02 281.416 618.297 280.863Z" fill="#004DF8"/>
<path d="M576.646 275.809C571.646 276.976 566.752 275.34 561.799 275.165C560.156 275.117 560.173 274.071 560.623 272.889C561.192 271.419 561.728 269.977 562.297 268.508C567.08 270.941 571.863 273.375 576.646 275.809Z" fill="#4CE400"/>
<path d="M542.97 150.175C543.665 149.527 544.363 148.849 545.087 148.204C546.355 148.693 547.424 149.371 547.937 151.1C546.06 151.298 544.426 151.461 542.967 150.204L542.97 150.175Z" fill="#4CE400"/>
<path d="M735.195 271.178C734.972 271.904 734.399 271.935 733.777 271.872C734.249 271.65 734.724 271.399 735.195 271.178Z" fill="#004DF8"/>
<path d="M537.236 345.49C539.009 346.599 540.544 345.348 542.06 344.873C556.756 340.232 570.556 333.522 584.214 326.439C586.997 324.986 589.83 323.628 592.9 322.892C594.065 322.622 595.424 321.922 596.325 323.361C597.047 324.512 596.111 325.465 595.57 326.368C594.375 328.403 592.785 330.187 590.877 331.58C577.047 341.82 561.815 348.772 544.692 351.37C543.93 351.502 543.144 351.572 542.364 351.582C537.088 351.643 536.103 350.435 537.334 345.41L537.268 345.463L537.236 345.49Z" fill="#FDFDFD"/>
<path d="M272.477 240.723C272.853 239.383 273.116 237.973 273.638 236.679C274.415 234.632 275.244 232.081 277.958 232.477C281.023 232.969 279.55 235.664 279.6 237.526C279.685 239.93 280.324 242.181 281.648 244.172C287.767 253.48 293.058 263.272 298.444 273.013C299.658 275.203 301.095 277.266 302.953 279.013C304.048 280.023 304.918 281.189 303.925 282.705C303.074 283.996 301.66 284.361 300.181 284.18C297.395 283.896 295.18 282.413 293.213 280.566C289.167 276.77 286.034 272.258 283.476 267.386C280.338 261.437 277.267 255.434 274.29 249.382C272.946 246.7 272.009 243.849 272.507 240.726L272.477 240.723Z" fill="#FDFDFD"/>
<path d="M249.496 233.495C250.757 229.64 249.862 224.608 252.808 224.789C256.466 225.041 254.08 229.65 254.469 232.294C256.499 245.587 260.424 258.205 267.959 269.483C270.114 272.727 273.671 274.257 276.848 276.288C278.169 277.141 280.589 277.777 279.687 279.871C279.02 281.42 276.834 280.838 275.37 280.509C269.897 279.263 264.892 276.956 261.539 272.243C253.083 260.302 250.527 246.596 249.469 233.462L249.496 233.495Z" fill="#FDFDFD"/>
<path d="M317.734 269.975C314.416 269.337 311.617 267.704 309.322 265.255C302.05 257.567 298.729 248.125 296.981 237.945C296.849 237.183 296.901 236.38 297.009 235.612C297.223 233.808 297.929 232.173 299.909 231.835C301.828 231.522 302.661 233.044 303.224 234.569C305.605 240.89 309.03 246.659 312.393 252.452C315.114 257.191 317.737 262.009 322.846 264.776C323.811 265.293 324.72 266.075 324.56 267.346C324.35 268.822 323.137 269.267 321.956 269.686C320.589 270.175 319.207 270.214 317.797 269.951L317.734 269.975Z" fill="#FDFDFD"/>
<path d="M326.236 236.256C326.447 234.182 326.506 232.72 327.953 232.329C329.585 231.896 330.127 233.329 330.487 234.503C334.468 247.156 341.188 258.501 347.338 270.148C348.593 272.521 351.092 275.92 348.498 277.572C346.32 278.968 344.314 275.14 342.687 273.177C334.494 263.359 328.755 252.384 326.701 239.627C326.481 238.258 326.323 236.864 326.236 236.256Z" fill="#FDFDFD"/>
<path d="M367.818 392.434C364.534 390.572 363.955 387.429 363.945 383.714C361.954 384.44 361.517 388.139 358.918 386.616C356.318 385.094 356.812 382.299 357.063 379.839C357.349 377.024 358.134 374.319 359.698 371.903C360.548 370.612 361.482 369.09 363.413 369.826C365.087 370.445 364.962 371.96 364.814 373.412C364.672 374.805 364.531 376.198 364.38 377.68C366.57 377.634 366.399 375.79 367.16 374.789C368.226 373.43 369.131 371.606 371.16 372.262C373.133 372.882 373.132 374.948 373.049 376.647C372.814 382.192 372.803 387.881 367.57 391.63C367.472 391.71 367.631 392.205 367.69 392.511L367.755 392.457L367.818 392.434Z" fill="#FDFDFD"/>
<path d="M339.135 322.432C330.274 321.23 320.2 312.238 318.635 304.084C318.383 302.74 318.56 301.291 318.732 299.901C318.853 298.716 319.711 297.935 320.926 297.759C322.204 297.56 323.211 298.261 323.487 299.367C325.367 307.375 331.524 312.194 336.867 317.649C338.089 318.882 339.595 320.263 339.165 322.435L339.135 322.432Z" fill="#FDFDFD"/>
<path d="M508.212 407.03C508.052 408.601 508.022 410.365 506.118 410.83C504.368 411.25 502.974 410.24 502.155 408.869C499.265 404.023 497.944 398.767 498.968 393.122C499.294 391.389 500.015 389.606 502.167 389.645C504.079 389.69 504.601 391.331 504.915 392.95C505.84 397.685 508.574 402.006 508.179 407.057L508.212 407.03Z" fill="#FDFDFD"/>
<path d="M515.224 398.438C516.563 398.814 517.332 399.79 517.685 401.024C518.324 403.275 518.812 405.541 519.359 407.812C519.692 409.254 519.787 410.671 518.155 411.403C516.772 412.041 515.395 411.751 514.166 410.877C511.676 409.156 511.062 401.368 513.171 399.187C513.741 398.586 514.373 398.261 515.224 398.438Z" fill="#FDFDFD"/>
<path d="M301.607 106.722C308.476 109.548 316.255 109.023 323.075 112.622C326.88 114.657 329.98 110.69 333.491 109.731C333.305 102.734 331.874 95.9109 330.105 89.1727C329.116 85.3588 328.753 81.5786 329.866 77.7093C325.954 75.2447 321.68 73.7012 317.107 73.0258C299.8 73.5985 289.434 81.5859 284.64 98.0763C283.214 102.962 284.822 105.701 289.873 106.964C293.723 104.452 297.498 105.016 301.61 106.692L301.607 106.722ZM318.354 89.5927C318.094 92.4409 313.116 96.0362 309.803 95.6388C307.405 95.3646 306.08 93.9719 306.422 91.4914C306.783 88.8331 312.127 86.0536 315.73 86.5405C317.698 86.6212 318.521 87.6632 318.354 89.5927Z" fill="#4CE400"/>
<path d="M375.923 37.6928C376.386 37.8597 376.815 38.0531 377.277 38.22C383.032 42.5793 389.226 46.1449 396.081 48.5202C397.933 49.158 399.653 50.501 401.132 51.8496C403.186 53.7357 404.406 56.1657 403.04 58.9911C401.68 61.7573 399.101 61.794 396.538 61.3831C389.82 60.3095 383.507 58.1991 377.894 54.2136C376.917 53.5151 376.217 52.1562 374.536 53.9613C369.724 59.1607 365.47 59.1765 360.048 54.4918C359.471 53.9838 358.867 53.4432 358.356 52.882C355.939 50.1504 354.831 51.3251 354.179 54.1934C354.012 54.9549 353.845 55.7164 353.559 56.4659C352.394 59.6711 350.418 62.0151 346.725 61.8186C343.061 61.6251 341.338 59.1437 340.446 55.8487C338.985 50.4895 338.052 50.2447 334.125 54.3964C332.649 55.9529 331.211 57.7229 330.295 59.6657C329.449 61.4961 328.493 62.6564 326.478 62.1517C323.995 61.5394 323.489 59.4516 323.855 57.3328C324.655 52.7129 327.19 48.9885 330.321 45.5942C331.129 44.7183 332.517 44.3207 332.724 42.8745L332.605 42.8624C333.358 43.1187 333.75 42.7993 333.825 42.0584L333.698 42.1352C334.69 42.3861 335.245 41.9336 335.603 41.0716L335.537 41.1248C336.16 41.1882 336.543 40.9577 336.695 40.3444L336.6 40.3946C337.45 40.5711 338.115 40.2196 338.602 39.5505L338.543 39.5445C344.527 39.8846 350.441 41.5052 356.536 39.8802C358.876 39.2501 361.402 40.6154 363.426 42.1991C364.454 42.9925 365.492 43.9667 366.42 42.2047C368.497 38.2838 372.138 37.8162 375.986 37.6692L375.923 37.6928Z" fill="#FDFDFD"/>
<path d="M381.149 71.3706C387.828 69.5955 394.175 70.7811 400.187 73.7892C403.889 75.6635 405.961 78.8392 406.333 83.1292C407.756 98.8456 394.348 110.536 379.646 106.403C380.904 104.644 381.791 102.399 383.465 101.252C388.834 97.6367 388.506 92.333 388.119 87.0232C387.951 84.5507 386.969 82.1448 386.798 79.7019C386.545 75.7233 384.854 72.916 381.149 71.3706Z" fill="#FDFDFD"/>
<path d="M333.491 109.726C333.306 102.73 331.875 95.9068 330.106 89.1687C329.117 85.3548 328.753 81.5746 329.866 77.7053C335.007 74.2762 337.904 74.9307 340.799 80.3163C345.508 89.0608 348.132 98.2817 346.451 108.322C346.16 109.999 345.778 111.697 345.253 113.32C344.43 115.812 343.151 118.077 340.208 118.166C337.027 118.232 335.617 115.902 334.629 113.256C334.207 112.105 333.851 110.901 333.465 109.694L333.491 109.726Z" fill="#F800A2"/>
<path d="M381.145 71.3731C384.85 72.9184 386.541 75.7258 386.794 79.7044C386.962 82.1769 387.944 84.5828 388.115 87.0257C388.502 92.3355 388.833 97.6096 383.461 101.255C381.79 102.372 380.9 104.647 379.642 106.405C376.415 107.514 373.722 106.91 371.744 103.984C370.763 99.2124 371.196 94.3755 370.908 89.555C370.583 84.2216 370.489 78.9716 373.832 74.3713L373.734 74.4512C374.112 73.9805 374.522 73.4833 374.899 73.0127C376.99 72.477 379.051 71.9384 381.142 71.4027L381.145 71.3731Z" fill="#032363"/>
<path d="M373.839 74.3732C370.496 78.9735 370.587 84.2531 370.915 89.5569C371.202 94.3774 370.769 99.2143 371.751 103.986C361.865 100.793 357.103 93.4501 360.242 85.565C362.654 79.5222 367.54 75.9474 373.839 74.3732Z" fill="#FDFDFD"/>
<path d="M374.906 73.0137C374.529 73.4843 374.119 73.9815 373.742 74.4522C374.119 73.9815 374.529 73.4843 374.906 73.0137Z" fill="#FDFDFD"/>
<path d="M268.039 127.881C267.902 128.047 267.769 128.183 267.632 128.348C267.641 128.26 267.656 128.111 267.662 128.052C267.76 127.972 267.911 127.958 268.036 127.911L268.009 127.878L268.039 127.881Z" fill="#004DF8"/>
<path d="M375.924 37.6936C372.103 37.8732 368.435 38.3081 366.359 42.229C365.431 43.9911 364.392 43.0169 363.365 42.2235C361.34 40.6398 358.814 39.2745 356.474 39.9045C350.35 41.5265 344.466 39.909 338.482 39.5689C350.834 36.1857 363.206 33.7927 375.924 37.6936Z" fill="#004DF8"/>
<path d="M335.541 41.0901C335.214 41.9551 334.629 42.4046 333.636 42.1537C333.864 41.0989 334.602 40.9046 335.541 41.0901Z" fill="#004DF8"/>
<path d="M338.576 39.5494C338.086 40.2481 337.424 40.57 336.574 40.3935C337.017 39.5703 337.726 39.373 338.576 39.5494Z" fill="#004DF8"/>
<path d="M333.795 42.0837C333.72 42.8246 333.328 43.1441 332.575 42.8877C332.678 42.1795 333.093 41.9223 333.795 42.0837Z" fill="#004DF8"/>
<path d="M336.64 40.3342C336.488 40.9476 336.102 41.2077 335.483 41.1147C335.609 40.4687 336.021 40.2412 336.64 40.3342Z" fill="#004DF8"/>
<path d="M451.493 275.369C452.733 278.19 453.969 281.041 455.424 284.393C449.389 284.258 444.119 282.792 439.122 280.397C436.581 279.18 434.064 278.025 431.221 277.706C427.261 272.78 423.328 267.888 419.368 262.963C429.665 268.294 439.796 273.788 451.463 275.366L451.493 275.369Z" fill="#032363"/>
<path d="M469.464 253.837C468.347 258.335 470.634 262.341 471.599 266.692C468.483 267.003 465.765 266.636 463.069 265.763C462.776 259.235 458.35 254.771 454.273 248.936C459.946 250.861 464.56 252.889 469.467 253.808L469.464 253.837Z" fill="#032363"/>
<path d="M498.024 230.755C494.867 234.117 494.446 238.835 492.059 242.575C491.84 235.905 487.93 231.075 484.137 225.687C488.784 227.389 493.403 229.087 498.054 230.758L498.024 230.755Z" fill="#032363"/>
<path d="M385.683 254.35C385.683 254.35 385.922 254.644 386.029 254.775C385.943 254.736 385.824 254.724 385.801 254.662C385.751 254.567 385.766 254.418 385.748 254.297L385.683 254.35Z" fill="#032363"/>
<path d="M315.762 86.5167C317.731 86.5975 318.553 87.6394 318.386 89.5689C318.126 92.4171 313.148 96.0125 309.835 95.6151C307.437 95.3409 306.112 93.9482 306.454 91.4677C306.815 88.8094 312.159 86.0299 315.762 86.5167Z" fill="#F800A2"/>
<path d="M59.1551 431.669C60.9134 413.807 67.7294 399.293 76.3367 383.491C91.6608 355.356 110.75 332.41 137.517 314.539C150.3 306.004 163.439 300.577 178.082 296.481C181.142 295.625 173.407 305.146 172.851 305.974C168.085 313.06 172.725 307.363 175.911 304.748C179.035 302.185 188.017 298.281 189.535 294.442C189.708 294.004 171.076 295.091 170.084 295.015C163.095 294.477 156.117 293.64 149.141 292.953" stroke="#014DFB" stroke-width="3" stroke-linecap="round"/>
<path d="M58.4058 446.176C58.7392 448.752 59.1563 451.347 59.2459 453.949C59.2508 454.09 59.2004 455.17 59.2071 455.102C59.329 453.864 59.3347 452.544 59.6523 451.338C60.1771 449.345 62.1395 445.729 64.7939 446.132C66.1129 446.333 65.6525 451.02 66.3149 451.919C66.8482 452.644 66.8319 451.94 67.1681 451.406C67.9408 450.178 69.5533 448.588 70.8337 447.922C72.3055 447.156 75.9499 446.255 77.0373 448.047C77.8679 449.416 78.2803 451.232 78.2462 452.832C78.2341 453.398 78.2854 455.176 78.8801 453.978C80.7478 450.214 83.6898 447.29 87.8479 446.311C89.5457 445.911 90.9298 446.017 92.6389 446.185C93.6288 446.283 94.8797 446.406 93.175 446.238C91.851 446.108 87.0732 444.913 86.5698 446.969C85.8738 449.813 86.4398 453.056 88.6489 455.051C90.2545 456.501 92.7553 456.7 93.7127 454.43C94.4166 452.76 94.6298 451.03 95.6348 449.504C96.3807 448.372 97.0159 450.199 97.4816 450.843C98.8245 452.701 100.095 454.373 102.209 455.341C103.233 455.809 105.77 456.807 106.832 455.982C107.877 455.171 109.338 447.73 109.506 447.771C110.064 447.907 110.483 451.114 110.692 451.658C111.222 453.044 111.945 453.921 112.985 454.908C114.618 456.457 115.108 456.247 116.711 454.603" stroke="#014DFB" stroke-width="3" stroke-linecap="round"/>
<path d="M111.62 434.616C111.051 436.14 109.992 437.5 109.83 439.144" stroke="#014DFB" stroke-width="3" stroke-linecap="round"/>
<path d="M115.244 455.803C115.433 453.876 117.554 452.885 118.706 451.533C121.433 448.334 123.603 444.809 126.205 441.538C127.069 440.452 134.884 430.857 130.824 430.457C129.102 430.288 127.749 429.926 126.459 431.371C124.627 433.424 122.762 436.98 122.041 439.654C118.765 451.807 133.189 455.218 142.094 456.094" stroke="#014DFB" stroke-width="3" stroke-linecap="round"/>
<path d="M67.8574 472.978C67.8476 475.616 68.0032 478.323 67.7441 480.956C67.6763 481.644 67.7986 480.401 67.8096 480.29C68.0621 477.725 67.9998 475.616 69.8807 473.662C73.1224 470.295 76.3133 475.092 76.0763 478.229C75.951 479.887 75.3934 481.041 76.4321 478.787C77.6541 476.135 80.1392 474.275 82.923 473.527C84.2907 473.16 87.0016 473.005 87.7084 474.596C88.4976 476.372 88.1618 478.333 87.9796 480.185C87.7939 482.071 87.6156 481.967 88.9673 480.581C91.8855 477.589 95.5217 474.96 99.4165 473.415C100.273 473.075 111.608 469.811 110.114 473.591C109.647 474.772 106.618 473.409 106.156 473.22C104.267 472.444 101.928 472.024 99.8618 472.115C98.4598 472.176 98.3704 475.502 98.4601 476.494C98.6178 478.24 100.076 479.579 101.654 480.075C105.46 481.271 107.439 478.468 108.711 475.132C108.832 474.817 109.559 478.248 109.87 478.905C110.553 480.345 111.766 480.989 113.12 481.54C116.782 483.029 117.53 477.514 119.599 475.644C120.227 475.077 121.581 479.917 121.743 480.41C121.851 480.736 122.604 484.258 122.942 483.403C124.109 480.451 130.15 473.777 133.905 475.951C135.432 476.835 134.769 483.573 136.819 482.379C140.089 480.475 142.861 477.646 146.421 476.231C149.909 474.845 153.857 475.059 157.514 475.419C159.857 475.65 152.775 474.457 150.469 474.931C147.153 475.613 145.598 477.999 146.66 481.201C147.062 482.415 148.139 484.581 149.496 485.008C152.981 486.108 154.746 480.981 155.682 478.487C156.478 476.361 157.241 480.203 157.522 480.647C158.213 481.734 159.33 484.44 160.773 484.793C162.053 485.106 162.916 484.564 163.83 483.694C167.423 480.277 171.406 477.151 176.251 475.845C177.378 475.541 182.862 473.95 183.898 475.142C184.517 475.853 184.636 476.745 183.601 476.643C180.566 476.344 174.541 476.338 173.947 480.658C173.593 483.235 176.065 483.967 178.136 482.862C180.907 481.385 182.876 479.009 183.744 475.948C183.822 475.673 183.904 474.786 183.855 475.585C183.746 477.36 184.138 479.33 184.34 481.084C184.662 483.873 185.069 486.636 185.347 489.434C185.537 491.337 186.311 494.109 185.176 495.913C184.223 497.427 182.895 496.831 182.253 495.457C181.486 493.813 180.344 489.537 181.395 487.868C182.743 485.727 188.719 485.823 190.689 485.423C193.578 484.836 198.677 483.82 199.476 480.352C199.63 479.681 200.232 477.276 199.5 476.696C198.144 475.623 194.065 475.044 193.015 476.767C191.373 479.466 192.23 482.547 194.264 484.749C195.978 486.603 198.173 488.254 200.504 489.246C202.479 490.085 203.101 488.537 203.902 486.967C205.401 484.03 206.696 480.873 207.758 477.752C208.604 475.267 209.86 481.198 210.094 481.902C210.653 483.588 210.906 485.367 211.628 486.981C211.887 487.559 213.292 482.595 213.545 481.924C215.071 477.877 216.872 473.198 221.841 473.687C223.239 473.825 224.194 473.816 225.269 474.697" stroke="#014DFB" stroke-width="3" stroke-linecap="round"/>
</svg>
