<svg width="193" height="196" viewBox="0 0 193 196" fill="none" xmlns="http://www.w3.org/2000/svg">
<path d="M1.6293 141.607C0.629302 127.817 0.289302 113.797 1.3893 99.7574C2.2193 89.2074 2.8193 78.6274 3.4293 68.0574C4.1193 56.0674 3.6193 44.1074 3.7593 32.1374C3.9793 13.4874 19.2993 1.21734 37.5193 5.18734C43.7593 6.54734 50.1893 5.92737 56.4593 5.39737C66.9193 4.51737 77.3893 5.33737 87.8293 4.80737C102.239 4.07737 116.579 2.33734 130.949 0.967343C145.059 -0.382657 159.279 0.0673425 173.199 3.46734C186.129 6.62734 190.669 18.0574 192.169 30.5774C192.909 36.7474 191.139 42.9873 191.529 49.0973C192.619 66.1873 190.809 83.1974 190.689 100.237C190.629 109.037 191.819 117.847 190.949 126.647C189.269 143.597 188.789 160.737 184.149 177.277C181.529 186.607 175.169 191.787 165.369 192.487C160.279 192.847 155.359 194.287 150.389 195.237C140.109 197.207 130.139 195.397 119.999 194.717C100.369 193.397 80.7293 192.197 61.0293 193.737C53.2993 194.337 45.6793 192.777 38.0193 192.057C33.9193 191.667 29.6893 191.847 25.7293 190.917C13.4093 188.027 6.8093 179.577 3.8993 167.637C1.8193 159.127 1.1093 150.547 1.6293 141.597V141.607Z" fill="#E500A0"/>
<path d="M132.639 135.217C127.129 135.407 121.849 136.947 116.489 138.017C115.279 138.257 114.059 138.537 112.829 138.557C102.929 138.767 93.0591 139.747 83.1891 139.947C67.5991 140.267 52.6391 137.747 37.9791 131.307C26.7191 126.367 18.6891 118.977 12.8291 108.887C6.06914 97.2574 8.96914 80.9774 23.0491 72.6874C33.5491 66.5074 44.6791 62.9174 56.4891 60.8074C59.0391 60.3574 61.4291 59.1374 64.0891 59.1574C65.9591 58.2074 68.1491 58.6474 70.0291 57.7574C75.5991 57.2974 81.0091 55.4174 86.7391 56.1074C89.5791 56.4474 92.4191 56.2674 95.2391 57.2474C98.7891 58.4974 102.209 56.4274 105.699 56.1674C117.109 55.2974 128.389 56.3974 139.409 59.5274C141.699 60.1774 143.859 61.4274 145.949 62.6374C155.059 67.9474 165.629 70.9474 172.429 79.8974C177.869 87.0674 180.659 94.3674 177.859 103.677C174.259 115.637 166.329 123.167 155.809 128.867C150.679 131.647 145.129 132.607 139.569 133.757C137.449 135.127 134.829 134.127 132.649 135.207L132.639 135.217Z" fill="#0D1F5E"/>
<path d="M132.641 135.218C134.671 133.408 137.131 133.658 139.561 133.768C137.741 136.568 135.011 135.038 132.641 135.218Z" fill="#5E23A3"/>
<path d="M70.0298 57.7578C68.3398 59.4678 66.2298 59.3778 64.0898 59.1578C65.6598 56.9578 67.9298 57.7078 70.0298 57.7578Z" fill="#781280"/>
<path d="M94.2998 133.767C81.4998 134.117 68.6798 134.087 56.0498 131.887C51.4798 131.087 47.2798 128.407 42.7498 127.147C30.1898 123.627 22.5898 114.637 16.8898 103.777C12.2498 94.9371 15.7398 83.0272 24.2298 77.8672C27.6098 75.8172 30.7398 73.4272 34.3098 71.6172C40.2198 68.6172 46.7098 67.8672 52.9198 66.0372C58.6998 64.3372 64.5598 62.8572 70.4398 61.5172C77.2498 59.9672 84.5598 57.2772 91.0498 59.5472C99.7598 62.5872 108.32 61.1872 116.94 61.7072C136.03 62.8472 153.35 68.0472 166.86 82.6472C174.85 91.2772 174.09 96.3571 170.16 106.967C164.92 121.137 153.41 126.717 139.37 128.897C132.53 129.957 125.88 132.267 119.03 133.267C113.76 134.037 108.32 133.677 102.96 133.777C100.07 133.827 97.1798 133.777 94.2798 133.777L94.2998 133.767Z" fill="#0E4BF3"/>
<path d="M159.158 90.2578C159.198 95.2378 156.418 99.6678 151.608 101.478C145.848 103.648 139.948 105.538 133.748 105.898C132.308 105.978 131.788 106.538 131.408 107.628C130.548 110.078 129.328 112.408 129.408 115.138C129.478 117.588 128.568 119.808 126.858 121.468C124.438 123.828 121.338 124.288 118.508 122.568C115.388 120.658 115.068 117.388 116.108 114.158C118.598 106.458 121.268 98.8178 123.818 91.1378C124.598 88.7978 125.628 86.4478 125.848 84.0378C126.268 79.3878 129.528 77.6878 133.168 76.9378C137.878 75.9578 142.778 76.2078 147.538 76.7978C154.058 77.6078 159.098 83.7278 159.158 90.2778V90.2578Z" fill="#FAFBF9"/>
<path d="M97.8599 82.6071C101.63 80.2871 104.84 78.1571 108.77 77.8171C115.09 77.2771 119.18 81.167 118.49 87.5271C117.72 94.667 115.83 101.577 112.65 108.047C111.35 110.687 109.11 112.487 105.93 111.287C102.66 110.047 102.47 107.187 103.29 104.367C104.68 99.6271 106.37 94.9771 107.88 90.2671C109.11 86.4471 108.64 85.8671 104.65 86.8171C99.6299 88.0071 95.1599 89.6571 94.6699 96.1371C94.4299 99.3271 92.8899 102.457 91.7199 105.537C90.1899 109.587 85.9899 111.897 82.6499 110.747C79.7099 109.727 78.2399 106.347 79.6499 101.947C83.0599 91.3471 85.8099 80.5971 88.0099 69.6871C88.5499 67.0071 90.7999 65.3471 93.6299 66.1871C96.3499 66.9871 99.8299 67.4371 98.9799 71.9671C98.3599 75.2771 98.2499 78.6771 97.8499 82.5971L97.8599 82.6071Z" fill="#F9FBF8"/>
<path d="M57.229 106.947C54.949 106.947 51.659 106.027 50.619 107.167C49.079 108.857 49.109 111.997 48.509 114.527C48.289 115.457 48.139 116.417 48.039 117.377C47.559 121.947 46.199 123.007 41.569 122.337C38.199 121.857 36.629 119.377 37.519 115.647C40.039 105.087 42.559 94.5269 45.209 83.9969C46.839 77.5169 48.779 76.4769 55.599 77.1369C59.009 77.4669 62.469 77.1669 65.909 77.1769C72.769 77.1969 78.579 81.8469 79.869 88.3469C81.309 95.5869 78.099 101.467 71.259 104.237C66.749 106.057 62.129 107.317 57.219 106.947H57.229Z" fill="#FAFBF8"/>
<path d="M137.948 85.9875C140.388 86.2375 142.868 86.3275 145.268 86.7975C147.578 87.2475 149.228 88.6575 149.378 91.2375C149.518 93.6975 147.738 94.3275 145.838 95.0475C142.538 96.2975 138.988 95.1675 135.708 96.3275C135.458 96.4175 134.978 96.4675 134.918 96.3675C133.428 93.5475 135.598 90.8875 135.318 88.0775C135.148 86.3975 136.248 85.6074 137.948 85.9974V85.9875Z" fill="#144DEE"/>
<path d="M60.5408 86.087C62.3208 86.087 64.1208 85.947 65.8808 86.117C68.7108 86.387 70.2308 88.227 70.8108 90.877C71.4008 93.537 70.2508 95.427 67.9008 96.587C63.0008 98.987 57.9908 97.887 53.0008 96.957C52.7508 96.907 52.3308 96.727 52.3108 96.577C52.0008 93.257 53.3708 90.177 53.8308 86.967C54.1408 84.807 56.3208 86.087 57.6608 85.917C58.6008 85.797 59.5808 85.897 60.5408 85.897C60.5408 85.967 60.5408 86.037 60.5408 86.097V86.087Z" fill="#114DF2"/>
</svg>
