<svg width="238" height="159" viewBox="0 0 238 159" fill="none" xmlns="http://www.w3.org/2000/svg">
<path d="M196.606 87.6952C182.576 87.3114 168.584 88.0977 154.6 89.1272C154.516 89.1272 154.432 89.146 154.348 89.146C133.101 89.0336 111.865 91.0834 90.6371 89.7169C78.7411 88.9494 66.8451 89.3238 54.9585 88.8465C49.3334 88.6218 44.1387 86.8154 38.7476 85.8046C36.2299 85.3366 34.2645 82.2854 34.3487 79.5711C34.564 72.1864 34.8635 64.8017 35.2004 57.4264C35.2379 56.6215 35.1349 55.9756 34.8167 55.2456C33.2255 51.5766 34.1521 48.4131 37.5964 46.5692C39.9831 45.2963 42.5663 44.2762 45.3087 44.1358C48.8747 43.9579 52.4407 43.3028 55.9412 43.2841C65.385 43.2466 74.6697 41.225 84.1509 41.5619C101.831 42.189 119.521 41.7398 137.201 41.356C146.766 41.1501 156.397 40.9629 165.944 39.8117C172.954 38.9693 179.806 40.7663 186.741 41.2062C195.314 41.7491 203.897 41.8895 212.443 40.888C215.999 40.4669 219.546 40.0737 223.112 40.1112C229.177 40.1861 233.127 44.4821 233.314 50.5284C233.52 57.0052 233.062 63.4258 232.425 69.8465C232.107 73.0194 231.077 75.9864 229.608 78.7943C227.193 83.4273 222.635 85.009 218.124 86.5814C211.741 88.809 205.114 87.1524 198.628 87.6859C197.954 87.742 197.271 87.6859 196.587 87.6859L196.606 87.6952Z" fill="#02205F"/>
<path d="M181.75 115.83C180.318 102.774 195.78 90.4285 209.267 95.1738C216.137 97.5886 224.299 110.346 220.658 117.59C220.059 118.788 220.022 120.295 219.329 121.418C217.972 123.617 218.449 125.246 220.246 126.884C225.207 131.395 227.537 137.666 230.916 143.226C232.208 145.36 233.499 147.372 235.39 149.019C237.767 151.088 238.385 153.259 237.384 155.543C236.41 157.752 233.827 159.174 231.028 158.856C227.416 158.444 224.477 156.872 222.146 153.952C216.905 147.4 212.337 140.39 207.864 133.323C207.302 132.434 206.806 132.369 206.02 132.781C196.932 137.526 188.714 131.395 184.277 125.302C182.106 122.326 181.301 119.059 181.769 115.83H181.75Z" fill="#02205F"/>
<path d="M26.7607 15.2341C21.0045 15.1124 18.1031 12.2671 18.4962 7.14744C18.5243 6.81049 18.5524 6.46423 18.6179 6.13664C19.479 2.26178 23.307 -0.0219901 27.2099 1.00756C34.136 2.84204 36.635 5.73414 35.306 10.3671C34.3794 13.6055 31.3469 15.3277 26.7607 15.2341Z" fill="#41EA00"/>
<path d="M15.0416 8.28882C15.0322 12.5755 11.8218 16.1415 7.99378 16.1228C4.12828 16.1041 0.852512 12.5661 0.824433 8.37302C0.796354 3.74004 3.52933 0.782412 7.82537 0.763693C12.0091 0.754333 15.0509 3.91789 15.0416 8.27945V8.28882Z" fill="#F900A4"/>
<path d="M36.8863 6.53867C37.6631 2.96331 40.4805 1.23179 45.2725 1.39091C48.0336 1.4845 50.2706 3.49681 50.673 6.24852C51.1504 9.55245 48.539 13.5209 45.207 14.5505C42.1932 15.4864 39.0017 14.1199 37.448 11.2185C37.2514 10.8441 37.0922 10.4509 36.9144 10.0672C36.5026 8.88788 36.54 7.71796 36.8957 6.5293L36.8863 6.53867Z" fill="#03215F"/>
<path d="M104.435 79.4127C93.5784 79.4782 79.0617 78.0555 64.5169 78.7669C60.8667 78.9447 57.1884 78.7856 53.5569 79.1787C49.4948 79.6186 45.6762 77.8215 41.6515 78.2989C40.7437 78.4112 40.5939 77.6718 40.5658 76.9324C40.3037 70.2216 40.0511 63.5201 39.7703 56.8093C39.7515 56.3507 39.7702 55.9295 40.2008 55.7142C42.5875 54.4601 44.7121 52.6256 47.6136 52.5507C67.3061 52.0734 87.008 51.596 106.71 51.7832C114.366 51.8581 122.013 51.9892 129.669 51.9985C143.016 52.0079 156.344 51.6054 169.578 49.5556C174.398 48.8162 179.256 49.7616 184.067 50.0611C189.505 50.398 194.943 50.5758 200.371 50.4261C206.361 50.2576 212.23 51.1749 218.164 51.568C219.483 51.6522 219.689 52.2512 219.558 53.3744C219.343 55.2275 219.334 57.1182 219.006 58.9527C218.36 62.5935 218.37 66.2157 218.744 69.8753C219.109 73.4413 218.257 74.6299 214.804 74.9763C211.509 75.3038 208.186 75.594 204.882 75.5378C188.877 75.2664 172.957 76.6048 157.055 78.1304C149.754 78.8324 142.426 78.2053 135.144 78.823C126.14 79.5811 117.127 79.0383 104.445 79.422L104.435 79.4127Z" fill="#FDFDFD"/>
<path d="M189.112 115.634C188.906 112.948 189.776 110.702 190.684 108.512C191.573 106.378 193.136 105.152 195.682 105.507C198.555 105.919 201.373 106.471 204.096 107.463C207.307 108.624 208.608 111.731 210.536 114.118C211.5 115.307 209.656 120.82 208.243 121.784C205.631 123.562 202.72 124.76 199.735 125.761C198.742 126.089 197.713 126.005 196.777 125.443C194.886 124.301 192.968 123.206 191.423 121.578C189.785 119.846 188.578 117.946 189.093 115.634H189.112Z" fill="#FDFDFD"/>
</svg>

