<svg width="187" height="221" viewBox="0 0 187 221" fill="none" xmlns="http://www.w3.org/2000/svg">
<path d="M184.069 186.96C183.809 184.24 183.129 181.63 181.659 179.35C178.959 175.17 177.389 170.61 177.339 165.71C177.299 162.03 177.109 158.39 176.499 154.79C175.569 149.27 175.109 143.64 174.939 138.13C174.709 130.89 173.399 123.8 173.049 116.6C172.959 114.82 172.989 113.04 172.909 111.26C172.499 102.43 171.109 93.6698 170.659 84.8498C170.459 80.8598 169.049 77.1098 168.809 73.1398C168.709 71.4398 168.829 69.7398 168.359 68.0298C167.459 64.7098 167.149 61.2798 166.879 57.8498C166.699 55.6198 166.529 53.3798 166.049 51.1898C164.999 46.3898 161.449 43.2498 156.579 42.9398C153.819 42.7698 151.049 43.0298 148.289 42.9598C145.409 42.8898 142.959 42.1298 141.819 39.1298C140.319 37.1698 139.029 35.0298 137.099 33.4498C136.129 32.6498 135.109 31.7298 133.709 32.4098C133.639 32.4398 133.569 32.4598 133.499 32.5098C128.079 32.0898 125.909 36.3898 125.519 40.4598C125.119 44.6198 124.889 48.7498 125.079 52.9298C125.549 63.5498 124.559 74.1498 124.609 84.7698C124.649 92.8398 124.839 100.9 124.309 108.98C123.809 116.5 123.869 124.07 123.799 131.61C123.739 138.41 123.409 145.18 122.909 151.96C122.259 160.73 121.599 169.5 121.109 178.28C120.639 186.78 121.379 195.28 121.219 203.79C121.169 206.56 121.279 209.31 120.459 211.92C119.959 213.53 119.619 215.07 119.739 216.72C120.069 216.96 120.239 217.27 120.149 217.68C122.019 220.45 124.459 221.35 127.889 220.75C129.929 220.39 131.529 219.07 133.469 218.55C134.679 218.19 135.789 217.51 137.059 217.33C141.749 216.67 146.289 215.55 150.829 214.09C156.859 212.15 162.929 210.2 169.449 210.14C173.359 210.1 176.959 208.02 180.799 207.21C181.829 206.99 182.899 206.43 183.629 205.51C183.839 205.14 184.099 204.81 184.369 204.49C184.059 204.69 183.739 204.89 183.429 205.08C183.599 204.26 184.129 203.73 184.809 203.31C184.809 203.53 184.809 203.75 184.809 203.97C185.039 203.71 185.259 203.45 185.459 203.17C187.429 199.01 186.619 194.87 185.319 190.75C184.919 189.48 184.169 188.32 184.039 186.97L184.069 186.96Z" fill="#518828"/>
<path d="M119.741 216.72C119.211 216.84 118.811 217.09 118.841 217.71C119.281 217.7 119.711 217.69 120.151 217.68C120.231 217.27 120.071 216.96 119.741 216.72Z" fill="#A7E27A"/>
<path d="M101.442 84.2197C100.702 80.9497 98.9416 78.6097 96.3116 76.7397C95.5916 76.6497 94.7216 76.8497 94.5016 75.7997C94.1016 75.7597 93.6916 75.7297 93.2916 75.6897C92.4416 75.6397 91.3916 76.1997 90.9616 74.9097C85.2716 74.6697 79.5916 74.6497 73.9716 75.7797C73.2016 76.5197 72.2816 76.7697 71.2416 76.6597L71.2716 76.6997C70.9916 77.7797 70.1416 77.5097 69.3916 77.4897L68.5816 77.5997C68.4816 78.4197 67.8116 78.3997 67.2316 78.4997C66.6716 79.3697 65.8216 79.4197 64.9216 79.3297C64.1816 79.6497 63.4016 79.8997 62.7116 80.2997C57.6716 83.2497 52.0816 85.4797 48.4016 90.2897C44.5216 95.3497 40.4916 100.32 37.9916 106.29C37.9516 107.02 38.1916 107.88 37.1416 108.16C37.0616 108.67 37.0616 109.22 36.8916 109.7C34.9716 115.17 35.2316 120.61 37.1016 126.03C38.4816 126.41 37.8516 127.5 37.9216 128.35C37.9916 128.86 38.1316 129.33 38.3416 129.83C39.7916 133.33 42.6116 135.81 44.9016 138.67C48.2816 142.89 52.6116 146.09 56.9016 149.3C57.6216 149.41 58.5316 149.13 58.7316 150.24C61.2316 150.67 61.6516 152.72 61.6816 154.61C61.7516 159.88 61.2016 163.86 55.0716 162.8C53.5116 162.77 51.8816 163.18 50.5316 162C47.8316 160.27 44.7016 159.25 42.4316 156.81C40.6716 154.92 38.2716 154.12 35.9116 155.03C33.6916 155.88 32.2116 157.69 31.5216 160.24C30.8216 162.83 30.9816 165.54 29.9816 168.1C28.7416 171.27 28.9016 174.45 30.8316 177.44C32.3316 179.77 34.8016 180.6 37.0716 181.76C38.3616 181.73 39.6616 181.66 40.7216 182.61C43.3416 182.56 45.9416 182.71 48.4116 183.65C49.4616 184.05 50.4716 184.46 51.6316 184.45C56.3416 184.39 61.0416 184.38 65.7516 184.34C66.4116 182.99 67.6016 183.72 68.5816 183.62C68.8516 183.58 69.1316 183.55 69.4016 183.51C69.9016 182.96 70.4716 182.59 71.2516 182.69L71.2316 182.67C71.6616 182.01 72.2916 181.75 73.0616 181.78C75.6216 180.84 77.2216 178.54 79.4916 177.19C82.4816 175.4 84.7216 173.09 85.9416 169.69C86.4516 168.26 86.8116 166.56 88.1816 165.51C88.2316 164.96 88.2916 164.4 88.3416 163.85C88.3516 163.11 87.9616 162.2 89.1416 161.95C89.2316 161.45 89.4316 161.05 90.0016 160.99C89.8316 159.39 90.7916 158.04 91.0416 156.51C91.7116 152.48 92.2116 148.5 90.9216 144.51C90.0216 143.97 90.0016 143.11 90.0716 142.21L90.0416 142.23C88.9416 142 89.1916 141.14 89.1816 140.4C88.5016 139.19 87.9116 137.93 87.1316 136.79C82.8416 130.57 76.8716 126.09 71.0316 121.51C68.0216 119.15 64.0016 117.86 63.0916 113.46C62.2616 112.7 62.0716 111.75 62.2916 110.69C62.2916 110.1 62.2916 109.51 62.2916 108.91C62.3816 105.73 64.4016 103.59 67.3716 102.39C69.4716 101.54 71.1116 102.71 72.9616 102.72C73.7116 102.7 74.5716 102.42 74.8316 103.53L74.8116 103.55C75.8416 103.46 76.7916 103.61 77.5316 104.42C77.8016 104.45 78.0816 104.48 78.3516 104.52C79.1016 104.49 79.9516 104.22 80.2316 105.32C80.3616 105.36 80.4916 105.38 80.6216 105.4C81.5416 105.24 82.2916 105.55 82.8916 106.25C85.5116 107.13 88.1816 107.54 90.9416 107.12C91.1916 106.01 92.0616 106.31 92.8016 106.3C95.6416 104.7 97.4816 102.35 98.2416 99.1697C98.2216 98.4197 97.8316 97.5297 99.0016 97.2497C99.1616 95.4397 100.102 93.7797 100.022 91.9197C99.8716 91.0097 99.8916 90.1497 100.792 89.5897C100.592 87.7597 101.872 86.1997 101.422 84.1897L101.442 84.2197Z" fill="#F1D7E0"/>
<path d="M55.0695 162.82C53.8095 161.13 52.0295 162.32 50.5195 162.02C51.8695 163.2 53.5095 162.79 55.0595 162.82H55.0695Z" fill="#9AE357"/>
<path d="M37.0781 181.78C37.9581 183.52 39.5081 182.37 40.7281 182.63C39.6681 181.68 38.3681 181.75 37.0781 181.78Z" fill="#90E549"/>
<path d="M65.7617 184.36C66.7517 184.3 67.9317 185.01 68.5917 183.64C67.6117 183.74 66.4217 183.01 65.7617 184.36Z" fill="#B7DF86"/>
<path d="M73.9604 75.7802C73.0204 75.9802 71.7105 75.0302 71.2305 76.6602C72.2705 76.7702 73.1904 76.5102 73.9604 75.7802Z" fill="#92E555"/>
<path d="M100.041 91.9599C101.331 91.5199 100.771 90.4799 100.821 89.6299C99.9214 90.1899 99.8913 91.0499 100.051 91.9599H100.041Z" fill="#A6E269"/>
<path d="M93.2792 75.7003C92.7192 74.7903 91.8692 74.7603 90.9492 74.9203C91.3792 76.2203 92.4292 75.6603 93.2792 75.7003Z" fill="#C7DD9F"/>
<path d="M37.1088 126.05C36.9988 126.96 37.0188 127.82 37.9288 128.37C37.8688 127.52 38.4888 126.44 37.1088 126.05Z" fill="#CFDCA5"/>
<path d="M90.9413 144.54C90.8713 143.69 91.5013 142.59 90.0913 142.24C90.0113 143.14 90.0413 144 90.9413 144.54Z" fill="#9EE463"/>
<path d="M56.9102 149.32C56.9802 150.69 57.9801 150.24 58.7401 150.26C58.5401 149.15 57.6302 149.42 56.9102 149.32Z" fill="#91E652"/>
<path d="M96.31 76.7497C96.25 75.3797 95.24 75.8397 94.5 75.8097C94.72 76.8597 95.6 76.6597 96.31 76.7497Z" fill="#9AE15D"/>
<path d="M71.2706 76.7098C70.5206 76.6798 69.6706 76.3998 69.3906 77.4998C70.1306 77.5198 70.9906 77.7998 71.2706 76.7098Z" fill="#AFE079"/>
<path d="M90.0599 142.26C90.0599 141.51 90.3299 140.64 89.1999 140.43C89.1999 141.17 88.9699 142.03 90.0599 142.26Z" fill="#B5DF7E"/>
<path d="M98.2618 99.2003C99.3518 98.8903 99.0518 98.0303 99.0218 97.2803C97.8518 97.5503 98.2418 98.4503 98.2618 99.2003Z" fill="#C7DD9B"/>
<path d="M74.8505 103.56C74.5905 102.45 73.7305 102.73 72.9805 102.75C73.2505 103.84 74.1005 103.58 74.8505 103.56Z" fill="#BADE86"/>
<path d="M74.8281 103.58C75.5381 104.47 76.4981 104.62 77.5481 104.46C76.8081 103.64 75.8581 103.49 74.8281 103.58Z" fill="#AAE171"/>
<path d="M78.3711 104.55C78.6411 105.65 79.5011 105.38 80.2511 105.35C79.9811 104.25 79.1211 104.52 78.3711 104.55Z" fill="#B5DF7D"/>
<path d="M90.9609 107.15C91.7209 107.19 92.571 107.45 92.821 106.33C92.081 106.33 91.2109 106.04 90.9609 107.15Z" fill="#BFDF8D"/>
<path d="M63.0994 113.49C63.2494 112.45 63.0194 111.51 62.2994 110.72C62.0794 111.79 62.2694 112.73 63.0994 113.49Z" fill="#CADCA9"/>
<path d="M88.3514 163.88C88.3014 164.43 88.2414 164.99 88.1914 165.54C89.5614 165.49 89.1014 164.48 89.1414 163.73C88.8814 163.78 88.6214 163.83 88.3514 163.88Z" fill="#95E24F"/>
<path d="M89.1508 161.98C87.9708 162.22 88.3609 163.14 88.3509 163.88C88.6109 163.83 88.8709 163.78 89.1409 163.73C89.1709 163.46 89.2009 163.19 89.2309 162.93C89.2009 162.62 89.1808 162.3 89.1508 161.99V161.98Z" fill="#D8DCB7"/>
<path d="M89.1484 161.98C89.1784 162.29 89.1985 162.61 89.2285 162.92C89.9985 162.49 90.2085 161.84 90.0085 161.02C89.4385 161.09 89.2384 161.49 89.1484 161.98Z" fill="#A2E16C"/>
<path d="M37.999 106.3C37.149 106.67 36.9889 107.35 37.1489 108.17C38.1989 107.89 37.959 107.03 37.999 106.3Z" fill="#A2E168"/>
<path d="M80.6406 105.43C81.1406 106.39 82.0106 106.38 82.9106 106.28C82.3106 105.58 81.5606 105.27 80.6406 105.43Z" fill="#A8E171"/>
<path d="M67.2319 78.5099C67.0419 78.4699 66.8619 78.4199 66.6719 78.3799C65.9519 78.4499 65.3619 78.7499 64.9219 79.3399C65.8219 79.4299 66.6719 79.3799 67.2319 78.5099Z" fill="#CDDDA4"/>
<path d="M67.2319 78.5101C67.8119 78.4001 68.4818 78.4201 68.5818 77.6101C67.7618 77.4201 67.1319 77.6801 66.6719 78.3801C66.8619 78.4201 67.0419 78.4701 67.2319 78.5101Z" fill="#ABE077"/>
<path d="M39.2782 55.9403C40.2082 56.0903 40.9782 55.8103 41.5682 55.0703C41.3382 55.0703 41.1082 55.0703 40.8682 55.0803C40.6482 55.0803 40.4382 55.0803 40.2182 55.0903C40.1082 55.1503 39.9982 55.1603 39.8782 55.1203C39.6282 55.2303 39.3582 55.3203 39.2682 55.5603C39.2282 55.6603 39.2182 55.7803 39.2682 55.9303L39.2782 55.9403Z" fill="#A1EB6C"/>
<path d="M71.25 182.7C71.98 182.65 72.87 182.92 73.08 181.81C72.31 181.78 71.68 182.05 71.25 182.7Z" fill="#D6D9A7"/>
<path d="M63.15 47.0303C62.52 47.3003 61.81 47.3603 61.25 47.8103C62.05 47.9603 62.64 47.6003 63.15 47.0303Z" fill="#AEEE7F"/>
<path d="M38.8917 56.0099C38.6917 55.9899 38.4817 55.9699 38.2817 55.9499C38.1817 55.9499 38.0817 55.9299 37.9817 55.9199C37.7117 55.9699 37.4417 56.0199 37.1717 56.0699C37.1517 56.1699 37.1217 56.2799 37.1017 56.3799C37.0717 56.5199 37.0417 56.6599 37.0117 56.8099C37.7917 56.9099 38.4017 56.5999 38.8917 55.9999V56.0099Z" fill="#A9ED7A"/>
<path d="M71.2719 182.72C70.4919 182.62 69.9119 182.99 69.4219 183.54C70.1619 183.55 71.0119 183.81 71.2719 182.72Z" fill="#C1DF9C"/>
<path d="M133.002 31.8098C131.712 31.6498 130.932 30.7398 129.942 30.1098C128.552 29.2298 127.092 28.4798 125.352 28.5798C124.532 28.6198 123.702 28.5898 122.982 28.0798C121.632 26.6098 121.232 24.6298 120.222 22.9698C120.122 22.7898 120.022 22.6198 119.902 22.4598C119.312 21.6798 118.782 20.8598 118.242 20.0398C118.122 19.8798 117.992 19.7298 117.852 19.5898C116.212 17.7598 114.492 15.9898 112.592 14.4298C112.402 14.3298 112.192 14.2598 111.972 14.2298C108.472 13.0598 104.822 12.4798 101.232 11.6598C100.542 11.4698 99.8319 11.6598 99.1319 11.5198C98.3419 11.2898 97.9319 10.6598 97.5119 10.0298C97.2119 9.61979 96.8519 9.2698 96.4719 8.9398C94.6619 7.3398 93.4419 5.1998 91.6319 3.5998C91.4619 3.4598 91.2719 3.3398 91.0819 3.2298C90.1619 2.6298 89.2519 1.99979 88.2419 1.52979C84.7919 -0.110207 81.3419 0.619793 77.8919 1.52979C77.6719 1.57979 77.4619 1.62979 77.2619 1.70979C76.5619 2.06979 75.8719 2.4698 75.0919 2.6298C74.9119 2.6998 74.7419 2.78979 74.5919 2.89979C74.0919 3.36979 73.4219 3.4198 72.8219 3.6598C71.7619 4.1598 70.7119 4.68979 69.6619 5.20979C69.4919 5.29979 69.3219 5.39978 69.1619 5.51978C68.7019 5.87978 68.1519 6.08979 67.6319 6.33979C67.4619 6.43979 67.3019 6.5598 67.1519 6.6898C64.6119 8.2298 62.4919 10.2798 60.4319 12.3898C60.2919 12.5398 60.1619 12.6898 60.0419 12.8598C59.1219 13.9098 58.3719 15.0898 57.5419 16.2198C57.4319 16.3898 57.3219 16.5598 57.2319 16.7398C56.3819 18.5498 54.9419 20.0598 54.5419 22.0998C54.5219 22.6798 54.3319 23.1798 53.8819 23.5698C53.4319 24.0698 52.9519 24.5598 52.8319 25.2698C52.7419 25.8198 52.7119 26.3898 52.2919 26.8298C52.1719 26.9698 52.0719 27.1398 52.0219 27.3198C52.1319 27.5898 52.2319 27.8698 52.3419 28.1398C51.7119 28.7798 52.0919 29.9198 51.2219 30.4498C50.4619 32.4998 50.1219 34.6698 49.4919 36.7598C49.4319 36.9698 49.3919 37.1898 49.4019 37.4098C49.4819 37.9698 49.2019 38.4698 49.1419 38.9998C49.1619 40.0698 48.9319 41.0698 48.4519 42.0198C48.2719 42.9598 47.9519 43.8398 47.5519 44.6998C47.4819 44.8998 47.4219 45.1098 47.3919 45.3298C47.4919 46.3398 47.2319 47.2498 46.6019 48.0498C46.4319 48.5698 46.4019 49.1098 46.3919 49.6498C46.3986 51.6165 45.4686 52.9198 43.6019 53.5598C43.4019 53.6298 43.1819 53.6598 42.9719 53.7398C42.7819 53.8098 42.6019 53.8898 42.4319 53.9998C42.0519 54.3098 41.7119 54.6498 41.2819 54.8898C41.1519 54.9698 41.0119 55.0398 40.8719 55.1098C41.1019 55.1098 41.3319 55.1098 41.5719 55.0998C40.9719 55.8398 40.2119 56.1098 39.2819 55.9698C39.2419 55.8098 39.2419 55.6898 39.2819 55.5998C39.1319 55.6398 38.9719 55.6798 38.8219 55.7398C38.6419 55.8198 38.4619 55.9098 38.2819 55.9898C38.4819 56.0098 38.6919 56.0298 38.8919 56.0498C38.4019 56.6398 37.7919 56.9498 37.0119 56.8598C37.0419 56.7198 37.0719 56.5798 37.1019 56.4298C37.0519 56.4398 37.0119 56.4598 36.9619 56.4698C36.0719 56.5898 35.3119 57.0398 34.5219 57.4098C34.3519 57.4998 34.1819 57.5998 34.0219 57.7198C33.5319 58.0998 32.9319 58.2598 32.4019 58.5598C32.2219 58.6798 32.0519 58.8198 31.9019 58.9698C29.9119 60.2698 27.8419 61.2198 25.4619 61.7898C21.4919 62.7398 17.7319 65.8298 19.2719 70.6198C19.6119 71.6798 19.5319 72.9798 19.1619 74.1398C19.1619 74.3898 19.1619 74.6398 19.1619 74.8898C18.4519 75.6498 18.4019 76.5498 18.6319 77.5098C18.4819 79.8898 18.7719 82.2998 18.1519 84.6498C17.9319 84.9598 17.7619 85.2898 17.7219 85.6698C17.8319 87.2298 17.8019 88.7798 17.3719 90.2998C17.4519 90.4098 17.4519 90.5198 17.3519 90.6198C16.5819 92.1598 17.1319 93.9798 16.3019 95.4998C16.1019 95.8098 16.0119 96.1598 15.9919 96.5198C15.9419 98.2698 16.1019 100.04 15.5219 101.75C15.4219 101.91 15.3219 102.07 15.2119 102.24C14.9519 103.56 14.9219 104.88 14.9419 106.22C14.9619 107.44 15.1219 108.75 14.2819 109.84C14.1419 110.19 14.0619 110.56 14.0319 110.94C14.0919 113.53 13.9419 116.1 13.5219 118.66C13.5219 118.91 13.5019 119.15 13.4919 119.4C12.9519 121.92 13.3819 124.53 12.8519 127.06H12.8719C12.4519 127.43 12.2619 127.9 12.3419 128.46C12.4619 131.03 11.9019 133.56 11.9619 136.13C12.0519 136.24 12.0519 136.34 11.9619 136.44C10.7519 138.93 11.4619 141.64 11.0819 144.23C11.1719 144.33 11.1719 144.43 11.0819 144.52C10.1919 146.61 10.6619 148.97 9.77189 151.05C9.69189 151.29 9.6319 151.53 9.6019 151.77C9.3919 153.64 10.2119 155.59 9.18189 157.4C8.97189 157.68 8.80189 157.98 8.74189 158.33C8.67189 158.76 8.67189 159.19 8.68189 159.62C8.69189 159.88 8.68189 160.14 8.65189 160.4C8.83189 160.19 9.0119 159.98 9.1919 159.76C9.3019 160.67 9.36189 161.55 8.34189 162.04C8.33189 161.85 8.32189 161.66 8.31189 161.47C8.24189 161.58 8.18189 161.7 8.09189 161.81C7.66189 162.47 7.08189 162.99 6.52189 163.53C6.39189 163.68 6.27189 163.84 6.18189 164.02C5.95189 164.6 5.6119 165.12 5.3219 165.67C5.2419 165.87 5.18191 166.08 5.14191 166.3C5.33191 168.04 5.12188 169.72 4.33188 171.3C4.24188 173.61 4.14189 175.91 3.46189 178.15C3.37189 178.75 3.4019 179.36 3.3819 179.97C3.3119 180.56 3.3419 181.14 3.3819 181.73C3.3819 181.76 3.3819 181.8 3.3819 181.83C3.4719 181.78 3.5919 181.76 3.7819 181.8C3.8219 183.23 4.04189 184.7 2.99189 185.92C2.86189 185.83 2.77191 185.7 2.70191 185.56C2.42191 186.24 2.5419 187.04 2.1019 187.68C-0.538097 191.29 0.411893 194.56 2.59189 197.12C3.28189 197.56 4.0619 197.85 4.7519 198.3C4.8819 198.33 5.02189 198.34 5.15189 198.36C5.02189 198.22 4.8919 198.08 4.7519 197.93C6.0319 197.93 7.22189 198.31 8.37189 198.82C10.2019 198.61 11.9019 199.07 13.4919 199.94C14.8619 200.69 16.3019 201.2 17.8019 201.64C21.4019 202.7 25.0719 203.6 28.1219 205.98C28.6719 206.03 29.2119 206.09 29.7619 206.14C30.5619 206.05 31.1919 206.33 31.6819 206.97C35.4719 208.34 39.5319 208.49 43.3819 209.61C46.2619 210.45 49.3619 210.18 52.2319 210.84C59.2319 212.45 66.2319 213.73 73.4119 214.26C77.5519 214.56 81.7019 215.31 85.7319 216.32C91.1919 217.69 96.6219 218.87 102.282 218.63C105.432 218.49 108.562 218.74 111.632 219.48C113.122 219.48 114.622 219.48 116.112 219.48C117.022 218.9 117.922 218.32 118.832 217.74C118.802 217.11 119.202 216.87 119.732 216.75C119.612 215.09 119.952 213.56 120.452 211.95C121.272 209.34 121.162 206.59 121.212 203.82C121.372 195.31 120.632 186.81 121.102 178.31C121.592 169.53 122.252 160.76 122.902 151.99C123.402 145.22 123.732 138.44 123.792 131.64C123.862 124.09 123.802 116.53 124.302 109.01C124.842 100.93 124.642 92.8698 124.602 84.7998C124.552 74.1798 125.542 63.5798 125.072 52.9598C124.882 48.7898 125.122 44.6498 125.512 40.4898C125.902 36.4198 128.072 32.1198 133.492 32.5398C133.562 32.4998 133.632 32.4798 133.702 32.4398C133.732 32.1198 133.372 31.8898 132.972 31.8398L133.002 31.8098ZM90.0819 29.9198C90.8619 29.3698 91.4319 29.5698 91.8519 30.3898C91.8919 30.5298 91.9119 30.6598 91.9119 30.8098C92.4619 31.9598 92.1919 33.2898 92.7419 34.4398C92.8019 35.1098 92.7919 35.7998 92.9519 36.4398C93.3319 38.0198 92.5619 38.5598 91.1519 38.8498C88.3919 39.4198 85.6519 40.1098 82.9119 40.7498C82.3119 40.9898 81.7019 41.1798 81.0719 40.8198C80.8219 40.4598 80.8319 40.1098 81.0519 39.7398C84.0819 36.4798 87.3819 33.4798 90.0719 29.9198H90.0819ZM58.7519 41.7498C59.1619 41.1598 59.2219 40.4298 59.5719 39.8098C60.6019 38.1598 60.6419 36.1698 61.3919 34.4298C61.6819 33.8098 61.7419 33.0998 62.1519 32.5198C65.1019 24.8798 68.8119 17.8798 77.0819 14.6998C77.8419 14.4098 78.5719 14.0598 79.3119 13.7298C79.9319 13.4498 80.6519 13.3898 81.2119 12.9398C83.5819 12.2598 84.4719 14.1598 85.6719 15.5098C86.0519 16.1298 86.1519 16.7198 85.5319 17.2598C82.7019 19.5598 81.5119 23.0398 79.3919 25.8398C78.7619 26.6698 78.2919 27.6198 77.6019 28.3698C73.3919 32.8898 70.6119 38.2198 68.6119 43.9998C68.4019 44.6198 68.1019 44.9898 67.4719 45.2298C66.0219 45.7798 64.6119 46.4198 63.1819 47.0198C62.6819 47.5898 62.0819 47.9498 61.2819 47.7998C59.4819 48.3898 57.6819 48.9698 55.5919 49.6498C56.4519 46.7398 58.3619 44.5198 58.7719 41.7298L58.7519 41.7498ZM100.822 89.6198C100.772 90.4698 101.332 91.5198 100.042 91.9498C100.122 93.8098 99.1819 95.4698 99.0219 97.2798C99.0519 98.0298 99.3519 98.8898 98.2619 99.1998C97.5019 102.38 95.6619 104.74 92.8219 106.33C92.5719 107.45 91.7219 107.19 90.9619 107.15C88.2019 107.57 85.5319 107.16 82.9119 106.28C82.0119 106.37 81.1419 106.39 80.6419 105.43C80.5119 105.41 80.3819 105.38 80.2519 105.35C79.5019 105.38 78.6519 105.65 78.3719 104.55C78.1019 104.52 77.8219 104.49 77.5519 104.45C76.5019 104.61 75.5519 104.46 74.8319 103.58L74.8519 103.56C74.1019 103.58 73.2519 103.85 72.9819 102.75C71.1319 102.73 69.4919 101.56 67.3919 102.42C64.4319 103.62 62.4019 105.76 62.3119 108.94C62.2919 109.53 62.3119 110.12 62.3119 110.72C63.0319 111.51 63.2619 112.45 63.1119 113.49C64.0219 117.9 68.0419 119.19 71.0519 121.54C76.9019 126.12 82.8719 130.6 87.1519 136.82C87.9319 137.95 88.5219 139.22 89.2019 140.43C90.3319 140.64 90.0719 141.51 90.0619 142.26L90.0919 142.24C91.4919 142.6 90.8719 143.7 90.9419 144.54C92.2319 148.53 91.7319 152.51 91.0619 156.54C90.8119 158.07 89.8519 159.41 90.0219 161.02C90.2119 161.84 90.0119 162.5 89.2419 162.93C89.2119 163.2 89.1819 163.47 89.1519 163.73C89.1219 164.48 89.5719 165.49 88.2019 165.54C86.8319 166.59 86.4719 168.28 85.9619 169.72C84.7519 173.12 82.5019 175.43 79.5119 177.22C77.2419 178.57 75.6519 180.87 73.0819 181.81C72.8719 182.93 71.9819 182.65 71.2519 182.7L71.2719 182.72C71.0119 183.8 70.1619 183.55 69.4219 183.54C69.1519 183.58 68.8719 183.61 68.6019 183.65C67.9419 185.02 66.7619 184.3 65.7719 184.37C61.0619 184.4 56.3619 184.42 51.6519 184.48C50.4919 184.49 49.4819 184.08 48.4319 183.68C45.9619 182.74 43.3619 182.59 40.7419 182.64C39.5219 182.38 37.9719 183.53 37.0919 181.79C34.8219 180.62 32.3519 179.8 30.8519 177.47C28.9219 174.47 28.7619 171.3 30.0019 168.13C31.0019 165.58 30.8319 162.87 31.5419 160.27C32.2319 157.73 33.7119 155.91 35.9319 155.06C38.2919 154.15 40.6919 154.95 42.4519 156.84C44.7219 159.28 47.8519 160.31 50.5519 162.03C52.0619 162.33 53.8319 161.14 55.1019 162.83C61.2319 163.89 61.7819 159.91 61.7119 154.64C61.6819 152.75 61.2619 150.69 58.7619 150.27C58.0019 150.25 57.0019 150.7 56.9319 149.33C52.6419 146.11 48.3119 142.91 44.9319 138.7C42.6419 135.84 39.8219 133.36 38.3719 129.86C38.1719 129.37 38.0219 128.9 37.9519 128.38C37.0519 127.83 37.0319 126.97 37.1319 126.06C35.2619 120.64 35.0019 115.2 36.9219 109.73C37.0919 109.25 37.0919 108.7 37.1719 108.19C37.0119 107.37 37.1719 106.69 38.0219 106.32C40.5119 100.35 44.5519 95.3798 48.4319 90.3198C52.1219 85.5098 57.7119 83.2798 62.7419 80.3298C63.4319 79.9298 64.2119 79.6798 64.9519 79.3598C65.3919 78.7798 65.9819 78.4798 66.7019 78.3998C67.1519 77.6998 67.7919 77.4398 68.6119 77.6298L69.4219 77.5198C69.6919 76.4198 70.5419 76.6998 71.3019 76.7298L71.2719 76.6898C71.7519 75.0598 73.0619 76.0098 74.0019 75.8098C79.6219 74.6798 85.3019 74.6998 90.9919 74.9398C91.9119 74.7798 92.7619 74.8098 93.3219 75.7198C93.7219 75.7598 94.1319 75.7898 94.5319 75.8298C95.2819 75.8598 96.2919 75.3998 96.3419 76.7698C98.9719 78.6298 100.732 80.9698 101.472 84.2498C101.922 86.2598 100.652 87.8198 100.842 89.6498L100.822 89.6198ZM110.752 32.6098C110.152 32.8998 109.542 33.1798 108.942 33.4698C108.262 33.9598 107.342 33.8698 106.672 34.3798C106.532 34.3598 106.402 34.3798 106.292 34.4498C105.672 34.8598 105.082 34.9298 104.532 34.3398C104.362 31.5898 103.652 28.9398 102.942 26.2998C102.722 25.4598 102.272 24.4098 102.982 23.7798C103.562 23.2698 104.562 23.6398 105.322 23.8898C108.422 24.9398 109.782 27.4998 110.802 30.3398C111.192 31.0998 111.372 31.8598 110.752 32.5898V32.6098Z" fill="#79E828"/>
</svg>
