<svg width="284" height="127" viewBox="0 0 284 127" fill="none" xmlns="http://www.w3.org/2000/svg">

<g id="success">
  <path d="M59.3835 34.5036C60.2439 34.7126 61.1599 34.6081 61.9889 34.9669C62.884 35.3535 63.7304 35.7854 64.0334 36.8408C64.3609 37.9867 63.6364 38.8609 62.4626 38.7112C62.2849 38.6903 62.1108 38.5579 61.9227 38.6694C60.7176 38.6032 59.5194 38.6102 58.3456 38.9341C57.4086 39.0316 56.6807 39.561 55.9457 40.087C54.5177 41.1075 53.0757 42.1072 51.6406 43.1173C51.2192 43.4133 50.843 43.7582 50.5295 44.1622C49.4951 45.4788 48.3422 46.7083 47.5202 48.1852C46.827 49.4286 46.7574 50.7696 46.8862 52.135C46.942 52.7132 47.3704 53.1346 47.7361 53.5317C49.6065 55.5519 51.8496 56.771 54.6814 56.8302C55.89 56.8545 57.0742 57.1576 58.262 57.4258C59.6831 57.7462 61.0972 58.0701 62.4765 58.5334C65.7018 59.6097 68.9202 60.7626 71.5325 63.0057C74.0229 65.1408 75.8655 67.7984 76.8059 70.9889C77.1403 72.1209 77.1681 73.3051 77.1542 74.4859C77.1368 76.0498 77.2343 77.6276 76.8198 79.1567C76.3566 80.8704 75.6147 82.4447 74.4339 83.7927C74.1797 84.0818 73.9985 84.4301 73.7826 84.754C72.6924 86.0706 71.3932 87.1295 69.9059 87.9724C68.3002 88.8815 66.5378 89.2925 64.7614 89.6791C63.2289 90.01 61.7033 90.3966 60.1463 90.5603C56.7016 90.9226 53.3404 90.6927 50.3275 88.7073C49.9444 88.4565 49.5961 88.164 49.2826 87.8366C48.1889 86.6906 46.8444 85.792 45.9284 84.4684C45.0959 83.2667 44.577 81.971 44.7232 80.4698C44.7407 80.2817 44.7581 80.1006 44.8661 79.9404C45.2527 78.8885 45.8169 77.9829 46.935 77.5858C48.6696 76.9693 50.4738 77.6137 51.2888 79.3483C51.9611 80.7833 53.0025 81.8526 54.0579 82.9568C54.859 83.7927 55.8726 84.1619 56.9558 84.2768C58.8367 84.4754 60.6827 84.2455 62.4939 83.6499C63.6573 83.2668 64.8729 83.0543 66.0084 82.5701C67.2449 82.0442 68.2584 81.2605 68.9272 80.0693C68.9899 79.8951 69.0421 79.7175 69.1571 79.5642C69.9373 78.5402 70.1184 77.349 70.1219 76.1125C70.1288 74.876 70.188 73.636 69.7596 72.4413C69.676 72.208 69.582 71.9816 69.4601 71.7621C68.1783 69.4215 66.395 67.6416 64.0195 66.3529C60.9161 64.6706 57.6524 63.5177 54.1833 62.9708C53.0861 62.7967 51.9576 62.7514 50.9057 62.3926C48.7567 61.6612 46.618 60.9123 44.9392 59.2579C44.0754 58.408 43.1384 57.6382 42.3373 56.7048C40.6759 54.7717 40.4634 52.5251 40.6794 50.1322C40.9197 47.4502 42.1701 45.2803 43.9988 43.3924C45.6532 41.6857 47.3565 40.0173 49.4498 38.8575C51.1983 37.8892 52.8667 36.7676 54.6709 35.9038C56.1547 35.1933 57.7291 34.6708 59.387 34.4932L59.3835 34.5036Z" fill="#7AE828"/>
  <path d="M222.92 30.5885C221.91 30.9508 221.102 31.6683 220.162 32.1385C218.288 33.0685 218.155 34.8448 217.915 36.569C217.661 38.3871 218.598 39.7839 219.695 41.0552C221.548 43.2042 223.829 44.8831 226.041 46.6316C226.94 47.3421 227.877 48.0074 228.664 48.8468C229.604 49.85 230.68 50.7033 231.798 51.4905C233.766 52.8802 235.121 54.7925 236.452 56.7325C237.699 58.5507 238.552 60.5709 239.381 62.6015C239.527 62.9603 239.594 63.3504 239.695 63.7266C239.855 64.04 239.761 64.4127 239.935 64.7227C240.144 65.388 240.238 66.1055 240.266 66.7673C240.36 69.1462 240.342 71.5287 240.301 73.9111C240.301 74.0748 240.266 74.2385 240.186 74.3848C239.998 74.7261 240.078 75.1023 240.06 75.4645C240.05 75.6875 240.05 75.9139 239.931 76.1159C239.764 76.4294 239.855 76.802 239.695 77.1155C239.472 77.8679 239.263 78.6237 238.949 79.3447C237.549 82.4168 235.177 84.4613 232.136 85.8023C232.081 85.8267 232.035 85.865 231.983 85.8999C231.332 86.3143 230.579 86.4641 229.858 86.6627C228.566 87.0179 227.236 87.0946 225.895 87.0841C224.157 87.0702 222.471 86.7462 220.792 86.3387C220.593 86.29 220.402 86.2029 220.193 86.2064C218.953 85.8685 217.863 85.2799 216.992 84.3151C216.24 83.4826 215.627 81.6923 216.393 80.5951C217.622 78.3694 219.764 77.7634 222.046 77.321C223.624 77.0145 225.205 77.1817 226.783 77.0981C227.013 77.0877 227.291 77.2061 227.441 76.903C228.173 76.6975 228.942 76.708 229.681 76.4816C230.482 76.2378 230.924 75.7397 231.112 74.9421C231.447 73.5523 231.659 72.1521 231.6 70.7171C231.541 69.3169 231.718 67.9132 231.454 66.52C230.98 64.04 229.925 61.8352 228.479 59.7837C227.744 58.7388 226.863 57.861 225.86 57.0878C225.188 56.5723 224.561 56.0011 223.962 55.4055C221.541 53.0091 218.643 51.1422 216.358 48.5995C214.571 46.6107 213.021 44.4477 212.164 41.8702C211.555 40.0312 211.381 38.1921 211.941 36.2799C212.349 34.8936 212.715 33.5039 213.352 32.1942C214.195 30.4562 215.442 29.1535 217.208 28.3384C218.671 27.6662 220.137 27.0079 221.607 26.3461C222.331 26.0187 223.084 25.8411 223.878 25.8271C224.362 25.9804 224.864 26.0884 225.327 26.2904C226.299 26.7188 227.176 27.297 227.403 28.4255C227.507 28.9515 227.546 29.5506 226.88 29.8362C226.633 29.9929 226.358 29.9581 226.1 29.9024C225.118 29.6864 224.223 29.871 223.394 30.4353C223.258 30.5293 223.115 30.6164 222.938 30.5781L222.92 30.5885Z" fill="#7AE828"/>
  <path d="M106.552 52.6432C106.942 52.6502 107.227 52.3715 107.576 52.2566C108.854 51.8247 110.014 51.9988 110.999 52.9253C111.919 53.7891 112.18 55.2625 111.651 56.4641C110.909 58.1499 110.198 59.8567 109.902 61.6748C109.554 63.8274 109.213 65.9904 109.202 68.1812C109.195 69.6964 110.031 70.8458 110.968 71.9255C111.971 73.0819 113.016 74.2104 113.685 75.6071C114.204 76.6869 114.263 77.7423 112.549 78.2195C112.138 78.3344 111.727 78.2543 111.327 78.3518C110.021 78.3518 108.885 77.8224 107.802 77.1641C105.364 75.6838 103.751 73.5695 103.006 70.8109C102.88 70.3477 102.713 70.4174 102.428 70.6542C101.616 71.3264 100.832 72.0265 100.038 72.7162C98.3976 74.1373 96.5412 75.1927 94.5767 76.0739C93.4168 76.5929 92.1629 76.6312 90.9264 76.5232C89.5053 76.3943 88.1191 76.1296 86.8686 75.3389C85.1898 74.2731 84.3016 72.7301 83.8767 70.8388C83.3507 68.5086 83.7687 66.2411 84.2528 63.9806C85.0923 60.0761 86.6004 56.4328 88.5405 52.9497C89.164 51.8282 89.8606 50.7623 90.6269 49.7383C90.8359 49.4597 91.0309 49.1566 91.4071 49.0661C91.9017 48.7805 92.358 48.4391 92.9327 48.2824C93.7268 48.0699 94.4478 48.2197 94.9424 48.7944C95.4718 49.4074 95.4997 50.1319 95.0957 50.7449C93.5596 53.0855 92.6958 55.7222 91.6544 58.2823C90.8986 60.1423 90.2612 62.0371 89.9372 64.0364C89.7457 65.2171 89.6481 66.4014 89.5367 67.5856C89.4775 68.2126 89.6412 68.8151 89.7526 69.4212C89.8606 70.0168 90.7488 70.3129 91.5708 70.0795C92.6157 69.7834 93.4969 69.1669 94.3503 68.5504C96.0257 67.3383 97.5965 65.9938 99.1082 64.5797C99.2858 64.4125 99.4774 64.2488 99.5401 63.9946C99.9197 63.3293 100.425 62.7581 100.874 62.1416C102.448 59.989 103.828 57.732 104.772 55.2172C105.141 54.2315 105.705 53.3328 106.548 52.6502L106.552 52.6432Z" fill="#79E828"/>
  <path d="M172.86 46.5829C173.922 46.6004 174.713 45.8689 175.653 45.5485C177.085 45.0608 178.499 45.0399 179.955 45.3151C182.1 45.7157 183.577 47.0149 184.702 48.7912C185.531 50.1009 185.65 51.5533 185.259 53.0023C184.382 56.2694 182.013 58.1712 179.077 59.5261C177.248 60.369 175.34 60.9646 173.417 61.5288C173.041 61.6403 172.78 61.6856 172.936 62.3021C173.358 63.9566 174.671 64.6741 175.949 65.4125C177.161 66.1161 178.405 66.8057 179.791 67.1087C181.275 67.4327 182.779 67.5232 184.204 66.8545C185.987 66.0185 187.806 65.2523 189.725 64.8273C190.721 64.6044 191.801 64.3153 192.818 64.8238C193.682 65.2557 194.03 66.447 193.741 67.5163C193.375 68.8747 192.487 69.843 191.473 70.7312C191.215 70.9576 190.968 71.1979 190.714 71.4313C190.501 71.7169 190.226 71.9363 189.927 72.1174C187.903 73.3504 185.723 74.1829 183.347 74.2734C181.491 74.3466 179.641 74.1063 177.879 73.434C174.922 72.3055 172.208 70.7625 169.861 68.6204C168.924 67.7636 168.293 66.7082 167.886 65.517C167.593 64.6567 167.283 63.7998 167.147 62.8977C167.088 62.4832 166.876 62.2324 166.475 62.1001C166.141 61.9921 165.799 61.9085 165.482 61.7483C165.106 61.5602 164.72 61.3477 164.727 60.8601C164.734 60.3899 165.071 60.1356 165.465 59.951C165.671 59.8535 165.88 59.756 166.099 59.7002C166.604 59.5748 166.796 59.2683 166.778 58.7528C166.754 58.0109 166.844 57.269 166.862 56.5306C166.914 54.3711 167.914 52.6087 169.077 50.9194C170.098 49.4426 171.212 48.0284 172.675 46.9417C172.793 46.8546 172.894 46.7501 172.853 46.5795L172.86 46.5829Z" fill="#79E828"/>
  <path d="M193.318 74.5274C193.541 73.4442 194.025 72.5072 195.011 71.9499C196.157 71.3056 197.355 71.4135 198.476 72.0126C199.023 72.3052 199.556 72.4619 200.166 72.4376C201.58 72.3783 202.997 72.5037 204.404 72.1763C205.589 71.9012 207.306 70.3024 207.477 69.2018C208.194 67.711 208.055 66.2028 207.546 64.6947C207.264 63.8587 206.756 63.2248 205.948 62.8208C203.628 61.6574 201.573 60.1074 199.612 58.4286C198.598 57.5613 197.936 56.4537 197.599 55.1615C197.372 54.2837 197.146 53.4025 196.972 52.5143C196.745 51.3684 196.923 50.2294 197.299 49.1636C198.107 46.8683 199.546 45.0118 201.541 43.6081C202.353 43.0369 203.297 42.8139 204.265 42.6781C204.464 42.7687 204.662 42.7234 204.868 42.7025C205.923 42.598 206.954 42.6677 207.933 43.1309C208.438 43.3678 208.598 43.7857 208.539 44.2908C208.483 44.7749 208.215 45.0849 207.706 45.2312C207.198 45.3775 206.623 45.266 206.177 45.6387C205.78 45.9801 205.314 46.1194 204.798 46.1298C204.408 46.2169 204.063 46.4155 203.798 46.6906C202.837 47.6833 202.06 48.8153 201.615 50.1284C201.294 51.0723 201.785 51.9187 202.085 52.793C202.499 53.9912 203.572 54.4091 204.488 55.0291C206.111 56.1333 207.86 56.9971 209.622 57.8504C211.715 58.8605 213.011 60.6543 213.844 62.7511C214.596 64.6424 214.864 66.6313 214.7 68.6793C214.537 70.7308 213.69 72.5002 212.541 74.1443C211.409 75.7639 210.065 77.185 208.316 78.1707C208.142 78.2682 208.013 78.4389 207.863 78.5782C206.24 79.4525 204.46 79.6615 202.663 79.7555C201.573 79.8147 200.476 79.7973 199.385 79.7555C197.922 79.7067 196.529 79.3445 195.275 78.5678C194.122 77.8537 193.482 76.774 193.203 75.4713C193.133 75.1544 193.095 74.813 193.314 74.5204L193.318 74.5274Z" fill="#7AE828"/>
  <path d="M151.196 55.6316C149.956 56.4954 148.994 57.6239 148.131 58.8465C147.006 60.4382 146.215 62.2007 145.853 64.0955C145.553 65.6768 145.651 67.2233 146.612 68.7071C147.57 70.1874 148.803 71.3542 150.109 72.4618C150.969 73.1898 152.067 73.3291 153.153 73.0609C155.302 72.5315 157.451 71.9881 159.58 71.3786C161.171 70.9188 162.728 70.3406 164.299 69.8217C164.825 69.6475 165.348 69.4629 165.898 69.3863C166.539 69.2992 166.765 69.4908 166.821 70.1247C166.932 71.389 166.427 72.4409 165.706 73.4197C165.407 73.8307 165.104 74.2417 164.804 74.6492C164.463 75.2657 163.895 75.6523 163.359 76.0668C161.304 77.6481 159.005 78.7244 156.507 79.4141C152.676 80.4694 149.089 79.9992 146.152 77.2685C143.38 74.691 141.217 71.612 140.245 67.8467C140.21 67.7074 140.168 67.5681 140.158 67.4218C139.855 63.3327 140.767 59.5779 143.066 56.1436C144.355 54.2209 145.947 52.6535 147.859 51.3787C148.27 51.1071 148.737 50.9503 149.144 50.6856C151.217 49.7417 153.338 49.5362 155.49 50.3582C156.988 50.9294 158.291 52.2112 158.186 53.7995C158.138 54.5762 157.751 55.1196 157.134 55.5097C156.737 55.7605 156.354 55.75 156.131 55.2206C156.041 55.0081 155.954 54.7434 155.633 54.7573C154.944 54.6877 154.271 54.5867 153.561 54.6772C152.812 54.7747 152.164 54.9977 151.586 55.4609C151.471 55.555 151.346 55.6176 151.192 55.6246L151.196 55.6316Z" fill="#7AE828"/>
  <path d="M59.3832 34.5036C58.4218 34.7962 57.4675 35.1097 56.4992 35.3779C55.1512 35.7506 53.9426 36.4019 52.7862 37.1612C51.2536 38.1643 49.5295 38.8366 48.0666 39.9616C46.036 41.522 44.1551 43.2357 42.6435 45.3116C40.7765 47.8752 40.47 50.7905 40.9681 53.8034C41.1875 55.1478 42.1036 56.2206 42.9953 57.2168C45.0956 59.5609 47.6417 61.2537 50.6615 62.1906C52.0443 62.619 53.4933 62.7061 54.9109 62.9465C58.3835 63.5281 61.5845 64.8134 64.6496 66.5271C66.8578 67.7601 68.3974 69.5643 69.6164 71.7064C69.9996 72.3752 70.1946 73.1101 70.2329 73.8833C70.3096 75.4263 70.4489 76.9763 69.9299 78.481C69.7209 79.0871 69.4179 79.6443 68.9233 80.0728C68.5123 79.2159 68.1222 78.3486 67.8401 77.443C67.6485 76.8335 67.335 76.325 66.8753 75.8826C65.9035 74.9492 65.0501 73.9147 64.2734 72.821C63.4932 71.7238 62.4622 70.9715 61.2988 70.2783C59.3657 69.1254 57.2724 68.6692 55.1164 68.2338C52.5737 67.7218 49.9858 67.3491 47.5616 66.3425C45.9663 65.6807 44.5069 64.7855 43.1415 63.7476C41.6194 62.5947 40.8845 60.888 40.1113 59.2161C39.9545 58.8782 39.85 58.5125 39.6515 58.2025C38.1956 55.9176 38.0493 53.4307 38.523 50.8636C38.7529 49.6271 39.1012 48.415 39.4042 47.1925C39.9232 45.0852 41.0308 43.3611 42.6191 41.8738C45.0712 39.5819 47.6591 37.4851 50.5988 35.855C52.0269 35.0644 53.5107 34.3399 55.0606 33.8801C56.5201 33.4482 57.9969 33.8767 59.3762 34.5001L59.3832 34.5036Z" fill="#0B1F5C"/>
  <path d="M127.715 58.5605C126.994 59.1456 126.674 60.0094 126.252 60.7827C125.42 62.3187 124.884 63.9558 124.626 65.7112C124.469 66.7805 124.462 67.8394 124.452 68.9052C124.441 69.9606 124.884 70.8349 125.573 71.6185C126.764 72.9665 128.304 73.5308 130.042 73.6074C131.296 73.6631 132.56 73.7119 133.811 73.6213C135.096 73.5273 136.367 73.266 137.642 73.0675C138.088 72.9978 138.551 73.0605 138.987 72.9003C139.931 72.6461 140.815 73.1372 141.01 74.0567C141.146 74.6906 141.097 75.3106 140.617 75.8191C140.279 76.2406 139.871 76.6168 139.729 77.1706C138.011 78.6474 135.995 79.4799 133.793 79.9152C132.811 80.1103 131.815 79.971 130.829 80.0197C128.896 80.1103 127.054 79.6645 125.277 78.9678C123.863 78.414 122.801 77.3308 121.763 76.2754C119.757 74.2378 118.83 71.7579 118.799 68.8913C118.774 66.2929 118.99 63.7329 119.805 61.2599C120.568 58.9436 121.829 56.8851 123.292 54.945C123.445 54.743 123.626 54.5793 123.863 54.4888C124.786 53.7852 125.688 53.0572 126.82 52.6915C128.59 52.1203 130.268 52.3083 131.798 53.3498C132.581 53.8862 132.797 54.7674 132.553 55.6556C132.323 56.4811 131.86 57.1881 130.881 57.3135C130.697 57.4563 130.495 57.4285 130.3 57.3484C129.53 57.0314 128.914 57.2787 128.374 57.8499C128.147 58.0868 127.945 58.341 127.705 58.564L127.715 58.5605Z" fill="#7AE828"/>
  <path d="M223.864 25.8335C223.129 26.154 222.314 26.1818 221.579 26.5336C220.057 27.2651 218.507 27.9303 216.978 28.6444C215.093 29.5221 213.986 31.086 213.178 32.9286C212.526 34.4123 212.126 35.9658 211.837 37.5471C211.492 39.4454 211.99 41.2427 212.756 42.9529C214.031 45.7985 215.905 48.2193 218.273 50.2255C221.241 52.7403 224.146 55.3283 227.054 57.9127C228.782 59.4487 229.869 61.4724 230.767 63.6041C232.101 66.7771 231.885 70.0582 231.579 73.3532C231.53 73.8617 231.401 74.3633 231.304 74.8683C231.108 75.8506 230.603 76.4531 229.607 76.6586C228.89 76.8084 228.193 77.1114 227.437 76.9094C227.288 75.76 227.503 74.6837 228.134 73.712C228.475 73.1895 228.521 72.6635 228.423 72.0645C227.96 69.285 226.835 66.7353 225.769 64.1614C225.647 63.8723 225.455 63.625 225.233 63.409C222.874 61.1589 220.551 58.8671 217.862 56.9966C216.539 56.0771 215.511 54.9068 214.567 53.6041C212.996 51.4411 211.83 49.111 210.997 46.5788C210.544 45.2064 210.395 43.8062 210.252 42.3886C209.977 39.7206 209.945 37.049 210.785 34.4785C211.711 31.6433 213.327 29.2713 215.922 27.6552C217.197 26.861 218.409 25.9589 219.883 25.52C221.265 25.109 222.599 25.0254 223.874 25.837L223.864 25.8335Z" fill="#0B1F5C"/>
  <path d="M91.4073 49.0587C88.2377 52.911 86.2802 57.3798 84.887 62.1098C84.2217 64.3634 83.7236 66.6726 83.8316 69.0516C83.8873 70.3299 84.1068 71.5873 84.7093 72.7471C85.8483 74.9484 87.7744 75.8749 90.1186 76.2685C92.7761 76.7144 95.0541 75.868 97.2589 74.52C99.1711 73.3497 100.78 71.8171 102.477 70.3821C102.609 70.2707 102.71 70.0303 102.926 70.1209C103.114 70.201 103.09 70.4344 103.128 70.612C103.873 74.1543 107.189 77.4423 110.7 78.132C110.916 78.1738 111.156 78.1772 111.334 78.3479C111.198 78.8077 110.853 79.055 110.432 79.2152C109.882 79.4242 109.303 79.5217 108.729 79.4172C106.928 79.0933 105.214 78.5081 103.678 77.4806C103.246 77.1915 102.867 76.8328 102.567 76.4113C102.309 76.0456 102.153 75.9864 101.787 76.3486C99.6657 78.435 97.2798 80.0895 94.3157 80.7652C89.5717 81.8519 86.329 80.5074 83.9082 77.0104C82.3165 74.7116 81.6094 72.1724 81.7626 69.3511C81.9055 66.704 82.0761 64.0638 82.933 61.5421C83.9953 58.4177 85.082 55.3004 86.8549 52.4721C87.4679 51.4934 88.0148 50.4763 88.8089 49.6195C89.5822 48.7835 90.4947 48.578 91.4177 49.0587H91.4073Z" fill="#0B1F5C"/>
  <path d="M247.618 22.0517C248.736 21.9577 249.032 22.4871 249.317 23.5146C249.683 24.8277 249.777 26.1861 249.798 27.548C249.833 29.8364 249.805 32.1248 250.049 34.4062C250.178 35.6148 250.463 36.7921 250.69 37.9798C250.833 38.7287 250.902 39.488 250.996 40.2369C251.24 42.1978 251.407 44.1693 251.533 46.1407C251.675 48.4012 251.912 50.6443 252.247 52.8874C252.518 54.723 252.497 56.583 251.822 58.3698C251.466 59.3067 250.864 59.6272 249.54 59.5227C248.802 59.3694 248.373 58.8296 248.046 58.227C247.109 56.5063 246.517 54.6638 246.203 52.7342C245.855 50.5886 245.82 48.4221 245.824 46.2556C245.827 43.8628 245.671 41.4699 245.66 39.077C245.653 37.8266 245.448 36.5727 245.371 35.3153C245.277 33.7862 245.451 32.2676 245.514 30.7455C245.594 28.7845 245.907 26.8479 246.207 24.9113C246.325 24.1555 246.444 23.3997 246.803 22.71C246.977 22.3756 247.175 22.0552 247.621 22.0517H247.618Z" fill="#7AE828"/>
  <path d="M140.62 75.8163C140.717 75.3948 140.863 74.9803 140.902 74.5554C140.978 73.7055 140.56 73.1935 139.717 73.0263C139.477 72.9776 139.23 72.9427 138.986 72.9009C137.001 69.8846 136.875 66.5339 137.345 63.1274C137.554 61.6018 138.084 60.1215 138.909 58.7945C140.574 56.1194 142.605 53.7997 145.374 52.194C146.562 51.5044 147.802 50.9819 149.143 50.6963C149.017 50.9819 148.721 51.0376 148.491 51.1804C143.824 54.0505 141.215 58.2964 140.365 63.6255C139.899 66.5617 140.557 69.3238 142.079 71.9257C143.197 73.8344 144.548 75.5655 146.126 77.0284C148.335 79.0799 151.023 80.0935 154.169 79.6616C158.174 79.1148 161.65 77.5369 164.59 74.7713C164.646 74.7191 164.729 74.6947 164.799 74.6564C165.13 75.7954 164.709 76.7463 163.97 77.5543C162.35 79.3342 160.497 80.7901 158.136 81.4763C156.572 81.9326 155.067 82.6466 153.423 82.7406C150.313 82.9183 147.401 82.2356 144.987 80.1771C143.423 78.8431 141.793 77.5508 140.616 75.8198L140.62 75.8163Z" fill="#0B1F5C"/>
  <path d="M247.613 22.0511C246.62 22.7303 246.575 23.8344 246.397 24.8515C245.882 27.8434 245.617 30.8633 245.534 33.897C245.492 35.3843 245.645 36.8646 245.784 38.3449C245.833 38.8569 245.851 39.3724 245.861 39.8879C245.913 42.5699 245.931 45.2554 246.011 47.9373C246.087 50.5148 246.223 53.0923 247.087 55.5618C247.387 56.4186 247.735 57.2511 248.135 58.0661C248.445 58.6966 248.982 59.1146 249.532 59.5221C247.913 60.0236 246.154 59.4872 245.217 58.0418C243.646 55.6245 242.629 52.9704 242.277 50.0969C242.113 48.7628 241.953 47.4358 241.657 46.1227C241.256 44.3393 241.127 42.5316 241.228 40.7099C241.26 40.1527 241.256 39.5988 241.187 39.0415C240.696 35.2102 241.476 31.5738 242.845 28.0176C243.611 26.0253 244.51 24.1131 245.784 22.3855C246.328 21.6505 246.882 21.5217 247.61 22.0476L247.613 22.0511Z" fill="#0B1F5C"/>
  <path d="M123.87 54.4824C122.612 56.0394 121.578 57.7321 120.693 59.5294C119.617 61.7168 119.195 64.0609 119.021 66.4468C118.91 67.9794 118.837 69.5328 119.178 71.0689C119.662 73.2423 120.756 75.0256 122.32 76.6174C124.566 78.9023 127.332 79.693 130.404 79.8776C133.337 80.0552 136.053 79.4631 138.53 77.8713C138.857 77.6623 139.146 77.3941 139.453 77.1538C139.554 77.0737 139.648 76.9796 139.732 77.1712C139.582 78.1082 138.997 78.7665 138.324 79.3656C136.36 81.1141 134.005 82.0092 131.456 82.4132C128.892 82.8173 126.363 82.5108 123.967 81.5669C120.244 80.1005 117.854 77.3245 116.343 73.6463C115.096 70.6056 115.064 67.5266 115.684 64.4057C116.28 61.3929 117.61 58.7004 119.679 56.4121C120.787 55.1895 122.163 54.4406 123.877 54.4894L123.87 54.4824Z" fill="#0B1F5C"/>
  <path d="M172.863 46.583C172.977 46.6144 173.159 46.6144 173.197 46.6875C173.274 46.8338 173.085 46.8651 172.998 46.9348C170.508 48.9027 168.665 51.3618 167.464 54.2945C166.969 55.5032 167.007 56.7954 166.952 58.0702C166.948 58.1747 166.948 58.2757 166.945 58.3802C166.931 59.1883 166.548 59.7282 165.795 59.9998C165.621 60.0625 165.447 60.1322 165.294 60.2332C164.688 60.6268 164.709 61.198 165.356 61.5115C165.743 61.6996 166.154 61.8737 166.572 61.9469C167.084 62.0409 167.216 62.3579 167.307 62.7967C167.631 64.3746 168.035 65.9315 168.954 67.2864C170.006 68.8399 171.515 69.8987 173.071 70.8566C174.823 71.9329 176.624 72.943 178.63 73.5072C182.754 74.6671 186.614 74.1377 190.187 71.7274C190.355 71.6124 190.543 71.5254 190.72 71.4278C190.835 72.5111 190.456 73.441 189.707 74.1795C188.136 75.7259 186.304 76.7953 184.043 76.9067C181.905 77.0147 179.762 77.2202 177.662 76.5166C175.067 75.6458 172.493 74.6775 170.351 72.9604C166.621 69.9719 164.015 66.2659 163.678 61.3025C163.629 60.5954 163.712 59.9023 163.914 59.2231C164.291 57.9553 164.569 56.6665 164.771 55.3604C164.956 54.1657 165.461 53.1138 166.22 52.1908C167.098 51.1249 167.969 50.0417 168.927 49.0525C170.024 47.917 171.389 47.1507 172.866 46.59L172.863 46.583Z" fill="#0B1F5C"/>
  <path d="M204.264 42.6849C204.079 42.9844 203.745 42.9008 203.48 42.967C201.864 43.3536 200.662 44.3115 199.624 45.5793C198.35 47.1363 197.343 48.7733 197.113 50.8353C196.96 52.1972 197.409 53.4407 197.653 54.7294C198.071 56.9446 199.583 58.3274 201.282 59.5918C202.766 60.6959 204.246 61.8105 205.925 62.6081C206.953 63.0958 207.538 63.9317 207.827 64.9836C208.189 66.3106 208.384 67.6481 207.733 68.9613C207.674 69.0832 207.608 69.1668 207.479 69.2051C206.73 68.2333 206.148 67.1884 205.755 66.0146C205.417 65.0045 204.546 64.482 203.581 64.1616C202.09 63.667 200.631 63.1166 199.241 62.3748C196.542 60.9397 194.811 58.6653 193.626 55.9311C193.041 54.5796 193.268 53.1446 193.522 51.7792C193.902 49.759 194.414 47.7667 195.577 45.9938C197.277 43.3989 199.607 42.0684 202.724 42.1415C203.302 42.1555 203.818 42.3157 204.267 42.6849H204.264Z" fill="#0B1F5C"/>
  <path d="M44.8713 79.9404C44.6275 82.5493 45.8048 84.4928 47.7135 86.1159C48.5112 86.7951 49.2078 87.5962 50.0263 88.2511C51.8758 89.7314 54.0841 90.3061 56.3899 90.5011C58.5424 90.6857 60.6741 90.3966 62.7709 89.9334C64.4985 89.5503 66.2575 89.2821 67.9259 88.683C69.9495 87.955 71.7015 86.7882 73.1818 85.2173C73.3525 85.0362 73.464 84.7506 73.7844 84.7575C72.7012 87.1434 71.0258 89.0139 68.9499 90.5987C67.0481 92.0511 65.0001 93.1518 62.6699 93.6707C60.2979 94.2002 57.8702 94.4266 55.4808 93.9424C51.7922 93.2005 48.5251 91.5565 46.1148 88.582C44.3489 86.4015 43.7568 83.8136 44.0737 81.0306C44.1294 80.55 44.3593 80.125 44.8713 79.9404Z" fill="#0B1F5C"/>
  <path d="M216.385 80.5947C216.354 81.2252 216.107 81.8243 216.26 82.4895C216.664 84.2241 217.904 85.1227 219.412 85.7776C219.638 85.8751 219.875 85.9482 220.109 86.0353C221.453 86.4637 222.819 86.7667 224.226 86.927C225.685 87.0907 227.134 87.0593 228.576 86.8852C229.586 86.7633 230.558 86.4184 231.526 86.091C231.714 86.0283 231.899 85.8995 232.108 86.0457C232.874 86.5508 233.069 87.0907 232.798 87.944C232.547 88.7312 231.986 89.2676 231.349 89.7483C229.705 90.9882 227.806 91.4689 225.79 91.5873C224.097 91.6883 222.456 91.4794 220.885 90.8036C219.976 90.4135 219.036 90.0931 218.12 89.7204C216.779 89.177 215.811 88.2296 215.18 86.9339C214.807 86.1677 214.525 85.3735 214.341 84.5445C214.1 83.4683 214.264 82.4547 214.867 81.5177C215.225 80.9639 215.703 80.6121 216.385 80.6017V80.5947Z" fill="#0B1F5C"/>
  <path d="M249.292 80.2712C248.599 81.6923 247.223 82.3053 245.736 81.7689C243.893 81.1036 242.803 79.7104 242.591 77.8156C242.316 75.3356 242.953 73.1761 245.395 71.9187C245.813 71.7028 246.161 71.3649 246.551 71.0932C247.537 70.414 248.589 70.3514 249.452 70.9121C250.006 71.2744 250.365 71.7446 250.313 72.4447C250.233 72.6223 250.292 72.8661 250.065 72.9741C248.836 73.211 247.909 73.8205 247.484 75.057C247.174 75.886 246.791 76.6871 246.972 77.624C247.171 78.6341 247.707 79.3447 248.655 79.7592C248.902 79.8671 249.243 79.8915 249.289 80.2677L249.292 80.2712Z" fill="#0B1F5C"/>
  <path d="M193.321 74.5278C193.293 77.5372 195.602 78.9792 197.782 79.3658C200.287 79.8082 202.794 79.634 205.288 79.2962C205.929 79.2091 206.546 78.927 207.169 78.725C207.399 78.6518 207.605 78.4846 207.866 78.5856C205.814 81.6403 202.979 82.8698 199.346 82.2359C198.96 82.1697 198.573 82.0966 198.183 82.0757C196.267 81.9677 194.648 81.1457 193.199 79.9649C191.903 78.9096 191.527 77.4501 191.635 75.8584C191.704 74.8657 192.366 74.399 193.317 74.5278H193.321Z" fill="#0B1F5C"/>
  <path d="M249.293 80.2706C249.178 80.0651 248.948 80.0651 248.767 79.9919C247.116 79.3232 246.364 77.7175 246.928 76.0212C247.043 75.6729 247.22 75.3455 247.37 75.0076C247.987 73.9035 248.812 73.0919 250.153 72.9805C250.7 73.1337 251.261 72.9422 251.829 73.2243C253.399 74.0045 254.1 75.7147 253.487 77.4005C253.431 77.5503 253.455 77.7349 253.305 77.8463C252.417 79.1629 251.344 80.1835 249.613 80.1173C249.467 80.1103 249.397 80.2079 249.3 80.274L249.293 80.2706Z" fill="#7AE828"/>
  <path d="M106.547 52.6433C106.547 52.6851 106.568 52.7443 106.547 52.7618C105.15 54.1689 104.676 56.0637 103.83 57.7704C102.754 59.9508 101.284 61.8979 99.7791 63.8101C99.7199 63.8867 99.6154 63.9285 99.5318 63.9877C99.3437 63.3747 99.4308 62.7617 99.5423 62.1521C99.8383 60.5464 100.288 58.9895 101.12 57.5649C101.719 56.5339 102.127 55.3984 102.848 54.4336C103.464 53.6116 104.182 52.922 105.174 52.5737C105.638 52.41 106.097 52.3682 106.543 52.6398L106.547 52.6433Z" fill="#0B1F5C"/>
  <path d="M58.3511 38.9367C59.504 38.2993 60.7022 38.3063 61.9282 38.672C62.071 38.7486 62.2278 38.8113 62.3601 38.9088C62.6318 39.1108 62.8686 39.3616 62.8373 39.7274C62.8059 40.107 62.4611 40.1906 62.179 40.3021C61.1793 40.6991 60.1414 40.8489 59.086 40.5912C58.1386 40.3613 57.9052 39.8075 58.3511 38.9332V38.9367Z" fill="#0C205C"/>
  <path d="M151.195 55.6321C152.348 54.3921 153.815 54.3503 155.34 54.5628C155.445 54.5767 155.539 54.6917 155.636 54.7614C155.936 56.3462 154.995 57.2204 153.414 56.8338C152.568 56.6248 151.895 56.1058 151.195 55.6321Z" fill="#0C205C"/>
  <path d="M222.922 30.5884C223.834 29.8639 224.81 29.4007 226.022 29.7385C226.293 29.8152 226.586 29.8117 226.868 29.8465C227.293 30.0799 227.61 30.4073 227.523 30.9228C227.443 31.393 227.014 31.5358 226.621 31.6612C225.266 32.0966 223.517 31.5846 222.925 30.5919L222.922 30.5884Z" fill="#0D215C"/>
  <path d="M204.791 46.1337C205.233 45.9177 205.686 45.7401 206.17 45.6426C206.585 45.6704 206.992 45.7436 207.347 45.9804C207.877 46.3322 207.912 46.8338 207.386 47.1751C206.64 47.6593 205.78 47.7429 204.941 47.5861C204.258 47.4607 204.213 46.7955 204.794 46.1337H204.791Z" fill="#0E225D"/>
  <path d="M127.711 58.561C128.021 57.4603 129.25 56.809 130.292 57.1817C130.48 57.2478 130.689 57.2653 130.888 57.3071C131.239 58.3276 130.905 58.8884 129.825 58.9859C129.09 59.0521 128.345 59.0486 127.711 58.5575V58.561Z" fill="#0E225D"/>
  <path d="M232.109 86.0423C231.126 86.2513 230.214 86.6901 229.221 86.8782C227.152 87.2649 225.094 87.2544 223.028 86.8922C222.199 86.7459 221.381 86.5578 220.58 86.2931C220.405 86.2339 220.217 86.2095 220.109 86.0353C221.032 86.2269 221.948 86.4429 222.875 86.61C225.627 87.1046 228.35 87.0977 231.018 86.1154C231.325 86.004 231.642 85.8925 231.976 85.9065C232.018 85.9517 232.063 86.0005 232.105 86.0458L232.109 86.0423Z" fill="#3D7C41"/>
  <path d="M240.18 74.3882C240.18 73.4826 240.291 72.5666 240.235 71.6784C240.121 69.7905 240.389 67.8853 240.009 66.0114C239.922 65.583 239.912 65.1546 239.929 64.7227C240.082 64.8202 240.152 64.9804 240.155 65.1441C240.166 66.0915 240.469 66.9971 240.441 67.9584C240.385 69.8358 240.42 71.7132 240.413 73.5906C240.413 73.8762 240.441 74.1757 240.18 74.3882Z" fill="#B5F188"/>
  <path d="M253.305 77.843C253.309 77.3101 253.553 76.8294 253.594 76.2895C253.723 74.6769 252.152 72.9562 250.55 73.1339C250.39 73.1513 250.219 73.1617 250.08 73.0398C250.024 72.9876 250.024 72.9353 250.087 72.8866C250.167 72.7403 250.244 72.594 250.324 72.4512C250.324 72.789 250.495 72.8935 250.825 72.8866C253.166 72.8378 254.556 75.7183 253.48 77.7977C253.462 77.8325 253.368 77.8291 253.309 77.8465L253.305 77.843Z" fill="#B8F18E"/>
  <path d="M238.945 79.3444C239.078 78.5607 239.308 77.8119 239.691 77.1152C239.652 77.9268 239.44 78.6826 238.945 79.3444Z" fill="#B5F188"/>
  <path d="M239.931 76.1153C239.99 75.5336 239.764 74.9136 240.185 74.3877C240.15 74.9729 240.363 75.5928 239.931 76.1153Z" fill="#B5F188"/>
  <path d="M239.689 77.1149C239.668 76.7596 239.616 76.3939 239.926 76.1152C239.95 76.4705 239.995 76.8362 239.689 77.1149Z" fill="#B5F188"/>
  <path d="M239.927 64.7227C239.617 64.4441 239.669 64.0818 239.686 63.7266C239.989 64.0052 239.948 64.3674 239.927 64.7227Z" fill="#B5F188"/>
  <path d="M175.938 51.3405C176.45 50.3547 178.54 49.8636 179.452 50.5533C179.825 50.8319 180.107 51.2185 179.895 51.6713C179.087 53.4024 177.767 54.6111 175.997 55.3321C175.76 55.0952 175.771 54.7783 175.875 54.5275C176.314 53.4651 176.398 52.4098 175.934 51.3405H175.938Z" fill="#0B205C"/>
  <path d="M175.936 51.3408C176.563 52.1523 176.64 53.0266 176.218 53.9531C176.016 54.3954 175.919 54.8482 175.996 55.3359C175.546 55.9698 174.783 56.1056 174.17 56.4783C173.739 56.7395 173.22 56.8545 172.791 57.1192C172.258 57.4466 172.286 57.1157 172.321 56.7744C172.398 56.029 172.662 55.3359 173.049 54.7124C173.704 53.657 174.404 52.6295 175.285 51.7448C175.463 51.5672 175.609 51.3025 175.933 51.3443L175.936 51.3408Z" fill="#FDFDFC"/>
  <path d="M250.084 72.8867C250.084 72.939 250.084 72.9877 250.081 73.04C248.872 73.2768 248.088 74.0988 247.367 75.0079C247.601 73.9177 248.886 72.9146 250.084 72.8867Z" fill="#408042"/>
</g>

</svg>
