<svg width="168" height="168" viewBox="0 0 168 168" xmlns="http://www.w3.org/2000/svg">
<g clip-path="url(#clip0_1218_2173)">
<path d="M63.8575 63.0724C64.1051 60.7078 63.876 58.3122 64.2351 55.9537C64.4827 55.6999 64.8046 55.6566 65.1079 55.768C66.3212 56.2323 67.5964 55.9351 68.822 56.0899C71.2919 56.3994 73.7866 56.4303 76.2379 56.9008C78.9306 57.4208 81.6729 57.7798 84.3842 57.4084C85.9565 57.1917 87.5412 56.9689 89.1135 56.7275C90.7973 56.4675 92.4872 56.1642 94.2019 56.0404C97.4766 55.8051 100.708 55.1552 103.797 54.0533C105.351 53.5024 106.681 52.4438 106.886 50.5434C106.923 50.2277 106.954 49.8006 107.468 49.8192C108.396 52.3881 108.241 55.1242 108.631 57.7736C109.034 60.4973 109.962 63.0043 111.429 65.3257C112.03 66.248 112.116 67.3685 112.599 68.3341C112.816 69.3184 113.323 70.2531 113.169 71.3054C113.101 72.9149 114.252 73.7567 115.292 74.6667C116.802 76.2576 118.647 77.4585 120.331 78.8389C120.572 79.2475 121.352 79.3651 121.018 80.0893C118.746 81.315 116.103 80.9807 114.283 79.2351C114.116 79.0741 113.961 78.8885 113.775 78.7461C113.293 78.3932 112.76 78.2756 112.24 78.6037C111.72 78.9318 111.714 79.4827 111.925 79.9717C112.444 81.1664 112.061 82.194 111.429 83.1845C110.519 84.6144 109.263 85.1282 107.616 84.7382C106.403 84.4535 105.109 84.5215 103.995 83.822C103.295 83.3825 102.608 82.943 102.064 82.3055C101.686 81.8598 101.203 81.5936 100.609 81.8164C100.002 82.0331 100.008 82.5902 100.008 83.0978C100.008 84.2739 100.008 85.4377 99.5441 86.5643C99.2222 87.3505 98.7208 87.7095 97.8789 87.8085C95.9166 88.0438 94.2453 87.3071 92.6977 86.2734C91.2678 85.3201 89.8564 84.3111 88.7731 82.9307C88.4574 82.5283 88.086 82.1259 87.4917 82.2931C86.8727 82.4664 86.7056 82.9926 86.588 83.5559C85.6161 88.2666 83.8085 88.9475 79.2278 87.92C76.9622 87.4124 75.1732 86.1248 73.5947 84.4844C72.8085 83.6735 72.0471 83.7973 71.8057 84.8868C71.4715 86.3848 70.4686 87.3505 69.4039 88.2728C68.2278 89.2942 65.6526 89.2261 64.3403 88.1119C62.9166 86.9048 62.0809 85.4068 62.5947 83.4445C62.7371 82.9059 62.9042 82.3116 62.2975 81.9712C61.6785 81.6245 61.2638 82.1259 60.8862 82.5097C59.3077 84.1192 57.4135 84.8806 55.1602 84.7258C53.4641 84.6082 51.8918 83.3825 51.477 81.7421C51.1985 80.6465 50.9694 79.526 50.9756 78.3808C51.1985 77.5823 51.9475 77.3718 52.5418 76.9942C54.5598 75.9729 56.6273 74.9638 58.3729 73.5649C60.8428 71.5902 62.5575 68.9779 63.0899 65.7466C63.2446 64.8243 63.3808 63.8957 63.8451 63.0662L63.8575 63.0724Z" fill="#7AE828"/>
<path d="M107.464 49.8251C106.969 50.3946 107.328 51.1436 107 51.7997C106.016 53.7868 104.177 54.4615 102.283 54.9877C100.259 55.5448 98.1789 55.9039 96.1176 56.3372C95.8885 56.3867 95.6533 56.3867 95.4181 56.3929C91.9701 56.4672 88.6274 57.3895 85.2228 57.6866C82.9262 57.8847 80.5863 57.959 78.2402 57.5443C76.8474 57.2966 75.4546 56.9129 74.0123 56.9067C71.332 56.8943 68.6949 56.2196 65.996 56.3867C65.3893 56.4238 64.9003 55.78 64.2318 55.9596C60.4991 53.143 59.7996 47.8194 62.6718 44.0681C62.8204 43.8763 62.9566 43.7029 62.969 43.4553C63.1299 40.4283 64.9065 39.3698 67.723 39.7721C68.6949 39.6174 69.5615 39.9331 70.3601 40.4345C71.7405 41.2949 73.22 41.5797 74.8356 41.5178C76.9836 41.4311 79.144 41.4559 81.292 41.5054C84.3128 41.5797 87.2594 41.0473 90.2369 40.6821C91.8216 40.4902 93.3753 40.094 94.9848 40.0569C96.1547 40.0321 97.3309 39.735 98.377 39.2212C99.9927 38.4289 101.664 38.7012 103.329 38.7384C103.818 38.7508 104.053 39.1593 104.357 39.4564C106.851 41.233 107.105 43.9691 107.39 46.668C107.501 47.7142 107.439 48.7851 107.458 49.8374L107.464 49.8251Z" fill="#E500A0"/>
<path d="M157.254 175.266C157.291 176.585 157.365 177.909 157.105 179.215C156.919 180.15 156.598 181.017 155.595 181.394C155.514 180.255 155.768 179.098 155.372 177.965C155.236 177.563 155.192 177.129 154.939 176.764C154.109 175.594 153.1 175.625 152.332 176.845C151.59 178.027 151.652 179.308 151.924 180.596C152.029 181.085 152.308 181.561 151.992 182.069C151.212 182.465 150.791 181.834 150.308 181.456C149.856 181.097 149.559 180.596 149.293 180.082C148.847 179.277 148.724 178.417 148.724 177.507C148.73 175.687 148.173 173.935 148.098 172.121C147.578 170.283 147.82 168.401 147.801 166.532C147.77 164.65 147.69 162.762 147.857 160.886C148.222 159.122 147.993 157.333 148.018 155.556C148.018 155.074 147.764 154.783 147.306 154.615C146.408 154.3 145.684 153.718 145.071 153C144.941 152.399 145.251 151.997 145.728 151.768C146.198 151.539 146.538 151.935 146.848 152.22C148.606 153.829 150.63 154.64 153.051 154.492C154.022 154.43 154.821 154.195 155.384 153.396C155.774 152.839 156.245 152.647 156.895 152.901C158.919 153.699 161.042 153.563 163.153 153.495C163.568 153.545 163.704 153.879 163.846 154.188C164.379 155.34 164.905 156.491 165.301 157.698C166.199 160.1 167.096 162.489 167.511 165.046C168.043 168.308 168.105 171.577 167.994 174.87C167.926 176.826 167.969 178.788 167.82 180.738C167.715 182.168 167.406 183.598 165.951 184.384C165.326 184.242 165.233 184.18 165.431 183.561C165.908 182.069 165.177 180.738 164.942 179.345C164.849 178.788 164.496 178.194 163.753 178.268C162.98 178.343 162.763 178.974 162.658 179.605C162.472 180.72 162.28 181.834 162.509 182.979C162.633 183.604 162.8 184.304 162.224 184.849C160.677 184.056 159.928 182.818 159.823 181.048C159.662 178.374 159.216 175.73 158.498 173.137C157.836 172.029 157.582 170.667 157.563 168.519C157.737 170.469 157.805 172.883 157.26 175.266H157.254Z" fill="#7AE828"/>
<path d="M104.369 39.4445C102.246 38.7574 100.178 38.7388 98.117 39.7726C97.3804 40.144 96.4952 40.3793 95.6719 40.3793C93.9077 40.3855 92.162 40.7011 90.4845 41.023C85.6128 41.9578 80.7101 41.6978 75.8199 41.8959C73.3624 41.9949 71.1896 41.4068 69.1282 40.2555C68.664 39.9955 68.1254 40.1193 67.7355 39.7664C68.8187 38.0765 70.0196 36.4918 71.4743 35.099C73.938 32.7467 76.2903 30.2459 79.4473 28.7726C82.2763 27.4541 85.2104 26.8227 88.2993 27.8255C88.7636 27.9741 89.2279 28.005 89.6921 27.9369C94.0129 27.2622 97.3061 29.0016 100.11 32.1648C102.029 34.3314 103.329 36.8075 104.388 39.4507L104.369 39.4445Z" fill="#7AE828"/>
<path d="M11.685 175.512C10.4099 174.664 10.2428 173.296 10.0137 171.959C9.93325 171.47 9.98276 170.95 9.5804 170.269C8.5033 172.448 6.12627 173.34 5.33392 175.723C4.78918 177.345 2.88875 178.397 0.926449 177.469C1.44643 176.893 2.31927 176.88 2.8083 176.193C3.20447 175.642 3.42114 175.104 3.3159 174.46C3.19829 173.767 2.96924 173.086 2.65354 172.467C2.115 171.402 1.22359 171.408 0.623134 172.442C0.270292 173.049 -0.0268325 173.686 -0.299202 174.336C-0.392055 174.559 -0.435384 174.912 -0.837748 174.788C-1.37011 173.005 -0.738716 171.322 -0.385874 169.619C0.332191 166.178 2.04689 163.188 3.92253 160.278C4.44251 159.467 4.70869 158.613 4.57869 157.629C4.23204 154.961 5.87866 153.03 7.03623 150.739C8.09476 152.677 9.43802 154.082 11.357 154.837C14.1921 155.951 16.8415 155.815 19.1133 153.543C19.9366 152.72 20.7785 151.915 21.5028 151.012C22.0042 150.386 22.1899 150.584 22.4684 151.129C22.747 151.674 22.9636 152.268 23.4527 152.683C23.7931 155.927 24.5298 159.133 24.2326 162.426C24.1583 163.256 24.0036 164.061 23.1431 164.488C22.5984 164.389 22.6913 163.918 22.6541 163.565C22.5984 163.058 22.5613 162.556 22.3694 162.073C22.2022 161.665 22.0289 161.256 21.4842 161.287C20.9704 161.312 20.7104 161.677 20.599 162.104C20.3204 163.132 19.7385 164.16 20.5123 165.23C20.6547 165.429 20.7971 165.726 20.5185 165.973C20.3452 166.079 20.1595 166.122 19.9614 166.122C18.4695 166.109 18.4757 166.109 18.2838 167.521C18.0981 168.877 17.8443 170.22 17.8753 171.594C17.8815 171.978 17.8753 172.386 17.5039 172.653C17.1386 173.123 17.5348 173.959 16.7363 174.219C16.4082 173.346 16.402 172.386 16.0244 171.52C15.7768 170.963 15.6963 170.189 14.8792 170.251C14.0497 170.319 13.3131 170.641 12.9479 171.532C12.496 172.609 12.4527 173.73 12.4465 174.869C12.3289 175.24 12.3041 175.723 11.6912 175.519L11.685 175.512Z" fill="#7AE828"/>
<path d="M23.1823 182.86C22.3219 182.03 21.8019 181.009 21.542 179.851C21.2263 179.121 21.8329 178.947 22.2662 178.768C23.2009 178.378 23.4238 177.703 23.2752 176.781C22.7119 173.289 23.3866 169.916 24.3523 166.598C25.448 162.828 26.8408 159.17 28.6359 155.672C29.0135 154.935 28.8712 154.49 28.1098 154.217C26.9831 153.815 26.0794 153.041 25.1261 152.36C24.7361 152.082 24.2347 151.822 24.3523 151.184C24.4266 150.85 24.4947 150.509 24.5689 150.175C24.8599 148.795 24.928 147.383 25.1323 145.991C25.8627 145.353 26.1722 146.053 26.457 146.48C27.0822 147.414 27.7817 148.293 28.4378 149.203C29.224 150.293 29.9978 151.401 31.1615 152.144C31.5329 153.611 31.1244 155.127 31.4277 156.601C31.5453 157.405 31.6506 158.21 31.7682 159.015C32.3253 160.5 32.3996 162.023 32.121 163.571C31.1368 166.326 30.0906 169.062 29.3849 171.921C28.8464 174.088 28.5493 176.292 28.116 178.471C28.0045 179.034 28.1531 179.43 28.704 179.56C31.9477 180.328 33.8047 182.928 36.027 185.051C36.4665 185.466 36.6461 186.041 37.0237 186.487C37.9336 187.737 38.2555 189.297 39.1469 190.554C40.0012 192.504 40.9483 194.404 42.1244 196.187C42.4835 196.732 42.7496 197.345 42.9972 197.958C43.0777 198.589 43.6472 199.09 43.4924 199.79C42.6629 200.576 42.1244 199.746 41.5797 199.375C40.4035 198.583 40.4345 198.546 39.9393 199.914C39.1655 202.086 38.6022 204.327 37.847 206.506C37.6613 207.045 37.4694 207.54 36.8132 207.633C35.6185 206.673 34.5104 205.64 33.7738 204.272C33.3962 203.473 33.489 202.718 33.8543 201.913C34.7395 199.951 35.5876 197.976 36.8999 196.249C37.3146 195.698 37.2094 195.277 36.8008 194.8C35.7361 193.556 34.4547 192.498 33.5819 191.093C33.2786 190.61 32.8824 190.727 32.4739 191C31.4339 191.699 30.3506 192.312 29.2116 192.838C28.6669 193.086 28.1283 193.333 27.5588 192.9C26.9831 191.879 26.587 190.789 26.3579 189.638C27.2555 188.994 28.3078 188.709 29.3292 188.363C30.5982 187.929 30.6477 187.787 29.9482 186.716C29.1807 185.54 28.1345 184.704 26.9213 184.048C26.4756 183.807 25.9432 183.677 25.5965 183.324C24.8723 182.593 24.0985 182.476 23.1947 182.872L23.1823 182.86Z" fill="#0E4BF3"/>
<path d="M63.8556 63.0731C63.5089 67.4187 61.9676 71.2194 58.4268 73.906C56.6378 75.2617 54.6322 76.3511 52.5646 77.2797C52.3418 76.4564 52.8184 75.7754 53.066 75.0636C53.7779 72.9898 54.6817 70.9904 55.3378 68.8981C55.4059 68.6753 55.4988 68.4524 55.5297 68.2234C55.5916 67.7529 55.6783 67.2144 55.214 66.9358C54.6693 66.6015 54.366 67.1463 54.0441 67.4496C51.4814 69.87 50.0762 73.0456 48.4481 76.0726C47.501 77.8306 46.7892 79.7 45.8049 81.4395C44.4369 82.758 43.0379 84.0394 41.2304 84.7636C39.0143 83.5875 36.7239 82.5971 34.3159 81.8852C33.9878 81.7861 33.635 81.6871 33.4245 81.3652C36.1358 78.6044 38.7729 75.7631 41.7442 73.2808C44.2883 71.1575 46.6468 68.7991 49.6924 67.3134C53.2703 65.5616 57.034 64.5092 60.9771 64.0574C62.0171 63.9397 62.859 63.3022 63.8494 63.0855L63.8556 63.0731Z" fill="#0B1F5C"/>
<path d="M155.477 97.3232C156.659 98.1341 157.774 99.0193 158.498 100.294C158.721 101.477 158.324 102.591 158.133 103.724C157.891 105.141 157.656 106.559 157.433 107.983C157.278 108.955 157.699 109.617 158.64 109.995C159.835 110.484 161.03 110.954 162.311 111.183C163.041 111.313 163.766 111.48 164.453 111.759C165.573 113.616 165.716 115.751 166.174 117.794C166.037 118.419 165.579 118.327 165.158 118.209C162.323 117.423 159.556 116.463 157.074 114.848C156.22 114.297 156.096 114.557 155.904 115.374C155.644 116.513 155.415 117.664 154.994 118.766C154.784 119.311 154.635 119.893 154.09 120.227C153.1 119.905 153.18 118.797 152.586 118.184C151.732 116.773 150.933 115.33 150.005 113.962C149.825 113.696 149.739 113.412 149.714 113.102C149.646 112.353 149.813 111.654 150.079 110.954C150.364 110.199 150.221 109.66 149.25 109.66C148.785 109.66 148.333 109.518 147.9 109.351C146.848 108.199 146.328 106.751 145.672 105.37C145.628 105.185 145.647 105.005 145.758 104.844C147.442 104.522 149.132 104.157 150.834 104.157C151.887 104.157 152.314 103.811 152.549 102.882C152.927 101.396 153.607 100.022 154.177 98.6107C154.412 98.035 154.586 97.286 155.471 97.3108L155.477 97.3232Z" fill="#0E4BF3"/>
<path d="M154.037 120.136C155.002 118.545 155.275 116.725 155.677 114.955C155.943 113.785 156.048 113.723 157.008 114.404C159.205 115.964 161.694 116.917 164.281 117.573C164.857 117.722 165.464 118.576 166.176 117.802C166.541 119.901 166.9 121.993 167.265 124.091C167.42 125.787 166.479 127.236 166.2 128.839C166.021 129.867 165.68 130.876 165.445 131.897C165.241 132.801 164.795 132.925 164.015 132.64C163.316 132.386 162.635 132.095 161.997 131.718C160.549 130.863 158.896 130.455 157.472 129.551C156.68 128.555 156.339 127.335 155.881 126.184C155.25 124.587 154.643 122.983 154.055 121.368C153.944 120.953 153.696 120.538 154.043 120.123L154.037 120.136Z" fill="#0B1F5C"/>
<path d="M24.3581 151.178C25.6271 152.577 27.1932 153.561 28.9327 154.236C29.5703 154.484 29.4712 154.7 29.2422 155.146C27.3294 158.922 25.7385 162.84 24.5871 166.907C23.6834 170.089 23.0272 173.358 23.6277 176.719C23.8134 177.759 23.7391 178.625 22.5134 179.04C22.1792 179.152 21.4796 179.133 21.5477 179.851C20.4459 177.524 18.6755 175.58 17.6788 173.19C17.6046 173.017 17.5674 172.831 17.5117 172.652C17.3755 170.467 17.9327 168.337 18.0131 166.177C18.0379 165.515 18.1988 165.224 18.9169 165.576C19.4369 165.83 20.0126 165.966 20.613 165.843C20.6873 165.824 20.7616 165.812 20.8359 165.799C21.4177 165.663 21.9687 166.164 22.5072 165.979C23.1882 165.744 22.4391 164.858 23.0396 164.512C23.6772 163.862 23.8938 163.069 23.9372 162.178C24.0672 159.708 23.7824 157.275 23.3305 154.861C23.1881 154.106 23.2191 153.4 23.4667 152.688C23.7638 152.187 24.0672 151.686 24.3643 151.19L24.3581 151.178Z" fill="#0B1F5C"/>
<path d="M155.487 97.3224C154.689 97.7062 154.571 98.5357 154.287 99.229C153.643 100.807 153.061 102.417 152.46 104.014C152.355 104.293 152.343 104.707 151.891 104.596C149.91 104.094 148.047 105.085 146.103 105.023C146.029 105.023 145.948 104.992 145.874 104.973C145.342 104.744 145.249 104.194 145.026 103.754C144.562 102.838 144.048 101.971 143.268 101.278C141.98 100.164 141.231 98.6409 140.266 97.2852C140.043 96.9695 139.82 96.6043 140.266 96.2639C144.017 95.5148 147.731 94.6358 151.47 93.8373C152.888 94.9082 154.249 96.041 155.487 97.3162V97.3224Z" fill="#0B1F5C"/>
<path d="M25.3972 145.75C24.9948 147.075 25.6014 148.542 24.8277 149.817C24.7534 149.941 24.6605 150.052 24.5738 150.17C24.2148 149.526 23.8434 148.889 23.5091 148.239C22.9025 147.075 22.0606 146.926 21.1259 147.923C20.2283 148.882 19.4112 149.922 18.5508 150.919C15.0719 154.955 10.6211 153.048 8.55356 149.904C8.2069 149.371 8.09549 148.895 8.405 148.288C9.7978 145.54 10.6644 142.581 11.8158 139.739C12.2367 138.706 12.2987 137.61 12.6082 136.564C12.6082 136.409 12.6825 136.347 12.8372 136.384C13.0848 137.437 13.1529 138.514 13.3696 139.572C13.6234 140.804 13.9267 142.005 14.3662 143.181C15.5485 146.357 18.6127 146.833 21.0393 146.276C22.2278 146.004 23.3358 145.49 24.3696 144.828C24.7224 144.599 25.0629 144.295 25.5457 144.382C25.9419 144.89 25.8057 145.335 25.391 145.75H25.3972Z" fill="#7AE828"/>
<path d="M120.065 79.0058C118.506 77.7615 116.952 76.5111 115.386 75.2731C115.243 75.1616 115.188 75.0564 115.181 74.8955C115.695 73.9236 116.729 73.8927 117.589 73.6698C119.737 73.1127 121.953 72.9765 124.157 72.7722C126.547 73.7441 128.323 75.6135 130.378 77.0621C129.456 77.6625 129.537 78.3372 130.013 79.2534C131.468 82.0204 132.508 84.967 133.622 87.8764C133.808 88.3654 133.919 88.8482 133.653 89.3372C133.189 89.7272 132.836 89.393 132.539 89.1082C131.914 88.5139 131.208 88.0249 130.564 87.4554C129.072 86.5083 127.71 85.4065 126.708 83.927C126.194 82.5466 125.736 81.1414 125.29 79.7362C125.08 79.0739 124.727 78.7953 124.021 78.8448C122.709 78.9377 121.384 78.8139 120.072 79.0058H120.065Z" fill="#0E4AF3"/>
<path d="M157.605 129.4C159.852 130.409 162.099 131.412 164.346 132.427C164.699 132.588 164.971 132.718 165.083 132.142C165.603 129.406 166.414 126.745 167.262 124.095C167.769 125.321 167.683 126.633 167.763 127.908C168.023 132.013 167.813 136.117 167.639 140.221C167.448 141.149 167.615 142.09 167.547 143.019C167.522 143.341 167.745 143.792 167.342 143.966C166.996 144.121 166.686 143.805 166.414 143.594C164.396 142.059 162.415 140.475 160.236 139.168C160.137 139.106 160.05 139.038 159.926 139.032C159.32 138.042 159.394 136.872 159.097 135.801C158.515 134.037 158.249 132.18 157.494 130.465C157.333 130.106 157.209 129.722 157.618 129.413L157.605 129.4Z" fill="#0E4BF3"/>
<path d="M12.8152 136.508C12.741 136.489 12.6729 136.508 12.6172 136.563C12.5553 133.369 13.3228 130.28 13.7562 127.148C14.6414 120.735 16.4984 114.619 19.0178 108.695C20.2435 105.823 22.1687 103.279 23.0724 100.239C23.3943 99.1559 23.8462 98.1098 24.2424 97.045C24.6138 97.2308 24.7128 97.5898 24.6943 97.9364C24.5766 99.9111 25.2638 101.805 25.2514 103.761C25.3628 104.919 24.719 105.848 24.2795 106.826C23.45 108.664 22.4658 110.434 21.593 112.254C20.974 113.517 20.3983 114.805 19.8474 116.105C17.5384 121.335 15.5575 126.684 14.3318 132.286C14.2514 132.67 14.1399 133.041 14.0161 133.419C13.5704 134.434 13.6881 135.666 12.8091 136.514L12.8152 136.508Z" fill="#0C205C"/>
<path d="M133.471 89.3868C133.799 88.0498 132.913 87.0036 132.511 85.877C131.669 83.5309 130.598 81.2591 129.571 78.9811C128.933 77.5697 128.89 77.5883 130.382 77.0621C133.984 78.684 137.055 81.061 139.877 83.7785C140.385 85.846 140.509 87.994 141.283 90.0121C141.592 90.823 141.258 91.4172 140.298 91.6215C139.042 91.8939 137.81 92.2653 136.559 92.55C135.662 92.5872 135.352 91.801 134.832 91.312C134.411 90.9096 133.984 90.5073 133.65 90.0244C133.526 89.8263 133.415 89.6283 133.471 89.3807V89.3868Z" fill="#0B1F5C"/>
<path d="M160.059 138.86C161.6 139.578 162.993 140.531 164.318 141.59C165.277 142.351 166.262 143.076 167.314 143.874C167.692 142.593 167.234 141.361 167.624 140.21C167.531 144.109 167.853 148.022 167.128 151.897C166.751 153.909 166.194 155.852 165.271 157.685C164.207 156.552 164.008 154.986 163.284 153.686C162.127 152.609 161.761 151.129 161.254 149.718C160.387 146.573 160.102 143.336 159.805 140.104C159.756 139.665 159.781 139.238 160.053 138.86H160.059Z" fill="#0B1F5C"/>
<path d="M24.5788 96.4203C26.7206 92.2728 28.621 87.9954 31.3138 84.1512C33.177 85.7483 35.5293 86.5221 37.5473 87.853C37.8878 88.3049 37.5473 88.5773 37.2626 88.8249C35.0155 90.8119 33.3875 93.3747 31.1838 95.4051C30.4224 96.3955 30.2614 97.6954 29.4938 98.6859C29.172 99.0635 28.9181 99.4844 28.5839 99.8496C28.3301 100.128 28.0949 100.462 27.6306 100.227C27.2406 99.5958 26.9744 98.8963 26.7144 98.2092C26.3307 97.1816 25.7488 96.4636 24.5664 96.4141L24.5788 96.4203Z" fill="#0B1F5C"/>
<path d="M136.366 92.4005C137.567 91.8371 138.867 91.54 140.148 91.3048C141.201 91.1129 141.349 90.5991 140.984 89.881C140.185 88.3087 140.204 86.5693 139.771 84.9227C139.678 84.576 139.845 84.1613 139.894 83.7775C141.003 84.5574 142.142 85.3065 143.095 86.2845C143.373 87.2749 143.349 88.2716 143.095 89.262C142.915 89.9491 143.206 90.1039 143.813 89.9739C144.717 89.7882 145.565 89.3363 146.518 89.4106C148.171 90.89 149.817 92.3695 151.47 93.849C150.721 94.6846 149.607 94.6227 148.672 94.8146C145.843 95.3779 143.076 96.2941 140.173 96.4736C140.037 96.5541 139.864 96.6284 139.74 96.5231C138.365 95.3594 136.917 94.2575 136.378 92.4066L136.366 92.4005Z" fill="#0E4BF3"/>
<path d="M164.449 111.767C163.453 112.175 162.574 111.507 161.639 111.401C160.624 111.29 159.627 110.844 158.662 110.442C156.965 109.73 156.662 109.024 157.157 106.988C157.566 105.292 157.82 103.571 158.067 101.844C158.142 101.318 158.358 100.81 158.507 100.296C158.699 100.538 158.934 100.76 159.07 101.033C160.89 104.598 162.865 108.09 164.456 111.767H164.449Z" fill="#0B1F5C"/>
<path d="M124.16 72.7653C122.52 73.7743 120.588 73.2048 118.83 73.7495C117.623 74.1271 116.354 74.35 115.191 74.8885C114.083 73.9786 112.783 73.1986 112.944 71.4591C113.494 69.8373 114.664 68.6674 115.822 67.4912C117.673 68.6178 119.276 70.1097 121.195 71.1434C122.186 71.6758 123.17 72.2267 124.16 72.7653Z" fill="#0B1F5D"/>
<path d="M37.584 88.0025C37.2745 87.9716 36.9773 87.953 36.6864 87.7859C35.1822 86.9192 33.7027 86.0093 32.1428 85.2603C31.5795 84.9879 31.3938 84.666 31.2947 84.1584C31.858 83.1123 32.4894 82.1156 33.4303 81.3542C36.2159 82.0537 38.9273 82.9451 41.3167 84.6041C40.9577 85.6193 40.2272 86.3993 39.4163 87.0059C38.8839 87.4021 38.4444 88.1573 37.584 88.0025Z" fill="#0F4AF3"/>
<path d="M24.5667 96.4199C25.489 96.0052 26.1514 96.2838 26.5352 97.1937C26.9561 98.1842 27.6184 99.0879 27.6865 100.215C27.9651 101.007 27.2532 101.428 26.9066 101.867C26.3247 102.61 26.1947 103.78 25.0495 104.046C24.7709 102.103 24.3748 100.171 24.3376 98.1965C24.3315 97.8127 24.2757 97.429 24.2448 97.0452C24.3005 96.8099 24.3191 96.5561 24.5667 96.4261V96.4199Z" fill="#104BF1"/>
<path d="M115.821 67.4916C115.307 68.6182 114.447 69.4972 113.673 70.4381C113.407 70.7662 113.122 71.0757 112.937 71.4595C112.732 70.3762 112.522 69.2868 112.317 68.2035C111.958 66.7178 112.231 66.2907 113.599 66.1917C114.391 66.5383 115.208 66.8354 115.821 67.4916Z" fill="#104BEF"/>
<path d="M146.494 89.4051C145.398 90.0365 144.166 90.1851 142.959 90.4389C142.519 90.5318 142.458 90.2532 142.569 89.9746C143.046 88.7799 142.86 87.5109 143.077 86.2853C144.296 87.2324 145.447 88.2661 146.494 89.4051Z" fill="#0D215F"/>
<path d="M113.597 66.1915C112.434 66.3896 112.31 67.2562 112.316 68.2033C111.808 67.3119 111.394 66.3896 111.418 65.3311C112.143 65.6158 112.867 65.9005 113.597 66.1915Z" fill="#1F4362"/>
<path d="M51.1466 78.3437C51.2889 79.0742 51.4561 79.7984 51.5737 80.5289C52.1122 83.983 54.9783 85.512 58.1848 84.0202C59.1319 83.5745 59.9924 82.9926 60.7228 82.2126C61.1871 81.7112 61.7318 81.0922 62.5242 81.5317C63.3537 81.9898 63.1927 82.7326 62.9327 83.4878C62.4066 85.0416 63.2175 87.0596 64.7217 88.0314C66.2074 88.9847 68.3739 88.8424 69.5996 87.7343C70.5715 86.8553 71.3948 85.9206 71.5 84.5216C71.5433 83.9645 71.989 83.6611 72.5338 83.5435C73.0599 83.4321 73.419 83.6797 73.7409 84.0697C76.2417 87.1029 79.5225 88.3595 83.3542 87.92C85.0194 87.7281 85.5642 86.1187 86.0346 84.7011C86.2141 84.1502 86.2327 83.5435 86.3751 82.9802C86.5174 82.4231 86.8455 81.996 87.4522 81.8845C88.0464 81.7793 88.5045 82.0083 88.8759 82.485C90.5844 84.6825 92.8005 86.1929 95.3447 87.2577C96.3227 87.6662 97.338 87.5981 98.347 87.561C98.9041 87.5424 99.0465 87.041 99.2322 86.5953C99.715 85.4315 99.6593 84.2183 99.6098 83.005C99.585 82.3488 99.6283 81.6927 100.322 81.4265C101.027 81.1541 101.745 81.2717 102.216 81.9279C103.856 84.2183 106.388 84.3606 108.808 84.5525C110.696 84.7011 112.324 82.0579 111.619 80.2627C111.303 79.4642 111.266 78.6533 112.083 78.2014C112.814 77.7928 113.575 77.9661 114.206 78.6161C116.237 80.7022 118.304 81.0674 120.954 79.8418C122.216 80.0894 123.207 80.696 123.745 81.9155C122.718 83.2835 121.319 83.983 119.629 84.0511C118.341 84.1006 117.041 84.1749 115.803 83.6673C115.203 83.4197 114.732 83.6426 114.454 84.2306C114.423 84.2987 114.38 84.3668 114.336 84.4349C111.947 88.1119 110.207 88.2295 105.98 87.5734C105.144 87.4434 104.277 87.2762 103.51 86.8553C103.132 86.6448 102.835 86.7624 102.668 87.1772C102.55 87.4681 102.451 87.7653 102.333 88.0562C101.374 90.4394 99.4364 91.4299 96.8799 91.0399C94.1871 90.6251 91.9339 89.3809 89.8416 87.7281C88.8326 86.9358 88.845 86.9667 88.2012 88.0191C86.9879 89.9999 85.428 91.1822 82.8714 91.1884C79.5906 91.1946 76.6812 90.4332 74.1123 88.4152C73.4685 87.9076 73.029 88.0376 72.5152 88.5947C71.6424 89.5418 70.8377 90.588 69.6058 91.108C66.6654 92.346 62.9513 91.0708 61.3295 88.31C60.9581 87.6724 60.859 86.7563 60.1967 86.4406C59.5095 86.1125 58.8039 86.7686 58.0982 86.9605C54.3221 87.9819 51.1404 86.5767 49.7723 83.2154C49.2957 82.0393 49.5866 80.8075 49.4195 79.6127C49.6299 78.6966 50.218 78.288 51.1466 78.3561V78.3437Z" fill="#FDFDFC"/>
<path d="M79.6675 69.0822C77.7856 68.9646 75.9966 68.4632 74.3315 67.6275C72.7777 66.8475 72.5054 64.8543 73.6691 63.4429C74.6348 62.2791 75.9409 61.7777 77.4266 61.7034C77.3523 62.0872 77.4204 62.4772 77.4142 62.861C77.4018 63.6657 77.8042 64.1857 78.5594 64.4395C79.3456 64.6995 79.9027 64.3529 80.4103 63.7834C80.8745 63.2634 80.8684 62.4277 81.5555 62.0625C84.0873 62.341 86.5943 62.0439 89.1014 61.722C89.4418 61.6787 89.7947 61.722 90.1413 61.7344C90.3208 61.9572 90.3394 62.2358 90.426 62.4958C90.6551 63.1643 91.1751 63.48 91.825 63.5791C92.5307 63.6843 93.0012 63.2943 93.3478 62.7186C93.7069 62.1182 93.8307 61.4063 94.1959 60.8059C95.6258 60.484 97.0124 60.8554 98.3619 61.1958C99.5999 61.5115 100.021 63.3439 99.0304 64.39C97.0805 66.4452 94.6787 67.8256 91.9674 68.6612C91.0575 68.166 90.4446 67.2746 89.3427 66.9899C85.74 66.0613 82.5521 66.8042 79.6675 69.0822Z" fill="#FDFDFD"/>
<path d="M51.1387 78.3438C50.5382 78.5666 49.9997 78.87 49.6221 79.4023C48.8421 80.498 47.635 80.9499 46.4836 81.4946C46.1989 81.6308 45.877 81.6494 45.6294 81.3708C48.0002 76.3815 49.9873 71.1693 53.9367 67.0962C54.3019 66.7186 54.6176 66.1243 55.2799 66.4648C55.8804 66.7743 56.0166 67.3933 55.868 67.9876C55.5956 69.0771 55.2923 70.1727 54.9085 71.225C54.1657 73.2554 53.3548 75.2611 52.5686 77.2791C52.2034 77.7867 51.4791 77.8053 51.1387 78.3438Z" fill="#0E4BF3"/>
<path d="M79.6683 69.0821C80.3369 67.646 81.7916 67.2931 83.0606 66.8289C85.4066 65.9746 87.8084 66.1541 90.1731 66.9279C91.0583 67.2188 91.5659 67.8812 91.9683 68.6612C91.4854 69.014 90.9531 69.1626 90.3465 69.1564C86.7871 69.1192 83.2277 69.1068 79.6621 69.0821H79.6683Z" fill="#E502A1"/>
<path d="M123.682 81.8345C122.859 81.0421 121.893 80.4417 120.94 79.8226C120.649 79.5503 120.358 79.2717 120.067 78.9993C120.723 78.2503 121.608 78.6094 122.388 78.5722C125.174 78.436 125.168 78.467 126.078 81.1845C126.393 82.1316 126.864 83.0292 126.963 84.0444C125.601 83.7039 124.592 82.8373 123.682 81.8283V81.8345Z" fill="#0C215D"/>
<path d="M81.5517 62.0709C81.3722 62.5414 81.2113 63.018 81.007 63.4823C80.4313 64.7761 79.3294 65.2341 78.178 64.6894C77.1009 64.1756 76.81 63.018 77.4228 61.7119C78.8094 61.7305 80.227 61.3962 81.5517 62.0709Z" fill="#11255E"/>
<path d="M94.1912 60.8064C94.3583 61.6916 93.9188 62.4035 93.4732 63.0782C92.9408 63.8891 92.1423 64.1801 91.2261 63.7777C90.3595 63.4001 89.8333 62.7749 90.1366 61.7411C91.4861 61.4316 92.8417 61.1221 94.1912 60.8126V60.8064Z" fill="#10235D"/>
<path d="M93.558 44.4953C94.6412 44.0929 95.7307 44.1796 96.8264 44.4148C97.6682 46.4204 97.854 48.5127 97.5816 50.6545C97.5568 50.8526 97.4207 51.0012 97.2349 51.0879C96.0279 51.4593 94.8022 51.224 93.5889 51.2179C93.1865 50.8526 93.0566 50.3636 93.0194 49.856C92.9204 48.4261 92.9513 46.9899 92.9946 45.56C93.007 45.1267 93.1123 44.7119 93.5642 44.4953H93.558Z" fill="#0C1F5C"/>
<path d="M74.3499 45.7718C75.3527 45.6047 76.3431 45.5613 77.2902 46.0194C77.3893 46.137 77.2902 45.9575 77.3893 46.0875C78.1568 47.1027 78.2064 51.2316 77.4635 52.321C76.3555 52.841 75.297 52.2158 74.2137 52.1911C73.6937 51.8506 73.6318 51.2935 73.5328 50.7549C73.2728 49.3064 73.4771 47.8703 73.7247 46.4465C73.7804 46.1185 73.8361 45.7161 74.3499 45.778V45.7718Z" fill="#0D205C"/>
<path d="M74.3499 45.7701C73.7556 46.1849 74.0218 46.8225 73.9723 47.361C73.8175 48.9767 73.6813 50.6047 74.2137 52.1894C72.8518 52.2451 71.6819 51.7499 70.71 50.8337C69.1996 49.41 69.5586 47.4539 71.4281 46.5934C72.3628 46.1663 73.1861 45.3678 74.3499 45.7763V45.7701Z" fill="#FCFCFC"/>
<path d="M77.4623 52.316C77.5366 50.2113 77.7842 48.1067 77.289 46.0206C79.2637 45.742 81.1702 47.1348 81.3188 48.9609C81.4859 50.9913 80.0869 52.5327 78.0504 52.5698C77.8027 52.5698 77.5799 52.5698 77.4561 52.316H77.4623Z" fill="#FCFBFC"/>
<path d="M97.2156 51.089C97.6366 48.8295 96.8937 46.6444 96.8133 44.4159C97.6304 44.5335 98.3918 44.8183 99.0665 45.2949C100.181 46.0873 100.527 47.0715 100.156 48.3343C99.6174 50.1728 98.7199 51.0147 97.2156 51.089Z" fill="#FCFBFC"/>
<path d="M93.5421 44.4963C92.954 46.0501 93.2821 47.6595 93.313 49.2442C93.3254 49.9066 93.4802 50.5628 93.573 51.2189C92.8302 51.1446 92.1121 50.9465 91.456 50.5937C89.9579 49.7766 89.6298 47.7833 90.8865 46.6443C91.7283 45.8829 92.205 44.6449 93.5483 44.4963H93.5421Z" fill="#FBFAFB"/>
<path d="M89.1163 54.5733C89.0792 55.3842 88.6459 55.7742 87.8411 55.7742C87.0426 55.7742 86.5288 55.4089 86.5474 54.598C86.566 53.7747 86.9621 53.1309 87.8907 53.1371C88.7821 53.1433 89.0668 53.7747 89.1163 54.5671V54.5733Z" fill="#FCF5FB"/>
<path d="M83.0941 55.5525C82.2708 55.5401 81.887 55.1439 81.9055 54.5249C81.9365 53.6583 82.5245 53.3178 83.3478 53.3426C83.9669 53.3673 84.4869 53.6273 84.4064 54.3144C84.3135 55.113 83.7378 55.5029 83.0941 55.5463V55.5525Z" fill="#FCF6FC"/>
<path d="M161.574 149.809C161.977 151.177 162.75 152.385 163.295 153.691C161.029 154.198 158.832 153.883 156.665 153.164C156.356 153.059 156.083 152.867 155.867 153.245C154.585 155.504 152.462 154.935 150.568 154.675C149.15 154.483 147.844 153.691 146.854 152.638C146.024 151.753 145.572 151.765 145.152 152.88C145.337 153.257 145.176 153.598 145.034 153.938C143.66 156.21 141.648 157.863 139.209 158.63C137.135 159.28 134.857 159.119 132.783 158.104C131.056 157.256 129.366 156.334 127.943 155.015C127.348 154.464 127.027 154.477 126.649 155.244C126.005 156.551 125.213 157.77 123.944 158.581C123.715 158.729 123.48 158.878 123.226 158.983C122.539 159.28 121.703 159.67 121.121 159.181C120.589 158.729 121.059 157.937 121.245 157.312C121.356 156.934 121.449 156.557 121.53 156.173C121.66 155.684 121.827 155.207 122.136 154.799C123.337 153.443 123.839 151.846 123.801 150.051C123.777 149.073 123.795 148.095 123.801 147.117C123.801 146.566 123.789 146.033 123.387 145.575C123.052 145.191 123.083 144.69 123.17 144.226C123.3 143.526 123.325 142.827 123.337 142.121C123.337 141.799 123.362 141.477 123.486 141.174C123.653 140.809 123.962 140.561 124.26 140.307C125.287 139.441 125.819 138.376 125.696 137.008C125.665 136.661 125.677 136.302 125.745 135.956C125.912 135.089 126.661 134.352 127.491 134.297C128.444 134.229 129.298 134.581 129.527 135.529C130.357 138.927 133.099 139.527 135.903 139.855C138.658 140.177 139.036 139.75 139.364 136.989C139.469 136.135 139.617 135.287 139.785 134.439C140.014 133.281 140.843 132.489 141.889 132.39C142.867 132.303 143.796 132.892 144.217 134.018C144.601 135.058 144.96 136.049 145.944 136.723C147.448 137.757 148.067 137.782 149.231 136.401C151.236 134.018 153.663 133.548 156.517 134.557C157.21 134.804 157.934 134.996 158.671 135.132C158.974 135.188 159.315 135.2 159.327 135.64C159.569 136.717 159.816 137.788 160.058 138.865C160.07 139.305 160.082 139.744 160.095 140.184C158.659 140.803 157.204 140.592 155.755 140.239C155.378 140.146 155.025 139.961 154.672 139.787C153.793 139.354 153.075 139.521 152.53 140.338C150.413 143.483 147.281 143.452 144.495 141.781C143.635 141.267 143.239 141.403 142.762 142.214C141.406 144.529 139.308 145.148 136.733 144.894C134.071 144.634 131.583 143.972 129.336 142.499C129.206 142.412 129.063 142.332 128.908 142.313C128.277 142.239 126.575 144.473 126.89 145.012C127.386 145.866 127.547 146.776 127.503 147.723C127.454 148.782 127.85 149.636 128.556 150.373C130.487 152.378 132.722 153.932 135.408 154.749C136.696 155.139 137.903 154.953 139.116 154.235C141.561 152.774 142.898 150.781 142.644 147.859C142.607 147.395 142.62 146.919 142.675 146.448C142.799 145.383 143.338 144.752 144.211 144.634C145.22 144.492 145.851 144.87 146.204 146.021C146.947 148.448 148.773 149.772 150.927 150.756C151.336 150.942 151.862 151.221 152.264 150.905C152.716 150.546 152.505 149.964 152.425 149.469C152.363 149.085 152.171 148.726 152.122 148.336C151.967 147.197 152.642 146.009 153.632 145.687C154.48 145.408 155.433 145.761 155.885 146.912C156.678 148.937 158.182 149.395 160.095 149.302C160.639 149.277 161.209 149.277 161.574 149.816V149.809Z" fill="#FDFDFD"/>
<path d="M148.111 166.494C146.582 167.54 145.728 169.218 144.397 170.456C143.233 171.539 142.181 172.74 141.036 173.848C140.794 174.077 140.578 174.516 140.089 174.343C139.525 173.538 140.262 172.888 140.336 172.158C140.751 170.635 141.098 169.094 141.265 167.521C141.735 166.463 141.661 165.231 142.329 164.234C143.654 162.687 145.239 161.461 147.053 160.539C147.758 160.18 147.777 160.223 148.154 160.725C148.136 162.65 148.124 164.575 148.105 166.494H148.111Z" fill="#0F4BF3"/>
<path d="M148.16 160.725C147.163 160.409 146.501 161.115 145.826 161.598C144.712 162.39 143.684 163.3 142.613 164.161C142.353 163.845 142.421 163.492 142.533 163.164C143.554 160.143 143.882 156.949 144.829 153.91C144.941 153.569 145.046 153.229 145.157 152.888C146.067 153.427 146.748 154.386 147.955 154.417C148.209 154.423 148.327 154.696 148.321 154.943C148.271 156.875 148.494 158.812 148.166 160.731L148.16 160.725Z" fill="#0C205B"/>
<path d="M23.0441 164.499C23.0936 164.84 23.1803 165.174 23.1865 165.515C23.2051 166.257 22.6418 166.66 22.0104 166.27C21.5585 165.991 20.9952 166.239 20.6176 165.83C19.6333 164.797 19.7138 161.875 20.7537 161.027C21.317 160.562 22.2765 160.934 22.5675 161.627C22.9636 162.556 22.9017 163.54 23.0379 164.499H23.0441Z" fill="#104DEE"/>
<path d="M31.8773 163.706C32.0444 162.097 31.8216 160.524 31.5121 158.952C31.933 158.624 32.4158 158.692 32.8615 158.822C34.1243 159.193 35.4181 159.094 36.7057 159.187C38.6246 159.33 40.0298 158.55 41.175 157.101C41.4907 156.699 41.7693 156.278 42.054 155.857C42.6978 154.922 43.1249 154.897 43.9111 155.696C44.5672 156.364 45.0377 157.182 45.7434 157.825C47.749 159.645 50.1446 160.623 52.7136 161.286C53.0045 161.496 53.3697 161.552 53.6669 161.75C54.063 162.047 54.2426 162.468 54.3602 162.938C54.7502 164.56 55.592 165.953 56.4958 167.34C57.8576 169.438 58.9471 171.698 60.1852 173.87C60.3832 174.217 60.4761 174.595 60.4204 175.003C60.179 175.87 59.4052 176.068 58.6995 176.21C55.0101 176.972 51.8717 176.142 49.5999 172.929C49.0552 172.162 48.4423 171.45 47.9347 170.658C47.4333 169.884 47.1114 169.067 47.13 168.126C47.1424 167.488 47.13 166.789 46.3624 166.584C45.5205 166.362 45.2172 167.067 44.8644 167.631C43.6387 169.593 42.2521 171.438 40.8655 173.288C38.637 176.254 34.9538 175.696 32.6573 173.852C32.2921 171.351 32.1249 168.825 31.6235 166.337C31.4502 165.483 31.5925 164.56 31.8959 163.7L31.8773 163.706Z" fill="#7AE828"/>
<path d="M31.1338 156.589C30.849 155.067 31.1462 153.513 30.9481 151.984C30.7809 151.761 30.6385 151.513 30.6447 151.235C30.6881 148.418 30.1743 145.639 30.069 142.835C30.3105 142.234 30.6014 142.569 30.8305 142.829C31.2204 143.268 31.5052 143.788 31.8395 144.265C32.9104 145.781 34.365 146.623 36.1788 146.988C38.1473 147.385 40.0848 147.713 42.0595 147.001C43.2975 146.555 44.3747 145.911 45.297 144.97C46.1822 144.067 46.436 144.067 47.1107 145.045C48.3302 146.809 50.0325 147.942 51.8834 148.901C52.1433 149.743 52.0629 150.61 52.0196 151.458C51.9267 153.383 52.1681 155.259 52.7624 157.091C52.8738 157.431 52.9295 157.772 52.8181 158.118C52.49 158.731 51.9391 158.527 51.4686 158.422C48.7264 157.809 46.7084 156.168 45.167 153.884C44.7337 153.234 44.3994 152.522 43.997 151.854C43.3594 150.808 42.5671 150.802 41.9419 151.842C41.4776 152.609 41.1495 153.457 40.71 154.237C39.5091 156.367 38.2278 157.574 35.5412 157.06C34.1113 156.788 32.5885 156.992 31.14 156.589H31.1338Z" fill="#7AE828"/>
<path d="M31.1445 156.588C31.1816 156.167 31.454 156.204 31.7325 156.303C33.4658 156.941 35.2857 156.681 37.0685 156.811C38.808 156.935 39.5446 155.567 40.306 154.366C40.8631 153.487 41.284 152.521 41.7174 151.574C41.9773 151.011 42.4168 150.676 42.9678 150.683C43.5125 150.683 43.9582 150.998 44.2306 151.568C45.3758 153.994 46.9295 156.056 49.3747 157.343C50.3899 157.876 51.4917 158.08 52.5688 158.396C52.9093 158.513 53.0269 158.81 53.1383 159.114C53.2621 159.683 53.553 160.222 53.5654 160.81C53.5716 161.311 53.584 161.936 52.7421 161.59C50.068 160.958 47.5671 159.98 45.5058 158.068C44.701 157.318 44.0758 156.433 43.3949 155.591C43.0235 155.14 42.8316 155.14 42.584 155.647C42.4664 155.889 42.3116 156.111 42.163 156.34C40.8383 158.389 39.1917 159.726 36.5114 159.522C34.8276 159.392 33.1625 159.244 31.5035 158.959C31.2559 158.191 31.1568 157.399 31.1383 156.594L31.1445 156.588Z" fill="#FDFDFC"/>
<path d="M30.3284 142.493C30.5822 145.192 30.9659 147.879 31.0093 150.59C31.0155 151.054 30.9783 151.519 30.9536 151.983C30.2417 152.144 29.9136 151.649 29.5484 151.184C28.1432 149.389 26.9485 147.433 25.4009 145.749C25.4567 145.31 25.5124 144.864 25.5619 144.425C25.4567 142.933 26.0385 141.552 26.2676 140.116C26.6638 137.974 27.1156 135.845 27.6851 133.74C27.8399 133.177 28.0318 132.62 28.3351 132.119C28.5518 131.766 28.7313 131.215 29.2079 131.308C29.7217 131.4 29.6165 131.982 29.6475 132.385C29.7155 133.394 29.5917 134.409 29.7217 135.412C30.3098 137.436 30.3469 139.534 30.5265 141.614C30.5512 141.93 30.5388 142.233 30.3222 142.493H30.3284Z" fill="#0B1F5C"/>
<path d="M123.689 81.8355C124.785 82.5721 125.874 83.3087 126.97 84.0516C128.208 85.1225 129.452 86.1996 130.69 87.2705C128.938 90.5822 125.763 91.9008 122.68 90.6194C122.092 90.378 121.621 89.957 121.077 89.6537C119.356 88.7128 118.248 89.2761 118.39 91.2136C118.557 93.5535 117.53 95.2682 116.013 96.8467C115.437 97.4472 114.75 97.6329 113.921 97.7196C110.652 98.0662 108.337 96.6549 106.672 93.9683C106.325 93.405 105.917 92.9655 105.18 93.0274C104.413 93.0893 103.986 93.5659 103.75 94.2345C103.305 95.4973 102.704 96.6734 101.868 97.7257C101.745 97.8805 101.578 97.9857 101.392 98.06C100.03 98.1962 98.7053 97.8124 97.3991 97.6081C95.9754 97.3853 94.5702 97.2862 93.1402 97.2677C92.7131 97.2677 92.286 97.2801 91.8836 97.1067C91.6298 97.0015 91.7598 96.3268 91.1346 96.6982C90.788 96.9087 90.2432 96.7477 89.7914 96.7601C89.4818 96.7848 89.1723 96.7601 88.869 96.6858C88.2809 96.7353 87.761 96.4506 87.21 96.3515C86.6467 96.2525 86.071 96.2401 85.5634 96.5991C84.2944 96.7663 83.0997 97.3172 81.7812 97.2801C81.0198 97.2615 80.3512 97.7072 79.7446 98.1096C78.1042 99.1928 76.1976 99.7066 74.5139 100.691C74.2415 100.852 73.9444 100.951 73.6225 100.957C71.7716 100.709 70.7812 99.2733 69.6546 98.0477C69.2336 97.5896 68.9551 97.0077 68.627 96.4753C67.8656 95.2373 67.0423 95.1135 65.9404 96.0792C65.2595 96.6734 64.6467 97.3358 64.0091 97.9734C62.9072 99.0752 61.663 99.7561 60.0288 99.6014C58.865 99.49 57.6827 99.6942 56.5189 99.3785C54.2038 98.7533 53.0896 97.0386 52.4148 94.9216C52.1982 94.2407 52.1177 93.4917 51.2387 93.3493C50.4587 93.2255 50.174 93.8507 49.7902 94.3397C48.1374 96.4506 44.3118 96.6425 42.43 94.7173C41.8729 94.1416 41.7738 93.4112 41.7119 92.656C41.582 91.1208 41.9657 89.6104 41.941 88.0814C41.9348 87.6667 42.0648 87.2271 41.7924 86.8372C41.4829 86.8867 41.4457 87.1529 41.3838 87.3571C40.7153 89.468 40.3686 91.6346 40.5172 93.8445C40.6286 95.5406 42.2752 96.9829 44.5099 97.4658C46.1874 97.831 47.8526 97.9486 49.4373 97.0758C50.3535 96.5682 50.7125 97.2058 51.053 97.8619C52.0434 99.7871 53.4486 101.254 55.5471 101.941C59.0755 103.086 62.4429 103.247 65.47 100.548C66.9804 99.2052 67.1537 99.2857 68.4351 100.858C68.7818 101.279 69.1593 101.694 69.2336 102.269C69.0541 103.247 68.1194 103.47 67.4632 103.854C65.4452 105.018 64.2629 106.924 62.9072 108.676C62.1211 109.691 61.403 110.769 60.5797 111.759C59.5212 113.034 59.4902 113.542 60.4312 114.86C61.4711 116.327 62.3872 117.863 63.7305 119.113C65.569 120.821 67.8037 120.475 69.3079 118.444C70.4593 116.891 71.3074 115.182 72.3287 113.573C72.9416 112.601 73.6968 112.496 74.6191 112.638C75.56 112.787 76.241 113.399 76.3895 114.303C76.7176 116.321 77.8319 117.813 79.3051 119.119C80.8155 120.456 82.004 120.357 83.5021 119.026C85.2539 117.473 85.5882 115.318 86.1824 113.276C86.492 112.205 87.111 111.381 88.0148 111.227C89.0795 111.041 89.7418 111.35 90.2618 112.644C91.3513 115.368 93.4188 116.823 96.1363 117.578C96.842 117.776 97.3372 117.714 97.7458 117.07C98.9714 115.126 100.507 113.381 101.398 111.22C101.763 110.335 102.877 109.982 104.047 110.317C105.013 110.595 105.731 111.635 105.576 112.539C105.539 112.774 105.428 112.985 105.36 113.207C105.217 113.672 105.285 114.086 105.768 114.291C106.257 114.501 106.579 114.241 106.845 113.845C108.077 111.994 109.161 110.026 110.888 108.546C111.278 108.212 111.284 107.865 111.005 107.413C110.547 106.671 110.052 106.027 109.278 105.55C108.257 104.925 107.724 103.805 107.062 102.864C105.558 100.734 105.341 100.678 103.942 102.87C102.624 104.931 100.767 106.38 98.7238 107.667C97.2939 108.571 95.7525 108.441 94.1864 108.54C91.6855 108.701 89.7728 107.686 88.2314 105.854C87.5814 105.086 86.9562 104.275 86.6467 103.272C86.4734 102.697 86.2134 102.696 85.8729 103.186C84.4306 105.247 82.4559 106.584 80.0727 107.339C79.658 107.469 79.2432 107.587 78.8099 107.543C75.5848 107.265 73.022 105.792 71.0597 103.241C70.7193 102.802 70.6388 102.325 70.8802 101.811C71.4869 101.205 72.2854 101.099 73.0716 100.957C73.7154 101.161 74.2477 101.601 74.7553 101.997C78.0237 104.516 80.9827 102.95 82.8336 100.239C83.7745 98.8647 84.9506 97.7505 86.2134 96.6982C87.0491 96.4196 87.8848 96.6425 88.7143 96.7229C89.6923 97.3977 89.649 98.5676 90.008 99.5271C90.3299 100.369 90.7137 101.174 91.0851 101.991C92.0322 104.065 95.5792 104.51 97.3372 102.919C99.0333 101.39 100.661 99.7623 102.525 98.4067C102.896 98.32 103.249 98.4191 103.521 98.6419C104.165 99.1495 104.617 99.1124 105.18 98.4438C105.737 97.7815 106.338 98.2891 106.796 98.7224C108.096 99.9357 109.643 100.617 111.346 101.031C115.01 101.917 118.031 100.654 119.938 97.3915C120.371 96.6487 120.798 95.8996 121.077 95.0763C121.33 94.3273 121.795 93.9931 122.593 94.1788C122.859 94.2407 123.144 94.2345 123.404 94.3026C127.397 95.392 130.3 93.634 132.77 90.7308C133.055 90.3965 133.191 89.858 133.785 89.9013C134.658 90.737 135.525 91.5727 136.397 92.4084C137.468 93.9435 138.787 95.2497 140.192 96.4753C141.164 98.1281 142.167 99.7561 143.473 101.174C143.541 101.372 143.51 101.576 143.399 101.737C141.61 104.411 139.629 106.875 136.317 107.729C133.278 108.515 130.696 107.519 128.394 105.569C128.096 105.315 127.843 105.012 127.552 104.745C127.056 104.287 126.567 103.798 125.8 104.089C125.02 104.386 124.599 105.018 124.549 105.798C124.475 106.863 124.159 107.878 124.048 108.924C123.968 109.648 123.708 110.292 123.348 110.899C122.451 112.428 120.532 112.805 119.102 111.734C118.235 111.084 117.61 110.242 117.177 109.252C116.923 108.676 116.682 108.101 116.36 107.556C115.852 106.695 114.998 106.417 114.162 106.819C113.302 107.234 112.912 108.2 113.258 109.091C113.388 109.419 113.587 109.716 113.624 110.075C113.067 112.409 112.076 114.563 110.82 116.6C110.176 117.646 109.414 118.494 108.312 119.15C106.629 120.147 105.118 119.602 103.657 118.884C102.871 118.5 102.475 118.525 102.029 119.224C101.212 120.524 100.377 121.886 98.6805 122.103C96.8358 122.344 95.0159 122.189 93.2888 121.36C92.0817 120.784 90.9427 120.091 89.9028 119.268C89.3457 118.828 89.1166 118.859 88.77 119.478C87.8662 121.094 86.7581 122.48 85.1363 123.533C83.5021 124.597 81.905 124.734 80.1222 124.22C77.77 123.539 75.8572 122.295 74.6315 120.116C74.5015 119.887 74.3467 119.639 74.0187 119.503C73.573 119.955 73.1025 120.407 72.7435 120.976C71.5611 122.883 69.7846 124.04 67.6427 124.418C65.9652 124.715 64.3248 124.108 62.8391 123.254C61.0378 122.227 59.9359 120.574 58.995 118.81C58.4998 117.875 58.0231 116.928 57.5898 115.962C56.946 114.247 56.2032 112.576 55.9927 110.707C55.8442 109.388 54.2905 109.072 53.2753 110.094C52.421 110.954 51.6411 111.877 50.762 112.718C48.7688 114.631 46.3917 114.34 44.0271 113.938C43.0552 113.771 42.2876 113.09 41.7491 112.211C40.7277 110.546 40.0158 108.8 40.0777 106.801C40.0901 106.33 40.1149 105.86 39.9972 105.395C39.8611 104.869 39.5887 104.461 39.0068 104.362C38.4559 104.269 38.004 104.442 37.6635 104.888C37.2859 105.389 37.0321 105.971 36.7226 106.51C36.2026 107.413 35.5093 108.07 34.3827 107.989C33.2499 107.909 32.5256 107.252 32.0861 106.243C31.5476 105.005 31.2876 103.687 31.1947 102.368C31.0214 99.9914 31.2257 97.602 30.9905 95.2249C33.2499 93.0088 34.9832 90.3037 37.4778 88.3042C37.5583 88.2423 37.5769 88.1 37.6264 87.9947C39.1739 87.19 40.1458 85.7663 41.3591 84.5963C42.7952 83.5192 44.2313 82.4359 45.6675 81.3588C46.695 81.105 47.5926 80.585 48.4778 80.0155C48.8493 79.7803 49.1526 79.3841 49.6602 79.3965C49.8954 79.6689 49.8273 79.997 49.7902 80.2941C49.2578 84.5901 52.9224 87.7967 57.6146 86.7691C58.6112 86.5524 59.515 86.1129 60.4683 85.6982C60.6973 86.2181 60.9078 86.7134 61.1307 87.2024C62.6782 90.5265 66.1942 92.0741 69.4689 90.8051C70.7688 90.3037 71.6912 89.2575 72.4959 88.1495C73.0097 87.4438 73.3934 87.2581 74.1363 87.9204C77.0766 90.5451 80.6298 91.2384 84.4059 90.7494C86.1082 90.5265 87.1976 89.1894 87.9962 87.6976C88.7142 86.3543 88.7019 86.3667 89.9337 87.351C92.3169 89.2575 94.9045 90.6999 98.0677 90.7308C100.086 90.7494 101.361 89.8456 102.048 87.9514C102.128 87.7286 102.228 87.5119 102.258 87.2829C102.388 86.2429 102.741 86.0386 103.787 86.5276C105.725 87.4438 107.836 87.71 109.965 87.4933C112.051 87.2829 113.283 85.7662 114.094 84.1073C114.651 82.9683 115.208 83.0983 116.087 83.3459C118.885 84.1444 121.485 83.872 123.72 81.8231L123.689 81.8355Z" fill="#7AE828"/>
<path d="M149.981 113.113C150.761 114.729 151.77 116.208 152.717 117.719C152.773 117.805 152.761 117.942 152.779 118.053C151.684 119.44 150.186 119.836 148.508 119.755C148.199 119.743 147.895 119.619 147.586 119.57C146.174 119.334 145.066 118.796 144.788 117.186C144.676 116.543 144.193 116.084 143.451 116.084C142.658 116.084 142.268 116.592 142.015 117.254C141.959 117.403 141.934 117.558 141.891 117.706C141.241 120.195 137.824 122.727 135.286 122.628C134.401 122.59 133.683 122.318 133.237 121.507C132.915 120.919 132.475 120.498 131.739 120.616C131.002 120.733 130.804 121.315 130.569 121.928C129.758 124.088 128.099 125.556 126.174 126.602C124.917 127.283 123.481 126.899 122.28 126.094C122.045 125.939 122.014 126.144 121.89 126.119C121.197 125.023 121.048 123.736 120.646 122.541C119.829 120.127 118.671 117.898 117.334 115.744C117.155 115.453 116.851 115.212 117.006 114.803C117.6 114.388 118.04 114.884 118.51 115.082C120.343 115.843 122.175 116.338 123.976 115.051C125.289 114.116 126.186 112.853 126.681 111.318C127.406 109.083 127.35 109.213 129.51 110.142C134.382 112.234 138.498 112.364 142.702 108.341C143.383 107.691 144.039 107.022 144.658 106.316C144.992 105.939 145.308 105.518 145.852 105.425C146.552 106.657 147.251 107.889 147.951 109.12C148.824 110.346 149.412 111.72 149.975 113.113H149.981Z" fill="#7AE828"/>
<path d="M145.864 105.433C143.964 107.748 141.958 109.946 139.117 111.159C138.139 111.58 137.111 111.896 136.065 111.865C133.286 111.784 130.544 111.506 128.216 109.723C128.043 109.593 127.801 109.543 127.541 109.432C127.281 110.979 126.823 112.397 125.919 113.579C123.635 116.575 121.487 116.594 118.541 115.467C118.033 115.275 117.575 114.966 117.092 114.712C116.888 114.724 116.69 114.656 116.572 114.508C115.402 113.078 114.108 111.735 113.384 109.995C112.672 109.023 112.282 108.076 113.279 107.011C114.368 105.848 115.91 105.99 116.634 107.414C117.235 108.584 117.625 109.859 118.504 110.88C119.37 111.889 120.484 112.347 121.735 111.988C122.874 111.654 123.388 110.552 123.598 109.5C123.827 108.361 124.112 107.216 124.124 106.027C124.137 104.938 124.601 104.04 125.715 103.693C126.687 103.39 127.343 104.009 127.931 104.647C130.339 107.253 133.242 108.175 136.697 107.321C138.065 106.98 139.092 106.077 140.101 105.179C141.407 104.015 142.491 102.654 143.432 101.174C144.75 102.121 145.295 103.563 145.858 104.987C145.858 105.136 145.858 105.284 145.858 105.439L145.864 105.433Z" fill="#FDFDFC"/>
<path d="M122.025 125.979C122.979 126.034 123.808 126.604 124.805 126.592C125.597 126.585 126.303 126.393 126.86 125.904C127.844 125.038 128.779 124.109 129.676 123.15C130.005 122.797 130.258 122.357 130.308 121.8C130.376 120.946 130.846 120.315 131.744 120.203C132.629 120.092 133.186 120.568 133.551 121.361C133.985 122.314 135.997 122.785 137.191 122.172C138.838 121.324 140.156 120.073 141.283 118.6C141.574 118.216 141.518 117.789 141.648 117.393C141.952 116.477 142.317 115.629 143.53 115.678C144.731 115.728 145.158 116.551 145.257 117.523C145.338 118.328 145.746 118.786 146.396 118.978C148.526 119.609 150.624 119.813 152.456 118.148C152.531 118.08 152.673 118.086 152.791 118.061C153.205 118.755 153.62 119.448 154.035 120.141C154.103 120.531 154.165 120.928 154.233 121.324C152.45 123.311 150.178 123.855 147.653 123.441C146.433 123.243 145.164 123.113 144.081 122.376C143.468 121.961 143.072 122.432 142.676 122.822C141.116 124.338 139.401 125.552 137.235 126.127C135.929 126.474 134.728 126.208 133.551 125.855C132.549 125.552 132.072 125.904 131.509 126.635C130.258 128.269 128.742 129.569 126.742 130.287C125.436 130.758 124.223 130.683 122.991 130.12C122.279 128.832 121.833 127.489 122.038 125.991L122.025 125.979Z" fill="#FDFDFC"/>
<path d="M149.987 113.114C149.015 111.938 148.445 110.552 147.962 109.122C148.377 109.202 148.786 109.307 149.2 109.357C150.742 109.524 151.008 109.846 150.37 111.232C150.079 111.87 150.067 112.477 149.98 113.114H149.987Z" fill="#0F2B66"/>
<path d="M123.173 130.083C126.825 130.85 129.233 128.931 131.326 126.319C131.932 125.564 132.353 125.025 133.641 125.527C136.934 126.808 139.583 125.211 141.967 123.045C142.251 122.785 142.58 122.543 142.778 122.221C143.174 121.596 143.589 121.695 144.158 121.974C147.495 123.614 150.775 123.874 153.889 121.423C153.976 121.355 154.106 121.348 154.217 121.311C155.115 122.729 155.412 124.388 156.087 125.898C156.6 127.062 157.096 128.232 157.597 129.396C157.671 130.64 158.365 131.705 158.656 132.899C158.878 133.803 158.86 134.787 159.33 135.635C157.213 135.326 155.294 134.137 153.029 134.422C151.481 134.62 150.491 135.499 149.531 136.533C148.918 137.195 148.473 138.26 147.321 137.802C146.034 137.282 144.783 136.626 144.3 135.146C144.071 134.453 143.979 133.698 143.378 133.166C142.796 132.652 142.097 132.491 141.422 132.782C140.747 133.073 140.246 133.568 140.079 134.404C139.757 136.007 139.905 137.691 139.2 139.226C138.878 139.938 138.414 140.371 137.609 140.352C135.64 140.303 133.715 139.987 131.926 139.127C130.651 138.514 129.704 137.61 129.407 136.118C129.165 134.911 128.453 134.366 127.488 134.546C126.398 134.75 125.891 135.524 125.996 136.583C126.188 138.588 125.457 140.061 123.699 141.033C123.229 140.612 123.303 140.043 123.297 139.511C123.278 137.994 123.285 136.477 123.297 134.955C123.297 133.902 123.297 132.868 122.95 131.841C122.758 131.259 122.715 130.609 123.179 130.07L123.173 130.083Z" fill="#7AE828"/>
<path d="M26.5664 140.134C26.2755 141.577 26.096 143.044 25.5636 144.43C23.7375 145.625 21.9114 146.795 19.6024 146.789C15.5726 146.783 14.576 144.913 13.6103 142.066C13.177 140.784 13.0098 139.422 12.6694 138.11C12.5208 137.534 12.8551 137.045 12.8117 136.507C13.1212 135.461 13.4308 134.415 13.7403 133.368C14.4583 133.412 14.2726 133.994 14.3283 134.402C14.6317 136.86 15.2755 139.231 16.1669 141.533C17.0521 143.817 18.7791 144.158 21.0942 143.223C22.7037 142.573 24.078 141.509 25.3779 140.357C25.6379 140.122 25.8793 139.843 26.226 139.738C26.5726 139.633 26.6159 139.862 26.5664 140.134Z" fill="#FCFDFB"/>
<path d="M101.403 97.8431C102.264 96.6422 103.074 95.4227 103.464 93.9618C103.65 93.2623 104.145 92.7423 104.938 92.6433C105.811 92.5319 106.43 92.8847 106.869 93.6461C107.76 95.1936 108.887 96.5122 110.651 97.0878C114.749 98.4311 117.256 96.6174 117.993 92.2223C118.067 91.7643 118.005 91.2814 117.968 90.8172C117.906 90.0496 118.104 89.3501 118.816 89.0344C119.491 88.7373 120.24 88.7063 120.933 89.1829C121.955 89.8824 122.97 90.5819 124.264 90.7553C126.331 91.0276 127.86 90.0929 129.234 88.7125C129.717 88.2296 130.008 87.5549 130.689 87.2764C131.618 87.9821 132.552 88.6877 133.481 89.3934C133.574 89.5605 133.66 89.7339 133.753 89.901C132.038 92.2285 130.058 94.1475 127.086 94.8099C125.514 95.1627 124.035 94.7975 122.574 94.4694C121.682 94.2713 121.571 94.587 121.298 95.2617C120.141 98.1154 118.531 100.722 115.3 101.396C112.106 102.065 109.098 101.254 106.64 99.0068C105.841 98.2764 105.334 98.1526 104.901 99.2297C104.69 99.7435 104.473 99.6197 104.121 99.3844C103.638 99.0687 103.112 98.8149 102.604 98.5364C102.072 98.5425 101.589 98.4559 101.415 97.8492L101.403 97.8431Z" fill="#FDFEFD"/>
<path d="M26.5724 140.135C26.1886 139.559 25.9843 140.209 25.8605 140.321C24.641 141.466 23.3411 142.518 21.8307 143.23C18.2527 144.907 16.5009 144.053 15.4547 140.581C14.7862 138.352 13.9815 136.142 13.9629 133.759C13.9629 133.629 13.8267 133.499 13.7524 133.369C14.9967 127.606 16.8847 122.047 19.2617 116.655C19.3546 116.445 19.497 116.265 19.6208 116.067C20.085 116.402 20.0293 116.909 19.955 117.355C19.6455 119.249 20.4564 120.766 21.7007 122.016C23.3473 123.669 25.3405 124.721 27.7361 124.82C28.4047 124.851 29.0484 125.037 29.7232 125.043C31.4812 125.043 33.004 124.474 34.3535 123.335C35.5234 122.344 35.9134 122.468 36.4024 123.929C37.1081 126.04 38.1728 127.86 40.1785 128.98C42.2646 130.144 44.6107 130.2 46.8949 130.447C48.591 130.633 50.25 130.299 51.8842 129.828C52.3608 129.692 52.8684 129.426 53.2708 129.983C53.4936 130.509 53.537 131.072 53.3946 131.599C52.7322 134.05 52.6518 136.6 52.138 139.076C51.8408 140.525 52.0822 142.041 52.0451 143.527C52.0265 144.227 52.1318 144.938 51.8842 145.619C51.5128 146.189 51.0856 145.842 50.7947 145.595C48.8386 143.936 46.9196 142.252 47.0991 139.299C47.1734 138.098 46.6349 137.281 45.9911 137.417C44.9264 137.64 44.9326 138.55 44.9511 139.38C45.013 141.738 44.1526 143.725 41.8312 144.338C37.5971 145.458 33.7964 144.926 32.2736 140.42C31.8836 139.268 31.5369 138.129 31.5741 136.879C31.6236 135.028 31.3574 134.867 29.6365 135.436C29.5623 135.461 29.4818 135.436 29.4075 135.424C29.0856 134.13 29.3766 132.812 29.1723 131.481C27.5071 134.118 27.3647 137.219 26.5786 140.122L26.5724 140.135Z" fill="#7AE828"/>
<path d="M25.0403 104.045C25.9193 102.769 26.7983 101.488 27.6773 100.213C28.4325 99.8291 28.7173 99.0058 29.3239 98.4858C29.7077 98.8696 29.6458 99.3525 29.5839 99.8106C29.2868 101.965 29.361 104.082 29.8129 106.217C30.5062 109.517 33.4156 111.269 36.6346 110.111C37.5879 109.771 37.9778 110.037 38.2873 110.916C38.9868 112.921 39.7977 114.828 41.7105 116.085C44.0876 117.651 49.6835 118.016 52.271 115.398C53.2862 114.364 53.6824 114.488 54.351 115.794C54.9452 116.951 55.7995 117.929 56.4742 119.025C55.9356 121.167 55.4714 123.327 54.4686 125.32C52.952 126.62 51.1568 127.221 49.2007 127.326C47.6408 127.407 46.0684 127.363 44.5023 127.338C41.5681 127.295 39.6554 125.865 38.6959 123.092C38.2997 121.941 38.1016 120.74 37.7055 119.594C37.2721 118.338 36.3993 118.09 35.3841 118.969C34.4989 119.737 33.6633 120.566 32.8028 121.359C31.2305 122.807 29.3858 122.838 27.5101 122.541C26.0059 122.306 24.5822 121.742 23.3132 120.82C21.9328 119.817 21.2333 118.517 21.2147 116.84C21.1961 115.286 21.1838 113.726 21.289 112.172C22.4032 109.863 23.5299 107.555 24.6317 105.233C24.8112 104.856 24.9041 104.435 25.0341 104.032L25.0403 104.045Z" fill="#7AE828"/>
<path d="M21.2964 112.185C21.7359 112.39 21.5688 112.779 21.5688 113.108C21.5688 114.166 21.6306 115.225 21.5502 116.277C21.3088 119.483 23.6301 121.062 26.0505 121.823C26.6695 122.021 27.3195 122.176 27.9756 122.288C30.656 122.758 32.5131 121.458 34.1906 119.626C34.9273 118.821 35.571 117.67 36.9638 118.085C38.3628 118.505 38.0409 119.929 38.4247 120.92C38.7218 121.675 38.79 122.517 39.0747 123.278C39.9413 125.649 41.6746 126.881 44.194 126.98C45.3268 127.023 46.4658 126.992 47.5986 127.06C50.0561 127.215 52.2475 126.472 54.3088 125.209C54.4202 126.893 54.2283 128.503 53.1327 129.883C51.0032 130.36 48.8924 130.923 46.6701 130.719C44.8006 130.545 42.9064 130.477 41.136 129.815C38.5052 128.831 36.9638 126.813 36.1282 124.194C36.0601 123.971 36.0105 123.742 35.9301 123.52C35.8372 123.266 35.7134 123.03 35.5586 122.69C34.9458 123.198 34.4011 123.68 33.8316 124.126C32.8845 124.863 31.795 125.315 30.6065 125.346C27.2885 125.432 24.1749 124.857 21.6183 122.455C19.7179 120.672 19.3155 118.487 19.6127 116.054C20.0769 114.717 20.634 113.423 21.2964 112.173V112.185Z" fill="#FDFDFC"/>
<path d="M161.578 149.81C160.644 149.741 159.703 149.723 158.774 149.587C157.462 149.395 156.329 148.955 155.828 147.513C155.357 146.163 154.503 145.643 153.624 145.972C152.658 146.331 152.151 147.525 152.534 148.745C152.733 149.389 152.9 150.008 152.9 150.689C152.9 151.338 152.621 151.481 152.027 151.413C149.693 151.14 146.66 148.621 146.01 146.343C145.75 145.439 145.403 144.703 144.283 144.857C143.175 145.012 143.014 145.842 142.964 146.758C142.89 148.076 143.144 149.407 142.673 150.713C141.398 154.198 137.913 156.012 134.471 154.768C131.964 153.858 129.804 152.329 128.04 150.299C127.433 149.599 127.179 148.77 127.148 147.822C127.111 146.739 127.402 145.513 126.164 144.771C125.848 144.585 126.17 144.375 126.319 144.226C126.672 143.873 127.037 143.52 127.408 143.186C127.891 142.746 128.089 141.806 128.69 141.799C129.241 141.799 129.785 142.456 130.367 142.765C132.75 144.059 135.332 144.604 138.012 144.653C140.272 144.696 141.862 143.477 142.828 141.552C143.268 140.679 143.614 140.84 144.202 141.217C146.053 142.406 147.991 143.025 150.151 142.078C151.191 141.62 151.878 140.772 152.51 139.874C153.042 139.119 153.735 138.89 154.521 139.354C156.286 140.388 158.186 140.295 160.105 140.184C160.526 141.614 160.346 143.112 160.606 144.56C160.922 146.312 161.25 148.064 161.572 149.81H161.578Z" fill="#7AE828"/>
<path d="M56.3202 118.982C55.1998 118.153 54.5621 116.958 54.0174 115.732C53.6398 114.872 53.2808 114.841 52.6679 115.472C49.3438 118.896 42.6274 118.041 40.2132 115.287C39.1176 114.03 38.4428 112.582 37.9662 111.009C37.7867 110.421 37.7495 110.099 36.8334 110.446C34.1901 111.461 30.3832 110.557 29.498 106.441C28.9223 103.773 29.1761 101.142 29.3247 98.4864C29.8694 97.4031 30.4079 96.3136 30.9526 95.2303C31.4355 96.0413 31.3612 96.9574 31.3984 97.8426C31.4912 100.189 31.386 102.541 31.8812 104.862C32.2464 106.577 33.0759 107.567 34.3882 107.666C35.162 107.722 35.7686 107.506 36.1462 106.781C36.4496 106.199 36.79 105.636 37.0748 105.042C37.5019 104.157 38.1767 103.686 39.1485 103.952C40.0894 104.212 40.3804 104.999 40.3123 105.878C40.1575 107.976 40.727 109.876 41.7422 111.69C42.5655 113.157 43.8159 113.721 45.4502 113.943C48.7991 114.389 50.8666 112.594 52.637 110.155C53.2436 109.319 54.0112 108.83 55.045 109.14C56.0292 109.437 56.3759 110.235 56.4192 111.22C56.4625 112.161 56.7473 113.052 57.0506 113.937C57.2735 114.581 57.9977 115.027 57.7749 115.838C57.4839 116.977 57.2797 118.153 56.3202 118.988V118.982Z" fill="#FDFDFC"/>
<path d="M56.3333 118.983C56.779 117.919 57.138 116.804 57.788 115.833C58.4132 117.021 58.9703 118.253 59.6822 119.386C60.685 120.983 61.7374 122.592 63.613 123.317C67.3705 124.777 69.4628 124.313 72.2669 121.082C72.9045 120.351 73.4245 119.516 74.0373 118.68C75.9872 121.986 78.519 124.505 82.5798 124.103C86.0339 123.756 87.5815 120.921 89.0548 118.073C90.7447 119.844 92.8927 120.81 95.0655 121.726C97.1887 122.617 99.9 121.757 101.15 119.788C101.268 119.602 101.429 119.435 101.553 119.25C102.172 118.342 102.975 118.183 103.961 118.773C105.787 119.862 108.325 119.336 109.792 117.51C111.575 115.288 112.503 112.651 113.389 109.995C114.627 111.568 115.865 113.146 117.096 114.718C117.883 116.043 118.737 117.331 119.436 118.705C120.613 121.014 121.312 123.508 122.042 125.985C122.525 127.322 122.581 128.783 123.181 130.089C123.9 133.716 123.553 137.399 123.701 141.052C123.664 141.404 123.621 141.757 123.584 142.11C122.278 142.971 120.99 143.85 119.306 143.825C118.458 143.812 117.79 143.552 117.233 142.927C116.923 142.574 116.589 142.234 116.224 141.937C115.264 141.157 114.459 141.367 114.088 142.525C113.649 143.899 112.825 144.958 111.587 145.663C110.052 146.536 108.399 145.626 108.306 143.874C108.269 143.162 108.238 142.469 107.867 141.832C107.353 140.946 106.883 140.866 106.09 141.541C105.013 142.463 104.629 143.843 103.831 144.951C103.113 145.954 102.277 146.827 101.355 147.607C100.222 148.566 97.6654 148.047 96.7121 146.703C95.8702 145.521 95.0593 144.314 94.6507 142.896C94.4774 142.29 94.1122 141.974 93.4746 141.943C92.8494 141.918 92.317 142.036 91.9951 142.661C91.5309 143.559 91.2647 144.53 90.6704 145.391C89.8347 146.61 88.7886 147.607 87.6867 148.536C86.7396 149.334 85.5263 149.117 84.4369 148.696C83.3041 148.257 82.4498 147.427 81.9113 146.338C81.4594 145.416 80.8651 144.592 80.308 143.744C79.5837 142.649 78.8347 142.717 78.2157 143.856C77.2377 145.657 75.9501 147.223 74.4954 148.666C73.8083 149.346 73.0345 149.532 72.1369 149.427C69.5246 149.124 66.9371 146.456 66.8752 143.781C66.8752 143.509 66.8752 143.231 66.869 142.958C66.8505 142.519 66.869 142.048 66.2686 141.986C65.7858 141.937 65.3958 142.147 65.2658 142.618C64.6468 144.859 62.994 146.208 61.1741 147.415C59.317 148.647 57.3176 148.802 55.2191 148.232C54.6929 148.09 54.1729 147.904 53.6529 147.731C53.3001 147.613 52.9225 147.638 52.743 148.028C52.582 148.375 52.8234 148.635 53.0649 148.839C53.7643 149.427 54.5815 149.941 55.4419 150.071C57.918 150.436 60.3693 150.386 62.5483 148.851C63.3468 148.288 64.1825 147.78 64.8572 147.05C65.3339 146.542 65.7548 146.561 66.1634 147.211C66.7948 148.214 67.68 149.018 68.5775 149.767C70.7379 151.581 74.6749 151.946 76.6125 149.396C77.2005 148.622 78.03 148.047 78.5995 147.236C79.1195 146.493 79.5157 146.474 79.9985 147.254C80.4194 147.929 80.9951 148.461 81.4656 149.074C82.6603 150.615 84.3255 151.29 86.133 151.494C87.563 151.655 88.9124 151.049 89.9895 150.071C90.9119 149.235 91.8404 148.393 92.4965 147.285C93.0908 146.282 93.7655 146.319 94.4526 147.316C95.8021 149.291 97.6592 150.424 100.049 150.442C101.188 150.448 102.265 149.972 103.144 149.179C103.812 148.573 104.444 147.929 105.075 147.285C106.047 146.295 106.437 146.301 107.434 147.236C107.885 147.663 108.319 148.077 108.925 148.337C110.906 149.173 112.491 148.35 114.02 147.236C114.398 146.963 114.707 146.592 115.023 146.245C115.512 145.707 116.019 145.595 116.688 145.954C118.644 147 120.6 147.248 122.544 145.874C123.051 145.515 123.342 145.812 123.46 146.332C123.54 146.678 123.522 147.031 123.522 147.384C123.559 149.984 123.151 152.51 122.296 154.961C122.135 155.345 121.974 155.735 121.813 156.119C119.919 156.657 118.223 157.821 116.18 157.901C115.363 157.932 114.676 157.734 114.045 157.146C113.079 156.242 112.51 156.298 111.525 157.239C110.906 157.833 110.306 158.458 109.681 159.053C109.402 159.319 109.13 159.672 108.678 159.523C108.183 159.362 107.954 158.954 107.867 158.458C107.786 157.994 107.836 157.518 107.78 157.053C107.724 156.589 107.539 156.218 107.05 156.1C106.555 155.976 106.072 156.063 105.799 156.515C105.391 157.183 104.827 157.753 104.53 158.489C104.091 159.579 103.274 160.377 102.419 161.126C101.503 161.931 99.6339 161.9 98.7301 161.083C97.882 160.322 97.0959 159.511 96.6378 158.434C96.3964 157.864 96.1178 157.196 95.3812 157.189C94.6136 157.183 94.2731 157.827 93.9636 158.434C93.3198 159.684 92.2923 160.619 91.2028 161.436C89.6366 162.6 87.4701 162.371 86.003 161.077C84.9878 160.186 84.2512 159.084 83.5083 157.982C82.6231 156.669 81.6637 156.651 80.8218 158C80.3823 158.712 79.8128 159.288 79.2371 159.876C78.1786 160.965 77.0148 161.393 75.5539 160.668C74.2664 160.031 73.6597 158.972 73.4864 157.617C73.4245 157.152 73.4864 156.676 73.4616 156.205C73.4431 155.79 73.5421 155.283 72.9602 155.153C72.4402 155.041 72.0255 155.283 71.7717 155.729C71.2146 156.7 70.3913 157.425 69.6175 158.198C68.3856 159.437 66.8938 160.285 65.3153 161.003C64.9501 161.17 64.5601 161.207 64.1639 161.207C62.734 161.207 61.304 161.207 59.8741 161.207C57.6889 161.188 55.6647 160.644 53.8696 159.362C53.6096 159.034 53.2444 159.009 52.873 159.022C52.7739 158.799 52.6687 158.582 52.5696 158.359C52.7677 157.586 52.2849 156.942 52.0992 156.267C51.4121 153.76 51.7959 151.204 51.5668 148.678C51.183 147.743 51.183 146.808 51.573 145.88C51.6102 144.79 51.6844 143.695 51.6721 142.605C51.6287 138.959 52.223 135.394 53.0154 131.847C53.1577 131.209 53.1082 130.522 53.1453 129.86C53.7582 128.362 53.9067 126.74 54.3215 125.186C54.99 123.106 55.6648 121.026 56.3333 118.946V118.983Z" fill="#E500A0"/>
<path d="M53.8029 159.014C55.5547 160.283 57.5727 160.729 59.6712 160.927C61.2497 161.267 62.822 161.267 64.4005 160.927C67.3099 159.88 69.9284 158.42 71.414 155.541C71.8164 154.761 72.3921 154.637 73.1349 154.761C73.9087 154.891 73.8406 155.516 73.8158 156.049C73.7478 157.572 73.7292 159.026 75.1963 160.048C76.4652 160.933 77.3257 160.945 78.5575 160.029C79.517 159.317 80.2599 158.432 80.8479 157.423C81.5474 156.228 83.2002 156.457 83.7635 157.609C84.5744 159.274 85.6206 160.809 87.4962 161.533C88.5424 161.936 89.5514 162.084 90.5604 161.453C92.0275 160.537 93.2098 159.33 93.9712 157.794C94.324 157.076 94.8997 156.792 95.4878 156.779C96.144 156.767 96.6206 157.349 96.8311 157.992C97.1591 158.989 97.7224 159.806 98.4838 160.524C99.7962 161.75 101.139 161.738 102.538 160.599C103.851 159.534 104.42 157.986 105.312 156.655C105.85 155.851 106.469 155.529 107.342 155.745C108.19 155.962 108.202 156.705 108.233 157.417C108.264 158.098 107.967 159.051 108.722 159.311C109.261 159.497 109.663 158.63 110.084 158.178C110.499 157.739 110.926 157.312 111.353 156.878C112.288 155.925 113.39 155.82 114.238 156.785C115.253 157.949 116.367 157.596 117.581 157.33C119.023 157.008 120.255 155.937 121.84 156.142C121.629 157.089 121.419 158.036 121.183 159.082C123.579 159.15 124.823 157.578 125.993 155.913C126.148 155.69 126.272 155.448 126.396 155.207C127.095 153.851 127.052 153.901 128.29 154.873C130.555 156.655 132.926 158.221 135.922 158.574C138.485 158.871 140.565 158.011 142.453 156.377C143.332 155.615 144.112 154.78 144.855 153.895C144.595 157.219 143.716 160.407 142.781 163.588C142.725 163.774 142.688 163.966 142.639 164.152C142.292 165.223 141.945 166.294 141.593 167.364C140.695 168.844 140.268 168.968 138.764 168.144C137.513 167.463 136.442 166.554 135.545 165.445C134.858 164.604 134.399 163.675 134.424 162.555C134.424 162.437 134.418 162.319 134.406 162.202C134.338 161.44 134.071 160.772 133.236 160.66C132.381 160.549 131.911 161.174 131.738 161.88C131.391 163.285 130.945 164.659 130.512 166.04C129.472 169.333 127.231 170.806 123.988 170.528C122.564 170.404 121.121 170.113 119.76 169.611C118.961 169.314 118.119 169.079 117.494 168.435C117.327 167.829 117.735 167.395 117.958 166.906C118.695 165.266 119.351 163.588 119.952 161.892C120.094 161.49 120.137 161.057 120.106 160.45C118.744 161.409 117.253 161.187 115.792 161.211C115.074 161.224 114.38 161.149 113.755 160.759C113.08 160.339 112.517 160.431 111.991 161.038C111.657 161.422 111.291 161.781 110.901 162.109C109.583 163.242 108.382 163.427 106.927 162.48C106.085 161.936 105.615 162.158 105.039 162.784C103.919 163.997 102.576 164.857 100.886 164.956C99.0719 165.068 97.6544 164.183 96.4101 162.976C95.2278 161.83 95.1907 161.781 94.0455 163C91.2413 165.978 86.3882 165.297 84.104 162.926C82.1293 160.877 82.4079 160.982 80.5137 162.839C79.2075 164.121 76.5953 164.498 74.9053 163.663C73.7787 163.106 72.7325 162.425 72.0949 161.267C71.705 160.561 71.2902 160.394 70.5288 160.939C68.8822 162.121 67.1923 163.236 65.1557 163.725C63.5958 164.102 62.0606 164.164 60.5254 163.774C58.5631 163.279 56.5328 162.963 54.7747 161.849C54.3786 161.601 53.9081 161.453 53.741 160.951C53.6234 160.289 52.7196 159.596 53.8153 158.983L53.8029 159.014Z" fill="#7AE828"/>
<path d="M122.302 154.992C122.234 153.507 122.705 152.083 122.94 150.653C123.2 149.093 123.138 147.583 123.2 145.917C122.117 146.605 121.126 147.131 119.981 147.211C118.712 147.298 117.536 146.889 116.496 146.264C115.877 145.887 115.58 146.091 115.227 146.481C114.286 147.527 113.259 148.35 111.847 148.802C109.885 149.434 108.381 148.821 107.124 147.477C106.369 146.673 106.047 146.648 105.329 147.533C104.165 148.969 102.927 150.381 100.872 150.678C99.2625 150.907 97.7892 150.647 96.4273 149.83C95.5173 149.279 94.8179 148.449 94.1865 147.62C93.3322 146.499 93.4375 146.499 92.6142 147.682C91.6423 149.074 90.5033 150.282 88.9743 151.154C86.7087 152.448 84.6597 151.891 82.6789 150.647C81.4841 149.898 80.5866 148.814 79.8747 147.576C79.658 147.205 79.4414 146.481 78.7914 147.502C77.9309 148.852 76.8291 150.17 75.4239 150.962C73.5297 152.027 71.4746 151.78 69.5494 150.839C67.8038 149.984 66.5781 148.567 65.5505 146.871C64.3187 148.072 63.0125 149.136 61.4959 149.885C59.2303 151.012 54.5876 150.987 52.9534 149.186C52.5696 148.765 51.8268 148.455 52.3839 147.719C52.8668 147.094 53.3806 147.31 54.0863 147.576C57.2185 148.746 59.8432 148.579 62.9135 145.719C63.8482 144.847 64.6529 143.844 64.9129 142.488C65.0491 141.751 65.6743 141.529 66.4233 141.584C67.2838 141.646 67.3271 142.265 67.2714 142.847C67.0486 145.218 67.9585 147.075 69.9703 148.251C71.7407 149.291 73.2635 149.799 74.9225 147.849C76.0244 146.549 77.0643 145.23 77.9062 143.763C78.2528 143.15 78.5562 142.593 79.3238 142.624C80.1409 142.655 80.4999 143.287 80.9023 143.912C81.6513 145.082 82.2146 146.357 83.1927 147.403C84.4802 148.79 86.8882 149.266 88.5038 147.502C89.8224 146.06 90.9861 144.568 91.6609 142.742C92.0199 141.77 92.6637 141.467 93.6232 141.541C94.5022 141.609 94.7436 142.172 95.0469 142.921C95.7464 144.661 96.3654 146.493 98.2472 147.428C99.2439 147.923 100.723 147.843 101.553 147.112C102.964 145.88 103.905 144.302 104.821 142.705C105.026 142.346 105.193 141.95 105.453 141.634C105.942 141.04 106.443 140.396 107.372 140.674C108.282 140.947 108.282 141.826 108.529 142.513C108.641 142.829 108.554 143.212 108.566 143.565C108.653 145.521 110.201 146.351 111.798 145.237C112.763 144.562 113.519 143.633 113.729 142.432C113.847 141.764 114.045 141.244 114.769 141.114C115.537 140.978 116.211 141.083 116.669 141.838C117.493 143.2 118.724 143.813 120.266 143.423C121.126 143.206 121.931 142.736 122.711 142.284C123.02 142.104 123.299 142.148 123.596 142.117C123.701 142.822 123.578 143.522 123.528 144.221C123.497 144.704 123.02 145.422 124.06 145.527C124.259 145.546 124.16 145.862 124.16 146.047C124.16 147.651 124.178 149.26 124.135 150.863C124.091 152.473 123.578 153.903 122.321 154.999L122.302 154.992Z" fill="#7AE828"/>
<path d="M117.605 168.4C119.394 169.155 121.214 169.756 123.139 170.096C126.729 170.728 129.329 169.143 130.283 165.633C130.617 164.395 131.063 163.2 131.335 161.937C131.607 160.669 132.424 159.994 133.303 160.192C134.479 160.464 134.882 161.399 134.709 162.427C134.35 164.544 137.507 167.577 139.952 168.332C140.719 168.567 140.93 167.533 141.567 167.373C141.487 169.025 141.196 170.641 140.571 172.182C138.057 172.102 136.225 170.697 134.51 169.075C133.551 168.171 133.638 168.196 133.043 169.329C131.539 172.188 129.335 174.027 125.918 174.163C122.805 174.293 119.902 173.662 117.141 172.232C115.822 171.551 115.81 171.588 116.565 170.232C116.788 169.83 116.961 169.391 117.153 168.97C117.116 168.629 117.295 168.462 117.605 168.406V168.4Z" fill="#FDFDFD"/>
<path d="M117.612 168.398C117.464 168.584 117.309 168.776 117.16 168.962C115.811 168.621 114.888 169.673 113.756 170.039C112.165 170.546 110.679 171.388 108.915 171.252C107.621 171.153 106.829 170.41 106.785 169.079C106.767 168.572 106.792 168.058 106.742 167.556C106.686 167.012 106.334 166.634 105.807 166.572C105.294 166.51 104.687 166.356 104.377 167.024C103.721 168.46 102.712 169.624 101.555 170.676C100.484 171.654 99.1962 171.883 97.8096 171.698C97.2215 171.617 96.8315 171.295 96.8377 170.639C96.8377 170.169 96.8315 169.698 96.8377 169.228C96.8563 168.299 96.2373 167.742 95.5006 167.637C94.8197 167.538 94.2873 168.12 94.0274 168.832C93.5878 169.995 93.3402 171.246 92.5974 172.28C91.5079 173.802 90.2018 175.139 88.289 175.492C85.8872 175.938 84.4759 174.378 83.244 172.657C82.8107 172.057 82.5879 171.302 82.2164 170.652C81.8946 170.101 81.5108 169.451 80.8175 169.482C80.2541 169.506 79.7218 169.803 79.3504 170.41C78.2795 172.143 76.5957 173.295 74.9677 174.415C73.6925 175.294 71.5692 174.013 71.4331 172.434C71.3712 171.698 71.4331 170.949 71.4269 170.206C71.4269 169.469 71.0431 169.03 70.325 168.955C69.6441 168.881 69.2789 169.284 69.0808 169.896C68.1584 172.762 66.0785 174.7 63.8067 176.495C63.4105 176.805 62.7915 177.096 63.1629 177.764C63.5591 178.47 64.2339 178.47 64.8714 178.166C66.3509 177.455 67.5704 176.396 68.6661 175.177C69.1613 174.626 69.4708 174.236 70.2507 175.226C71.7983 177.188 74.6644 178.241 77.0909 176.204C77.8957 175.529 78.849 175.022 79.5113 174.174C80.0499 173.48 80.4275 173.765 80.8113 174.372C81.9441 176.136 83.2812 177.671 85.3487 178.42C87.2924 179.126 89.2423 179.157 91.0189 178.142C92.6036 177.238 94.0831 176.093 95.0116 174.434C95.3026 173.914 95.7978 173.932 96.0949 174.161C96.652 174.589 97.2958 174.428 97.8529 174.632C100.261 175.523 102.062 174.199 103.826 172.973C104.495 172.509 104.73 172.267 105.355 173.022C106.228 174.069 107.411 174.619 108.865 174.619C110.654 174.619 112.412 174.675 114.016 173.685C114.183 173.58 114.467 173.542 114.672 173.771C112.635 178.303 109.02 181.546 105.597 184.957C104.613 185.941 103.313 186.529 102.452 187.65C101.159 188.337 99.8647 189.018 98.571 189.705C96.4168 190.838 94.3307 192.274 91.9722 192.769C89.7066 193.246 87.28 193.302 84.9463 192.608C84.544 192.491 84.1045 192.491 83.6835 192.441C80.9103 191.995 78.298 190.968 75.5929 190.262C74.9306 190.089 74.2063 189.959 73.7792 189.309C73.1416 189.191 72.6959 188.585 71.9964 188.609C71.1731 187.792 70.1765 187.26 69.1179 186.814C67.4218 186.338 66.419 184.945 65.4409 183.707C64.11 182.011 62.6739 180.358 61.634 178.445C61.1635 177.318 60.3835 176.322 60.1854 175.078C59.9502 173.394 58.7184 172.205 58.0375 170.744C56.9232 168.343 55.1157 166.325 54.2429 163.787C54.02 163.149 53.7848 162.511 53.5496 161.874C53.3267 160.982 53.37 160.896 53.9952 160.945C54.8062 161.923 56.0195 162.295 57.1089 162.61C58.7927 163.099 60.495 163.619 62.2839 163.731C64.8591 163.892 67.0566 162.957 69.1117 161.552C69.1736 161.509 69.2417 161.465 69.3036 161.422C69.9722 160.945 70.6222 160.116 71.3093 160.079C72.1202 160.042 72.2626 161.261 72.8135 161.855C74.7263 163.898 78.3228 164.808 80.8546 162.276C82.2783 160.852 82.3216 160.896 83.7702 162.326C85.6582 164.189 87.93 165.043 90.5546 164.659C92.1579 164.424 93.3279 163.291 94.3678 162.152C95.0364 161.422 95.3149 161.255 96.0206 162.152C97.2525 163.725 98.8557 164.814 101.004 164.635C102.811 164.486 104.173 163.452 105.3 162.14C105.82 161.533 106.123 161.428 106.754 161.979C107.999 163.069 109.255 163.038 110.549 162.022C110.698 161.905 110.877 161.818 111.001 161.682C111.979 160.524 112.765 159.856 114.597 160.735C116.108 161.459 118.188 161.298 119.865 160.302C120.15 160.134 120.404 159.887 120.664 160.103C120.967 160.363 120.484 160.524 120.441 160.784C119.977 163.508 118.751 165.947 117.6 168.417L117.612 168.398Z" fill="#E500A0"/>
<path d="M54.0092 160.941C53.2911 160.978 53.7244 161.566 53.5634 161.87C53.2973 161.752 52.9135 161.987 52.7402 161.591C53.3716 161.597 53.4087 161.226 53.2911 160.743C53.1549 160.18 52.8454 159.66 52.8701 159.053C53.1611 158.688 53.4582 158.372 53.7925 159.016C53.1673 159.734 53.8234 160.31 54.0092 160.941Z" fill="#A49677"/>
<path d="M51.5755 145.912C51.5755 146.847 51.5755 147.776 51.5693 148.71C51.4641 148.834 51.4889 149.045 51.167 148.877C49.4089 147.98 47.9357 146.779 46.8586 145.12C46.4686 144.513 46.1467 144.402 45.6082 145.027C43.3178 147.683 40.3217 147.961 37.0904 147.54C33.8653 147.119 31.7297 145.324 30.3307 142.495C29.9779 140.149 30.0398 137.747 29.4084 135.432C29.8912 134.869 30.4236 134.485 31.2221 134.807C32.0887 135.154 31.9773 135.866 31.9525 136.577C31.8473 139.456 32.5901 142.118 35.1343 143.64C37.3566 144.971 39.9441 144.934 42.3274 143.814C43.8501 143.096 44.5435 141.697 44.6115 140.019C44.6363 139.474 44.593 138.917 44.6487 138.379C44.7292 137.605 45.1501 137.023 45.9548 136.974C46.7843 136.924 47.1743 137.549 47.3786 138.261C47.4405 138.484 47.459 138.732 47.4281 138.961C47.0752 141.938 48.9694 143.69 50.9379 145.398C51.1422 145.578 51.3589 145.739 51.5693 145.906L51.5755 145.912Z" fill="#FDFDFC"/>
<path d="M70.9269 101.904C71.3293 103.755 72.753 104.782 74.152 105.797C75.4272 106.726 76.9995 106.862 78.4728 107.141C79.8223 107.394 81.0789 106.744 82.2302 106.039C83.5859 105.203 84.793 104.194 85.672 102.832C85.8268 102.597 86.1115 102.448 86.3344 102.257C86.5324 102.529 86.811 102.708 86.9534 103.061C88.08 105.934 90.5685 108.174 94.1712 108.292C98.4734 108.441 100.906 105.822 103.395 103.055C103.723 102.696 104.026 102.312 104.292 101.904C105.314 100.331 105.326 100.313 106.552 101.662C107.034 102.195 107.443 102.807 107.827 103.414C108.811 104.986 110.507 105.903 111.504 107.456C111.708 107.778 111.98 107.902 111.479 108.311C109.671 109.778 108.576 111.839 107.257 113.708C106.805 114.346 106.391 115.213 105.493 114.742C104.725 114.34 104.719 113.566 105.184 112.743C105.567 112.068 104.93 110.855 104.181 110.539C103.265 110.155 101.952 110.638 101.606 111.468C100.646 113.783 98.9624 115.658 97.6872 117.788C97.4272 118.221 96.8701 118.128 96.5049 118.011C94.6045 117.392 92.6917 116.76 91.3051 115.194C90.649 114.457 90.2899 113.523 89.9123 112.638C89.5223 111.721 88.8971 111.344 88.0181 111.542C87.1391 111.74 86.6996 112.409 86.5015 113.325C86.0125 115.603 85.3501 117.806 83.5983 119.515C82.1003 120.976 80.6889 120.549 79.4942 119.651C77.7423 118.339 76.4053 116.692 76.0896 114.389C75.9905 113.678 75.5448 113.009 74.7463 112.873C73.9416 112.737 73.1863 112.706 72.6478 113.647C71.6821 115.343 70.7412 117.051 69.5465 118.624C67.7761 120.957 65.3743 121.186 63.251 119.119C61.6478 117.553 60.6264 115.572 59.2955 113.808C59.0726 113.51 59.1407 113.17 59.3264 112.935C61.4621 110.217 63.251 107.24 65.7209 104.776C66.7485 103.755 68.0485 103.148 69.1751 102.281C69.6703 101.743 70.2274 101.508 70.9269 101.885V101.904Z" fill="#E500A0"/>
<path d="M70.9125 101.903C70.3306 102.033 69.7425 102.17 69.1606 102.299C68.4612 101.47 67.8916 100.195 67.0188 99.9286C66.1274 99.6563 65.4156 101.037 64.5861 101.637C62.7414 102.98 60.6801 103.154 58.563 102.937C55.7898 102.652 53.2146 101.866 51.5742 99.3406C51.11 98.6287 50.8685 97.5949 50.231 97.2359C49.5624 96.8583 48.8258 97.8735 47.9592 97.9663C45.8731 98.1892 43.8984 97.9663 42.1156 96.815C40.8033 95.9669 40.0542 94.7846 40.1223 93.107C40.2028 91.1014 40.4566 89.1329 41.0509 87.2201C41.1685 86.8487 41.1375 86.0007 41.8742 86.1678C42.5427 86.3164 42.2827 86.9973 42.2642 87.4615C42.1961 88.9101 42.0289 90.3524 41.9918 91.7947C41.9299 94.1037 42.4808 94.9208 44.3007 95.4469C46.7459 96.1588 48.7329 95.5893 49.7481 93.7941C50.1319 93.1256 50.6147 92.7666 51.3452 92.8904C52.0694 93.008 52.4532 93.528 52.6204 94.2398C53.4746 97.8921 55.1212 99.1177 58.8106 99.3468C61.1567 99.4891 62.9952 98.8144 64.4932 97.0626C64.747 96.7716 65.0503 96.524 65.3227 96.2455C67.056 94.4441 67.8421 94.5927 69.1173 96.7035C70.1635 98.4368 71.482 99.9658 73.4691 100.721C73.5681 100.981 73.5557 100.993 73.11 101.08C72.3796 101.359 71.6491 101.631 70.9186 101.91L70.9125 101.903Z" fill="#FDFDFC"/>
<path d="M101.398 97.8427C101.795 98.0717 102.191 98.3007 102.587 98.5298C100.977 99.9907 99.3247 101.408 97.7771 102.937C96.1553 104.54 94.2487 104.485 92.3607 103.872C91.2836 103.519 90.7079 102.355 90.287 101.303C89.7175 99.8669 89.2718 98.375 88.7703 96.9079C88.6837 96.7346 88.7084 96.586 88.8508 96.4561C89.148 96.4561 89.4451 96.4561 89.7422 96.4623C90.3241 96.8894 91.0793 96.4375 91.6674 96.8398C94.2611 96.7718 96.83 97.1927 99.4051 97.366C100.098 97.4093 100.656 98.0098 101.392 97.8365L101.398 97.8427Z" fill="#E501A0"/>
<path d="M73.1077 101.082C73.2253 100.964 73.3491 100.846 73.4667 100.723C74.8038 100.419 75.8314 99.4165 77.1375 99.0513C78.326 98.717 79.1803 97.7699 80.3193 97.3923C81.9907 96.829 83.7301 96.5938 85.4757 96.4142C85.9586 96.2471 86.1938 96.3585 86.0638 96.9156C84.4605 98.7418 82.9377 100.661 81.223 102.375C79.5888 104.016 76.9209 103.898 75.2 102.747C74.4633 102.252 73.6277 101.855 73.1077 101.082Z" fill="#E401A1"/>
<path d="M86.0571 96.9091C86.0571 96.5129 85.7538 96.4696 85.469 96.4077C86.1375 95.5287 87.0352 95.8753 87.778 96.1477C88.1308 96.2777 88.496 96.352 88.8489 96.4634C88.8241 96.612 88.7932 96.7667 88.7684 96.9153C87.8646 96.9153 86.9609 96.9153 86.0571 96.9153V96.9091Z" fill="#B57A87"/>
<path d="M91.6885 96.8535C91.0261 96.8226 90.2833 97.2187 89.7633 96.4759C90.4009 96.4759 91.0385 96.4388 91.6699 96.4883C92.227 96.5316 91.6885 96.7297 91.6885 96.8535Z" fill="#B57A87"/>
<path d="M99.4132 131.635C98.429 134.08 97.1724 136.173 95.012 137.627C93.3468 138.754 91.6569 139.008 89.6946 138.494C87.3175 137.869 85.7886 136.346 84.5753 134.353C84.3029 133.907 83.9934 133.975 83.6963 134.557C83.0587 135.832 82.1487 136.81 80.9602 137.634C79.0722 138.946 77.1223 138.531 75.16 138.092C74.3181 137.906 73.47 137.547 72.8944 136.86C72.1701 135.993 71.7925 136.55 71.483 137.163C70.833 138.444 69.9168 139.503 68.685 140.172C66.927 141.125 65.1132 140.828 63.3862 140.004C60.5139 138.636 58.7373 136.111 56.8926 133.684C56.2179 132.793 55.6979 131.771 55.1656 130.781C54.7694 130.038 54.5404 129.048 55.2522 128.553C55.9827 128.045 56.806 128.423 57.3878 129.271C58.7621 131.27 60.3468 133.109 62.0986 134.786C62.9219 135.572 63.838 136.253 64.8532 136.773C66.1532 137.435 67.6698 136.674 68.5921 135.096C69.4402 133.641 69.8735 132.05 70.4244 130.49C70.6906 129.722 71.4396 129.5 71.9534 129.555C72.6158 129.623 73.2038 130.119 73.3648 130.979C73.6805 132.669 74.3366 134.124 76.1504 134.805C77.5184 135.318 79.4498 134.842 80.3536 133.653C81.1397 132.619 81.6473 131.443 82.2106 130.298C82.5758 129.549 82.9596 128.893 83.9563 128.887C84.8848 128.887 85.2934 129.339 85.6214 130.174C86.0362 131.221 86.5376 132.267 87.2061 133.164C89.7441 136.594 92.9754 136.315 95.3772 132.669C96.411 131.097 97.03 129.295 97.7914 127.581C98.1195 126.838 98.5157 126.114 99.469 126.12C100.36 126.12 100.775 126.757 101.116 127.488C101.784 128.918 102.36 130.41 103.468 131.586C104.334 132.502 104.916 132.434 105.789 131.487C107.256 129.89 107.739 127.909 108.08 125.872C108.247 124.888 108.835 124.374 109.739 124.281C110.525 124.195 111.286 125.098 111.404 126.015C111.521 126.918 111.212 127.822 111.757 128.732C112.79 130.478 113.545 130.707 115.161 129.531C116.244 128.744 117.216 127.834 118.095 126.832C118.696 126.145 119.47 125.736 120.237 126.231C120.924 126.677 120.763 127.42 120.528 128.268C119.723 131.19 117.73 132.91 115.081 133.901C113.496 134.489 111.806 134.068 110.543 132.96C109.658 132.186 109.491 132.502 108.971 133.263C108.284 134.266 107.473 135.145 106.192 135.622C104.483 136.259 103.214 135.597 101.951 134.699C101.147 134.13 100.509 133.387 100.082 132.471C99.9518 132.186 99.6609 131.976 99.3885 131.66L99.4132 131.635Z" fill="#7AE828"/>
<path d="M64.389 160.927C64.3395 161.125 64.2591 161.329 64.03 161.329C62.6991 161.335 61.3682 161.329 60.0373 161.317C59.8083 161.317 59.7216 161.119 59.6597 160.921C61.2382 160.921 62.8105 160.921 64.389 160.921V160.927Z" fill="#AB8460"/>
</g>
<path d="M164.914 154.888C162.858 137.729 162.1 120.5 162.572 103.237C162.817 94.2694 162.834 85.2986 163.072 76.331C163.401 64.0293 163.731 51.7275 164.52 39.4492C165.159 29.4734 166.933 19.5849 167.001 9.55527C167.015 7.53186 166.96 5.52863 166.535 3.55227C166.155 1.79776 165.149 1.31376 163.493 2.07001C163.085 2.25824 162.779 2.35907 162.372 2.15404C160.383 1.15914 158.204 1.10873 156.066 1.06839C147.171 0.907058 138.273 0.775973 129.374 0.742362C112.509 0.675139 95.6429 0.772612 78.7806 0.631444C67.6116 0.537332 56.463 0.705389 45.3347 1.72381C37.0616 2.48007 28.8225 3.71025 20.4747 3.47161C15.4578 3.46489 10.4817 3.76067 5.62795 5.16898C3.76871 5.71013 2.37853 6.14035 1.56277 8.52004C0.369734 12.0089 -0.174101 15.4238 0.0638269 18.99C0.488699 25.4165 0.859186 31.843 1.18889 38.2729C1.90947 52.2821 2.60286 66.2947 3.17389 80.3106C3.456 87.2043 3.66334 94.1048 4.05422 100.992C4.58446 110.349 5.26426 119.7 5.22007 129.081C5.18268 137.305 4.7986 145.517 4.24796 153.721C4.1256 155.55 3.85368 157.405 4.63884 159.17C4.99234 159.96 4.33634 160.003 3.90127 160.218C3.07532 160.622 2.00804 160.914 2.17119 162.08C2.33094 163.23 3.50019 163.196 4.34313 163.492C4.66944 163.606 5.02293 163.637 5.36622 163.707C10.3457 164.756 15.4 164.897 20.4645 164.917C38.5538 164.991 56.6431 165.048 74.7325 165.102C85.8981 165.136 97.0671 165.139 108.229 165.579C123.742 166.191 139.252 166.884 154.765 167.559C157.776 167.69 160.557 167.441 163.109 165.428C165.21 163.771 166.209 162.228 165.733 159.637C165.441 158.054 165.104 156.474 164.914 154.881V154.888ZM160.879 11.6022C159.088 21.4537 158.242 31.4262 156.977 41.3449C155.91 49.731 155.03 58.1338 154.333 66.5568C152.943 83.3794 153.242 100.232 153.283 117.085C153.3 124.563 153.388 132.039 153.677 139.51C153.905 145.426 154.166 151.352 155.655 157.133C155.992 158.434 155.744 158.965 154.241 158.995C152.375 159.035 150.523 159.008 148.667 158.847C136.737 157.825 124.799 156.908 112.869 155.913C99.8883 154.834 86.8566 154.531 73.8215 155.251C68.3662 155.553 62.887 155.435 57.4283 155.694C43.4313 156.356 29.4377 157.089 15.4884 158.464C13.9418 158.615 13.8161 158.36 13.9622 156.82C14.5944 150.122 14.7848 143.389 14.8528 136.66C14.9819 124.167 14.0404 111.724 13.1839 99.2708C12.6264 91.1839 12.3953 83.0735 12.035 74.9731C11.464 62.1101 11.0289 49.2571 9.43479 36.4377C8.35732 27.7525 6.80739 19.1749 5.20307 10.5939C4.94475 9.21243 5.28805 9.08135 6.53207 9.16874C8.4389 9.29982 10.3627 9.20235 12.2763 9.20235C15.1247 8.96371 17.9696 8.96707 20.8044 9.36705C27.6533 10.3317 34.5158 9.51494 41.3681 9.42755C53.5229 9.2763 65.681 9.14521 77.8357 9.4746C91.0407 9.83088 104.239 9.65947 117.434 9.0074C125.873 8.59062 134.293 8.91665 142.709 9.56199C145.431 9.77038 148.184 9.90483 150.9 9.74013C154.095 9.54519 157.117 10.5199 160.244 10.6745C160.91 10.7081 160.975 11.0476 160.876 11.5921L160.879 11.6022Z" fill="#F5F4F4"/>
<path d="M164.975 154.97C162.918 137.812 162.16 120.582 162.633 103.32C162.878 94.3521 162.895 85.3812 163.133 76.4137C163.462 64.1119 163.792 51.8101 164.581 39.5319C165.22 29.556 166.994 19.6676 167.062 9.63791C167.075 7.61451 167.021 5.61127 166.596 3.63492C166.215 1.8804 165.209 1.3964 163.554 2.15265C163.146 2.34088 162.84 2.44171 162.432 2.23668C160.444 1.24178 158.265 1.19137 156.127 1.15103C147.232 0.989699 138.334 0.858615 129.435 0.825003C112.57 0.75778 95.7038 0.855254 78.8415 0.714086C67.6725 0.619974 56.5238 0.788031 45.3956 1.80646C37.1225 2.56271 28.8834 3.79289 20.5355 3.55425C15.5186 3.54753 10.5425 3.84331 5.6888 5.25163C3.82956 5.79277 2.43938 6.22299 1.62363 8.60268C0.430587 12.0915 -0.113249 15.5065 0.124679 19.0726C0.549551 25.4991 0.920039 31.9256 1.24974 38.3555C1.97032 52.3647 2.66371 66.3773 3.23474 80.3933C3.51685 87.287 3.72419 94.1874 4.11507 101.074C4.64531 110.432 5.32511 119.782 5.28092 129.163C5.24353 137.388 4.85945 145.599 4.30881 153.804C4.18645 155.632 3.91453 157.488 4.6997 159.252C5.05319 160.042 4.39719 160.086 3.96212 160.301C3.13617 160.704 2.06889 160.997 2.23204 162.163C2.39179 163.313 3.56104 163.279 4.40399 163.575C4.73029 163.689 5.08378 163.719 5.42708 163.79C10.4066 164.839 15.4608 164.98 20.5253 165C38.6146 165.074 56.704 165.131 74.7933 165.185C85.9589 165.218 97.128 165.222 108.29 165.662C123.803 166.274 139.313 166.966 154.826 167.642C157.837 167.773 160.617 167.524 163.17 165.511C165.271 163.854 166.27 162.311 165.794 159.72C165.502 158.136 165.165 156.557 164.975 154.964V154.97ZM160.94 11.6848C159.149 21.5363 158.303 31.5089 157.038 41.4276C155.971 49.8136 155.091 58.2165 154.394 66.6395C153.004 83.462 153.303 100.315 153.344 117.168C153.361 124.646 153.449 132.121 153.738 139.593C153.966 145.509 154.227 151.434 155.716 157.215C156.053 158.516 155.804 159.047 154.302 159.078C152.436 159.118 150.584 159.091 148.728 158.93C136.797 157.908 124.86 156.99 112.93 155.995C99.9491 154.916 86.9174 154.614 73.8824 155.333C68.427 155.636 62.9479 155.518 57.4891 155.777C43.4922 156.439 29.4986 157.172 15.5492 158.546C14.0027 158.698 13.8769 158.442 14.0231 156.903C14.6553 150.204 14.8456 143.472 14.9136 136.743C15.0428 124.249 14.1013 111.806 13.2447 99.3535C12.6873 91.2666 12.4562 83.1561 12.0959 75.0558C11.5248 62.1927 11.0898 49.3397 9.49565 36.5203C8.41817 27.8351 6.86824 19.2575 5.26393 10.6765C5.0056 9.29508 5.3489 9.16399 6.59292 9.25138C8.49975 9.38247 10.4236 9.28499 12.3372 9.28499C15.1855 9.04635 18.0305 9.04971 20.8652 9.44969C27.7141 10.4143 34.5767 9.59758 41.429 9.51019C53.5837 9.35894 65.7419 9.22785 77.8966 9.55725C91.1016 9.91353 104.3 9.74211 117.495 9.09005C125.934 8.67326 134.354 8.9993 142.769 9.64463C145.492 9.85303 148.245 9.98747 150.961 9.82277C154.156 9.62783 157.178 10.6026 160.305 10.7572C160.971 10.7908 161.035 11.1303 160.937 11.6748L160.94 11.6848Z" fill=""/>
<defs>
<clipPath id="clip0_1218_2173">
<rect width="156.301" height="155.633" fill="white" transform="translate(5.35519 6.54163)"/>
</clipPath>
</defs>
</svg>
